<svg width="163" height="42" viewBox="0 0 163 42" fill="none" xmlns="http://www.w3.org/2000/svg">
<g clip-path="url(#clip0_1772_2834)">
<path fill-rule="evenodd" clip-rule="evenodd" d="M1.00999 11.5889C0.715287 11.591 0.456523 11.4337 0.38105 11.2074C0.305577 10.981 0.431764 10.7425 0.688532 10.6277L9.74328 6.51166C9.89463 6.44335 10.0691 6.42556 10.2345 6.46154C10.3998 6.49751 10.5407 6.58442 10.6254 6.70285C10.6667 6.75773 10.694 6.82206 10.705 6.89015C10.7159 6.95825 10.7101 7.02802 10.6881 7.09332C10.643 7.22509 10.5336 7.33706 10.3846 7.40456L1.33025 11.521C1.22945 11.5664 1.12029 11.5895 1.00999 11.5889Z" fill="white"/>
<path fill-rule="evenodd" clip-rule="evenodd" d="M19.1196 11.5893C19.007 11.5897 18.8964 11.5663 18.7989 11.5214L9.74416 7.40536C9.59521 7.33785 9.4858 7.22589 9.44067 7.09412C9.39555 6.96234 9.41831 6.82168 9.50337 6.70365C9.58843 6.58562 9.72899 6.4979 9.89431 6.46233C10.0596 6.42676 10.2337 6.44414 10.3855 6.51246L19.4402 10.6285C19.697 10.7433 19.8236 10.9818 19.7477 11.2078C19.6718 11.4337 19.4139 11.5914 19.1192 11.5893" fill="white"/>
<path fill-rule="evenodd" clip-rule="evenodd" d="M19.1194 11.5889C18.8247 11.591 18.5659 11.4337 18.4904 11.2074C18.415 10.981 18.5411 10.7425 18.7979 10.6277L27.8527 6.51166C28.004 6.44335 28.1785 6.42556 28.3438 6.46154C28.5092 6.49751 28.6501 6.58442 28.7348 6.70285C28.8194 6.82128 28.8426 6.96195 28.7975 7.09332C28.7523 7.22469 28.6429 7.33706 28.494 7.40456L19.4396 11.5214C19.3388 11.5668 19.2297 11.5899 19.1194 11.5894" fill="white"/>
<path fill-rule="evenodd" clip-rule="evenodd" d="M37.2291 11.5893C37.1165 11.5897 37.0059 11.5663 36.9085 11.5214L27.8537 7.40536C27.7048 7.33785 27.5954 7.22589 27.5502 7.09412C27.5051 6.96234 27.5279 6.82168 27.6129 6.70365C27.698 6.58562 27.8386 6.4979 28.0039 6.46233C28.1692 6.42676 28.3433 6.44414 28.495 6.51246L37.5498 10.6285C37.8066 10.7433 37.9332 10.9818 37.8573 11.2078C37.7814 11.4337 37.5234 11.5914 37.2287 11.5893H37.2291ZM10.0649 15.1909C9.96505 15.1909 9.86681 15.1727 9.77577 15.1367L0.721413 11.5352C0.414729 11.4026 0.29533 11.1006 0.451068 10.8525C0.606806 10.6043 0.982174 10.4988 1.29964 10.6144L10.3544 14.2159C10.6219 14.323 10.7621 14.5623 10.693 14.7943C10.6239 15.0263 10.3644 15.19 10.0649 15.1913" fill="white"/>
<path fill-rule="evenodd" clip-rule="evenodd" d="M10.0653 15.1904C9.76498 15.1908 9.50382 15.0267 9.43474 14.7942C9.36565 14.5618 9.50662 14.3221 9.77576 14.2154L18.8305 10.6139C19.1504 10.487 19.5389 10.59 19.6983 10.8443C19.8576 11.0985 19.7282 11.4078 19.4087 11.5347L10.354 15.1362C10.2633 15.1718 10.1651 15.1904 10.0657 15.1904H10.0653ZM10.0649 23.4221C9.96505 23.4221 9.86681 23.4039 9.77576 23.3679L0.721413 19.7664C0.414729 19.6338 0.29533 19.3319 0.451068 19.0837C0.606806 18.8355 0.982173 18.73 1.29964 18.8456L10.3544 22.4472C10.6219 22.5543 10.7621 22.7936 10.693 23.0256C10.6239 23.2576 10.3644 23.4213 10.0649 23.4225" fill="white"/>
<path fill-rule="evenodd" clip-rule="evenodd" d="M10.0659 23.4224C9.76564 23.4228 9.50448 23.2587 9.43539 23.0263C9.36631 22.7939 9.50727 22.5542 9.77642 22.4475L18.8312 18.846C19.1466 18.7376 19.514 18.8444 19.6678 19.0889C19.8215 19.3334 19.7081 19.6309 19.4094 19.7668L10.3546 23.3683C10.264 23.4039 10.1658 23.4224 10.0663 23.4224H10.0659ZM28.175 15.1907C28.0752 15.1907 27.977 15.1725 27.8859 15.1365L18.8312 11.535C18.5245 11.4024 18.4051 11.1005 18.5608 10.8523C18.7166 10.6041 19.0919 10.4986 19.4094 10.6142L28.4641 14.2157C28.7317 14.3229 28.8719 14.5621 28.8028 14.7942C28.7337 15.0262 28.4741 15.1899 28.1746 15.1911" fill="white"/>
<path fill-rule="evenodd" clip-rule="evenodd" d="M28.1752 15.1904C27.875 15.1908 27.6138 15.0267 27.5447 14.7942C27.4756 14.5618 27.6166 14.3221 27.8857 14.2154L36.9405 10.6139C37.2603 10.487 37.6489 10.59 37.8082 10.8443C37.9675 11.0985 37.8382 11.4078 37.5187 11.5347L28.464 15.1362C28.3733 15.1718 28.2751 15.1904 28.1756 15.1904H28.1752ZM1.01019 19.821C0.653193 19.821 0.363281 19.5906 0.363281 19.3064V11.0747C0.363281 10.7905 0.652794 10.5601 1.01019 10.5601C1.36759 10.5601 1.6571 10.7905 1.6571 11.0747V19.3064C1.6571 19.5906 1.36759 19.821 1.01019 19.821ZM19.1193 19.821C18.7623 19.821 18.4724 19.5906 18.4724 19.3064V11.0747C18.4724 10.7905 18.7619 10.5601 19.1193 10.5601C19.4767 10.5601 19.7662 10.7905 19.7662 11.0747V19.3064C19.7662 19.5906 19.4767 19.821 19.1193 19.821ZM10.0649 23.4225C9.70794 23.4225 9.41803 23.1921 9.41803 22.908V14.6762C9.41803 14.392 9.70754 14.1616 10.0649 14.1616C10.4223 14.1616 10.7119 14.392 10.7119 14.6762V22.908C10.7119 23.1921 10.4223 23.4225 10.0649 23.4225Z" fill="white"/>
<path fill-rule="evenodd" clip-rule="evenodd" d="M28.1743 23.4229C27.874 23.4233 27.6129 23.2592 27.5438 23.0268C27.4747 22.7944 27.6157 22.5547 27.8848 22.448L36.9396 18.8465C37.257 18.7309 37.632 18.8364 37.7881 19.0845C37.9443 19.3327 37.8245 19.6347 37.5178 19.7673L28.463 23.3688C28.3724 23.4043 28.2742 23.4229 28.1747 23.4229H28.1743ZM19.1196 19.8214C18.7626 19.8214 18.4727 19.591 18.4727 19.3069V11.0751C18.4727 10.7909 18.7622 10.5605 19.1196 10.5605C19.477 10.5605 19.7665 10.7909 19.7665 11.0751V19.3069C19.7665 19.591 19.477 19.8214 19.1196 19.8214Z" fill="white"/>
<path fill-rule="evenodd" clip-rule="evenodd" d="M37.2294 19.8214C36.8724 19.8214 36.5825 19.591 36.5825 19.3069V11.0751C36.5825 10.7909 36.872 10.5605 37.2294 10.5605C37.5868 10.5605 37.8763 10.7909 37.8763 11.0751V19.3069C37.8763 19.591 37.5868 19.8214 37.2294 19.8214ZM28.1746 23.4229C27.8176 23.4229 27.5277 23.1925 27.5277 22.9084V14.6766C27.5277 14.3925 27.8172 14.1621 28.1746 14.1621C28.532 14.1621 28.8215 14.3925 28.8215 14.6766V22.9084C28.8215 23.1925 28.532 23.4229 28.1746 23.4229ZM10.0659 23.4229C9.76564 23.4233 9.50448 23.2592 9.43539 23.0268C9.36631 22.7944 9.50727 22.5547 9.77642 22.448L18.8312 18.8465C19.1466 18.7381 19.514 18.8448 19.6678 19.0894C19.8215 19.3339 19.7081 19.6314 19.4094 19.7673L10.355 23.3688C10.2644 23.4043 10.1662 23.4229 10.0667 23.4229" fill="white"/>
<path fill-rule="evenodd" clip-rule="evenodd" d="M28.1743 23.4221C28.0745 23.4221 27.9762 23.4039 27.8852 23.368L18.8309 19.7665C18.5242 19.6339 18.4048 19.3319 18.5605 19.0837C18.7162 18.8356 19.0916 18.7301 19.4091 18.8457L28.4638 22.4472C28.7314 22.5543 28.8715 22.7936 28.8025 23.0256C28.7334 23.2576 28.4738 23.4213 28.1743 23.4225V23.4221ZM19.1196 27.0241C19.0197 27.0241 18.9215 27.0059 18.8305 26.9699L9.7761 23.3684C9.46942 23.2358 9.35002 22.9339 9.50576 22.6857C9.66149 22.4375 10.0369 22.332 10.3543 22.4476L19.4087 26.0491C19.6762 26.1562 19.8164 26.3955 19.7473 26.6275C19.6782 26.8595 19.4187 27.0232 19.1192 27.0245" fill="white"/>
<path fill-rule="evenodd" clip-rule="evenodd" d="M19.1204 27.0243C18.8201 27.0247 18.5589 26.8606 18.4898 26.6282C18.4207 26.3958 18.5617 26.1561 18.8309 26.0494L27.8856 22.4479C28.2055 22.3209 28.594 22.424 28.7533 22.6783C28.9127 22.9325 28.7833 23.2417 28.4638 23.3687L19.4091 26.9702C19.3184 27.0058 19.2202 27.0243 19.1208 27.0243H19.1204ZM19.12 36.2852C19.0201 36.2852 18.9219 36.267 18.8309 36.231L9.7761 32.6295C9.46942 32.497 9.35002 32.195 9.50576 31.9468C9.66149 31.6986 10.0369 31.5931 10.3543 31.7087L19.4091 35.3103C19.6766 35.4174 19.8168 35.6567 19.7477 35.8887C19.6786 36.1207 19.4191 36.2844 19.1196 36.2856" fill="white"/>
<path fill-rule="evenodd" clip-rule="evenodd" d="M19.1193 36.2843C18.8122 36.2843 18.5479 36.1125 18.486 35.8732C18.4241 35.6339 18.5826 35.3934 18.8645 35.2968L27.9193 32.2098C28.1329 32.1302 28.3845 32.1492 28.5754 32.2599C28.7663 32.3707 28.8657 32.5558 28.8353 32.7418C28.805 32.9277 28.6489 33.0865 28.4288 33.1545L19.3741 36.2414C19.2921 36.2698 19.206 36.2843 19.1193 36.2843Z" fill="white"/>
<path fill-rule="evenodd" clip-rule="evenodd" d="M28.174 33.1977C27.817 33.1977 27.5271 32.9673 27.5271 32.6831V22.9081C27.5271 22.624 27.8166 22.3936 28.174 22.3936C28.5314 22.3936 28.8209 22.624 28.8209 22.9081V32.6835C28.8209 32.9677 28.5314 33.1981 28.174 33.1981V33.1977ZM10.0649 32.6835C9.70788 32.6835 9.41797 32.4531 9.41797 32.169V22.9081C9.41797 22.624 9.70748 22.3936 10.0649 22.3936C10.4223 22.3936 10.7118 22.624 10.7118 22.9081V32.169C10.7118 32.4531 10.4223 32.6835 10.0649 32.6835ZM19.1196 36.2851C18.7626 36.2851 18.4727 36.0547 18.4727 35.7705V26.5092C18.4727 26.2251 18.7622 25.9947 19.1196 25.9947C19.477 25.9947 19.7665 26.2251 19.7665 26.5092V35.7701C19.7665 36.0543 19.477 36.2847 19.1196 36.2847" fill="white"/>
<path d="M53.954 31.4149C52.3376 31.4149 50.8776 31.0077 49.5753 30.1932C48.2767 29.3788 47.2571 28.2592 46.5158 26.8353C45.7789 25.4064 45.4102 23.7989 45.4102 22.0128C45.4102 20.2267 45.7789 18.6192 46.5158 17.1903C47.2571 15.7614 48.2811 14.6397 49.5878 13.8252C50.8989 13.0108 52.3627 12.6035 53.9791 12.6035C55.2437 12.6035 56.3997 12.8443 57.4469 13.3251C58.4941 13.8059 59.3862 14.5204 60.1231 15.4684L58.6217 17.126C57.4073 15.6685 55.8908 14.9398 54.0733 14.9398C52.8716 14.9398 51.7847 15.247 50.8129 15.8614C49.841 16.4758 49.0834 17.321 48.5387 18.3977C47.9903 19.4744 47.7157 20.6789 47.7157 22.0128C47.7157 23.3417 47.9903 24.5441 48.5387 25.6208C49.0834 26.7017 49.841 27.5476 50.8129 28.157C51.7847 28.7715 52.8716 29.0787 54.0733 29.0787C55.8745 29.0787 57.3904 28.3428 58.6217 26.871L60.1231 28.5286C59.3862 29.4716 58.4897 30.1882 57.4343 30.6791C56.3789 31.1699 55.2186 31.4149 53.954 31.4149ZM75.1219 31.2077L73.3378 26.6067H64.7437L62.9658 31.2077H60.5849L67.9099 12.8178H70.1967L77.5469 31.2077H75.1219ZM65.5541 24.5062H72.5337L69.0407 15.497L65.5541 24.5062ZM79.9473 31.2077V12.8178H86.7635C88.4723 12.8178 89.9901 13.2015 91.3182 13.9681C92.6412 14.7397 93.6696 15.8235 94.4027 17.2189C95.1314 18.6099 95.4958 20.2074 95.4958 22.0128C95.4958 23.8182 95.1314 25.4157 94.4027 26.8067C93.6696 28.1978 92.6412 29.2787 91.3182 30.0503C89.9901 30.8219 88.4723 31.2077 86.7635 31.2077H79.9473ZM82.2592 28.9215H86.6253C87.9358 28.9215 89.088 28.6336 90.0806 28.057C91.0731 27.4762 91.8396 26.6639 92.3798 25.6208C92.9201 24.5827 93.1902 23.3795 93.1902 22.0128C93.1902 20.6461 92.9201 19.4408 92.3798 18.3977C91.8396 17.3546 91.0731 16.5451 90.0806 15.9686C89.088 15.392 87.9358 15.1041 86.6253 15.1041H82.2592V28.9215ZM101.343 28.9215H110.767V31.2077H99.0315V12.8178H110.446V15.1041H101.343V20.7482H109.454V22.9844H101.343V28.9215ZM126.108 12.8178H128.42V31.2077H126.529L116.823 17.4903V31.2077H114.511V12.8178H116.409L126.108 26.5281V12.8178ZM134.937 28.9215H145.359V31.2077H131.84V29.4216L142.004 15.1041H132.003V12.8178H145.058V14.604L134.937 28.9215ZM160.539 31.2077L158.755 26.6067H150.161L148.383 31.2077H146.002L153.327 12.8178H155.614L162.964 31.2077H160.539ZM150.971 24.5062H157.951L154.458 15.497L150.971 24.5062Z" fill="white"/>
</g>
<defs>
<clipPath id="clip0_1772_2834">
<rect width="162.526" height="40.4211" fill="white" transform="translate(0.316406 0.789062)"/>
</clipPath>
</defs>
</svg>
