<svg xmlns="http://www.w3.org/2000/svg" fill="none" viewBox="0 0 60 88"><path fill="#414C58" d="M34 32a3 3 0 0 1 3-3 4 4 0 0 1 4 4v4h-7v-5Z"/><path fill="#414C58" d="M19 31a6 6 0 0 1 6-6h5a5 5 0 0 1 5 5v8H19v-7Z"/><path fill="#FFBCAB" d="M22 37a3 3 0 0 1 3-3h10a3 3 0 0 1 3 3v8a6 6 0 0 1-6 6h-4a6 6 0 0 1-6-6v-8Z"/><path fill="#DCA091" d="M22 37a3 3 0 0 1 3-3h10a3 3 0 0 1 3 3H22Z"/><rect width="2" height="4" x="25" y="39" fill="#090A0C" rx="1"/><rect width="2" height="4" x="33" y="39" fill="#090A0C" rx="1"/><path fill="#6046FF" d="M17 38a2 2 0 0 1 2-2h3v8h-3a2 2 0 0 1-2-2v-4Z"/><path stroke="#68798D" stroke-width="1.5" d="M40 43v2a2 2 0 0 1-2 2h-4.5"/><path fill="#FF9478" d="M45 66h4a4 4 0 0 1 0 8h-4v-8Z"/><path fill="#FFCD00" d="M45 54a5 5 0 0 1 5 5v7h-5V54Z"/><path fill="#D9785E" d="M47 66h2v8h-2z"/><path fill="#FF9478" d="M15 66h-4a4 4 0 0 0 0 8h4v-8Z"/><path fill="#FFCD00" d="M15 54a5 5 0 0 0-5 5v7h5V54Z"/><mask id="a" width="28" height="27" x="32" y="2" fill="#000" maskUnits="userSpaceOnUse"><path fill="#fff" d="M32 2h28v27H32z"/><path d="M54.2 3c1.68 0 2.52 0 3.162.327a3 3 0 0 1 1.31 1.31C59 5.28 59 6.12 59 7.8v10.4c0 1.68 0 2.52-.327 3.162a3 3 0 0 1-1.31 1.31C56.72 23 55.88 23 54.2 23H48l-5 5v-5h-5.2c-1.68 0-2.52 0-3.162-.327a3 3 0 0 1-1.31-1.31C33 20.72 33 19.88 33 18.2V7.8c0-1.68 0-2.52.327-3.162a3 3 0 0 1 1.31-1.31C35.28 3 36.12 3 37.8 3h16.4Z"/></mask><path fill="#9488F0" d="M54.2 3c1.68 0 2.52 0 3.162.327a3 3 0 0 1 1.31 1.31C59 5.28 59 6.12 59 7.8v10.4c0 1.68 0 2.52-.327 3.162a3 3 0 0 1-1.31 1.31C56.72 23 55.88 23 54.2 23H48l-5 5v-5h-5.2c-1.68 0-2.52 0-3.162-.327a3 3 0 0 1-1.31-1.31C33 20.72 33 19.88 33 18.2V7.8c0-1.68 0-2.52.327-3.162a3 3 0 0 1 1.31-1.31C35.28 3 36.12 3 37.8 3h16.4Z"/><path fill="#090A0C" d="M54.2 3V2v1Zm3.162.327.454-.89-.454.89Zm1.31 1.31.892-.453-.891.454ZM59 7.8h1-1Zm0 10.4h1-1Zm-.327 3.162.89.454-.89-.454Zm-1.31 1.31.453.892-.454-.891ZM54.2 23v1-1ZM48 23v-1a1 1 0 0 0-.707.293L48 23Zm-5 5h-1a1 1 0 0 0 1.707.707L43 28Zm0-5h1a1 1 0 0 0-1-1v1Zm-5.2 0v1-1Zm-3.162-.327-.454.89.454-.89Zm-1.31-1.31-.892.453.891-.454ZM33 18.2h-1 1Zm0-10.4h-1 1Zm.327-3.162-.89-.454.89.454Zm1.31-1.31-.453-.892.454.891ZM37.8 3V2v1Zm16.4 0v1c.857 0 1.439 0 1.89.038.438.035.662.1.818.18l.454-.89.454-.892c-.485-.247-1.002-.346-1.564-.392C55.702 2 55.024 2 54.2 2v1Zm3.162.327-.454.891a2 2 0 0 1 .874.874l.89-.454.892-.454a4 4 0 0 0-1.748-1.748l-.454.891Zm1.31 1.31-.89.455c.08.156.145.38.18.819C58 6.36 58 6.943 58 7.8h2c0-.824 0-1.502-.044-2.052-.046-.562-.145-1.079-.392-1.564l-.891.454ZM59 7.8h-1v10.4h2V7.8h-1Zm0 10.4h-1c0 .857 0 1.439-.038 1.89-.036.438-.1.662-.18.818l.89.454.892.454c.247-.485.346-1.002.392-1.564.045-.55.044-1.228.044-2.052h-1Zm-.327 3.162-.891-.454a2 2 0 0 1-.874.874l.454.89.454.892a4 4 0 0 0 1.748-1.748l-.891-.454Zm-1.31 1.31-.455-.89c-.156.08-.38.145-.819.18C55.64 22 55.057 22 54.2 22v2c.824 0 1.502 0 2.052-.044.562-.046 1.079-.145 1.564-.392l-.454-.891ZM54.2 23v-1H48v2h6.2v-1ZM48 23l-.707-.707-5 5L43 28l.707.707 5-5L48 23Zm-5 5h1v-5h-2v5h1Zm0-5v-1h-5.2v2H43v-1Zm-5.2 0v-1c-.857 0-1.439 0-1.89-.038-.438-.035-.662-.1-.818-.18l-.454.89-.454.892c.485.247 1.002.346 1.564.392.55.045 1.228.044 2.052.044v-1Zm-3.162-.327.454-.891a2 2 0 0 1-.874-.874l-.89.454-.892.454a4 4 0 0 0 1.748 1.748l.454-.891Zm-1.31-1.31.89-.455c-.08-.156-.145-.38-.18-.819C34 19.64 34 19.057 34 18.2h-2c0 .824 0 1.502.044 2.052.046.562.145 1.079.392 1.564l.891-.454ZM33 18.2h1V7.8h-2v10.4h1Zm0-10.4h1c0-.857 0-1.439.038-1.89.036-.438.1-.662.18-.818l-.89-.454-.892-.454c-.247.485-.346 1.002-.392 1.564C32 6.298 32 6.976 32 7.8h1Zm.327-3.162.891.454a2 2 0 0 1 .874-.874l-.454-.89-.454-.892a4 4 0 0 0-1.748 1.748l.891.454Zm1.31-1.31.455.89c.156-.08.38-.145.819-.18C36.36 4 36.943 4 37.8 4V2c-.824 0-1.502 0-2.052.044-.562.046-1.079.145-1.564.392l.454.891ZM37.8 3v1h16.4V2H37.8v1Z" mask="url(#a)"/><rect width="2" height="6" x="45" y="13" fill="#7D72D7" rx="1"/><rect width="2" height="6" x="45" y="12" fill="#fff" rx="1"/><circle cx="46" cy="10" r="1" fill="#7D72D7"/><circle cx="46" cy="9" r="1" fill="#fff"/><path fill="#CAD4E2" stroke="#090A0C" d="M41.2 50.5c.832 0 1.486 0 2.01.043.532.043.976.133 1.379.339l.241.135a3.5 3.5 0 0 1 1.288 1.394l.072.154c.156.362.23.76.267 1.224.043.525.043 1.18.043 2.01V74.5h-33V55.8c0-.832 0-1.486.043-2.01.043-.532.133-.976.339-1.379l.135-.241a3.5 3.5 0 0 1 1.394-1.288l.154-.072c.362-.156.76-.23 1.224-.267.525-.043 1.18-.043 2.01-.043H41.2Z"/><path fill="#ACB7C6" d="M44 51.184c.13.039.25.086.362.143a3 3 0 0 1 1.31 1.31C46 53.28 46 54.12 46 55.8V73H14v-3h17.2c4.48 0 6.72 0 8.432-.872a8 8 0 0 0 3.496-3.496C44 63.92 44 61.68 44 57.2v-6.016Z"/><path fill="#D9785E" d="M13 66h-2v8h2z"/><path fill="#57A4FF" stroke="#090A0C" d="M56.5 78.5v9h-53v-9h53Z"/><path fill="#9488F0" fill-rule="evenodd" d="M30.099 57c-.72 0-1.28.276-1.652.724-.36.434-.51.99-.51 1.52 0 .562.226 1.193.575 1.685.343.482.89.945 1.587.945.695 0 1.242-.46 1.585-.942.35-.493.577-1.124.577-1.688 0-.529-.144-1.086-.503-1.522-.37-.45-.934-.722-1.66-.722Zm-1.177 2.244c0-.365.105-.69.29-.914.174-.21.448-.367.887-.367.451 0 .722.158.892.363.181.22.284.545.284.918 0 .339-.146.782-.4 1.138-.26.366-.548.53-.776.53-.228 0-.516-.164-.777-.532-.254-.357-.4-.8-.4-1.136Z" clip-rule="evenodd"/><path fill="#9488F0" d="M26.81 64.049c-.999-.108-1.824.672-1.824 1.471 0 .795.641 1.516 1.848 1.516.433 0 .877-.185 1.364-.532.567-.403 1.037-.877 1.508-1.352.472-.475.945-.952 1.516-1.358.567-.403 1.214-.717 1.944-.717 1.665 0 2.834 1.072 2.834 2.48 0 1.402-1.367 2.595-2.919 2.427-.622-.067-1.353-.273-1.94-.831l.688-.69c.373.356.862.51 1.36.564 1 .109 1.825-.672 1.825-1.47 0-.796-.641-1.517-1.848-1.517-.433 0-.877.186-1.364.532-.567.403-1.037.877-1.508 1.352-.472.476-.945.952-1.516 1.359-.567.403-1.214.716-1.944.716C25.169 68 24 66.927 24 65.52c0-1.403 1.367-2.596 2.919-2.428.622.067 1.353.273 1.94.832l-.688.69c-.373-.356-.862-.511-1.36-.565Z"/><path fill="#2C7EE0" d="M11 81h38v1a3 3 0 0 1-3 3H14a3 3 0 0 1-3-3v-1Z"/><path fill="#1E579B" d="M4 79h52v2H4v-2Z"/><rect width="59" height="4" x=".5" y="74.5" fill="#1064C8" stroke="#090A0C" rx="1.5"/><path fill="#6046FF" d="M43 38a2 2 0 0 0-2-2h-3v8h3a2 2 0 0 0 2-2v-4Z"/><path fill="#090A0C" d="M27 47a2 2 0 0 1 2-2h2a2 2 0 1 1 0 4h-2a2 2 0 0 1-2-2Z"/></svg>