<svg width="411" height="239" viewBox="0 0 411 239" fill="none" xmlns="http://www.w3.org/2000/svg">
<path d="M114.216 106C114.216 106 108.112 115.82 101 116.664C102.65 122.579 105.92 126.339 105.92 126.339C105.92 126.339 120.749 122.1 123.609 114.749C120.39 111.417 114.216 106.006 114.216 106.006V106Z" fill="#6A7F74"/>
<path d="M374.613 90.1263L397.701 72.9678C397.701 72.9678 406.129 112.954 402.513 143.139C393.417 147.019 387.37 145.117 387.37 145.117L374.62 90.12L374.613 90.1263Z" fill="#BB7C3D"/>
<path d="M327.818 171.251C327.818 171.251 382.635 157.147 399.247 119.114C405.319 107.152 416.387 132.682 405.855 166.073C395.322 199.464 374.603 229.806 361.57 238.738H298.355L327.818 171.251Z" fill="#6941BA"/>
<path d="M331.989 183.452C331.989 183.452 331.794 210.462 323.561 238.739H299.371L331.989 183.452Z" fill="#5A37A1"/>
<path d="M380.98 156.908C381.151 157.739 392.817 163.572 402.222 159.768C403.293 155.006 401.019 149.651 401.019 149.651L380.98 156.914V156.908Z" fill="#5A37A1"/>
<path d="M100.508 238.739H307.034C307.034 238.739 401.569 101.225 300.325 54.2784C199.081 7.33826 120.685 138.565 100.508 238.739Z" fill="#8356DF"/>
<path d="M358.176 93.578C358.655 92.9859 388.167 71.5566 388.47 71.5566C404.602 97.5086 402.221 156.19 401.509 155.951C400.798 155.711 379.209 155.34 379.209 155.34L358.182 93.578H358.176Z" fill="#FFAD00"/>
<path d="M342.453 162.741C350.483 162.741 356.992 155.713 356.992 147.044C356.992 138.375 350.483 131.347 342.453 131.347C334.423 131.347 327.914 138.375 327.914 147.044C327.914 155.713 334.423 162.741 342.453 162.741Z" fill="#8356DF"/>
<path d="M236.731 120.361C236.731 120.361 161.573 166.42 130.504 238.739H307.032C307.032 238.739 330.516 197.26 321.489 151.315C250.678 186.784 236.731 120.368 236.731 120.368V120.361Z" fill="#AE8BEB"/>
<path d="M236.753 120.361C236.753 120.361 279.847 151.075 321.512 151.308C295.325 214.16 255.084 242.965 227.707 224.635C200.33 206.305 215.09 142.735 236.753 120.361Z" fill="#4C2634"/>
<path d="M236.75 120.361C233.115 124.116 229.682 129.029 226.602 134.685C233.865 151.315 256.839 188.265 312.822 169.966C315.852 164.133 318.762 157.91 321.508 151.308C279.844 151.069 236.75 120.361 236.75 120.361Z" fill="#F5F2F9"/>
<path d="M278.719 76.4387C278.719 76.4387 306.398 65.5477 317.826 84.2935C315.86 68.4011 296.754 59.4754 278.719 76.4387Z" fill="#6941BA"/>
<path d="M218.093 122.163C231.063 122.163 241.578 111.971 241.578 99.3984C241.578 86.8259 231.063 76.6338 218.093 76.6338C205.124 76.6338 194.609 86.8259 194.609 99.3984C194.609 111.971 205.124 122.163 218.093 122.163Z" fill="#F5F2F9"/>
<path d="M341.793 160.543C349.068 160.543 354.965 154.166 354.965 146.301C354.965 138.435 349.068 132.059 341.793 132.059C334.518 132.059 328.621 138.435 328.621 146.301C328.621 154.166 334.518 160.543 341.793 160.543Z" fill="#F5F2F9"/>
<path d="M231.931 106.44C234.102 106.44 235.862 104.302 235.862 101.665C235.862 99.0283 234.102 96.8906 231.931 96.8906C229.76 96.8906 228 99.0283 228 101.665C228 104.302 229.76 106.44 231.931 106.44Z" fill="#232A32"/>
<path d="M343.751 147.189C345.616 147.189 347.128 145.379 347.128 143.146C347.128 140.912 345.616 139.102 343.751 139.102C341.887 139.102 340.375 140.912 340.375 143.146C340.375 145.379 341.887 147.189 343.751 147.189Z" fill="#232A32"/>
<path d="M159.015 144.216C158.064 144.216 81.161 123.505 71.8757 134.219C62.5904 144.934 69.734 219.709 69.0158 219.464C68.304 219.212 60.2093 218.739 59.2518 221.593C58.3006 224.453 70.4394 241.831 81.3941 238.26C92.3488 234.688 107.108 204.693 107.108 204.693C107.108 204.693 114.724 225.706 122.819 226.153C154.959 188.983 159.009 144.222 159.009 144.222L159.015 144.216Z" fill="#6941BA"/>
<path d="M347.719 96.1225C347.719 96.1225 374.353 131.617 374.529 158.999C392.262 160.694 404.237 153.576 404.237 153.576C404.237 153.576 396.627 93.2123 376.154 72.9736C365.439 80.4694 347.719 96.1288 347.719 96.1288V96.1225Z" fill="#C6EBD8"/>
<path d="M386.038 131.894C392.604 128.904 394.861 119.747 391.078 111.443C387.295 103.139 378.905 98.8318 372.339 101.823C365.772 104.814 363.516 113.97 367.299 122.274C371.082 130.578 379.471 134.885 386.038 131.894Z" fill="#EBFFF4"/>
<path d="M354.028 105.457C363.912 98.1252 374.444 91.7696 385.26 85.8989C384.284 84.0533 383.257 82.2958 382.192 80.6455C371.257 86.5288 360.598 92.8971 350.582 100.235C351.558 101.665 352.73 103.423 354.028 105.457Z" fill="#EBFFF4"/>
<path d="M403.562 149.141C403.335 147.673 403.052 145.897 402.692 143.85C392.991 145.903 383.215 147.585 373.375 148.883C373.715 150.571 373.986 152.252 374.175 153.915C384.034 152.693 393.835 151.1 403.562 149.134V149.141Z" fill="#EBFFF4"/>
<path d="M400.729 116.998C400.729 116.998 384.936 137.382 401.434 161.904C409.957 158.931 411.393 125.029 400.729 116.998Z" fill="#6941BA"/>
<path d="M107.113 204.686C107.113 204.686 113.721 193.032 115.687 183.389C117.293 201.782 109.016 209.315 109.016 209.315L107.12 204.686H107.113Z" fill="#5A37A1"/>
<path d="M206.277 171.787C206.277 171.787 194.214 220.352 227.034 232.969C259.848 245.586 281.039 220.591 288.661 212.969C293.902 225.586 289.14 234.399 286.992 238.732H139.617C139.617 238.732 157.709 202.967 206.284 171.78L206.277 171.787Z" fill="#9D78DB"/>
<path d="M214.628 169.065C211.427 186.337 212.146 203.817 219.232 215.514C240.436 190.507 220.946 173.582 214.628 169.065Z" fill="#D66B92"/>
<path d="M292.299 146.83C291.26 146.54 290.227 146.232 289.2 145.923C288.167 148.682 287.19 151.466 286.277 154.263C284.734 158.968 283.373 163.762 282.655 168.669C282.352 170.728 282.17 172.807 282.145 174.886C283.071 174.917 284.009 174.923 284.96 174.917C285.282 169.04 286.775 163.176 288.551 157.595C289.698 153.986 290.938 150.383 292.299 146.83Z" fill="#D3CCE0"/>
<path d="M272.025 139.612C270.992 139.171 269.971 138.73 268.97 138.276C264.907 146.169 261.625 154.559 259.552 163.183C259.067 165.211 258.67 167.271 258.387 169.337C259.288 169.765 260.213 170.175 261.158 170.559C262.078 164.222 264.107 157.992 266.368 152.096C268.006 147.826 269.902 143.662 272.019 139.612H272.025Z" fill="#D3CCE0"/>
<path d="M249.582 128.399C248.266 129.98 247.006 131.606 245.815 133.281C241.897 138.793 238.685 144.815 236.266 151.133C237.022 152.109 237.809 153.085 238.647 154.055C239.51 151.718 240.467 149.413 241.538 147.17C244.467 141.042 248.203 135.291 252.581 130.094C251.535 129.514 250.54 128.954 249.582 128.399Z" fill="#D3CCE0"/>
<path d="M308.684 150.326C307.625 150.175 306.567 150.011 305.515 149.835C305.124 151.057 304.759 152.279 304.438 153.52C302.819 159.718 302.107 166.206 302.92 172.587C302.92 172.625 302.932 172.663 302.939 172.707C303.77 172.518 304.608 172.316 305.452 172.102C304.929 164.801 306.359 157.331 308.684 150.333V150.326Z" fill="#D3CCE0"/>
<path d="M293.395 30.8208C293.395 30.8208 328.703 42.9653 341.409 61.012C354.845 54.5807 360.118 44.7668 360.118 44.7668C360.118 44.7668 326.958 8.06253 303.051 3.38867C298.85 12.9128 293.395 30.8208 293.395 30.8208Z" fill="#C6EBD8"/>
<path d="M337.864 37.0691C340.34 31.848 336.774 24.9728 329.899 21.7129C323.024 18.4531 315.443 20.0431 312.968 25.2642C310.492 30.4852 314.058 37.3604 320.933 40.6202C327.807 43.8801 335.388 42.2902 337.864 37.0691Z" fill="#EBFFF4"/>
<path d="M302.185 34.3103C305.87 25.2461 310.469 16.5597 315.489 8.06866C313.946 7.26869 312.409 6.53801 310.884 5.89551C305.782 14.4496 301.101 23.1989 297.328 32.3198C298.682 32.849 300.327 33.5167 302.185 34.3103Z" fill="#EBFFF4"/>
<path d="M357.595 42.1208C356.763 41.2453 355.736 40.1933 354.546 38.9902C348.568 44.4767 342.363 49.7552 335.938 54.807C336.958 55.7834 337.922 56.7786 338.823 57.7991C345.298 52.7914 351.56 47.5632 357.595 42.1208Z" fill="#EBFFF4"/>
<path d="M257.072 30.9029C257.072 30.9029 221.946 18.2293 209.511 0C195.98 6.22972 190.562 15.9617 190.562 15.9617C190.562 15.9617 223.174 53.1573 247.005 58.1902C251.352 48.7291 257.072 30.9029 257.072 30.9029Z" fill="#FFAD00"/>
<path d="M237.47 36.1933C240.024 31.01 236.561 24.0821 229.736 20.7194C222.911 17.3568 215.307 18.8327 212.753 24.0161C210.199 29.1994 213.662 36.1273 220.487 39.49C227.312 42.8526 234.916 41.3767 237.47 36.1933Z" fill="#FFE066"/>
<path d="M248.332 27.2812C244.508 36.2888 239.783 44.9059 234.637 53.3213C236.167 54.1465 237.698 54.9024 239.204 55.5638C244.432 47.0853 249.245 38.4116 253.157 29.341C251.815 28.793 250.177 28.1001 248.332 27.2812Z" fill="#FFE066"/>
<path d="M193.047 18.6452C193.866 19.5334 194.874 20.6042 196.045 21.8199C202.105 16.4217 208.392 11.2376 214.887 6.28026C213.885 5.29132 212.934 4.27718 212.052 3.24414C205.507 8.15107 199.164 13.2911 193.047 18.6389V18.6452Z" fill="#FFE066"/>
<path d="M23.1188 96.1666C23.1188 96.1666 45.5572 66.3219 66.6476 59.8024C64.6696 45.0375 56.9592 37 56.9592 37C56.9592 37 11.8177 57.2261 0 78.523C7.76717 85.4583 23.1188 96.1666 23.1188 96.1666Z" fill="#FFAD00"/>
<path d="M40.9455 73.0159C46.1666 67.4815 46.9915 59.7807 42.7879 55.8156C38.5844 51.8505 30.9443 53.1226 25.7232 58.6569C20.5021 64.1913 19.6772 71.8921 23.8807 75.8572C28.0842 79.8223 35.7244 78.5502 40.9455 73.0159Z" fill="#FFE066"/>
<path d="M29.1557 88.8788C21.672 82.5798 14.8183 75.5249 8.29211 68.1299C7.05112 69.3519 5.88579 70.5928 4.80859 71.84C11.3726 79.3295 18.2515 86.4789 25.7667 92.885C26.6864 91.7638 27.8266 90.4032 29.1557 88.8788Z" fill="#FFE066"/>
<path d="M53.6682 38.5811C52.5784 39.1039 51.2619 39.7527 49.75 40.5148C53.1265 47.8973 56.2384 55.4246 59.0605 63.0905C60.3015 62.4228 61.5488 61.8118 62.796 61.2701C60.0306 53.5664 56.9817 46.0013 53.6682 38.5811Z" fill="#FFE066"/>
<path d="M163.49 61C163.49 61 129.694 76.8735 108.005 72.7728C102.846 86.744 105.895 97.4587 105.895 97.4587C105.895 97.4587 155.257 100.703 175.667 87.4117C172.051 77.6483 163.49 61 163.49 61Z" fill="#C6EBD8"/>
<path d="M143.645 92.9833C150.849 90.5352 155.182 84.1154 153.322 78.6444C151.463 73.1733 144.115 70.7227 136.911 73.1708C129.707 75.6189 125.375 82.0387 127.234 87.5097C129.093 92.9808 136.441 95.4314 143.645 92.9833Z" fill="#EBFFF4"/>
<path d="M154.758 64.6216C158.424 73.6922 161.177 83.1281 163.489 92.7215C165.158 92.2239 166.771 91.6759 168.308 91.0775C166.009 81.3896 163.275 71.8466 159.634 62.6689C158.298 63.2296 156.648 63.8973 154.764 64.6216H154.758Z" fill="#EBFFF4"/>
<path d="M109.551 97.6037C110.76 97.6478 112.228 97.6919 113.916 97.7296C114.382 89.6291 115.164 81.516 116.253 73.4218C114.842 73.4344 113.456 73.3903 112.102 73.2832C110.943 81.3837 110.093 89.4969 109.551 97.61V97.6037Z" fill="#EBFFF4"/>
<path d="M44.8573 121.006C44.8573 121.006 27.6033 129.932 16.2958 127.116C13.8517 135.381 15.6155 141.831 15.6155 141.831C15.6155 141.831 41.254 144.59 51.6103 136.987C49.5756 131.097 44.8573 121 44.8573 121V121.006Z" fill="#6A7F74"/>
<path d="M155.421 45.3115C155.421 45.3115 166.647 43.6171 172.234 47.6169C175.258 43.2454 175.617 39.0755 175.617 39.0755C175.617 39.0755 162.212 32.1403 155.012 34.4835C154.917 38.3826 155.415 45.3115 155.415 45.3115H155.421Z" fill="#6A7F74"/>
</svg>
