<svg width="64" height="86" viewBox="0 0 64 86" fill="none" xmlns="http://www.w3.org/2000/svg">
<path d="M32 65C48.5685 65 62 51.5685 62 35C62 18.4315 48.5685 5 32 5C15.4315 5 2 18.4315 2 35C2 51.5685 15.4315 65 32 65Z" fill="#0B0F14" stroke="#FFBC52" stroke-width="4"/>
<path fill-rule="evenodd" clip-rule="evenodd" d="M32 60.2C45.9176 60.2 57.2 48.9176 57.2 35C57.2 21.0824 45.9176 9.8 32 9.8C18.0824 9.8 6.8 21.0824 6.8 35C6.8 48.9176 18.0824 60.2 32 60.2ZM32 63C47.464 63 60 50.464 60 35C60 19.536 47.464 7 32 7C16.536 7 4 19.536 4 35C4 50.464 16.536 63 32 63Z" fill="url(#paint0_linear_1_7)"/>
<path fill-rule="evenodd" clip-rule="evenodd" d="M32.23 21C30.5522 21 29.2422 21.6317 28.3755 22.6578C27.536 23.6516 27.1848 24.9258 27.1848 26.1416C27.1848 27.4273 27.713 28.8729 28.529 30.0009C29.3283 31.1057 30.6048 32.1654 32.23 32.1654C33.8531 32.1654 35.1297 31.1116 35.9304 30.0068C36.7475 28.8794 37.2752 27.4334 37.2752 26.1416C37.2752 24.9288 36.9399 23.6524 36.1029 22.6553C35.2365 21.6232 33.9219 21 32.23 21ZM29.4846 26.1416C29.4846 25.3035 29.7299 24.5583 30.1625 24.0461C30.5678 23.5663 31.2055 23.2055 32.23 23.2055C33.2834 23.2055 33.9165 23.5679 34.3114 24.0383C34.7356 24.5437 34.9754 25.2867 34.9754 26.1416C34.9754 26.9174 34.6334 27.932 34.0419 28.7481C33.434 29.587 32.7629 29.9599 32.23 29.9599C31.6991 29.9599 31.028 29.586 30.4186 28.7437C29.826 27.9246 29.4846 26.9097 29.4846 26.1416Z" fill="#9488F0"/>
<path d="M24.5568 37.1486C22.226 36.9002 20.2998 38.6883 20.2998 40.5187C20.2998 42.3396 21.7968 43.9924 24.6119 43.9924C25.6242 43.9924 26.6584 43.5668 27.7944 42.7735C29.1175 41.8498 30.2149 40.7638 31.3138 39.6764C32.4155 38.5862 33.5186 37.4946 34.8519 36.5636C36.1738 35.6407 37.6837 34.9222 39.3881 34.9222C43.2711 34.9222 46 37.3772 46 40.6014C46 43.8158 42.8096 46.5489 39.19 46.1637C37.7366 46.0104 36.032 45.5389 34.6616 44.2584L36.2665 42.6788C37.1382 43.4933 38.2793 43.8489 39.4418 43.9714L39.4432 43.9716C41.774 44.2199 43.7002 42.4319 43.7002 40.6014C43.7002 38.7805 42.2032 37.1277 39.3881 37.1277C38.3758 37.1277 37.3416 37.5534 36.2056 38.3466C34.8825 39.2704 33.7851 40.3564 32.6862 41.4438C31.5845 42.534 30.4814 43.6256 29.1481 44.5565C27.8262 45.4795 26.3163 46.1979 24.6119 46.1979C20.7289 46.1979 18 43.7429 18 40.5187C18 37.3043 21.1905 34.5712 24.8101 34.9565C26.2634 35.1098 27.968 35.5813 29.3384 36.8618L27.7335 38.4414C26.8618 37.6269 25.7207 37.2713 24.5582 37.1487L24.5568 37.1486Z" fill="#9488F0"/>
<defs>
<linearGradient id="paint0_linear_1_7" x1="4" y1="7" x2="69.8824" y2="23.4706" gradientUnits="userSpaceOnUse">
<stop stop-color="#6046FF"/>
<stop offset="1" stop-color="#22D49F"/>
</linearGradient>
</defs>
</svg>
