<svg xmlns="http://www.w3.org/2000/svg" fill="none" viewBox="0 0 219 190"><path fill="#00B0F3" d="M138.039 88.88c.602.012 5.619 1.071 7.65 3.69 2.03 2.62-1.558 8.394 7.649 18.997 9.196 10.603 29.147 12.209 35.722-4.76-1.429-2.062-3.825-6.116-1.854-8.326 1.972-2.209 9.314-2.391 9.314-2.391l1.736 5.876s-5.501 2.517-1.311 5.137c4.191 2.619 6.269-2.472 2.869-4.567l2.633-6.298s12.902 4.772 4.958 13.644c5.253.421 8.664-2.415 8.664-2.415 2.692 3.519 2.444 8.974 2.444 8.974-4.238 1.31-11.286.581-11.286.581s3.341 2.836 8.358 3.667c-1.369 4.351-4.12 6.982-4.12 6.982-5.253-.467-11.71-3.144-11.71-3.144s-14.52 15.819-34.942 11.879c-20.434-3.929-25.9-21.411-25.9-21.411l-.862-26.114h-.012Z"/><path fill="#0063A2" d="M145.676 92.57c.684.889.732 2.142.85 3.827-1.688 5.968-2.609 14.304.342 23.871 3.423 11.104 17.105 15.158 27.552 16.616a34.052 34.052 0 0 1-9.632-.49c-20.434-3.94-25.9-21.411-25.9-21.411l-.862-26.114c.602.011 5.619 1.07 7.65 3.69v.011ZM199.802 102.534s6.516 2.358 5.076 10.182c-1.441 7.824-5.738 10.341-9.196 7.551-3.459-2.779-.602-7.312-.602-7.312-5.738-3.496-2.267-11.206 3.163-10.99 0 0-5.501 2.517-1.31 5.136 4.191 2.62 6.268-2.471 2.869-4.567Z"/><path fill="#0063A2" d="M156.301 114.289c.732.58 1.499 1.116 2.302 1.617-4.651 3.382-8.098 7.847-9.869 12.869a42.361 42.361 0 0 1-1.487-1.332c1.676-5 4.769-9.556 9.054-13.143v-.011ZM100.123 59.201l2.644 17.937h11.569l1.582-17.937h-15.795Z"/><path fill="#E88000" d="M97.842 5.765s.897-4.817.98-5c.401-.728 11.604-1.184 13.28.354.366 1.412.697 4.51.697 4.51l-14.969.136h.012Z"/><path fill="#FFAD00" d="M89.46 11.153s-.271-4.874.803-6.537c1.075-1.663 24.059-3.348 30.28-.319 3.27 2.244 2.691 8.382 2.691 8.382l-33.773-1.537v.011Z"/><path fill="#E88000" d="M77.632 37.141s-3.848.968-4.037 1.207c-.189.24-.496 5.797 1.7 9.111.543.33 3.718 0 3.718 0L77.62 37.141h.012Z"/><path fill="#FFAD00" d="M84.549 26.982s-7.343.706-8.004 5.182c-.66 4.578.284 16.707 3.164 20.272 2.22 1.879 8.193.99 8.193.99L84.56 26.982h-.012Z"/><path fill="#E88000" d="M136.644 37.141s3.848.968 4.037 1.207c.189.24.496 5.797-1.7 9.111-.543.33-3.718 0-3.718 0l1.393-10.318h-.012Z"/><path fill="#FFAD00" d="M129.738 26.982s7.343.706 8.004 5.182c.661 4.578-.284 16.707-3.164 20.272-2.219 1.879-8.193.99-8.193.99l3.341-26.444h.012Z"/><path fill="#00B0F3" d="M79.746 14.888c.024.24 4.923 37.936 4.297 46.193.72 5.352 41.931 4.806 43.997 2.277 2.514-10.785 4.745-46.978 4.12-50.28-1.429-4.488-54.054-11.73-52.414 1.81Z"/><path fill="#232A33" d="M96.78 32.358c-2.326 2.483-6.257 2.506-8.83.308-.544-.467-.957.854-.993 1.082-.117.649-.047 1.457.508 1.947 2.987 2.563 7.449 2.175 10.046-.604.65-.683.165-3.7-.744-2.733h.012ZM126.646 32.619c-2.361 1.959-5.997 1.88-8.24-.182-1.027-.945-1.558 2.05-.85 2.71 2.821 2.586 6.882 2.654 9.833.205.732-.615.355-3.633-.743-2.733Z"/><path fill="#F5F2F9" d="M94.877 42.984s19.349-1.105 24.85.524c.295 5.193-.839 7.186-3.766 8.234-2.928 1.047-14.331 1.002-18.876-.843-3.967-1.606-2.208-7.927-2.208-7.927v.012Z"/><path fill="#D3CCE0" d="M115.407 42.86c-.165 3.051-.331 6.104-.508 9.167a6.96 6.96 0 0 0 1.086-.273c.178-.068.355-.137.52-.205.153-2.847.319-5.694.472-8.542a49.054 49.054 0 0 0-1.57-.148ZM98.88 42.802c-.578.023-1.109.046-1.58.069a1890 1890 0 0 1 .164 8.177c.472.17 1.004.319 1.594.455l-.177-8.7ZM104.37 42.653c-.543 0-1.086.023-1.605.035 0 3.143.023 6.286.023 9.43.531.056 1.063.102 1.606.147 0-3.2-.024-6.412-.024-9.612ZM110.65 52.403c-.059-3.258-.129-6.515-.189-9.76-.519 0-1.05-.012-1.581-.023.059 3.268.129 6.537.189 9.805.543 0 1.074 0 1.581-.022Z"/><path fill="#0063A2" d="M128.005 63.426c-13.871 1.651-41.128-1.185-41.07-6.628-.094-5.046-3.836-23.712-6.457-36.148 1.346 10.922 4.061 34.177 3.577 40.453.709 5.318 41.447 4.806 43.95 2.323Z"/><path fill="#0063A2" d="M100.119 54.041s7.437 1.06 14.296.353c-5.536 3.223-12.903.866-14.296-.353ZM91.786 24.727s6.493-2.482 10.707.467c-1.074-5.546-8.558-5.387-10.707-.467ZM114.368 25.206s3.589-3.268 8.866-.626c-1.794-4.806-8.417-4.92-8.866.627Z"/><path fill="#00B0F3" d="M80.96 88.88c-.602.012-5.619 1.071-7.65 3.69-2.03 2.62 1.559 8.394-7.649 18.997-9.196 10.603-29.146 12.208-35.721-4.761 1.428-2.061 3.824-6.115 1.853-8.325-1.971-2.21-9.314-2.391-9.314-2.391l-1.735 5.876s5.5 2.517 1.31 5.136c-4.19 2.62-6.268-2.471-2.868-4.566l-2.633-6.298s-12.903 4.771-4.958 13.643c-5.253.422-8.665-2.414-8.665-2.414C.262 110.975.5 116.43.5 116.43c4.237 1.309 11.285.581 11.285.581s-3.34 2.835-8.358 3.667c1.37 4.35 4.12 6.981 4.12 6.981 5.253-.467 11.71-3.143 11.71-3.143s14.52 15.819 34.943 11.878c20.422-3.94 25.9-21.411 25.9-21.411l.861-26.114v.011Z"/><path fill="#0063A2" d="M73.323 92.57c-.684.889-.732 2.142-.85 3.827 1.688 5.968 2.61 14.304-.342 23.871-3.435 11.104-17.105 15.158-27.553 16.616 3.022.273 6.245.171 9.633-.49 20.434-3.94 25.9-21.411 25.9-21.411l.862-26.114c-.602.011-5.62 1.07-7.65 3.69v.011ZM19.196 102.534s-6.516 2.358-5.076 10.182c1.428 7.812 5.737 10.341 9.196 7.551 3.459-2.779.602-7.312.602-7.312 5.737-3.496 2.267-11.206-3.164-10.99 0 0 5.501 2.517 1.31 5.136-4.178 2.62-6.268-2.471-2.868-4.567Z"/><path fill="#0063A2" d="M62.686 114.289a25.06 25.06 0 0 1-2.302 1.617c4.65 3.382 8.098 7.847 9.869 12.869.52-.444 1.015-.888 1.487-1.332-1.676-5-4.77-9.556-9.054-13.143v-.011Z"/><path fill="#00B0F3" d="m77.325 87.219 3.152 56.977c13.328 5.194 58.493 2.677 59.568.786.72-5.193.767-55.873.767-55.873s-7.036-17.253-31.932-17.151c-24.094.103-31.555 15.272-31.555 15.272v-.011Z"/><path fill="#0063A2" d="M110.272 110.656c6.448 0 11.675-5.741 11.675-12.824 0-7.082-5.227-12.823-11.675-12.823S98.597 90.75 98.597 97.832c0 7.083 5.227 12.824 11.675 12.824Z"/><path fill="#0063A2" d="M108.916 71.946c-.98 0-1.936.034-2.857.09 1.381 10.706 4.698 41.068 3.116 75.235h3.27c-.224-8.781-1.31-54.2-.153-75.223a46.62 46.62 0 0 0-3.376-.09v-.012Z"/><path fill="#C6EBD8" d="M118.711 98.16c0 5.163-3.782 9.34-8.444 9.34-4.661 0-8.444-4.177-8.444-9.34 0-5.162 3.783-9.34 8.444-9.34 4.662 0 8.444 4.178 8.444 9.34Z"/><path fill="#A4DBCF" d="M108.802 100.85c-2.764-1.958-3.686-4.658-3.542-7.359-1.18 1.321-1.9 3.113-1.9 5.083 0 4.068 3.081 7.37 6.882 7.37 2.189 0 4.132-1.097 5.399-2.795-2.519-.2-4.967-.967-6.839-2.287v-.012Z"/><path fill="#0063A2" d="m80.394 141.905.13 2.278c13.328 5.193 58.493 2.677 59.568.786.177-1.287.318-5.375.425-10.785-6.033 2.061-13.505 4.328-13.505 4.328s2.691-2.358 5.737-8.815c-18.026 8.541-35.65 2.095-52.343 12.197l-.012.011Z"/><path fill="#00B0F3" d="M86.108 146.153c3.53-3.006 8.37-5.785 14.685-6.685 2.396 0 6.835 1.674 13.127 7.779 2.089 2.027 4.391 4.544 6.894 7.641 13.693 17.004 33.88 19.099 31.377 5.456-1.853-10.068-14.107-13.28-20.411-14.27 3.318-.467 6.163-1.082 8.228-1.891l.425-7.767c9.255.866 35.427 5.444 34.4 29.383-1.24 29.064-33.172 28.961-53.358 15.318-20.186-13.644-35.84-23.188-42.875-25.5.082-.375 2.431-5.159 7.496-9.475l.011.011Z"/><path fill="#0063A2" d="M148.78 168.555c2.762-1.207 4.202-3.941 3.411-8.211-1.853-10.068-14.106-13.28-20.41-14.27 3.317-.467 6.162-1.082 8.228-1.891l.425-7.767c3.636.342 9.904 1.253 16.09 3.701 6.197 8.474 11.781 21.969-7.768 28.438h.024Z"/><path fill="#00B0F3" d="M134.415 146.153c-3.529-3.006-8.369-5.785-14.685-6.685-2.396 0-6.835 1.674-13.127 7.779-2.089 2.027-4.391 4.544-6.894 7.641-13.693 17.004-33.88 19.099-31.377 5.456 1.853-10.068 14.107-13.28 20.41-14.27-3.317-.467-6.162-1.082-8.227-1.891l-.425-7.767c-9.255.866-35.427 5.444-34.4 29.383 1.24 29.064 33.172 28.961 53.358 15.318 20.186-13.644 35.84-23.188 42.875-25.5-.082-.375-2.431-5.159-7.496-9.475l-.012.011Z"/><path fill="#0063A2" d="M135.641 158.374c-6.457-9.396-20.907-13.633-25.003-14.669-1.251.968-2.597 2.141-4.049 3.542-2.089 2.027-4.391 4.544-6.894 7.642-2.727 3.394-5.725 6.184-8.735 8.382 2.726 2.87 7.189 8.667 8.948 17.254 15.098-10.182 27.587-18.006 35.733-22.151ZM71.742 168.555c-2.763-1.207-4.203-3.941-3.412-8.211 1.853-10.068 14.107-13.28 20.41-14.27-3.316-.467-6.161-1.082-8.227-1.891l-.425-7.767c-3.636.342-9.905 1.253-16.09 3.701-6.198 8.474-11.781 21.969 7.767 28.438h-.023Z"/><path fill="#00B0F3" d="M127.448 184.591c4.993-4.852 8.924-10.318 10.412-16.742-5.537-2.084-11.77-6.411-17.035-12.96-2.502-3.098-4.804-5.615-6.894-7.642-6.303-6.104-10.73-7.778-13.127-7.778-6.315.899-11.155 3.678-14.685 6.685-5.064 4.316-7.413 9.099-7.496 9.475 7.036 2.312 22.689 11.856 42.875 25.5a51.83 51.83 0 0 0 5.95 3.462Z"/><path fill="#0063A2" d="M150.871 189.966c.743-7.118-.874-14.396-4.84-20.728a14.15 14.15 0 0 1-2.774-.034c3.777 4.863 6.091 10.58 6.315 16.514a26.098 26.098 0 0 1-.2 4.293c.507 0 1.003-.011 1.499-.034v-.011ZM150.86 156.551c.496.934.897 1.936 1.169 3.041 6.717-.478 13.552.843 19.348 3.986a30.684 30.684 0 0 1 3.482 2.198 32.388 32.388 0 0 0-.047-3.417 36.333 36.333 0 0 0-2.042-1.309c-6.41-3.77-14.296-5.296-21.91-4.499ZM49.904 161.004c5.62-2.904 12.513-3.474 18.699-1.834a13.1 13.1 0 0 1 1.169-2.847c-7.13-2.153-15.288-1.412-21.58 2.392a24.257 24.257 0 0 0-2.255 1.548 29.057 29.057 0 0 0-.306 3.611 22.04 22.04 0 0 1 4.261-2.87h.012ZM67.517 185.25c.366-5.717 2.302-11.298 5.49-16.274-.72-.183-1.37-.433-1.948-.775-3.093 5.433-4.852 11.434-5.147 17.539a38.068 38.068 0 0 0 0 3.849c.52.08 1.039.148 1.57.205a38.214 38.214 0 0 1 .047-4.544h-.012Z"/></svg>