<svg xmlns="http://www.w3.org/2000/svg" fill="none" viewBox="0 0 24 34"><path fill="#090A0C" fill-opacity=".26" d="M2 31h20v3H2z"/><path fill="#fff" fill-opacity=".5" d="M2 3h11v9h9v18H2V3Z"/><path stroke="#0B0F14" d="M14 1H1v30h22V10l-9-9Zm0 0v9h6"/><path stroke="#090A0C" stroke-linecap="round" stroke-width="2" d="M7 12v3"/><path fill="#090A0C" d="M18 13v-1h-2v1h2Zm-2 2a1 1 0 1 0 2 0h-2Zm1-2h-1v2h2v-2h-1Z"/><path fill="#fff" d="M10 22a2 2 0 1 1 4 0v3a2 2 0 1 1-4 0v-3Z"/><path fill="#090A0C" d="M10 23a2 2 0 1 1 4 0v2a2 2 0 1 1-4 0v-2Z"/><path fill="#fff" fill-opacity=".9" d="m21 9-6-6v6h6Z"/></svg>