<svg xmlns="http://www.w3.org/2000/svg" fill="none" viewBox="0 0 60 88"><path fill="#FDCA52" stroke="#090A0C" d="M10 24.5h40a7.5 7.5 0 0 1 7.5 7.5v21.5h-55V32a7.5 7.5 0 0 1 7.5-7.5Z"/><path fill="#A41E20" stroke="#090A0C" d="M50 27.5a4.5 4.5 0 0 1 4.5 4.5v22.5h-49V32a4.5 4.5 0 0 1 4.5-4.5h40Z"/><path fill="#D67577" d="M8 29a1 1 0 0 1 1-1h42a1 1 0 0 1 1 1H8Z"/><g opacity=".6"><circle cx="44" cy="15" r="4.5" fill="#FFE059" stroke="#090A0C"/><circle cx="44" cy="15" r="2" fill="#7E6FED"/></g><circle cx="13" cy="31" r="4.5" fill="#FFE059" stroke="#090A0C"/><circle cx="13" cy="31" r="2" fill="#7E6FED"/><circle cx="37" cy="37" r="4.5" fill="#FFE059" stroke="#090A0C"/><circle cx="37" cy="37" r="2" fill="#7E6FED"/><path fill="#FFAF41" d="M44 50h7v3h-7zM37 47h7v3h-7zM37 41h7v3h-7zM30 50h7v3h-7zM23 47h7v3h-7zM23 41h7v3h-7zM23 35h7v3h-7zM30 44h7v3h-7zM30 38h7v3h-7zM16 50h7v3h-7zM9 47h7v3H9zM16 44h7v3h-7z"/><path fill="#FFE059" d="M37 50h7v3h-7zM30 47h7v3h-7zM30 41h7v3h-7zM44 47h7v3h-7zM37 44h7v3h-7zM23 50h7v3h-7zM16 47h7v3h-7zM16 41h7v3h-7zM23 44h7v3h-7zM23 38h7v3h-7zM9 50h7v3H9z"/><path fill="#FDCA52" stroke="#090A0C" d="M.5 53.5h59v34H.5z"/><path fill="#B55733" stroke="#090A0C" d="M4.5 57.5h51v26h-51z"/><path fill="#81391D" d="M5 58h50v4H5zM20 73h20v4H20z"/><path fill="#FDCA52" stroke="#090A0C" d="M15.5 57.5h5v26h-5zM39.5 57.5h5v26h-5z"/><path fill="#FDCA52" d="M16 57h4v27h-4zM40 57h4v27h-4z"/><path fill="#7E6FED" stroke="#090A0C" d="M41.5 52.5V70a3.5 3.5 0 0 1-3.5 3.5H22a3.5 3.5 0 0 1-3.5-3.5V52.5h23Z"/><path fill="#fff" fill-rule="evenodd" d="M30.099 57c-.72 0-1.28.276-1.652.724-.36.434-.51.99-.51 1.52 0 .562.226 1.193.575 1.685.343.482.89.945 1.587.945.695 0 1.242-.46 1.585-.942.35-.493.577-1.124.577-1.688 0-.529-.144-1.086-.503-1.522-.37-.45-.934-.722-1.66-.722Zm-1.177 2.244c0-.365.105-.69.29-.914.174-.21.448-.367.887-.367.451 0 .722.158.892.363.181.22.284.545.284.918 0 .339-.146.782-.4 1.138-.26.366-.548.53-.776.53-.228 0-.516-.164-.777-.532-.254-.357-.4-.8-.4-1.136Z" clip-rule="evenodd"/><path fill="#fff" d="M26.81 64.049c-.999-.108-1.824.672-1.824 1.471 0 .795.641 1.516 1.848 1.516.433 0 .877-.185 1.364-.532.567-.403 1.037-.877 1.508-1.352.472-.475.945-.952 1.516-1.358.567-.403 1.214-.717 1.944-.717 1.665 0 2.834 1.072 2.834 2.48 0 1.402-1.367 2.595-2.919 2.427-.622-.067-1.353-.273-1.94-.831l.688-.69c.373.356.862.51 1.36.564 1 .109 1.825-.672 1.825-1.47 0-.796-.641-1.517-1.848-1.517-.433 0-.877.186-1.364.532-.567.403-1.037.877-1.508 1.352-.472.476-.945.952-1.516 1.359-.567.403-1.214.716-1.944.716C25.169 68 24 66.927 24 65.52c0-1.403 1.367-2.596 2.919-2.428.622.067 1.353.273 1.94.832l-.688.69c-.373-.356-.862-.511-1.36-.565Z"/><g opacity=".2"><circle cx="25" cy="5" r="4.5" fill="#FFE059" stroke="#090A0C"/><circle cx="25" cy="5" r="2" fill="#7E6FED"/></g></svg>