<svg xmlns="http://www.w3.org/2000/svg" fill="none" viewBox="0 0 143 41"><path fill="#0B0F14" d="M41 20.5C41 31.822 31.822 41 20.5 41S0 31.822 0 20.5 9.178 0 20.5 0 41 9.178 41 20.5Z"/><path fill="url(#a)" fill-rule="evenodd" d="M20.5 38.95c10.19 0 18.45-8.26 18.45-18.45S30.69 2.05 20.5 2.05 2.05 10.31 2.05 20.5s8.26 18.45 18.45 18.45Zm0 2.05C31.822 41 41 31.822 41 20.5S31.822 0 20.5 0 0 9.178 0 20.5 9.178 41 20.5 41Z" clip-rule="evenodd"/><path fill="#9488F0" fill-rule="evenodd" d="M20.668 10.25c-1.228 0-2.187.463-2.822 1.214-.614.727-.871 1.66-.871 2.55 0 .942.386 2 .984 2.826.585.809 1.52 1.585 2.71 1.585 1.188 0 2.122-.772 2.709-1.58.598-.826.984-1.885.984-2.83 0-.889-.245-1.823-.858-2.553-.635-.756-1.597-1.212-2.836-1.212Zm-2.01 3.764c0-.613.18-1.159.497-1.534.296-.351.763-.615 1.513-.615.772 0 1.235.265 1.524.61.31.37.486.914.486 1.54 0 .567-.25 1.31-.683 1.908-.445.614-.936.887-1.327.887-.388 0-.88-.274-1.326-.89-.434-.6-.684-1.343-.684-1.906Z" clip-rule="evenodd"/><path fill="#9488F0" d="M15.05 22.073c-1.706-.182-3.116 1.127-3.116 2.468 0 1.333 1.096 2.543 3.157 2.543.741 0 1.498-.312 2.33-.893.969-.676 1.772-1.471 2.577-2.267.806-.798 1.614-1.598 2.59-2.28.968-.675 2.073-1.2 3.321-1.2 2.843 0 4.841 1.797 4.841 4.157 0 2.353-2.336 4.355-4.986 4.072-1.064-.112-2.312-.457-3.315-1.394l1.175-1.157c.638.596 1.473.857 2.325.946 1.707.182 3.117-1.127 3.117-2.467 0-1.333-1.096-2.543-3.157-2.543-.741 0-1.498.311-2.33.892-.969.677-1.772 1.472-2.577 2.268-.806.798-1.614 1.597-2.59 2.279-.968.675-2.073 1.201-3.321 1.201-2.843 0-4.841-1.797-4.841-4.157 0-2.354 2.336-4.355 4.986-4.073 1.064.112 2.312.458 3.315 1.395l-1.175 1.157c-.638-.597-1.473-.857-2.325-.947Z"/><path fill="#12B886" d="M139.305 25.115h-5.112l-.73 3.222h-2.965l3.587-15.036h5.328L143 28.337h-2.964l-.731-3.222Zm-4.511-2.706h3.888l-1.74-7.69h-.386l-1.762 7.69Zm-5.677 5.928h-2.836v-4.51c0-.344-.093-.624-.279-.838-.172-.215-.465-.323-.881-.323h-3.265v5.671h-2.835V13.301h5.757c.773 0 1.453.107 2.04.322.588.215 1.074.516 1.461.902.401.373.702.81.902 1.31a4.05 4.05 0 0 1 .323 1.612v.515a3.3 3.3 0 0 1-.495 1.74c-.329.53-.837.938-1.525 1.224v.387c.502.057.895.25 1.182.58.3.33.451.745.451 1.246v5.198Zm-7.261-8.377h2.707c.687 0 1.21-.158 1.568-.473.358-.33.537-.787.537-1.374v-.258a1.76 1.76 0 0 0-.537-1.29c-.358-.372-.881-.558-1.568-.558h-2.707v3.953Zm-15.365-6.66h9.495v2.707h-6.659v3.437h6.401v2.707h-6.401v3.48h6.916v2.706h-9.752V13.301Z"/><path fill="#9488F0" d="M99.117 17.683h2.707v10.654h-2.707v-1.546h-.386c-.473 1.231-1.49 1.847-3.05 1.847-.53 0-1.025-.086-1.483-.258a3.212 3.212 0 0 1-1.203-.795 3.873 3.873 0 0 1-.816-1.331c-.186-.545-.28-1.182-.28-1.912v-6.66h2.707v6.101c0 .76.18 1.354.537 1.783.358.416.895.623 1.611.623.817 0 1.41-.258 1.783-.773.387-.53.58-1.246.58-2.148v-5.585Zm-20.456 0h4.511v1.547h.387c.2-.588.537-1.039 1.01-1.354.486-.33 1.066-.494 1.74-.494 1.06 0 1.911.337 2.556 1.01.644.659.966 1.668.966 3.029v.472l-2.792.258v-.3c0-.588-.15-1.053-.451-1.397-.301-.358-.752-.537-1.354-.537-.601 0-1.074.207-1.417.623-.344.415-.516 1.01-.516 1.783v3.437h2.449v2.577h-7.347V25.76h2.192v-5.5H78.66v-2.577Zm-4.99 0h2.707v10.654H73.67v-1.546h-.387c-.472 1.231-1.489 1.847-3.05 1.847-.53 0-1.024-.086-1.482-.258a3.212 3.212 0 0 1-1.203-.795 3.873 3.873 0 0 1-.816-1.331c-.187-.545-.28-1.182-.28-1.912v-6.66h2.707v6.101c0 .76.179 1.354.537 1.783.358.416.895.623 1.611.623.816 0 1.41-.258 1.783-.773.387-.53.58-1.246.58-2.148v-5.585Zm-16.031 3.05h6.444v7.604h-2.578v-1.675h-.386a2.856 2.856 0 0 1-.988 1.418c-.487.372-1.218.558-2.191.558a4.857 4.857 0 0 1-1.934-.387 4.377 4.377 0 0 1-1.568-1.138c-.444-.516-.795-1.146-1.052-1.89-.258-.76-.387-1.64-.387-2.643v-3.522c0-.974.136-1.833.408-2.578.286-.76.673-1.396 1.16-1.912a4.809 4.809 0 0 1 1.783-1.16c.687-.272 1.446-.408 2.277-.408.86 0 1.625.143 2.298.43a4.8 4.8 0 0 1 1.719 1.16c.472.486.83 1.066 1.074 1.74a6.09 6.09 0 0 1 .365 2.126v.258H61.25v-.258c0-.902-.237-1.582-.71-2.04-.458-.473-1.11-.71-1.954-.71-.802 0-1.46.273-1.976.817-.516.53-.773 1.446-.773 2.75v3.178c0 2.32.945 3.48 2.835 3.48.845 0 1.482-.222 1.912-.666.444-.458.666-1.066.666-1.825h-3.61v-2.707Z"/><defs><linearGradient id="a" x1="0" x2="48.235" y1="0" y2="12.059" gradientUnits="userSpaceOnUse"><stop stop-color="#6046FF"/><stop offset="1" stop-color="#22D49F"/></linearGradient></defs></svg>
