<svg xmlns="http://www.w3.org/2000/svg" viewBox="0 0 36 36"><path fill="#00C8A0" fill-rule="evenodd" d="M14.004 29.028c.653 1.576.99 3.266.99 4.972h6.013A19.006 19.006 0 0 0 2 14.993v6.014a12.993 12.993 0 0 1 12.004 8.02Z" clip-rule="evenodd"/><path fill="#00E3B4" fill-rule="evenodd" d="M14.004 6.972c.653-1.576.99-3.266.99-4.972h6.013A19.006 19.006 0 0 1 2 21.007v-6.014a12.993 12.993 0 0 0 12.004-8.02Z" clip-rule="evenodd"/><path fill="#00C8A0" fill-rule="evenodd" d="M21.996 6.972A12.993 12.993 0 0 1 21.006 2h-6.013A19.006 19.006 0 0 0 34 21.007v-6.014a12.993 12.993 0 0 1-12.004-8.02Z" clip-rule="evenodd"/><path fill="#00E3B4" fill-rule="evenodd" d="M21.996 29.028a12.993 12.993 0 0 0-.99 4.972h-6.013A19.006 19.006 0 0 1 34 14.993v6.014a12.993 12.993 0 0 0-12.004 8.02Z" clip-rule="evenodd"/><path fill="#00C8A0" d="m15.642 20.766-4.16 4.35A12.997 12.997 0 0 1 14.993 34h6.014a19.006 19.006 0 0 0-5.365-13.234Z"/></svg>