<svg xmlns="http://www.w3.org/2000/svg" fill="none" viewBox="0 0 20 20"><circle cx="10" cy="10" r="10" fill="#6046FF"/><path fill="#39FFC3" fill-rule="evenodd" d="m6.636 14.38 6.8-6.8 1.095 1.095c.325.325.539.539.69.716.144.171.19.261.209.32a.9.9 0 0 1 0 .557c-.02.06-.065.15-.21.32-.15.178-.364.392-.689.717L13.436 12.4l-1.393-1.394-.99.99 2.383 2.384 2.105-2.104c.3-.3.555-.555.747-.781.2-.237.374-.489.473-.794a2.3 2.3 0 0 0 0-1.422c-.1-.305-.272-.557-.473-.794-.192-.226-.447-.48-.747-.78L13.437 5.6l-6.8 6.8-1.095-1.095c-.325-.325-.539-.54-.69-.716-.145-.171-.19-.261-.209-.321a.9.9 0 0 1 0-.556c.02-.06.064-.15.21-.32.15-.178.364-.392.689-.717L6.636 7.58 8.03 8.974l.99-.99L6.636 5.6 4.532 7.704c-.3.3-.555.555-.747.781-.201.237-.374.489-.473.794a2.3 2.3 0 0 0 0 1.422c.1.305.272.556.473.794.192.226.447.48.747.78l.02.02 2.084 2.085Z" clip-rule="evenodd"/></svg>