<svg xmlns="http://www.w3.org/2000/svg" fill="none" viewBox="0 0 32 32">
  <path fill="url(#a)" fill-rule="evenodd" d="M15.77 2a4.8 4.8 0 0 1 3.85 1.71 5.66 5.66 0 0 1 1.2 3.6c0 1.32-.53 2.81-1.35 3.98-.8 1.14-2.07 2.23-3.7 2.23-1.62 0-2.9-1.09-3.7-2.23a7.28 7.28 0 0 1-1.35-3.99 5.7 5.7 0 0 1 1.18-3.6A4.8 4.8 0 0 1 15.77 2Zm2.75 5.3c0-.86-.25-1.63-.68-2.16-.4-.5-1.05-.86-2.07-.86-1.05 0-1.69.37-2.08.85a3.44 3.44 0 0 0-.67 2.17c0 .8.35 1.85.94 2.7.6.86 1.28 1.24 1.81 1.24s1.2-.38 1.81-1.25c.6-.85.94-1.9.94-2.69Z" clip-rule="evenodd"/>
  <path fill="url(#b)" d="M23.44 18.66c2.33-.25 4.26 1.59 4.26 3.48 0 1.88-1.5 3.58-4.31 3.58a5.54 5.54 0 0 1-3.18-1.26c-1.33-.95-2.42-2.07-3.52-3.2a27.49 27.49 0 0 0-3.54-3.2 7.81 7.81 0 0 0-4.54-1.7C4.73 16.36 2 18.9 2 22.22c0 3.32 3.19 6.14 6.81 5.74A7.57 7.57 0 0 0 13.34 26l-1.6-1.63a5.27 5.27 0 0 1-3.18 1.33c-2.33.26-4.26-1.59-4.26-3.48 0-1.88 1.5-3.58 4.31-3.58 1.01 0 2.05.44 3.18 1.26 1.33.95 2.42 2.07 3.52 3.2a27.2 27.2 0 0 0 3.54 3.2A7.81 7.81 0 0 0 23.4 28c3.88 0 6.61-2.54 6.61-5.86 0-3.32-3.19-6.14-6.81-5.74a7.57 7.57 0 0 0-4.53 1.97l1.6 1.63a5.27 5.27 0 0 1 3.18-1.34Z"/>
  <defs>
    <linearGradient id="a" x1="30" x2="-2.63" y1="2" y2="10.79" gradientUnits="userSpaceOnUse">
      <stop stop-color="#9488F0"/>
      <stop offset="1" stop-color="#3AEAB5"/>
    </linearGradient>
    <linearGradient id="b" x1="30" x2="-2.63" y1="2" y2="10.79" gradientUnits="userSpaceOnUse">
      <stop stop-color="#9488F0"/>
      <stop offset="1" stop-color="#3AEAB5"/>
    </linearGradient>
  </defs>
</svg>