<svg xmlns="http://www.w3.org/2000/svg" viewBox="0 0 70 70"><path fill="#D79E84" d="M15.655 42.797c3.5-.878 5.288-5.64 3.994-10.637-1.294-4.997-5.18-8.335-8.679-7.457-3.5.878-5.287 5.64-3.993 10.637 1.293 4.996 5.18 8.335 8.678 7.457Zm47.37-7.456c1.293-4.996-.495-9.758-3.994-10.636-3.5-.878-7.385 2.46-8.679 7.457-1.293 4.996.495 9.758 3.994 10.636 3.5.879 7.385-2.46 8.679-7.457Z"/><path fill="#BF6952" d="M36.751 65.25H33.25c-11.556 0-22.761-8.719-22.761-20.923 0-6.974 2.626-10.462 2.626-10.462s-.875-3.487-.875-6.973c0-10.462 11.205-19.18 22.76-19.18 11.556 0 22.76 10.461 22.76 19.18 0 3.487-.874 6.973-.874 6.973s2.626 3.488 2.626 10.462c0 12.204-11.205 20.923-22.76 20.923Z"/><path fill="#D79E84" d="M55.742 30.913c0-6.662-5.488-12.064-12.256-12.064A12.314 12.314 0 0 0 35 22.219a12.306 12.306 0 0 0-8.485-3.37c-6.768 0-12.256 5.402-12.256 12.064 0 4.04 2.026 7.61 5.123 9.798a18.18 18.18 0 0 0-1.353 6.906c0 9.739 7.599 15.776 16.97 15.776 9.37 0 16.968-6.037 16.968-15.776a18.17 18.17 0 0 0-1.353-6.906c3.1-2.189 5.128-5.757 5.128-9.798Z"/><path fill="#010101" d="M26.111 39c1.964 0 3.556-2.35 3.556-5.25s-1.592-5.25-3.556-5.25c-1.963 0-3.555 2.35-3.555 5.25S24.147 39 26.11 39Zm17.778 0c1.963 0 3.555-2.35 3.555-5.25s-1.592-5.25-3.555-5.25c-1.964 0-3.556 2.35-3.556 5.25S41.925 39 43.89 39Z"/><path fill="#642116" d="M35 59.125c4.827 0 8.937-2.415 10.48-5.79.638-1.397-.444-2.96-2.057-2.96H26.577c-1.613 0-2.695 1.563-2.057 2.96 1.543 3.375 5.653 5.79 10.48 5.79Zm-2.667-14.768c.982 0 1.778-.831 1.778-1.857 0-1.025-.796-1.857-1.778-1.857-.981 0-1.777.832-1.777 1.857 0 1.026.796 1.857 1.777 1.857Zm5.334-.107c.981 0 1.777-.783 1.777-1.75s-.796-1.75-1.777-1.75c-.982 0-1.778.783-1.778 1.75s.796 1.75 1.778 1.75Z"/><path fill="#BF6952" d="M42.541 4.297S33.114 2.441 29.343 8.01c-3.77 5.569 7.541 1.857 7.541 1.857s1.887-5.569 5.657-5.569ZM67 67l-24.889-7 5.333-10.5L67 53v14ZM3 67l24.889-7-5.333-10.5L3 53v14Z"/><path fill="#D79E84" d="M24.99 47.752s.21-2.205.167-4.759c-.056-3.335-4.59-4.99-6-1.858-1.723 3.829-3.89 13.016-2.612 16.898 1.278 3.881 4.5 6.946 11.723 6.727 7.223-.219 13.5-1.586 15.445-2.79 1.945-1.204 1.502-4.161-.722-4.648-2-.437-7.5.438-7.5.438s5.783-1.215 7.388-2.242c2.222-1.42 1-4.54-1.166-4.594-2.137-.054-7.445.821-7.445.821s5.056-1.312 6.666-2.68c1.591-1.348 1-4.32-1.833-4.428-2.832-.109-11.445 1.692-14.112 3.115Z"/><path fill="#BF6952" d="M27.544 65.647c-6.258 0-10.24-2.47-11.844-7.343-1.432-4.352.996-13.858 2.644-17.523.743-1.655 2.311-2.469 4.084-2.108 1.768.351 3.578 1.944 3.617 4.308a48.903 48.903 0 0 1-.067 3.39c3.655-1.355 10.606-2.728 13.157-2.61 1.62.064 2.877.914 3.36 2.28a3.373 3.373 0 0 1-.981 3.688c-.13.109-.278.219-.44.327.24-.007.465-.008.66-.005 1.428.037 2.663 1.03 3.078 2.475.417 1.46-.137 2.887-1.45 3.727a3.886 3.886 0 0 1-.328.187l.147.03a3.316 3.316 0 0 1 2.6 2.706 3.441 3.441 0 0 1-1.597 3.536c-2.01 1.246-8.263 2.694-15.89 2.925-.254.005-.505.01-.75.01Zm-5.899-25.303c-.522 0-1.25.194-1.676 1.144-1.803 4.008-3.72 12.8-2.578 16.275 1.415 4.298 4.967 6.328 10.85 6.122 6.955-.21 13.198-1.542 15-2.655.728-.453.886-1.206.788-1.76a1.559 1.559 0 0 0-1.232-1.294c-1.507-.329-5.681.212-7.166.447a.879.879 0 0 1-1.015-.702.876.876 0 0 1 .688-1.017c1.564-.329 5.888-1.35 7.09-2.12.93-.594.803-1.446.706-1.786-.162-.563-.672-1.181-1.412-1.2-2.087-.086-7.223.8-7.275.808a.875.875 0 0 1-.373-1.71c1.351-.351 5.12-1.485 6.313-2.497a1.636 1.636 0 0 0 .464-1.787c-.14-.393-.555-1.058-1.751-1.106-2.582-.105-11.102 1.652-13.654 3.012a.904.904 0 0 1-.913-.038.871.871 0 0 1-.397-.812c.002-.021.205-2.19.164-4.662-.023-1.437-1.122-2.408-2.194-2.622a2.269 2.269 0 0 0-.427-.04Z"/><path fill="#D79E84" d="M45.01 47.752s-.209-2.205-.166-4.759c.055-3.335 4.59-4.99 6-1.858 1.722 3.829 3.89 13.016 2.611 16.898-1.278 3.881-4.5 6.946-11.722 6.727-7.224-.219-13.5-1.586-15.446-2.79-1.945-1.204-1.502-4.161.722-4.648 2-.437 7.5.438 7.5.438s-5.783-1.215-7.388-2.242c-2.222-1.42-1-4.54 1.166-4.594 2.137-.054 7.446.821 7.446.821s-5.056-1.312-6.667-2.68c-1.591-1.348-1-4.32 1.833-4.428 2.832-.109 11.445 1.692 14.112 3.115Z"/><path fill="#BF6952" d="M42.456 65.647c-.247 0-.496-.005-.752-.012-7.627-.231-13.88-1.678-15.89-2.924a3.44 3.44 0 0 1-1.595-3.537 3.314 3.314 0 0 1 2.598-2.706l.147-.03a4.453 4.453 0 0 1-.327-.187c-1.314-.838-1.868-2.268-1.449-3.727.415-1.444 1.652-2.44 3.078-2.475.197-.003.42-.001.66.006a5.165 5.165 0 0 1-.442-.328 3.38 3.38 0 0 1-.981-3.689c.484-1.363 1.74-2.215 3.36-2.278 2.548-.086 9.504 1.256 13.157 2.61a50.026 50.026 0 0 1-.067-3.39c.039-2.363 1.849-3.957 3.616-4.31 1.785-.36 3.34.454 4.085 2.11 1.65 3.664 4.077 13.168 2.644 17.522-1.602 4.874-5.584 7.343-11.842 7.345Zm-13.91-7.576c-.54 0-1.007.032-1.342.105-.654.144-1.114.627-1.232 1.294-.097.553.059 1.307.79 1.76 1.799 1.113 8.044 2.443 14.999 2.655 5.866.177 9.436-1.824 10.85-6.122 1.145-3.473-.777-12.267-2.578-16.275-.567-1.26-1.659-1.191-2.107-1.102-1.072.213-2.169 1.185-2.192 2.621-.039 2.473.162 4.641.164 4.664a.866.866 0 0 1-.397.81.896.896 0 0 1-.913.039c-2.552-1.358-11-3.126-13.654-3.012-1.198.046-1.612.712-1.751 1.106a1.637 1.637 0 0 0 .464 1.787c1.193 1.013 4.962 2.147 6.313 2.497a.875.875 0 0 1 .642 1.03.897.897 0 0 1-1.017.68c-.053-.009-5.266-.863-7.275-.809-.74.02-1.251.636-1.413 1.2-.098.339-.222 1.193.707 1.788 1.204.768 5.526 1.79 7.09 2.119.471.1.777.55.688 1.017a.885.885 0 0 1-1.015.701c-1.152-.185-3.934-.553-5.82-.553Z"/><path fill="#9B3C07" d="M20.143 41.214a17.849 17.849 0 0 1-1.438-1.073 4.152 4.152 0 0 0-.363.64c-.946 2.102-2.139 6.12-2.722 9.99l-3.818.787 5.33 1.538.275-2.219c.526-3.453 1.556-7.159 2.558-9.389.054-.113.121-.181.178-.274Zm34.263 9.726c-.572-3.92-1.79-8.027-2.75-10.158a3.957 3.957 0 0 0-.384-.667 24.62 24.62 0 0 1-1.403 1.092c.055.089.112.175.162.282 1.223 2.719 2.498 7.64 2.834 11.609l5.37-1.54-3.829-.618Z"/></svg>