<svg xmlns="http://www.w3.org/2000/svg" fill="none" viewBox="0 0 409 425">
    <ellipse cx="204.5" cy="204" fill="#29313A" opacity=".1" rx="204.5" ry="204" />
    <circle cx="204" cy="204" r="153" fill="#29313A" opacity=".2" />
    <ellipse cx="204.5" cy="204" fill="#29313A" opacity=".2" rx="91.5" ry="91" />
    <circle cx="98" cy="377" r="5" fill="#FFBC52" />
    <circle cx="115.5" cy="187.5" r="2.5" fill="#FF646D" />
    <circle cx="288.5" cy="239.5" r="2.5" fill="#0052FF" />
    <ellipse cx="77" cy="289.5" fill="#FF8A1F" rx="3" ry="2.5" />
    <circle cx="227.5" cy="182.5" r="1.5" fill="#9488F0" />
    <circle cx="351" cy="161" r="6" fill="#6046FF" />
    <ellipse cx="166" cy="65.598" fill="#22D49F" rx="2" ry="3" />
    <path fill="#0B0F14"
        d="M245 203.5c0 21.815-17.909 39.5-40 39.5s-40-17.685-40-39.5 17.909-39.5 40-39.5 40 17.685 40 39.5Z" />
    <path fill="url(#a)" fill-rule="evenodd"
        d="M205 239.05c19.882 0 36-15.916 36-35.55 0-19.634-16.118-35.55-36-35.55s-36 15.916-36 35.55c0 19.634 16.118 35.55 36 35.55Zm0 3.95c22.091 0 40-17.685 40-39.5S227.091 164 205 164s-40 17.685-40 39.5 17.909 39.5 40 39.5Z"
        clip-rule="evenodd" />
    <path fill="#9488F0" fill-rule="evenodd"
        d="M205.329 183.75c-2.397 0-4.269.891-5.507 2.339-1.199 1.402-1.701 3.199-1.701 4.914 0 1.814.755 3.853 1.92 5.445 1.142 1.558 2.966 3.053 5.288 3.053 2.318 0 4.142-1.486 5.286-3.045 1.167-1.59 1.921-3.63 1.921-5.453 0-1.711-.479-3.511-1.675-4.918-1.237-1.456-3.115-2.335-5.532-2.335Zm-3.922 7.253c0-1.182.35-2.233.968-2.956.579-.677 1.49-1.186 2.954-1.186 1.504 0 2.409.512 2.973 1.175.606.713.949 1.761.949 2.967 0 1.095-.489 2.526-1.334 3.677-.868 1.184-1.827 1.71-2.588 1.71-.759 0-1.718-.528-2.588-1.716-.847-1.155-1.334-2.587-1.334-3.671Z"
        clip-rule="evenodd" />
    <path fill="#9488F0"
        d="M194.367 206.531c-3.33-.35-6.082 2.172-6.082 4.754 0 2.569 2.139 4.901 6.161 4.901 1.446 0 2.923-.601 4.546-1.72 1.89-1.303 3.458-2.835 5.028-4.369 1.574-1.538 3.149-3.078 5.054-4.391 1.889-1.302 4.046-2.316 6.48-2.316 5.548 0 9.446 3.464 9.446 8.012 0 4.535-4.558 8.39-9.729 7.847-2.076-.216-4.511-.882-6.469-2.688l2.293-2.228c1.245 1.149 2.875 1.65 4.536 1.823h.002c3.33.351 6.082-2.172 6.082-4.754 0-2.569-2.139-4.9-6.161-4.9-1.446 0-2.923.6-4.546 1.719-1.89 1.303-3.458 2.835-5.028 4.369-1.574 1.538-3.149 3.078-5.054 4.392-1.889 1.302-4.046 2.315-6.48 2.315-5.548 0-9.446-3.463-9.446-8.012 0-4.534 4.558-8.39 9.729-7.846 2.076.216 4.511.881 6.469 2.687l-2.293 2.229c-1.245-1.149-2.875-1.651-4.536-1.824h-.002Z" />
    <path fill="#12B886"
        d="M296.177 287.867h-11.266l-1.609 7.1h-6.532l7.904-33.133h11.739l7.905 33.133h-6.532l-1.609-7.1Zm-9.941-5.964h8.568l-3.834-16.945h-.852l-3.882 16.945Zm-12.51 13.064h-6.248v-9.94c0-.757-.205-1.373-.615-1.846-.379-.473-1.026-.71-1.941-.71h-7.195v12.496h-6.248v-33.133h12.686c1.704 0 3.202.236 4.496.71 1.294.473 2.367 1.136 3.219 1.988a7.91 7.91 0 0 1 1.988 2.887 8.924 8.924 0 0 1 .71 3.55v1.136c0 1.357-.363 2.635-1.089 3.834-.726 1.168-1.846 2.067-3.36 2.698v.852c1.104.126 1.972.552 2.603 1.278.663.726.994 1.641.994 2.745v11.455Zm-15.999-18.46h5.964c1.515 0 2.667-.347 3.456-1.041.788-.726 1.183-1.736 1.183-3.03v-.568c0-1.104-.395-2.051-1.183-2.84-.789-.82-1.941-1.23-3.456-1.23h-5.964v8.709Zm-33.857-14.673h20.921v5.964h-14.673v7.573h14.105v5.964h-14.105v7.668h15.241v5.964H223.87v-33.133Z" />
    <path fill="#9488F0"
        d="M207.621 271.49h5.964v23.477h-5.964v-3.408h-.852c-1.041 2.714-3.282 4.071-6.722 4.071-1.167 0-2.256-.189-3.266-.568a7.084 7.084 0 0 1-2.65-1.752c-.758-.788-1.357-1.767-1.799-2.934-.41-1.199-.615-2.604-.615-4.213V271.49h5.964v13.442c0 1.673.394 2.982 1.183 3.929.789.915 1.972 1.373 3.55 1.373 1.799 0 3.108-.568 3.929-1.704.852-1.168 1.278-2.746 1.278-4.734V271.49Zm-45.076 0h9.941v3.408h.852c.441-1.294 1.183-2.288 2.224-2.982 1.073-.726 2.351-1.089 3.834-1.089 2.335 0 4.213.742 5.633 2.225 1.42 1.451 2.13 3.676 2.13 6.674v1.041l-6.153.568v-.662c0-1.294-.332-2.32-.994-3.077-.663-.789-1.657-1.183-2.982-1.183-1.326 0-2.367.457-3.124 1.372-.758.915-1.136 2.225-1.136 3.929v7.573h5.396v5.68h-16.189v-5.68h4.829V277.17h-4.261v-5.68Zm-10.996 0h5.964v23.477h-5.964v-3.408h-.852c-1.041 2.714-3.282 4.071-6.721 4.071-1.168 0-2.256-.189-3.266-.568a7.08 7.08 0 0 1-2.651-1.752c-.757-.788-1.357-1.767-1.799-2.934-.41-1.199-.615-2.604-.615-4.213V271.49h5.964v13.442c0 1.673.395 2.982 1.183 3.929.789.915 1.973 1.373 3.551 1.373 1.798 0 3.108-.568 3.928-1.704.852-1.168 1.278-2.746 1.278-4.734V271.49Zm-35.325 6.721h14.2v16.756h-5.68v-3.692h-.852c-.379 1.231-1.104 2.272-2.177 3.124-1.073.821-2.682 1.231-4.828 1.231-1.515 0-2.935-.284-4.26-.852a9.642 9.642 0 0 1-3.456-2.509c-.978-1.136-1.751-2.524-2.319-4.165-.568-1.673-.852-3.613-.852-5.822v-7.763c0-2.146.3-4.039.899-5.68.631-1.672 1.483-3.077 2.556-4.213a10.597 10.597 0 0 1 3.929-2.556c1.515-.599 3.187-.899 5.017-.899 1.894 0 3.582.316 5.065.947 1.483.599 2.745 1.451 3.787 2.556 1.041 1.073 1.83 2.351 2.366 3.834.537 1.451.805 3.013.805 4.686v.568h-6.248v-.568c0-1.988-.521-3.487-1.562-4.497-1.01-1.041-2.445-1.562-4.307-1.562-1.767 0-3.219.6-4.355 1.799-1.136 1.167-1.704 3.187-1.704 6.058v7.006c0 5.112 2.083 7.668 6.248 7.668 1.862 0 3.266-.489 4.213-1.468.978-1.009 1.467-2.35 1.467-4.023h-7.952v-5.964Z" />
    <defs>
        <linearGradient id="a" x1="165" x2="258.977" y1="164" y2="187.792" gradientUnits="userSpaceOnUse">
            <stop stop-color="#6046FF" />
            <stop offset="1" stop-color="#22D49F" />
        </linearGradient>
    </defs>
</svg>