<svg xmlns="http://www.w3.org/2000/svg" fill="none" viewBox="0 0 36 36"><g clip-path="url(#a)"><path fill="#0B0F14" d="M36 18c0 9.941-8.059 18-18 18S0 27.941 0 18 8.059 0 18 0s18 8.059 18 18Z"/><path fill="url(#b)" fill-rule="evenodd" d="M18 34.2c8.947 0 16.2-7.253 16.2-16.2S26.947 1.8 18 1.8 1.8 9.053 1.8 18 9.053 34.2 18 34.2Zm0 1.8c9.941 0 18-8.059 18-18S27.941 0 18 0 0 8.059 0 18s8.059 18 18 18Z" clip-rule="evenodd"/><path fill="#9488F0" fill-rule="evenodd" d="M18.148 9c-1.079 0-1.92.406-2.478 1.066-.54.639-.765 1.458-.765 2.24 0 .826.34 1.755.864 2.48.513.71 1.334 1.392 2.379 1.392 1.043 0 1.864-.678 2.379-1.388.525-.725.864-1.654.864-2.485 0-.78-.215-1.6-.753-2.24C20.08 9.4 19.235 9 18.148 9Zm-1.765 3.305c0-.538.158-1.018.436-1.347.26-.308.67-.54 1.329-.54.677 0 1.084.233 1.338.535.273.325.427.803.427 1.352 0 .499-.22 1.151-.6 1.676-.391.54-.823.779-1.165.779-.341 0-.773-.24-1.165-.782-.38-.527-.6-1.179-.6-1.673Z" clip-rule="evenodd"/><path fill="#9488F0" d="M13.215 19.381c-1.498-.16-2.737.99-2.737 2.167 0 1.17.963 2.233 2.773 2.233.65 0 1.315-.274 2.045-.784.851-.594 1.556-1.292 2.263-1.99.708-.702 1.417-1.403 2.274-2.002.85-.593 1.82-1.055 2.917-1.055 2.496 0 4.25 1.578 4.25 3.65 0 2.067-2.051 3.824-4.378 3.577-.934-.099-2.03-.402-2.911-1.225l1.032-1.016c.56.524 1.294.753 2.041.831 1.5.16 2.738-.99 2.738-2.166 0-1.17-.963-2.233-2.772-2.233-.651 0-1.316.274-2.046.783-.851.594-1.556 1.292-2.263 1.991-.708.701-1.417 1.403-2.274 2.002-.85.593-1.82 1.055-2.917 1.055-2.496 0-4.25-1.579-4.25-3.651 0-2.067 2.051-3.824 4.378-3.576.934.099 2.03.402 2.911 1.225l-1.032 1.015c-.56-.523-1.294-.752-2.041-.83Z"/></g><defs><linearGradient id="b" x1="0" x2="42.353" y1="0" y2="10.588" gradientUnits="userSpaceOnUse"><stop stop-color="#6046FF"/><stop offset="1" stop-color="#22D49F"/></linearGradient><clipPath id="a"><path fill="#fff" d="M0 0h36v36H0z"/></clipPath></defs></svg>