<svg xmlns="http://www.w3.org/2000/svg" xmlns:xlink="http://www.w3.org/1999/xlink" id="eFT91NGbaMW1" viewBox="0 0 60 88" shape-rendering="geometricPrecision" text-rendering="geometricPrecision" project-id="11f378d534f0461884de00524d88aa07" export-id="d64da955cb314d51b78002c86469dd87" cached="false" style="background-color:transparent">
<style><![CDATA[
#eFT91NGbaMW9_to {animation: eFT91NGbaMW9_to__to 3000ms linear infinite normal forwards}@keyframes eFT91NGbaMW9_to__to { 0% {transform: translate(48px,65.5px)} 53.333333% {transform: translate(48px,65.5px)} 92.233333% {transform: translate(48px,8px)} 100% {transform: translate(48px,8px)}} #eFT91NGbaMW9 {animation: eFT91NGbaMW9_c_o 3000ms linear infinite normal forwards}@keyframes eFT91NGbaMW9_c_o { 0% {opacity: 0} 53% {opacity: 0;animation-timing-function: step-end} 53.333333% {opacity: 1;animation-timing-function: step-end} 82.233333% {opacity: 1} 92.233333% {opacity: 0} 100% {opacity: 0}} #eFT91NGbaMW17_to {animation: eFT91NGbaMW17_to__to 3000ms linear infinite normal forwards}@keyframes eFT91NGbaMW17_to__to { 0% {transform: translate(15px,65.5px)} 26.666667% {transform: translate(15px,65.5px)} 65.566667% {transform: translate(15px,8px)} 100% {transform: translate(15px,8px)}} #eFT91NGbaMW17 {animation: eFT91NGbaMW17_c_o 3000ms linear infinite normal forwards}@keyframes eFT91NGbaMW17_c_o { 0% {opacity: 0} 26.333333% {opacity: 0;animation-timing-function: step-end} 26.666667% {opacity: 1;animation-timing-function: step-end} 55.566667% {opacity: 1} 65.566667% {opacity: 0} 100% {opacity: 0}} #eFT91NGbaMW25_to {animation: eFT91NGbaMW25_to__to 3000ms linear infinite normal forwards}@keyframes eFT91NGbaMW25_to__to { 0% {transform: translate(10px,60px)} 73.333333% {transform: translate(10px,60px)} 98.9% {transform: translate(10px,25px)} 100% {transform: translate(10px,25px)}} #eFT91NGbaMW25 {animation: eFT91NGbaMW25_c_o 3000ms linear infinite normal forwards}@keyframes eFT91NGbaMW25_c_o { 0% {opacity: 0} 73% {opacity: 0;animation-timing-function: step-end} 73.333333% {opacity: 1;animation-timing-function: step-end} 88.9% {opacity: 1} 98.9% {opacity: 0} 100% {opacity: 0}} #eFT91NGbaMW33_to {animation: eFT91NGbaMW33_to__to 3000ms linear infinite normal forwards}@keyframes eFT91NGbaMW33_to__to { 0% {transform: translate(28px,52.5px)} 14.433333% {transform: translate(28px,52.5px)} 47.766667% {transform: translate(28px,5px)} 100% {transform: translate(28px,5px)}} #eFT91NGbaMW33 {animation: eFT91NGbaMW33_c_o 3000ms linear infinite normal forwards}@keyframes eFT91NGbaMW33_c_o { 0% {opacity: 0} 14.1% {opacity: 0;animation-timing-function: step-end} 14.433333% {opacity: 1;animation-timing-function: step-end} 37.766667% {opacity: 1} 47.766667% {opacity: 0} 100% {opacity: 0}} #eFT91NGbaMW41_to {animation: eFT91NGbaMW41_to__to 3000ms linear infinite normal forwards}@keyframes eFT91NGbaMW41_to__to { 0% {transform: translate(43.875px,52.5px)} 38.9% {transform: translate(46px,5px)} 100% {transform: translate(46px,5px)}} #eFT91NGbaMW41 {animation: eFT91NGbaMW41_c_o 3000ms linear infinite normal forwards}@keyframes eFT91NGbaMW41_c_o { 0% {opacity: 1} 28.9% {opacity: 1} 38.9% {opacity: 0} 100% {opacity: 0}} #eFT91NGbaMW90_tr {animation: eFT91NGbaMW90_tr__tr 3000ms linear infinite normal forwards}@keyframes eFT91NGbaMW90_tr__tr { 0% {transform: translate(135.33781px,207.03926px) rotate(720deg);animation-timing-function: cubic-bezier(0.415,0.08,0.115,0.955)} 100% {transform: translate(135.33781px,207.03926px) rotate(439.480519deg)}} #eFT91NGbaMW90 {animation: eFT91NGbaMW90_f_p 3000ms linear infinite normal forwards}@keyframes eFT91NGbaMW90_f_p { 0% {fill: #d2dbed} 100% {fill: #d2dbed}} #eFT91NGbaMW91_tr {animation: eFT91NGbaMW91_tr__tr 3000ms linear infinite normal forwards}@keyframes eFT91NGbaMW91_tr__tr { 0% {transform: translate(11.12px,29.9px) rotate(-720deg);animation-timing-function: cubic-bezier(0.415,0.08,0.115,0.955)} 100% {transform: translate(11.12px,29.9px) rotate(-439.480519deg)}}
]]></style>
<defs><linearGradient id="eFT91NGbaMW84-fill" x1="0.5" y1="0" x2="0.5" y2="1" spreadMethod="pad" gradientUnits="objectBoundingBox" gradientTransform="translate(0 0)"><stop id="eFT91NGbaMW84-fill-0" offset="0%" stop-color="rgba(255,255,255,0)"/><stop id="eFT91NGbaMW84-fill-1" offset="100%" stop-color="#010022"/></linearGradient></defs><g transform="translate(2 24.99995)"><g><path d="M8,0.5c0,0,40,0,40,0c4.1421,0,7.5,3.35786,7.5,7.5c0,0,0,21.5,0,21.5s-55,0-55,0s0-21.5,0-21.5C0.5,3.85786,3.85786,0.5,8,0.5c0,0,0,0,0,0Z" fill="#fdca52" stroke="#090a0c"/></g><g><path d="M52,29.5c0,0,.5,0,.5,0s0-.5,0-.5s0-21,0-21c0-2.48528-2.0147-4.5-4.5-4.5c0,0-40,0-40,0C5.51472,3.5,3.5,5.51472,3.5,8c0,0,0,21,0,21s0,.5,0,.5.5,0,.5,0s48,0,48,0s0,0,0,0Z" fill="#a41e20" stroke="#090a0c"/></g><g><path d="M6,5c0-.55228.44772-1,1-1C7,4,49,4,49,4c.5523,0,1,.44772,1,1c0,0,0,0,0,0s-44,0-44,0s0,0,0,0s0,0,0,0Z" fill="#d67577" stroke-width="0"/></g></g><g id="eFT91NGbaMW9_to" transform="translate(48,65.5)"><g id="eFT91NGbaMW9" transform="translate(-5,-5)" opacity="0" clip-path="url(#eFT91NGbaMW15)"><g><g><ellipse rx="4.5" ry="4.5" transform="translate(5 5)" fill="#ffe059" stroke="#090a0c"/></g><g><ellipse rx="2" ry="2" transform="translate(5 5)" fill="#7e6fed" stroke-width="0"/></g></g><clipPath id="eFT91NGbaMW15"><rect width="64" height="88" rx="0" ry="0" fill="none" stroke-width="0"/></clipPath></g></g><g id="eFT91NGbaMW17_to" transform="translate(15,65.5)"><g id="eFT91NGbaMW17" transform="translate(-5,-5)" opacity="0" clip-path="url(#eFT91NGbaMW23)"><g><g><ellipse rx="4.5" ry="4.5" transform="translate(5 5)" fill="#ffe059" stroke="#090a0c"/></g><g><ellipse rx="2" ry="2" transform="translate(5 5)" fill="#7e6fed" stroke-width="0"/></g></g><clipPath id="eFT91NGbaMW23"><rect width="64" height="88" rx="0" ry="0" fill="none" stroke-width="0"/></clipPath></g></g><g id="eFT91NGbaMW25_to" transform="translate(10,60)"><g id="eFT91NGbaMW25" transform="translate(-5,-5)" opacity="0" clip-path="url(#eFT91NGbaMW31)"><g><g><ellipse rx="4.5" ry="4.5" transform="translate(5 5)" fill="#ffe059" stroke="#090a0c"/></g><g><ellipse rx="2" ry="2" transform="translate(5 5)" fill="#7e6fed" stroke-width="0"/></g></g><clipPath id="eFT91NGbaMW31"><rect width="64" height="88" rx="0" ry="0" fill="none" stroke-width="0"/></clipPath></g></g><g id="eFT91NGbaMW33_to" transform="translate(28,52.5)"><g id="eFT91NGbaMW33" transform="translate(-5,-5)" opacity="0" clip-path="url(#eFT91NGbaMW39)"><g><g><ellipse rx="4.5" ry="4.5" transform="translate(5 5)" fill="#ffe059" stroke="#090a0c"/></g><g><ellipse rx="2" ry="2" transform="translate(5 5)" fill="#7e6fed" stroke-width="0"/></g></g><clipPath id="eFT91NGbaMW39"><rect width="64" height="88" rx="0" ry="0" fill="none" stroke-width="0"/></clipPath></g></g><g id="eFT91NGbaMW41_to" transform="translate(43.875,52.5)"><g id="eFT91NGbaMW41" transform="translate(-5,-5)" clip-path="url(#eFT91NGbaMW47)"><g><g><ellipse rx="4.5" ry="4.5" transform="translate(5 5)" fill="#ffe059" stroke="#090a0c"/></g><g><ellipse rx="2" ry="2" transform="translate(5 5)" fill="#7e6fed" stroke-width="0"/></g></g><clipPath id="eFT91NGbaMW47"><rect width="64" height="88" rx="0" ry="0" fill="none" stroke-width="0"/></clipPath></g></g><g transform="translate(0 35.5)"><rect width="7" height="3" rx="0" ry="0" transform="translate(44 15)" fill="#ffaf41"/><rect width="7" height="3" rx="0" ry="0" transform="translate(37 12)" fill="#ffaf41"/><rect width="7" height="3" rx="0" ry="0" transform="translate(37 6)" fill="#ffaf41"/><rect width="7" height="3" rx="0" ry="0" transform="translate(30 15)" fill="#ffaf41"/><rect width="7" height="3" rx="0" ry="0" transform="translate(23 12)" fill="#ffaf41"/><rect width="7" height="3" rx="0" ry="0" transform="translate(23 6)" fill="#ffaf41"/><rect width="7" height="3" rx="0" ry="0" transform="translate(23 0)" fill="#ffaf41"/><rect width="7" height="3" rx="0" ry="0" transform="translate(30 9)" fill="#ffaf41"/><rect width="7" height="3" rx="0" ry="0" transform="translate(30 3)" fill="#ffaf41"/><rect width="7" height="3" rx="0" ry="0" transform="translate(16 15)" fill="#ffaf41"/><rect width="7" height="3" rx="0" ry="0" transform="translate(9 12)" fill="#ffaf41"/><rect width="7" height="3" rx="0" ry="0" transform="translate(16 9)" fill="#ffaf41"/><rect width="7" height="3" rx="0" ry="0" transform="translate(37 15)" fill="#ffe059"/><rect width="7" height="3" rx="0" ry="0" transform="translate(30 12)" fill="#ffe059"/><rect width="7" height="3" rx="0" ry="0" transform="translate(30 6)" fill="#ffe059"/><rect width="7" height="3" rx="0" ry="0" transform="translate(44 12)" fill="#ffe059"/><rect width="7" height="3" rx="0" ry="0" transform="translate(37 9)" fill="#ffe059"/><rect width="7" height="3" rx="0" ry="0" transform="translate(23 15)" fill="#ffe059"/><rect width="7" height="3" rx="0" ry="0" transform="translate(16 12)" fill="#ffe059"/><rect width="7" height="3" rx="0" ry="0" transform="translate(16 6)" fill="#ffe059"/><rect width="7" height="3" rx="0" ry="0" transform="translate(23 9)" fill="#ffe059"/><rect width="7" height="3" rx="0" ry="0" transform="translate(23 3)" fill="#ffe059"/><rect width="7" height="3" rx="0" ry="0" transform="translate(9 15)" fill="#ffe059"/><rect width="59" height="34" rx="0" ry="0" transform="translate(.5 18.5)" fill="#fdca52" stroke="#090a0c"/><rect width="51" height="26" rx="0" ry="0" transform="translate(4.5 22.5)" fill="#b55733" stroke="#090a0c"/><rect width="50" height="4" rx="0" ry="0" transform="translate(5 23)" fill="#81391d"/><rect width="20" height="4" rx="0" ry="0" transform="translate(20 38)" fill="#81391d"/><rect width="5" height="26" rx="0" ry="0" transform="translate(15.5 22.5)" fill="#fdca52" stroke="#090a0c"/><rect width="5" height="26" rx="0" ry="0" transform="translate(39.5 22.5)" fill="#fdca52" stroke="#090a0c"/><rect width="4" height="27" rx="0" ry="0" transform="translate(16 22)" fill="#fdca52"/><rect width="4" height="27" rx="0" ry="0" transform="translate(40 22)" fill="#fdca52"/><path d="M19,17.5h-.5v.5v17c0,1.933,1.567,3.5,3.5,3.5h16c1.933,0,3.5-1.567,3.5-3.5v-17-.5h-.5-22Z" fill="#7e6fed" stroke="#090a0c"/><path d="M30.0986,22c-.7191,0-1.2805.2758-1.652.7237-.3597.4338-.5103.9899-.5103,1.5206c0,.5613.2264,1.1923.5761,1.6847.3426.4822.8896.9448,1.5862.9448.6956,0,1.2427-.46,1.5858-.9422.3502-.4922.5764-1.1234.5764-1.6873c0-.5293-.1437-1.0865-.5024-1.5218C31.3871,22.272,30.8237,22,30.0986,22ZM28.922,24.2443c0-.3658.1051-.6911.2905-.9147.1737-.2094.447-.3669.8861-.3669.4514,0,.7228.1582.892.3636.1818.2205.2846.5449.2846.918c0,.3387-.1466.7816-.4001,1.1378-.2605.3662-.5481.529-.7765.529-.2275,0-.5152-.1632-.7763-.5309-.254-.3576-.4003-.8006-.4003-1.1359Z" clip-rule="evenodd" fill="#fff" fill-rule="evenodd"/><path d="M26.8101,29.049c-.999-.1084-1.8245.6721-1.8245,1.4711c0,.7948.6416,1.5163,1.8481,1.5163.4338,0,.877-.1858,1.3639-.5321.567-.4032,1.0374-.8773,1.5083-1.3519.4722-.4759.9449-.9524,1.5164-1.3588.5665-.4028,1.2136-.7164,1.944-.7164c1.6642,0,2.8337,1.0716,2.8337,2.479c0,1.4031-1.3673,2.5961-2.9186,2.4279-.6228-.0669-1.3534-.2727-1.9407-.8316l.6878-.6896c.3736.3556.8626.5108,1.3609.5643l.0005.0001c.999.1084,1.8245-.6721,1.8245-1.4711c0-.7949-.6416-1.5163-1.8481-1.5163-.4338,0-.877.1858-1.3639.532-.567.4033-1.0374.8773-1.5083,1.352-.4722.4759-.9449.9524-1.5164,1.3587-.5665.4029-1.2136.7165-1.944.7165-1.6642,0-2.8337-1.0716-2.8337-2.479c0-1.4031,1.3673-2.5962,2.9186-2.428.6229.0669,1.3534.2727,1.9407.8317l-.6878.6895c-.3736-.3555-.8626-.5108-1.3609-.5642l-.0005-.0001Z" fill="#fff"/></g></svg>