<svg width="24" height="24" viewBox="0 0 24 24" fill="none" xmlns="http://www.w3.org/2000/svg">
<symbol width="24" height="24" id="icon" viewBox="0 0 24 24">
<path fill-rule="evenodd" clip-rule="evenodd" d="M10.0056 1.13115C10.2957 0.965832 10.6492 0.956241 10.9479 1.10558C14.7115 2.98748 16.0947 6.78917 15.2651 10.5148C15.9003 9.91508 16.3775 9.20729 16.552 8.68377C16.6643 8.34694 16.9467 8.09489 17.2941 8.02156C17.6415 7.94823 18.0018 8.06461 18.2406 8.32733C21.0204 11.3851 21.1805 14.793 20.1215 17.5465C19.096 20.2126 16.8881 22.3579 14.7752 22.9615C14.5815 23.0169 14.3755 23.0124 14.1843 22.9487C12.3628 22.3415 11.0805 20.8619 10.2246 19.545C10.0481 19.2735 9.88405 18.9991 9.73298 18.7309C9.59581 19.8525 9.69984 20.9357 9.9492 21.6838C10.0771 22.0675 9.96127 22.4904 9.65572 22.7555C9.35016 23.0205 8.91506 23.0753 8.5533 22.8944C7.45659 22.3461 5.89389 21.2985 4.6891 19.7305C3.4684 18.1418 2.60475 15.9982 3.01228 13.348C3.27581 11.6343 3.83011 10.4152 4.55044 9.45016C5.18126 8.60501 5.92612 7.98039 6.57239 7.43846C6.64241 7.37975 6.71126 7.322 6.77869 7.26506C7.48994 6.66439 8.08742 6.11993 8.55484 5.35089C9.01543 4.59308 9.38736 3.55048 9.5032 1.92875C9.52699 1.59568 9.71546 1.29646 10.0056 1.13115ZM11.285 3.68474C11.0659 4.77161 10.7145 5.64829 10.2639 6.38965C9.61602 7.45564 8.80013 8.1757 8.06913 8.79306C8.00235 8.84945 7.93652 8.90483 7.87163 8.95941C7.20535 9.51988 6.63766 9.99741 6.1532 10.6465C5.64272 11.3304 5.20651 12.2378 4.98904 13.652C4.6805 15.6584 5.31677 17.2648 6.27501 18.512C6.70014 19.0652 7.18641 19.5435 7.67458 19.9445C7.64375 18.5257 7.91262 16.94 8.60623 15.5528C8.77564 15.214 9.12194 15 9.50074 15C9.87954 15 10.2258 15.2141 10.3952 15.5529C10.4694 15.7015 10.5521 15.8822 10.6465 16.0883C10.9312 16.7102 11.3214 17.5625 11.9015 18.455C12.6053 19.5378 13.4756 20.4843 14.5215 20.9381C15.8585 20.4154 17.4645 18.8834 18.2548 16.8285C18.9439 15.0369 18.987 12.9098 17.6467 10.8207C17.3258 11.2652 16.9484 11.6857 16.5514 12.0497C15.7464 12.7876 14.6336 13.5 13.5007 13.5C13.1541 13.5 12.8322 13.3205 12.65 13.0257C12.4678 12.7309 12.4512 12.3628 12.6062 12.0528C14.1714 8.92252 13.6646 5.61886 11.285 3.68474Z" fill="currentColor"/>
</symbol>
</svg>
