<svg width="24" height="24" viewBox="0 0 24 24" fill="none" xmlns="http://www.w3.org/2000/svg">
<symbol width="24" height="24" id="icon" viewBox="0 0 24 24">
<path fill-rule="evenodd" clip-rule="evenodd" d="M17.2187 3.00733C18.3422 3.25427 19.362 3.87694 20.2426 4.75754C22.5858 7.10068 22.5858 10.8997 20.2426 13.2428L13.4142 20.0712C12.6332 20.8523 11.3668 20.8523 10.5858 20.0712L3.75736 13.2428C1.41421 10.8997 1.41421 7.10068 3.75736 4.75754C4.63795 3.87694 5.65777 3.25427 6.78131 3.00733C7.91567 2.75801 9.08622 2.90772 10.2198 3.46083C10.759 3.72397 11.4252 4.16061 12 4.75001C12.5748 4.16061 13.2409 3.72397 13.7802 3.46083C14.9138 2.90772 16.0843 2.75801 17.2187 3.00733ZM16.7893 4.9607C16.1261 4.81492 15.4144 4.88883 14.6573 5.25827C14.0216 5.56845 13.2455 6.17757 12.8938 6.87838C12.7241 7.21645 12.3782 7.42986 12 7.42986C11.6217 7.42986 11.2759 7.21645 11.1062 6.87838C10.7545 6.17756 9.97841 5.56845 9.34272 5.25827C8.58559 4.88883 7.87392 4.81492 7.21064 4.9607C6.53654 5.10886 5.84331 5.50001 5.17157 6.17175C3.60948 7.73385 3.60948 10.2665 5.17157 11.8286L12 18.657L18.8284 11.8286C20.3905 10.2665 20.3905 7.73385 18.8284 6.17175C18.1567 5.50001 17.4634 5.10886 16.7893 4.9607Z" fill="currentColor"/>
</symbol>
</svg>
