<svg width="24" height="24" viewBox="0 0 24 24" fill="none" xmlns="http://www.w3.org/2000/svg">
<symbol width="24" height="24" id="icon" viewBox="0 0 24 24">
<path fill-rule="evenodd" clip-rule="evenodd" d="M10.7721 2.6879C11.4943 2.12617 12.5057 2.12617 13.2279 2.6879L19.8418 7.83207C20.5726 8.40044 21 9.27436 21 10.2001V18.9997C21 20.6566 19.6569 21.9997 18 21.9997H6C4.34315 21.9997 3 20.6566 3 18.9997V10.2001C3 9.27436 3.42742 8.40044 4.15818 7.83207L10.7721 2.6879ZM18.6139 9.41078L12 4.2666L5.38606 9.41078C5.14247 9.60023 5 9.89154 5 10.2001V18.9997C5 19.552 5.44772 19.9997 6 19.9997H18C18.5523 19.9997 19 19.552 19 18.9997V10.2001C19 9.89154 18.8575 9.60023 18.6139 9.41078Z" fill="currentColor"/>
</symbol>
</svg>
