<svg width="24" height="24" viewBox="0 0 24 24" fill="none" xmlns="http://www.w3.org/2000/svg">
<symbol width="24" height="24" id="icon" viewBox="0 0 24 24">
<path fill-rule="evenodd" clip-rule="evenodd" d="M7.19922 4.0002C7.19922 3.00608 8.00511 2.2002 8.99922 2.2002H13.9992C14.9933 2.2002 15.7992 3.00608 15.7992 4.0002V7.2002H20.9992C21.9933 7.2002 22.7992 8.00608 22.7992 9.0002V19.0002C22.7992 19.9943 21.9933 20.8002 20.9992 20.8002H1.99922C1.00511 20.8002 0.199219 19.9943 0.199219 19.0002V12.0002C0.199219 11.0061 1.00511 10.2002 1.99922 10.2002H7.19922V4.0002ZM8.79922 19.2002H14.1992V4.0002C14.1992 3.88974 14.1097 3.8002 13.9992 3.8002H8.99922C8.88876 3.8002 8.79922 3.88974 8.79922 4.0002V19.2002ZM15.7992 19.2002H20.9992C21.1097 19.2002 21.1992 19.1107 21.1992 19.0002V9.0002C21.1992 8.88974 21.1097 8.8002 20.9992 8.8002H15.7992V19.2002ZM7.19922 19.2002V11.8002H1.99922C1.88876 11.8002 1.79922 11.8897 1.79922 12.0002V19.0002C1.79922 19.1107 1.88876 19.2002 1.99922 19.2002H7.19922Z" fill="currentColor"/>
</symbol>
</svg>
