<svg width="24" height="24" viewBox="0 0 24 24" fill="none" xmlns="http://www.w3.org/2000/svg">
<symbol width="24" height="24" id="icon" viewBox="0 0 24 24">
<path d="M24 12C24 18.6274 18.6274 24 12 24C5.37258 24 0 18.6274 0 12C0 5.37258 5.37258 0 12 0C18.6274 0 24 5.37258 24 12Z" fill="#00D964"/>
<path fill-rule="evenodd" clip-rule="evenodd" d="M17.6485 8.75147C18.1172 9.2201 18.1172 9.9799 17.6485 10.4485L11.6485 16.4485C11.1799 16.9172 10.4201 16.9172 9.95147 16.4485L6.35147 12.8485C5.88284 12.3799 5.88284 11.6201 6.35147 11.1515C6.8201 10.6828 7.5799 10.6828 8.04853 11.1515L10.8 13.9029L15.9515 8.75147C16.4201 8.28284 17.1799 8.28284 17.6485 8.75147Z" fill="black"/>
</symbol>
</svg>
