<svg width="24" height="24" viewBox="0 0 24 24" fill="none" xmlns="http://www.w3.org/2000/svg">
<symbol width="24" height="24" id="icon" viewBox="0 0 24 24">
<path fill-rule="evenodd" clip-rule="evenodd" d="M14.8231 1.59961C15.1579 1.59961 15.4572 1.80803 15.5734 2.12198L17.276 6.7232L21.8772 8.4258C22.1912 8.54197 22.3996 8.84133 22.3996 9.17608C22.3996 9.51083 22.1912 9.81019 21.8772 9.92636L17.276 11.629L15.5734 16.2302C15.4572 16.5441 15.1579 16.7526 14.8231 16.7526C14.4884 16.7526 14.189 16.5441 14.0729 16.2302L12.3703 11.629L7.76904 9.92636C7.45509 9.81019 7.24667 9.51083 7.24667 9.17608C7.24667 8.84133 7.45509 8.54197 7.76904 8.4258L12.3703 6.7232L14.0729 2.12198C14.189 1.80803 14.4884 1.59961 14.8231 1.59961ZM14.8231 4.70484L13.7432 7.62345C13.6621 7.84242 13.4895 8.01507 13.2705 8.0961L10.3519 9.17608L13.2705 10.2561C13.4895 10.3371 13.6621 10.5097 13.7432 10.7287L14.8231 13.6473L15.9031 10.7287C15.9841 10.5097 16.1568 10.3371 16.3758 10.2561L19.2944 9.17608L16.3758 8.0961C16.1568 8.01507 15.9841 7.84242 15.9031 7.62345L14.8231 4.70484ZM6.35255 12.8937C6.6176 12.8937 6.86544 13.025 7.01435 13.2443L8.5273 15.4719L10.755 16.9849C10.9742 17.1338 11.1055 17.3816 11.1055 17.6467C11.1055 17.9117 10.9742 18.1596 10.755 18.3085L8.5273 19.8214L7.01435 22.0491C6.86544 22.2683 6.6176 22.3996 6.35255 22.3996C6.08751 22.3996 5.83966 22.2683 5.69075 22.0491L4.17781 19.8214L1.95014 18.3085C1.73088 18.1596 1.59961 17.9117 1.59961 17.6467C1.59961 17.3816 1.73088 17.1338 1.95014 16.9849L4.17781 15.4719L5.69075 13.2443C5.83966 13.025 6.08751 12.8937 6.35255 12.8937ZM6.35255 15.1176L5.41552 16.4973C5.35878 16.5809 5.28674 16.6529 5.20319 16.7096L3.82351 17.6467L5.20319 18.5837C5.28674 18.6404 5.35878 18.7125 5.41552 18.796L6.35255 20.1757L7.28958 18.796C7.34632 18.7125 7.41836 18.6404 7.50191 18.5837L8.88159 17.6467L7.50191 16.7096C7.41836 16.6529 7.34632 16.5809 7.28958 16.4973L6.35255 15.1176Z" fill="currentColor"/>
</symbol>
</svg>
