<svg width="244" height="220" viewBox="0 0 244 220" fill="none" xmlns="http://www.w3.org/2000/svg">
  <g clip-path="url(#clip0_1426_4481)">
    <path d="M153.941 102.856C154.615 102.869 160.231 104.096 162.503 107.131C164.776 110.165 160.759 116.854 171.065 129.137C181.358 141.42 203.687 143.281 211.047 123.622C209.448 121.234 206.766 116.538 208.973 113.978C211.179 111.418 219.397 111.207 219.397 111.207L221.34 118.015C221.34 118.015 215.183 120.931 219.873 123.965C224.564 127 226.889 121.102 223.084 118.675L226.03 111.379C226.03 111.379 240.472 116.907 231.58 127.185C237.459 127.673 241.278 124.388 241.278 124.388C244.29 128.464 244.013 134.784 244.013 134.784C239.269 136.301 231.381 135.457 231.381 135.457C231.381 135.457 235.121 138.742 240.736 139.705C239.203 144.745 236.125 147.793 236.125 147.793C230.245 147.252 223.018 144.151 223.018 144.151C223.018 144.151 206.766 162.477 183.908 157.912C161.037 153.36 154.919 133.108 154.919 133.108L153.955 102.856H153.941Z" fill="#00B0F3"/>
    <path d="M162.492 107.131C163.258 108.16 163.311 109.611 163.443 111.564C161.553 118.477 160.523 128.135 163.826 139.217C167.658 152.081 182.971 156.777 194.665 158.466C191.282 158.783 187.675 158.664 183.883 157.899C161.012 153.334 154.894 133.095 154.894 133.095L153.93 102.843C154.604 102.856 160.219 104.083 162.492 107.117V107.131Z" fill="#0063A2"/>
    <path d="M223.073 118.675C223.073 118.675 230.366 121.406 228.754 130.47C227.142 139.534 222.333 142.449 218.461 139.217C214.59 135.998 217.787 130.747 217.787 130.747C211.366 126.696 215.251 117.765 221.328 118.015C221.328 118.015 215.171 120.931 219.862 123.965C224.552 127 226.878 121.102 223.073 118.675Z" fill="#0063A2"/>
    <path d="M174.384 132.29C175.203 132.963 176.062 133.583 176.961 134.164C171.755 138.082 167.897 143.254 165.915 149.072C165.333 148.558 164.779 148.043 164.25 147.529C166.126 141.737 169.588 136.46 174.384 132.304V132.29Z" fill="#0063A2"/>
    <path d="M194.917 150.418C195.498 153.07 196.476 155.603 197.77 158.004C197.031 158.136 196.291 158.242 195.538 158.321C192.75 151.988 191.917 144.969 193.146 138.201C193.82 138.135 194.494 138.043 195.154 137.911C194.137 141.988 193.992 146.236 194.917 150.418Z" fill="#0063A2"/>
    <path d="M111.504 68.4738L114.464 89.2534H127.412L129.183 68.4738H111.504Z" fill="#0063A2"/>
    <path d="M108.951 6.57033C108.951 6.57033 109.955 0.989519 110.047 0.778424C110.497 -0.0659534 123.036 -0.59369 124.912 1.18742C125.321 2.8234 125.691 6.41201 125.691 6.41201L108.938 6.57033H108.951Z" fill="#E88000"/>
    <path d="M99.5694 12.8108C99.5694 12.8108 99.2655 7.16402 100.468 5.23778C101.67 3.31155 127.395 1.35892 134.359 4.86837C138.019 7.46747 137.371 14.5787 137.371 14.5787L99.5694 12.7976V12.8108Z" fill="#FFAD00"/>
    <path d="M86.3303 42.9182C86.3303 42.9182 82.0229 44.0396 81.8115 44.3167C81.6001 44.5937 81.2566 51.0321 83.7141 54.8714C84.3219 55.254 87.8762 54.8714 87.8762 54.8714L86.3171 42.9182H86.3303Z" fill="#E88000"/>
    <path d="M94.0742 31.1497C94.0742 31.1497 85.8559 31.9676 85.116 37.1527C84.3761 42.4564 85.4331 56.5074 88.657 60.6369C91.141 62.8138 97.8267 61.7847 97.8267 61.7847L94.0875 31.1497H94.0742Z" fill="#FFAD00"/>
    <path d="M152.382 42.9181C152.382 42.9181 156.689 44.0395 156.901 44.3166C157.112 44.5937 157.456 51.032 154.998 54.8713C154.39 55.2539 150.836 54.8713 150.836 54.8713L152.395 42.9181H152.382Z" fill="#E88000"/>
    <path d="M144.651 31.1496C144.651 31.1496 152.869 31.9676 153.609 37.1526C154.349 42.4563 153.292 56.5073 150.068 60.6369C147.584 62.8138 140.898 61.7847 140.898 61.7847L144.638 31.1496H144.651Z" fill="#FFAD00"/>
    <path d="M88.6983 17.1383C88.7247 17.4153 94.208 61.0855 93.5078 70.6507C94.3137 76.8516 140.439 76.2183 142.752 73.2894C145.566 60.7953 148.063 18.8666 147.363 15.0405C145.764 9.84233 86.8617 1.45132 88.6983 17.1383Z" fill="#00B0F3"/>
    <path d="M107.758 37.377C105.155 40.2532 100.756 40.2796 97.8752 37.7333C97.2674 37.1923 96.805 38.7228 96.7653 38.9866C96.6332 39.7386 96.7125 40.6754 97.3335 41.2427C100.676 44.2112 105.671 43.7626 108.578 40.5434C109.304 39.7518 108.763 36.2556 107.745 37.377H107.758Z" fill="#232A33"/>
    <path d="M141.192 37.6803C138.55 39.9496 134.48 39.8573 131.97 37.4692C130.82 36.3742 130.226 39.8441 131.018 40.6093C134.176 43.6042 138.721 43.6833 142.025 40.8468C142.844 40.1343 142.421 36.6381 141.192 37.6803Z" fill="#232A33"/>
    <path d="M105.634 49.6865C105.634 49.6865 127.29 48.4067 133.447 50.2934C133.777 56.3096 132.509 58.6184 129.232 59.8322C125.955 61.046 113.192 60.9932 108.105 58.8559C103.665 56.9956 105.634 49.6733 105.634 49.6733V49.6865Z" fill="#F5F2F9"/>
    <path d="M128.615 49.5413C128.43 53.0771 128.245 56.6129 128.047 60.1619C128.536 60.0696 128.945 59.9641 129.262 59.8453C129.461 59.7662 129.659 59.687 129.844 59.6078C130.016 56.3095 130.201 53.0111 130.372 49.7128C129.817 49.6468 129.236 49.594 128.615 49.5413Z" fill="#D3CCE0"/>
    <path d="M110.114 49.4753C109.467 49.5017 108.872 49.5281 108.344 49.5545C108.41 52.7077 108.476 55.8741 108.529 59.0274C109.057 59.2253 109.652 59.3968 110.312 59.5551C110.246 56.1908 110.18 52.8397 110.114 49.4753Z" fill="#D3CCE0"/>
    <path d="M116.258 49.3039C115.65 49.3039 115.042 49.3303 114.461 49.3435C114.461 52.9849 114.487 56.6262 114.487 60.2676C115.082 60.3336 115.677 60.3864 116.284 60.4391C116.284 56.7318 116.258 53.0112 116.258 49.3039Z" fill="#D3CCE0"/>
    <path d="M123.287 60.5974C123.221 56.824 123.141 53.0507 123.075 49.2906C122.494 49.2906 121.899 49.2774 121.305 49.2642C121.371 53.0507 121.45 56.8372 121.516 60.6237C122.124 60.6237 122.718 60.6237 123.287 60.5974Z" fill="#D3CCE0"/>
    <path d="M142.71 73.3685C127.185 75.2816 96.6769 71.9964 96.743 65.6899C96.6373 59.8453 92.4489 38.2213 89.5156 23.8141C91.0219 36.4666 94.0608 63.4075 93.5191 70.6771C94.3119 76.8384 139.909 76.2447 142.71 73.3685Z" fill="#0063A2"/>
    <path d="M111.5 62.4972C111.5 62.4972 119.824 63.7242 127.501 62.9062C121.304 66.6399 113.059 63.9089 111.5 62.4972Z" fill="#0063A2"/>
    <path d="M102.172 28.5372C102.172 28.5372 109.439 25.6611 114.156 29.0782C112.953 22.653 104.577 22.8377 102.172 28.5372Z" fill="#0063A2"/>
    <path d="M127.449 29.0915C127.449 29.0915 131.466 25.3049 137.372 28.3658C135.364 22.7982 127.951 22.6663 127.449 29.0915Z" fill="#0063A2"/>
    <path d="M90.0564 102.856C89.3825 102.869 83.7671 104.096 81.4945 107.13C79.2219 110.165 83.2386 116.854 72.9326 129.137C62.6399 141.42 40.3103 143.28 32.9508 123.622C34.5495 121.234 37.2317 116.537 35.0252 113.978C32.8187 111.418 24.6003 111.207 24.6003 111.207L22.658 118.015C22.658 118.015 28.8152 120.931 24.1247 123.965C19.4341 127 17.1087 121.102 20.914 118.675L17.9675 111.379C17.9675 111.379 3.52597 116.907 12.4182 127.184C6.53848 127.673 2.71999 124.387 2.71999 124.387C-0.266092 128.451 -0.00183691 134.771 -0.00183691 134.771C4.74154 136.288 12.6296 135.443 12.6296 135.443C12.6296 135.443 8.89035 138.729 3.27493 139.692C4.80761 144.732 7.88618 147.779 7.88618 147.779C13.7659 147.238 20.9932 144.138 20.9932 144.138C20.9932 144.138 37.2449 162.464 60.103 157.899C82.9611 153.334 89.0918 133.095 89.0918 133.095L90.0564 102.843V102.856Z" fill="#00B0F3"/>
    <path d="M81.509 107.13C80.7427 108.159 80.6898 109.611 80.5577 111.563C82.4471 118.477 83.4777 128.134 80.1745 139.217C76.3296 152.08 61.0292 156.777 49.3359 158.466C52.7184 158.783 56.3255 158.664 60.1175 157.899C82.9888 153.334 89.1063 133.095 89.1063 133.095L90.0709 102.843C89.397 102.856 83.7816 104.083 81.509 107.117V107.13Z" fill="#0063A2"/>
    <path d="M20.9258 118.675C20.9258 118.675 13.6324 121.406 15.2443 130.47C16.8431 139.52 21.6657 142.449 25.5371 139.217C29.4084 135.998 26.2109 130.747 26.2109 130.747C32.6323 126.696 28.7478 117.764 22.6699 118.015C22.6699 118.015 28.8271 120.931 24.1365 123.965C19.4592 127 17.1206 121.102 20.9258 118.675Z" fill="#0063A2"/>
    <path d="M69.6077 132.29C68.7885 132.963 67.9297 133.583 67.0312 134.164C72.2371 138.082 76.0952 143.254 78.0771 149.072C78.6585 148.558 79.2134 148.043 79.7419 147.529C77.8657 141.737 74.404 136.459 69.6077 132.303V132.29Z" fill="#0063A2"/>
    <path d="M49.0727 150.418C48.4913 153.07 47.5136 155.603 46.2188 158.004C46.9587 158.136 47.6986 158.242 48.4517 158.321C51.2396 151.988 52.072 144.969 50.8432 138.201C50.1694 138.135 49.4955 138.042 48.8349 137.911C49.8523 141.987 49.9976 146.236 49.0727 150.418Z" fill="#0063A2"/>
    <path d="M85.9883 100.93L89.5161 166.936C104.433 172.953 154.985 170.037 156.188 167.847C156.994 161.831 157.046 103.12 157.046 103.12C157.046 103.12 149.172 83.1319 121.306 83.2506C94.3387 83.3694 85.9883 100.943 85.9883 100.943V100.93Z" fill="#00B0F3"/>
    <path d="M122.864 128.082C130.081 128.082 135.932 121.431 135.932 113.226C135.932 105.021 130.081 98.3701 122.864 98.3701C115.647 98.3701 109.797 105.021 109.797 113.226C109.797 121.431 115.647 128.082 122.864 128.082Z" fill="#0063A2"/>
    <path d="M121.346 83.2373C120.249 83.2373 119.179 83.2769 118.148 83.3428C119.694 95.7446 123.407 130.918 121.637 170.498C122.865 170.498 124.081 170.498 125.297 170.498C125.046 160.326 123.83 107.711 125.125 83.356C123.909 83.2769 122.641 83.2373 121.346 83.2505V83.2373Z" fill="#0063A2"/>
    <path d="M122.862 124.691C128.029 124.691 132.217 119.558 132.217 113.226C132.217 106.894 128.029 101.761 122.862 101.761C117.696 101.761 113.508 106.894 113.508 113.226C113.508 119.558 117.696 124.691 122.862 124.691Z" fill="#6988B0"/>
    <path d="M130.859 113.226C130.859 118.965 127.278 123.609 122.865 123.609C118.452 123.609 114.871 118.965 114.871 113.226C114.871 107.487 118.452 102.843 122.865 102.843C127.278 102.843 130.859 107.487 130.859 113.226Z" fill="#C6EBD8"/>
    <path d="M121.135 116.445C118.598 114.255 117.753 111.234 117.885 108.212C116.801 109.69 116.141 111.695 116.141 113.899C116.141 118.45 118.968 122.145 122.456 122.145C124.465 122.145 126.248 120.918 127.411 119.018C125.099 118.793 122.853 117.936 121.135 116.458V116.445Z" fill="#A4DBCF"/>
    <path d="M127.053 108.199C127.053 109.914 125.811 111.3 124.279 111.3C122.746 111.3 121.504 109.914 121.504 108.199C121.504 106.484 122.746 105.099 124.279 105.099C125.811 105.099 127.053 106.484 127.053 108.199Z" fill="white"/>
    <path d="M127.411 116.115C128.389 116.115 129.182 115.152 129.182 113.965C129.182 112.777 128.389 111.814 127.411 111.814C126.433 111.814 125.641 112.777 125.641 113.965C125.641 115.152 126.433 116.115 127.411 116.115Z" fill="white"/>
    <path d="M89.4258 164.284L89.5711 166.923C104.488 172.939 155.04 170.023 156.243 167.833C156.441 166.342 156.599 161.606 156.718 155.339C149.967 157.727 141.603 160.353 141.603 160.353C141.603 160.353 144.615 157.622 148.024 150.141C127.848 160.036 108.122 152.569 89.439 164.271L89.4258 164.284Z" fill="#0063A2"/>
    <path d="M95.8174 169.205C99.768 165.722 105.185 162.503 112.254 161.461C114.936 161.461 119.904 163.4 126.947 170.472C129.285 172.82 131.862 175.736 134.663 179.325C149.99 199.023 172.583 201.45 169.782 185.644C167.708 173.981 153.993 170.261 146.938 169.113C150.65 168.572 153.835 167.86 156.147 166.923L156.622 157.925C166.981 158.928 196.274 164.231 195.124 191.964C193.737 225.634 157.997 225.515 135.403 209.709C112.809 193.903 95.2889 182.847 87.4141 180.169C87.5066 179.734 90.1359 174.193 95.8042 169.192L95.8174 169.205Z" fill="#00B0F3"/>
    <path d="M165.964 195.157C169.056 193.758 170.668 190.592 169.782 185.644C167.708 173.981 153.993 170.261 146.938 169.113C150.65 168.572 153.835 167.86 156.147 166.923L156.622 157.925C160.692 158.321 167.708 159.376 174.631 162.213C181.568 172.029 187.818 187.663 165.937 195.157H165.964Z" fill="#0063A2"/>
    <path d="M149.887 169.205C145.936 165.722 140.519 162.503 133.45 161.461C130.768 161.461 125.8 163.4 118.758 170.472C116.419 172.82 113.842 175.736 111.041 179.325C95.7146 199.023 73.1207 201.45 75.9218 185.644C77.9963 173.981 91.7111 170.261 98.7667 169.113C95.0539 168.572 91.8696 167.86 89.5574 166.923L89.0818 157.925C78.7229 158.928 49.4303 164.231 50.5798 191.964C51.9671 225.634 87.7076 225.515 110.301 209.709C132.895 193.903 150.415 182.847 158.29 180.169C158.198 179.734 155.568 174.193 149.9 169.192L149.887 169.205Z" fill="#00B0F3"/>
    <path d="M151.26 183.362C144.033 172.477 127.86 167.569 123.276 166.369C121.875 167.49 120.369 168.849 118.744 170.472C116.405 172.82 113.829 175.736 111.027 179.325C107.975 183.256 104.619 186.489 101.25 189.035C104.302 192.36 109.297 199.075 111.265 209.023C128.164 197.228 142.143 188.164 151.26 183.362Z" fill="#0063A2"/>
    <path d="M79.7404 195.157C76.6486 193.758 75.0367 190.592 75.9219 185.644C77.9963 173.981 91.7112 170.261 98.7668 169.113C95.054 168.572 91.8697 167.86 89.5575 166.923L89.0818 157.925C85.0123 158.321 77.9963 159.376 71.0728 162.213C64.1361 172.029 57.8865 187.663 79.7668 195.157H79.7404Z" fill="#0063A2"/>
    <path d="M142.089 213.733C147.678 208.113 152.078 201.78 153.743 194.339C147.546 191.925 140.57 186.911 134.677 179.325C131.876 175.736 129.299 172.82 126.961 170.472C119.905 163.4 114.95 161.461 112.268 161.461C105.199 162.503 99.7821 165.722 95.8315 169.205C90.1632 174.206 87.5339 179.747 87.4414 180.182C95.3162 182.861 112.836 193.917 135.43 209.722C137.544 211.2 139.777 212.546 142.089 213.733Z" fill="#00B0F3"/>
    <path d="M168.303 219.961C169.136 211.715 167.326 203.284 162.886 195.949C161.922 196.041 160.878 196.028 159.781 195.909C164.009 201.543 166.599 208.166 166.85 215.039C166.916 216.702 166.824 218.364 166.625 220.013C167.194 220.013 167.749 220 168.303 219.974V219.961Z" fill="#0063A2"/>
    <path d="M168.289 181.251C168.844 182.333 169.293 183.494 169.597 184.774C177.115 184.22 184.765 185.75 191.253 189.391C192.627 190.157 193.922 191.014 195.151 191.938C195.203 190.566 195.177 189.246 195.098 187.98C194.358 187.452 193.605 186.951 192.812 186.462C185.637 182.095 176.811 180.328 168.289 181.251Z" fill="#0063A2"/>
    <path d="M55.2947 186.41C61.584 183.045 69.3003 182.386 76.2237 184.286C76.5409 183.098 76.9901 182.003 77.5318 180.987C69.5513 178.494 60.4213 179.351 53.3789 183.758C52.4936 184.312 51.648 184.919 50.8553 185.552C50.6571 186.885 50.5514 188.27 50.5117 189.734C51.9519 188.455 53.5507 187.333 55.2815 186.41H55.2947Z" fill="#0063A2"/>
    <path d="M75.0078 214.498C75.4174 207.875 77.5843 201.411 81.1517 195.645C80.3458 195.434 79.6191 195.144 78.9716 194.748C75.5099 201.041 73.5412 207.994 73.2109 215.066C73.1448 216.53 73.1316 218.021 73.2109 219.525C73.7922 219.617 74.3736 219.697 74.9682 219.763C74.8757 217.876 74.9153 216.068 75.021 214.498H75.0078Z" fill="#0063A2"/>
  </g>
  <defs>
    <clipPath id="clip0_1426_4481">
      <rect width="244" height="220" fill="white"/>
    </clipPath>
  </defs>
</svg>
