<svg width="20" height="20" viewBox="0 0 21 20" fill="none" xmlns="http://www.w3.org/2000/svg">
  <path d="M8.83333 20L5.5 17.5L6.33333 15.8334H14.6667L15.5 17.5L12.1667 20H8.83333Z" fill="white"/>
  <path d="M8.83333 15.8333V18.3333H12.1667V15.8333H8.83333Z" fill="black"/>
  <path d="M18.0007 19.1667L12.1673 15.8333L11.334 7.5L18.0007 10L19.6673 14.1667L18.0007 19.1667Z" fill="#F6851B"/>
  <path d="M2.99935 19.1667L8.83268 15.8333L9.66602 7.5L2.99935 10L1.33268 14.1667L2.99935 19.1667Z" fill="#F6851B"/>
  <path d="M3 10L0.5 5L2.16667 0.833333L9.66667 6.66667V9.16667L3 10Z" fill="#763D16"/>
  <path d="M18 10L20.5 5L18.8333 0.833333L11.3333 6.66667V9.16667L18 10Z" fill="#763D16"/>
  <path d="M18 10.8333L12.1667 11.25V14.1667L18 10.8333Z" fill="#CD6116"/>
  <path d="M3 10.8333L8.83333 11.25V14.1667L3 10.8333Z" fill="#CD6116"/>
  <path d="M12.1667 15.8333H8.83333L9.66667 6.66667L2.16667 0.833333L9.66667 4.16667H11.3333L18.8333 0.833333L11.3333 6.66667L12.1667 15.8333Z" fill="#F6851B"/>
</svg>
