<svg width="186" height="228" viewBox="0 0 186 228" fill="none" xmlns="http://www.w3.org/2000/svg">
<path d="M119.315 94.7972C119.315 94.7972 151.668 97.9452 154.723 94.7972C157.779 91.6492 157.841 77.5114 157.519 70.1383C157.193 62.7652 185.865 71.4799 185.865 71.4799C185.865 71.4799 187.577 113.515 178.769 120.518C169.961 127.521 116.73 112.937 116.73 112.937L119.315 94.7972Z" fill="#00B0F3"/>
<path d="M153.162 56.3029C153.162 56.3029 156.035 62.0699 157.52 70.1345C162.74 70.8526 167.99 71.3099 173.268 71.4686C177.446 71.5933 181.67 71.6802 185.863 71.4724C185.369 58.6006 183.32 48.431 183.32 48.431C183.32 48.431 180.831 43.8016 167.619 42.5469C167.906 34.2063 171.257 26.3231 171.257 26.3231L155.556 22.355C152.684 32.4642 153.162 41.5341 153.162 41.5341C149.62 42.3844 143.206 36.8102 143.206 36.8102L136.695 48.3365C143.206 55.6113 153.162 56.2991 153.162 56.2991V56.3029Z" fill="#00B0F3"/>
<path d="M167.459 44.7198C167.459 44.7198 159.034 39.807 155.078 45.0335C151.122 50.2601 153.929 60.15 164.844 58.3247C175.183 62.6065 184.056 58.1358 183.321 48.4347C174.927 48.6237 167.459 44.7198 167.459 44.7198Z" fill="#0063A2"/>
<path d="M183.317 48.4385C183.317 48.4385 179.247 54.7195 174.222 56.8925C169.485 56.4654 164.84 54.1979 164.84 54.1979C165.127 47.8679 167.616 42.5506 167.616 42.5506C167.616 42.5506 178.53 42.1538 183.317 48.4348V48.4385Z" fill="#00B0F3"/>
<path d="M89.7773 70.9583L92.5959 92.4994H104.958L106.65 70.9583H89.7773Z" fill="#0063A2"/>
<path d="M89.0664 14.937C89.0664 14.937 89.974 9.68483 90.0647 9.48928C90.4713 8.69683 101.82 8.20283 103.519 9.87351C103.885 11.407 104.223 14.7826 104.223 14.7826L89.0664 14.9336V14.937Z" fill="#BB7C3D"/>
<path d="M80.5849 20.8135C80.5849 20.8135 80.3127 15.4962 81.4018 13.6951C82.4908 11.8941 105.768 10.0519 112.078 13.3521C115.389 15.7946 114.801 22.4842 114.801 22.4842L80.5849 20.8101V20.8135Z" fill="#FFAD00"/>
<path d="M68.6035 49.1327C68.6035 49.1327 64.7009 50.1859 64.5194 50.4432C64.3379 50.7005 64.0184 56.7554 66.2438 60.3746C66.7883 60.7348 70.012 60.3746 70.012 60.3746L68.6035 49.1293V49.1327Z" fill="#BB7C3D"/>
<path d="M75.6053 38.0658C75.6053 38.0658 68.1632 38.8308 67.4989 43.709C66.8345 48.7005 67.7857 61.9184 70.6972 65.8018C72.9443 67.8567 78.9961 66.8824 78.9961 66.8824L75.609 38.0658H75.6053Z" fill="#FFAD00"/>
<path d="M128.381 49.1327C128.381 49.1327 132.284 50.1859 132.465 50.4432C132.647 50.7005 132.963 56.7554 130.741 60.3746C130.196 60.7348 126.973 60.3746 126.973 60.3746L128.381 49.1293V49.1327Z" fill="#BB7C3D"/>
<path d="M121.375 38.0658C121.375 38.0658 128.817 38.8308 129.482 43.7091C130.146 48.7005 129.195 61.9184 126.283 65.8018C124.036 67.8567 117.984 66.8824 117.984 66.8824L121.371 38.0658H121.375Z" fill="#FFAD00"/>
<path d="M70.7334 24.8856C70.7625 25.1429 75.7251 66.2237 75.0898 75.2289C75.8158 81.0608 117.564 80.4605 119.652 77.7161C122.193 65.9664 124.462 26.5151 123.827 22.913C122.375 18.0245 69.0707 10.1274 70.7334 24.8856Z" fill="#00B0F3"/>
<path d="M87.9952 43.9182C85.6355 46.6284 81.653 46.6455 79.0537 44.2476C78.5019 43.7398 78.0881 45.1807 78.0481 45.4277C77.932 46.1378 77.9973 47.0229 78.5673 47.5478C81.5877 50.3368 86.111 49.9148 88.743 46.8925C89.3965 46.1412 88.9136 42.8548 87.9915 43.9182H87.9952Z" fill="#232A32"/>
<path d="M118.248 44.2099C115.859 46.3437 112.174 46.2579 109.895 44.0178C108.849 42.9886 108.312 46.2579 109.034 46.9646C111.895 49.7742 116.001 49.86 118.999 47.1842C119.744 46.5186 119.355 43.2185 118.248 44.2099Z" fill="#232A32"/>
<path d="M86.073 55.5033C86.073 55.5033 105.677 54.3026 111.242 56.0762C111.543 61.7366 110.396 63.9081 107.43 65.0539C104.464 66.1963 92.9089 66.1414 88.3093 64.1379C84.2978 62.3918 86.0694 55.5033 86.0694 55.5033H86.073Z" fill="#F5F2F9"/>
<path d="M106.86 55.3625C106.689 58.6901 106.518 62.0212 106.348 65.3488C106.787 65.2596 107.157 65.1601 107.448 65.0504C107.629 64.9818 107.803 64.9063 107.974 64.8274C108.134 61.7262 108.29 58.6249 108.45 55.5237C107.949 55.462 107.419 55.4071 106.86 55.3625Z" fill="#D3CCE0"/>
<path d="M90.1244 55.3076C89.5399 55.3317 89.0026 55.3557 88.5234 55.3763C88.5815 58.3471 88.6396 61.3145 88.694 64.2854C89.1732 64.4706 89.7141 64.6387 90.3059 64.7863C90.2442 61.6267 90.1825 58.4672 90.1244 55.3076Z" fill="#D3CCE0"/>
<path d="M95.6808 55.1395C95.129 55.1498 94.5808 55.1601 94.0508 55.1738C94.0617 58.5975 94.0689 62.0246 94.0798 65.4483C94.6135 65.5101 95.158 65.565 95.7098 65.613C95.6989 62.1207 95.6917 58.6284 95.6808 55.1395Z" fill="#D3CCE0"/>
<path d="M102.04 65.7743C101.978 62.2271 101.913 58.6799 101.851 55.1327C101.321 55.1224 100.787 55.1156 100.25 55.1121C100.315 58.6765 100.377 62.2408 100.442 65.8017C100.991 65.8017 101.524 65.7914 102.043 65.7743H102.04Z" fill="#D3CCE0"/>
<path d="M119.622 77.7847C105.573 79.5789 77.9606 76.4948 78.0186 70.5634C77.9243 65.0608 74.127 44.7279 71.4805 31.1704C72.8418 43.0778 75.59 68.4125 75.1071 75.253C75.8296 81.0506 117.095 80.4914 119.622 77.7882V77.7847Z" fill="#0063A2"/>
<path d="M91.3828 67.5547C91.3828 67.5547 98.9157 68.7143 105.86 67.939C100.252 71.4553 92.7914 68.8824 91.3828 67.5547Z" fill="#0063A2"/>
<path d="M82.9414 35.6061C82.9414 35.6061 89.5195 32.9028 93.7888 36.1207C92.6997 30.0761 85.1196 30.2476 82.9414 35.6061Z" fill="#0063A2"/>
<path d="M105.812 36.1206C105.812 36.1206 109.443 32.5597 114.798 35.4345C112.982 30.2029 106.266 30.076 105.812 36.1206Z" fill="#0063A2"/>
<path d="M65.4141 104.593L68.7879 172.995C83.03 179.231 131.282 176.207 132.431 173.94C133.197 167.704 133.251 106.86 133.251 106.86C133.251 106.86 125.729 86.1392 99.1333 86.2639C73.3872 86.3848 65.4141 104.593 65.4141 104.593Z" fill="#00B0F3"/>
<path d="M99.1733 86.2638C98.124 86.2676 97.1091 86.3054 96.1211 86.3697C97.5955 99.2225 101.138 135.668 99.449 176.698C100.617 176.706 101.785 176.702 102.945 176.691C102.704 166.155 101.544 111.622 102.785 86.3772C101.62 86.2979 100.418 86.2563 99.1733 86.2601V86.2638Z" fill="#0063A2"/>
<path d="M100.809 129.977C107.457 129.977 112.846 123.956 112.846 116.529C112.846 109.102 107.457 103.082 100.809 103.082C94.1622 103.082 88.7734 109.102 88.7734 116.529C88.7734 123.956 94.1622 129.977 100.809 129.977Z" fill="#0063A2"/>
<path d="M100.808 126.905C105.567 126.905 109.425 122.259 109.425 116.529C109.425 110.799 105.567 106.153 100.808 106.153C96.0492 106.153 92.1914 110.799 92.1914 116.529C92.1914 122.259 96.0492 126.905 100.808 126.905Z" fill="#6887AF"/>
<path d="M100.81 125.924C104.88 125.924 108.179 121.718 108.179 116.529C108.179 111.34 104.88 107.134 100.81 107.134C96.7406 107.134 93.4414 111.34 93.4414 116.529C93.4414 121.718 96.7406 125.924 100.81 125.924Z" fill="#D8FFEE"/>
<path d="M99.2139 119.436C96.8789 117.46 96.0988 114.725 96.2184 111.981C95.2236 113.32 94.6093 115.131 94.6093 117.128C94.6093 121.249 97.216 124.589 100.432 124.589C102.28 124.589 103.927 123.484 104.993 121.76C102.859 121.56 100.796 120.78 99.2139 119.438V119.436Z" fill="#BAEBDF"/>
<path d="M102.115 114.784C103.525 114.784 104.667 113.528 104.667 111.979C104.667 110.43 103.525 109.173 102.115 109.173C100.705 109.173 99.5626 110.43 99.5626 111.979C99.5626 113.528 100.705 114.784 102.115 114.784Z" fill="white"/>
<path d="M104.996 119.141C105.899 119.141 106.632 118.27 106.632 117.196C106.632 116.122 105.899 115.251 104.996 115.251C104.092 115.251 103.359 116.122 103.359 117.196C103.359 118.27 104.092 119.141 104.996 119.141Z" fill="white"/>
<path d="M68.6991 170.255L68.8332 172.995C83.0753 179.23 131.328 176.207 132.477 173.94C132.668 172.394 132.813 167.492 132.925 160.992C126.476 163.468 118.499 166.192 118.499 166.192C118.499 166.192 121.371 163.358 124.626 155.611C105.367 165.86 86.5372 158.132 68.6953 170.255H68.6991Z" fill="#0063A2"/>
<path d="M74.8082 175.361C78.5765 171.752 83.7541 168.418 90.4979 167.334C93.0599 167.334 97.797 169.352 104.529 176.676C106.766 179.11 109.224 182.125 111.894 185.852C126.526 206.259 148.102 208.78 145.421 192.401C143.441 180.315 130.344 176.464 123.612 175.274C127.162 174.715 130.199 173.97 132.409 173.003L132.868 163.672C142.756 164.715 170.716 170.206 169.628 198.954C168.311 233.847 134.182 233.722 112.61 217.347C91.0379 200.972 74.3142 189.506 66.793 186.736C66.8734 186.29 69.3856 180.546 74.8006 175.365L74.8082 175.361Z" fill="#00B0F3"/>
<path d="M141.769 202.253C144.722 200.798 146.257 197.525 145.419 192.401C143.439 180.315 130.342 176.464 123.609 175.274C127.159 174.714 130.196 173.97 132.406 173.002L132.866 163.672C136.756 164.084 143.443 165.183 150.06 168.116C156.681 178.282 162.652 194.494 141.765 202.253H141.769Z" fill="#0063A2"/>
<path d="M126.417 175.361C122.649 171.752 117.471 168.418 110.727 167.334C108.165 167.334 103.428 169.352 96.6958 176.676C94.4594 179.11 92.0008 182.125 89.3316 185.852C74.6989 206.259 53.1232 208.78 55.8039 192.401C57.7838 180.315 70.8808 176.464 77.6132 175.274C74.0632 174.715 71.0264 173.97 68.8167 173.003L68.3571 163.672C58.4692 164.715 30.5097 170.206 31.5973 198.954C32.9146 233.847 67.0436 233.722 88.6155 217.347C110.187 200.972 126.911 189.506 134.432 186.736C134.352 186.29 131.84 180.546 126.425 175.365L126.417 175.361Z" fill="#00B0F3"/>
<path d="M127.735 190.027C120.838 178.747 105.397 173.668 101.02 172.42C99.6838 173.584 98.2438 174.986 96.6929 176.672C94.4564 179.106 91.9978 182.121 89.3286 185.848C86.4105 189.918 83.2167 193.274 79.9922 195.911C82.9026 199.354 87.6704 206.312 89.5546 216.625C105.688 204.407 119.031 195.005 127.735 190.031V190.027Z" fill="#0063A2"/>
<path d="M59.4542 202.253C56.5016 200.798 54.966 197.525 55.8047 192.401C57.7845 180.315 70.8816 176.464 77.6139 175.274C74.0639 174.715 71.0271 173.97 68.8175 173.003L68.3579 163.672C64.4671 164.084 57.7807 165.184 51.1632 168.116C44.5419 178.282 38.5716 194.494 59.458 202.253H59.4542Z" fill="#0063A2"/>
<path d="M118.971 221.504C124.302 215.676 128.51 209.123 130.099 201.406C124.19 198.908 117.531 193.708 111.898 185.851C109.225 182.125 106.77 179.11 104.533 176.676C97.8011 169.352 93.0639 167.334 90.502 167.334C83.7581 168.418 78.5805 171.755 74.8122 175.361C69.3973 180.542 66.8851 186.286 66.8047 186.732C74.3259 189.502 91.0458 200.968 112.621 217.343C114.643 218.877 116.773 220.268 118.979 221.5L118.971 221.504Z" fill="#00B0F3"/>
<path d="M144.001 227.955C144.794 219.414 143.07 210.673 138.824 203.069C137.901 203.168 136.909 203.152 135.863 203.024C139.896 208.866 142.377 215.729 142.615 222.845C142.672 224.573 142.596 226.296 142.396 227.996C142.933 227.996 143.469 227.978 144.001 227.951V227.955Z" fill="#0063A2"/>
<path d="M143.992 187.832C144.524 188.95 144.953 190.16 145.241 191.475C152.417 190.893 159.72 192.484 165.916 196.256C167.222 197.049 168.463 197.937 169.639 198.901C169.692 197.48 169.669 196.116 169.585 194.804C168.88 194.256 168.153 193.731 167.406 193.236C160.551 188.712 152.13 186.876 144 187.832H143.992Z" fill="#0063A2"/>
<path d="M36.1119 193.187C42.1166 189.699 49.4885 189.011 56.0868 190.987C56.3932 189.759 56.8182 188.622 57.339 187.575C49.7259 184.986 41.006 185.874 34.2852 190.443C33.4388 191.018 32.6384 191.641 31.8764 192.306C31.6887 193.682 31.5815 195.126 31.5547 196.633C32.9257 195.311 34.4575 194.147 36.108 193.187H36.1119Z" fill="#0063A2"/>
<path d="M54.9325 222.297C55.3269 215.435 57.3987 208.738 60.7916 202.763C60.0257 202.548 59.3288 202.238 58.7084 201.83C55.3958 208.352 53.527 215.552 53.213 222.887C53.1479 224.41 53.1402 225.956 53.2053 227.501C53.7568 227.6 54.3159 227.683 54.8827 227.751C54.7946 225.793 54.8367 223.915 54.9325 222.297Z" fill="#0063A2"/>
<path d="M59.4526 202.253C56.0787 200.462 55.2937 197.238 55.646 193.584C51.0697 189.714 42.0166 186.577 34.0243 184.393C32.3087 188.421 31.3705 193.221 31.5849 198.95C31.8913 207.09 34.2656 218.152 43.5102 223.805C49.8557 222.105 58.3114 216.689 59.4526 202.253Z" fill="#0063A2"/>
<path d="M26.7226 161.352C26.7226 161.352 10.459 161.187 0.274387 172.863L7.57313 184.69L15.825 178.574C15.8853 178.866 5.3586 198.027 5.3586 198.027L18.5646 204.037L24.4539 193.196L25.8016 196.286C31.8562 196.818 43.1826 196.99 43.1826 196.99C46.1243 191.045 49.8479 174.817 49.8479 174.817C49.8479 174.817 61.6695 157.579 67.1303 140.798C67.1303 140.798 75.3148 108.803 66.5561 102.707C63.9709 105.768 26.7226 161.352 26.7226 161.352Z" fill="#00B0F3"/>
<path d="M25.8486 196.261L24.4989 193.166C24.4989 193.166 14.5691 190.201 14.9713 183.38C15.2987 177.859 21.7144 175.151 28.4516 180.272C41.4094 176.179 47.7915 182.246 41.8328 195.225C33.4099 193.228 25.8491 196.257 25.8491 196.257L25.8486 196.261Z" fill="#0063A2"/>
<path d="M25.8607 196.262C25.8607 196.262 25.3471 191.287 28.8412 182.689C28.8412 182.689 37.688 183.315 40.7381 184.07C42.8391 191.518 43.2636 196.967 43.2636 196.967C43.2636 196.967 35.2954 197.59 25.8607 196.262Z" fill="#00B0F3"/>
<path d="M52.2628 170.049C49.0159 166.948 45.377 164.245 41.5092 161.96C37.8566 159.803 33.9153 158.018 29.8212 156.69C29.2674 157.369 28.2313 159.29 27.7845 159.82C32.0046 161.312 36.594 161.915 40.4667 164.315C44.0388 166.532 47.3572 169.117 50.4035 172.003C50.6863 172.269 50.9601 172.546 51.2296 172.825C51.6487 172.177 52.1506 171.39 52.7143 170.475C52.5665 170.332 52.4144 170.192 52.2704 170.05L52.2628 170.049Z" fill="#0063A2"/>
<path d="M68.075 132.642C68.2104 131.364 68.357 129.964 68.5062 128.481C67.8156 127.691 67.1037 126.918 66.3619 126.169C63.3921 123.162 60.0114 120.429 56.3374 118.201C55.8592 118.955 55.3905 119.695 54.9232 120.424C58.3123 122.624 61.4595 125.162 64.2814 128.151C65.6283 129.574 66.8918 131.078 68.0712 132.642L68.075 132.642Z" fill="#0063A2"/>
<path d="M56.4161 146.763C52.1045 143.383 47.1354 140.622 42.1226 138.533C41.6475 139.196 41.1787 139.842 40.7235 140.473C45.645 142.75 50.5314 145.66 54.6681 148.964C57.0206 150.846 59.2126 152.892 61.2392 155.074C61.7005 154.166 62.1603 153.238 62.609 152.302C60.6724 150.331 58.601 148.478 56.42 146.764L56.4161 146.763Z" fill="#0063A2"/>
<path d="M67.577 139.955C67.577 139.955 69.4493 126.557 68.6949 119.089C65.3594 140.441 63.957 149.625 63.957 149.625C63.957 149.625 67.3013 141.418 67.577 139.955Z" fill="#0063A2"/>
<path d="M136.749 96.0178C135.953 95.9838 135.16 95.946 134.371 95.9044C134.467 103.089 135.141 110.224 136.451 117.366C136.473 117.487 136.497 117.604 136.52 117.725C137.584 117.956 138.668 118.186 139.767 118.413C139.664 117.91 139.56 117.408 139.461 116.905C138.109 110.054 137.193 103.036 136.749 96.014V96.0178Z" fill="#0063A2"/>
<path d="M166.994 115.605C163.046 110.855 159.576 105.741 156.509 100.398C155.551 98.735 154.647 97.0419 153.778 95.3337C152.966 95.6247 151.771 95.8326 150.305 95.9724C150.691 96.8227 151.09 97.6692 151.511 98.5044C153.717 102.918 156.252 107.155 159.086 111.206C161.828 115.129 164.834 118.87 168.07 122.404C169.874 122.445 171.536 122.404 173.01 122.26C170.915 120.125 168.909 117.906 166.998 115.609L166.994 115.605Z" fill="#0063A2"/>
<path d="M157.648 75.7012C157.648 76.6914 157.648 77.7155 157.625 78.7472C164.185 81.4569 171.048 83.4371 178.113 84.6729C180.702 85.1264 183.31 85.4892 185.929 85.7651C185.96 84.5255 185.979 83.3313 185.987 82.1938C183.559 81.9557 181.138 81.642 178.734 81.2339C171.58 80.0246 164.503 78.1539 157.648 75.7012Z" fill="#0063A2"/>
<ellipse cx="26.5" cy="172.5" rx="7.5" ry="1.5" fill="#0063A2"/>
</svg>
