<svg width="225" height="178" viewBox="0 0 225 178" fill="none" xmlns="http://www.w3.org/2000/svg">
<path d="M140.101 96.3147C139.665 96.3674 113.394 101.901 110.74 100.826C108.086 99.7506 96.6646 73.5195 96.6646 73.5195C96.6646 73.5195 69.5894 77.6696 69.4991 78.1583C69.4089 78.6469 90.5067 119.666 98.7774 122.674C107.048 125.681 141.477 111.088 141.477 111.088L140.093 96.3072L140.101 96.3147Z" fill="#0063A2"/>
<path d="M159.191 78.1658L159.484 95.4652L144.612 98.8634L141.582 78.6018L159.191 78.1658Z" fill="#0063A2"/>
<path d="M184.01 41.6951L188.747 44.2964C188.747 44.2964 190.529 61.9642 181.882 70.362H176.664L184.01 41.7026V41.6951Z" fill="#E88000"/>
<path d="M178.342 33.5227L184.831 37.1916C184.831 37.1916 187.274 62.0919 175.432 73.9406H168.289L178.349 33.5302L178.342 33.5227Z" fill="#FFAD00"/>
<path d="M118.715 28.2598L113.422 29.3424C113.422 29.3424 106.482 45.687 112.256 56.2726L117.241 57.8214L118.715 28.2673V28.2598Z" fill="#E88000"/>
<path d="M126.551 22.1325L119.273 23.7113C119.273 23.7113 109.558 46.7697 117.363 61.5881L124.182 63.7007L126.551 22.125V22.1325Z" fill="#FFAD00"/>
<path d="M141.01 5.2166L143.401 0.367345C143.401 0.367345 160.972 -2.17384 169.739 6.11122L169.965 11.3214L141.01 5.20907V5.2166Z" fill="#E88000"/>
<path d="M133.079 11.2236L136.462 4.58501C136.462 4.58501 161.244 1.07401 173.582 12.3964L173.891 19.5312L133.086 11.2161L133.079 11.2236Z" fill="#FFAD00"/>
<path d="M184.831 23.749C184.831 23.749 174.215 65.5653 170.636 83.8044C168.944 86.9997 125.335 84.7517 120.072 76.6621C119.508 40.0109 123.643 9.75007 123.643 9.75007C125.335 3.35959 185.109 11.2537 184.831 23.749Z" fill="#00B0F3"/>
<path d="M166.492 78.3462C166.492 78.3462 177.605 39.462 183.154 20.0801C184.244 21.2454 184.853 22.4709 184.823 23.7414C184.823 23.7414 174.207 65.5652 170.628 83.7969C168.936 86.9921 125.327 84.7442 120.064 76.6546C120.056 76.0381 120.049 75.4216 120.041 74.8051C131.109 77.6245 149.786 81.1505 166.492 78.3462Z" fill="#0063A2"/>
<path d="M165.949 25.3803C165.964 25.6059 161.002 18.0501 153.483 23.0647C155.175 15.4187 165.325 15.1104 165.949 25.3803Z" fill="#0063A2"/>
<path d="M138.281 20.8319C138.281 20.892 133.522 14.1106 127.883 20.1628C129.635 13.8775 137.371 10.2538 138.281 20.8319Z" fill="#0063A2"/>
<path d="M161.437 57.7537C161.437 57.7537 148.265 56.4832 144.776 55.2953C145.813 37.9884 151.595 25.0571 160.287 28.9064C168.979 32.7632 161.437 57.7463 161.437 57.7463V57.7537Z" fill="#F5F2F9"/>
<path d="M136.378 54.6713C136.378 54.6713 126.603 54.1074 122.182 52.7015C121.521 40.3867 124.348 23.1926 132.333 24.7939C140.318 26.3953 137.31 50.7318 136.378 54.6788V54.6713Z" fill="#F5F2F9"/>
<path d="M130.273 50.3334C130.273 51.7469 129.762 53.025 128.935 53.9798C126.461 53.6715 123.89 53.243 122.153 52.6942C122.04 50.6567 122.033 48.4765 122.123 46.2811C122.988 45.4692 124.108 44.9805 125.341 44.9805C128.063 44.9805 130.273 47.3788 130.273 50.3334Z" fill="#232A32"/>
<path d="M145.43 48.5367C146.182 48.033 147.07 47.7397 148.017 47.7397C150.739 47.7397 152.949 50.1381 152.949 53.0927C152.949 54.446 152.483 55.679 151.724 56.6187C148.836 56.2128 146.077 55.7541 144.746 55.2955C144.889 52.9499 145.122 50.6869 145.43 48.5367Z" fill="#232A32"/>
<path d="M155.076 66.3621C155.076 66.3621 160.587 70.9858 156.143 73.9104C151.7 76.8274 149.106 70.0611 149.106 70.0611L155.076 66.3621Z" fill="#FF9ECD"/>
<path d="M153.202 67.8281C153.202 67.8281 155.796 73.0082 155.112 72.948C154.427 72.8879 151.691 69.1739 151.691 69.1739L153.209 67.8281H153.202Z" fill="#C2608F"/>
<path d="M155.248 63.0391C155.248 63.0391 149.864 71.6098 134.684 73.2338C147.729 75.2261 157.09 66.4072 157.09 66.4072C157.09 66.4072 156.541 64.3096 155.248 63.0391Z" fill="#0063A2"/>
<path d="M78.6406 159.926C72.3994 159.926 67.3399 158.506 67.3399 156.754C67.3399 155.001 72.3994 153.581 78.6406 153.581C84.8819 153.581 89.9414 155.001 89.9414 156.754C89.9414 158.506 84.8819 159.926 78.6406 159.926Z" fill="#E88000"/>
<path d="M90.3906 152.348L89.9395 156.753H67.3304L66.8418 152.1L90.3906 152.348Z" fill="#E88000"/>
<path d="M78.6406 155.272C72.1253 155.272 66.8436 153.852 66.8436 152.1C66.8436 150.347 72.1253 148.927 78.6406 148.927C85.1559 148.927 90.4375 150.347 90.4375 152.1C90.4375 153.852 85.1559 155.272 78.6406 155.272Z" fill="#FFAD00"/>
<path d="M75.8602 159.092C79.4918 159.272 82.1534 158.994 82.2812 158.979C83.1083 158.889 83.7023 158.152 83.612 157.325C83.5218 156.498 82.7775 155.904 81.9579 155.994C81.9279 155.994 78.6647 156.34 74.5744 155.994C73.7173 155.927 73.0181 156.543 72.9504 157.37C72.8828 158.197 73.4993 158.926 74.3263 158.994C74.8527 159.039 75.364 159.069 75.8602 159.099V159.092Z" fill="#FFAD00"/>
<path d="M70.5743 158.28C69.6898 158.28 68.9728 157.596 68.9728 156.754C68.9728 155.911 69.6898 155.227 70.5743 155.227C71.4588 155.227 72.1758 155.911 72.1758 156.754C72.1758 157.596 71.4588 158.28 70.5743 158.28Z" fill="#FFAD00"/>
<path d="M78.9961 153.761C72.7549 153.761 67.6953 152.341 67.6953 150.589C67.6953 148.836 72.7549 147.416 78.9961 147.416C85.2373 147.416 90.2969 148.836 90.2969 150.589C90.2969 152.341 85.2373 153.761 78.9961 153.761Z" fill="#E88000"/>
<path d="M90.7461 146.19L90.295 150.589H67.6934L67.1973 145.935L90.7461 146.19Z" fill="#E88000"/>
<path d="M78.9959 149.108C72.4806 149.108 67.199 147.687 67.199 145.935C67.199 144.183 72.4806 142.762 78.9959 142.762C85.5112 142.762 90.793 144.183 90.793 145.935C90.793 147.687 85.5112 149.108 78.9959 149.108Z" fill="#FFAD00"/>
<path d="M76.2157 152.927C79.8473 153.107 82.5089 152.829 82.6368 152.814C83.4638 152.724 84.0577 151.987 83.9675 151.16C83.8773 150.333 83.133 149.739 82.3134 149.829C82.2833 149.829 79.0202 150.175 74.93 149.829C74.0728 149.762 73.3736 150.378 73.3059 151.205C73.2382 152.032 73.8547 152.761 74.6818 152.829C75.2081 152.874 75.7194 152.904 76.2157 152.934V152.927Z" fill="#FFAD00"/>
<path d="M70.9297 152.115C70.0453 152.115 69.3282 151.432 69.3282 150.589C69.3282 149.746 70.0453 149.062 70.9297 149.062C71.8142 149.062 72.5312 149.746 72.5312 150.589C72.5312 151.432 71.8142 152.115 70.9297 152.115Z" fill="#FFAD00"/>
<path d="M78.6563 147.927C72.415 147.927 67.3555 146.507 67.3555 144.754C67.3555 143.002 72.415 141.582 78.6563 141.582C84.8975 141.582 89.957 143.002 89.957 144.754C89.957 146.507 84.8975 147.927 78.6563 147.927Z" fill="#E88000"/>
<path d="M90.4141 140.349L89.9554 144.754H67.3539L66.8651 140.101L90.4141 140.349Z" fill="#E88000"/>
<path d="M78.6562 143.273C72.1409 143.273 66.8591 141.853 66.8591 140.101C66.8591 138.348 72.1409 136.928 78.6562 136.928C85.1715 136.928 90.4531 138.348 90.4531 140.101C90.4531 141.853 85.1715 143.273 78.6562 143.273Z" fill="#FFAD00"/>
<path d="M75.8836 147.093C79.5151 147.273 82.1768 146.995 82.3046 146.98C83.1317 146.89 83.7257 146.153 83.6355 145.326C83.5452 144.499 82.8008 143.905 81.9813 143.995C81.9512 143.995 78.6881 144.341 74.5979 143.995C73.7407 143.927 73.0414 144.544 72.9738 145.371C72.9061 146.198 73.5227 146.927 74.3498 146.995C74.8761 147.04 75.3873 147.07 75.8836 147.1V147.093Z" fill="#FFAD00"/>
<path d="M70.5977 146.281C69.7132 146.281 68.9962 145.597 68.9962 144.754C68.9962 143.912 69.7132 143.228 70.5977 143.228C71.4822 143.228 72.1992 143.912 72.1992 144.754C72.1992 145.597 71.4822 146.281 70.5977 146.281Z" fill="#FFAD00"/>
<path d="M79.8907 142.341C73.6495 142.341 68.59 140.921 68.59 139.169C68.59 137.416 73.6495 135.996 79.8907 135.996C86.132 135.996 91.1914 137.416 91.1914 139.169C91.1914 140.921 86.132 142.341 79.8907 142.341Z" fill="#E88000"/>
<path d="M91.6484 134.77L91.1897 139.168H68.5883L68.092 134.522L91.6484 134.77Z" fill="#E88000"/>
<path d="M79.8906 137.695C73.3753 137.695 68.0935 136.275 68.0935 134.522C68.0935 132.77 73.3753 131.35 79.8906 131.35C86.4059 131.35 91.6875 132.77 91.6875 134.522C91.6875 136.275 86.4059 137.695 79.8906 137.695Z" fill="#FFAD00"/>
<path d="M77.1101 141.514C80.7417 141.695 83.4034 141.417 83.5312 141.401C84.3583 141.311 84.9523 140.574 84.862 139.747C84.7718 138.92 84.0274 138.327 83.2078 138.417C83.1778 138.417 79.9147 138.763 75.8244 138.417C74.9673 138.349 74.268 138.966 74.2003 139.793C74.1327 140.62 74.7493 141.349 75.5763 141.417C76.1027 141.462 76.6139 141.492 77.1101 141.522V141.514Z" fill="#FFAD00"/>
<path d="M71.8243 140.695C70.9398 140.695 70.2228 140.011 70.2228 139.169C70.2228 138.326 70.9398 137.642 71.8243 137.642C72.7088 137.642 73.4258 138.326 73.4258 139.169C73.4258 140.011 72.7088 140.695 71.8243 140.695Z" fill="#FFAD00"/>
<path d="M79.0195 136.048C72.7783 136.048 67.7188 134.628 67.7188 132.876C67.7188 131.124 72.7783 129.703 79.0195 129.703C85.2608 129.703 90.3203 131.124 90.3203 132.876C90.3203 134.628 85.2608 136.048 79.0195 136.048Z" fill="#E88000"/>
<path d="M90.7695 128.47L90.3184 132.876H67.7093L67.2207 128.222L90.7695 128.47Z" fill="#E88000"/>
<path d="M79.0195 131.395C72.5042 131.395 67.2225 129.974 67.2225 128.222C67.2225 126.47 72.5042 125.049 79.0195 125.049C85.5348 125.049 90.8164 126.47 90.8164 128.222C90.8164 129.974 85.5348 131.395 79.0195 131.395Z" fill="#FFAD00"/>
<path d="M76.2391 135.214C79.8707 135.394 82.5323 135.116 82.6601 135.101C83.4872 135.011 84.0812 134.274 83.9909 133.447C83.9007 132.62 83.1564 132.026 82.3368 132.116C82.3068 132.116 79.0436 132.462 74.9533 132.116C74.0962 132.049 73.397 132.665 73.3293 133.492C73.2617 134.319 73.8782 135.049 74.7052 135.116C75.2316 135.161 75.7429 135.191 76.2391 135.222V135.214Z" fill="#FFAD00"/>
<path d="M70.9532 134.402C70.0687 134.402 69.3517 133.719 69.3517 132.876C69.3517 132.033 70.0687 131.35 70.9532 131.35C71.8377 131.35 72.5547 132.033 72.5547 132.876C72.5547 133.719 71.8377 134.402 70.9532 134.402Z" fill="#FFAD00"/>
<path d="M80.2422 130.214C74.001 130.214 68.9414 128.794 68.9414 127.042C68.9414 125.289 74.001 123.869 80.2422 123.869C86.4834 123.869 91.543 125.289 91.543 127.042C91.543 128.794 86.4834 130.214 80.2422 130.214Z" fill="#E88000"/>
<path d="M92 122.636L91.5489 127.041H68.9398L68.4511 122.388L92 122.636Z" fill="#E88000"/>
<path d="M80.2421 125.56C73.7268 125.56 68.4451 124.14 68.4451 122.388C68.4451 120.636 73.7268 119.215 80.2421 119.215C86.7574 119.215 92.0391 120.636 92.0391 122.388C92.0391 124.14 86.7574 125.56 80.2421 125.56Z" fill="#FFAD00"/>
<path d="M77.4695 129.38C81.1011 129.56 83.7628 129.282 83.8906 129.267C84.7176 129.177 85.3116 128.44 85.2214 127.613C85.1312 126.786 84.3869 126.192 83.5673 126.282C83.5372 126.282 80.274 126.628 76.1838 126.282C75.3267 126.215 74.6274 126.831 74.5597 127.658C74.492 128.485 75.1086 129.214 75.9357 129.282C76.462 129.327 76.9732 129.357 77.4695 129.387V129.38Z" fill="#FFAD00"/>
<path d="M72.1836 128.568C71.2992 128.568 70.5821 127.884 70.5821 127.042C70.5821 126.199 71.2992 125.515 72.1836 125.515C73.0681 125.515 73.7852 126.199 73.7852 127.042C73.7852 127.884 73.0681 128.568 72.1836 128.568Z" fill="#FFAD00"/>
<path d="M79.5078 124.17C73.2666 124.17 68.207 122.749 68.207 120.997C68.207 119.245 73.2666 117.824 79.5078 117.824C85.7491 117.824 90.8086 119.245 90.8086 120.997C90.8086 122.749 85.7491 124.17 79.5078 124.17Z" fill="#E88000"/>
<path d="M91.2656 116.591L90.807 120.997H68.2054L67.7092 116.343L91.2656 116.591Z" fill="#E88000"/>
<path d="M79.5077 119.516C72.9924 119.516 67.7107 118.095 67.7107 116.343C67.7107 114.591 72.9924 113.17 79.5077 113.17C86.023 113.17 91.3047 114.591 91.3047 116.343C91.3047 118.095 86.023 119.516 79.5077 119.516Z" fill="#FFAD00"/>
<path d="M76.7273 123.335C80.3589 123.516 83.0206 123.237 83.1484 123.222C83.9755 123.132 84.5694 122.395 84.4792 121.568C84.389 120.741 83.6447 120.147 82.8251 120.238C82.7951 120.238 79.5318 120.583 75.4416 120.238C74.5845 120.17 73.8852 120.786 73.8175 121.613C73.7499 122.44 74.3665 123.17 75.1935 123.237C75.7198 123.282 76.2311 123.313 76.7273 123.343V123.335Z" fill="#FFAD00"/>
<path d="M71.4493 122.523C70.5648 122.523 69.8478 121.84 69.8478 120.997C69.8478 120.154 70.5648 119.471 71.4493 119.471C72.3338 119.471 73.0508 120.154 73.0508 120.997C73.0508 121.84 72.3338 122.523 71.4493 122.523Z" fill="#FFAD00"/>
<path d="M80.6055 117.869C74.3642 117.869 69.3047 116.449 69.3047 114.697C69.3047 112.944 74.3642 111.524 80.6055 111.524C86.8467 111.524 91.9062 112.944 91.9062 114.697C91.9062 116.449 86.8467 117.869 80.6055 117.869Z" fill="#E88000"/>
<path d="M92.3555 110.298L91.9044 114.696H69.2953L68.8066 110.043L92.3555 110.298Z" fill="#E88000"/>
<path d="M80.6053 113.215C74.09 113.215 68.8084 111.795 68.8084 110.043C68.8084 108.291 74.09 106.87 80.6053 106.87C87.1206 106.87 92.4023 108.291 92.4023 110.043C92.4023 111.795 87.1206 113.215 80.6053 113.215Z" fill="#FFAD00"/>
<path d="M77.825 117.035C81.4566 117.215 84.1182 116.937 84.246 116.922C85.0731 116.832 85.6671 116.095 85.5769 115.268C85.4867 114.441 84.7423 113.847 83.9228 113.937C83.8927 113.937 80.6295 114.283 76.5393 113.937C75.6821 113.87 74.9829 114.486 74.9153 115.313C74.8476 116.14 75.4641 116.869 76.2912 116.937C76.8175 116.982 77.3288 117.012 77.825 117.042V117.035Z" fill="#FFAD00"/>
<path d="M72.5391 116.223C71.6546 116.223 70.9376 115.54 70.9376 114.697C70.9376 113.854 71.6546 113.17 72.5391 113.17C73.4236 113.17 74.1406 113.854 74.1406 114.697C74.1406 115.54 73.4236 116.223 72.5391 116.223Z" fill="#FFAD00"/>
<path d="M79.1758 111.87C72.9346 111.87 67.8751 110.449 67.8751 108.697C67.8751 106.945 72.9346 105.524 79.1758 105.524C85.417 105.524 90.4766 106.945 90.4766 108.697C90.4766 110.449 85.417 111.87 79.1758 111.87Z" fill="#E88000"/>
<path d="M90.9258 104.299L90.4747 108.697H67.8657L67.3769 104.043L90.9258 104.299Z" fill="#E88000"/>
<path d="M79.1756 107.216C72.6603 107.216 67.3787 105.795 67.3787 104.043C67.3787 102.291 72.6603 100.871 79.1756 100.871C85.6909 100.871 90.9727 102.291 90.9727 104.043C90.9727 105.795 85.6909 107.216 79.1756 107.216Z" fill="#FFAD00"/>
<path d="M76.3954 111.035C80.0269 111.216 82.6886 110.938 82.8164 110.923C83.6435 110.832 84.2374 110.096 84.1472 109.269C84.057 108.442 83.3126 107.848 82.4931 107.938C82.463 107.938 79.1999 108.284 75.1097 107.938C74.2525 107.87 73.5533 108.487 73.4856 109.314C73.4179 110.141 74.0344 110.87 74.8615 110.938C75.3878 110.983 75.8991 111.013 76.3954 111.043V111.035Z" fill="#FFAD00"/>
<path d="M71.1094 110.223C70.2249 110.223 69.5079 109.54 69.5079 108.697C69.5079 107.854 70.2249 107.171 71.1094 107.171C71.9939 107.171 72.7109 107.854 72.7109 108.697C72.7109 109.54 71.9939 110.223 71.1094 110.223Z" fill="#FFAD00"/>
<path d="M80.9805 105.525C74.7392 105.525 69.6797 104.104 69.6797 102.352C69.6797 100.6 74.7392 99.1792 80.9805 99.1792C87.2217 99.1792 92.2812 100.6 92.2812 102.352C92.2812 104.104 87.2217 105.525 80.9805 105.525Z" fill="#E88000"/>
<path d="M92.7305 97.9536L92.2794 102.352H69.6703L69.1816 97.698L92.7305 97.9536Z" fill="#E88000"/>
<path d="M80.9803 100.871C74.465 100.871 69.1834 99.4503 69.1834 97.6981C69.1834 95.9458 74.465 94.5254 80.9803 94.5254C87.4956 94.5254 92.7773 95.9458 92.7773 97.6981C92.7773 99.4503 87.4956 100.871 80.9803 100.871Z" fill="#FFAD00"/>
<path d="M78.2 104.69C81.8316 104.871 84.4932 104.592 84.621 104.577C85.4481 104.487 86.0421 103.75 85.9519 102.923C85.8617 102.096 85.1173 101.502 84.2978 101.593C84.2677 101.593 81.0045 101.938 76.9143 101.593C76.0571 101.525 75.3579 102.141 75.2903 102.968C75.2226 103.795 75.8391 104.525 76.6662 104.592C77.1925 104.637 77.7038 104.668 78.2 104.698V104.69Z" fill="#FFAD00"/>
<path d="M72.9141 103.878C72.0296 103.878 71.3126 103.195 71.3126 102.352C71.3126 101.509 72.0296 100.826 72.9141 100.826C73.7986 100.826 74.5156 101.509 74.5156 102.352C74.5156 103.195 73.7986 103.878 72.9141 103.878Z" fill="#FFAD00"/>
<path d="M79.5274 99.1791C73.2862 99.1791 68.2267 97.7586 68.2267 96.0064C68.2267 94.2542 73.2862 92.8337 79.5274 92.8337C85.7687 92.8337 90.8281 94.2542 90.8281 96.0064C90.8281 97.7586 85.7687 99.1791 79.5274 99.1791Z" fill="#E88000"/>
<path d="M91.2773 91.6082L90.8261 96.0064H68.2247L67.7284 91.3601L91.2773 91.6082Z" fill="#E88000"/>
<path d="M79.5273 94.5329C73.012 94.5329 67.7302 93.1124 67.7302 91.3602C67.7302 89.6079 73.012 88.1875 79.5273 88.1875C86.0426 88.1875 91.3242 89.6079 91.3242 91.3602C91.3242 93.1124 86.0426 94.5329 79.5273 94.5329Z" fill="#FFAD00"/>
<path d="M79.5592 88.6687C85.1983 88.6687 89.7773 89.7663 89.7773 91.1271C89.7773 92.6007 83.5893 92.7435 80.8524 90.4806C77.0855 91.5482 70.657 89.9242 72.5141 89.3528C74.3487 88.9318 76.8224 88.6687 79.5592 88.6687Z" fill="#FFCC00"/>
<path d="M79.172 88.8567C84.4201 88.8567 88.6758 89.8265 88.6758 91.0219C88.6758 92.2173 84.4201 93.1871 79.172 93.1871C73.9239 93.1871 69.6682 92.2173 69.6682 91.0219C69.6682 89.8265 73.9239 88.8567 79.172 88.8567ZM78.9916 92.5105C83.8487 92.5105 87.7811 91.7737 87.7811 90.8565C87.7811 89.9393 83.8487 89.2025 78.9916 89.2025C74.1344 89.2025 70.2021 89.9393 70.2021 90.8565C70.2021 91.7737 74.1344 92.5105 78.9916 92.5105Z" fill="#E88000"/>
<path d="M76.7468 98.3522C80.3784 98.5326 83.0401 98.2545 83.1679 98.2394C83.995 98.1492 84.589 97.4124 84.4988 96.5854C84.4085 95.7584 83.6641 95.1644 82.8446 95.2547C82.8145 95.2547 79.5514 95.6005 75.4611 95.2547C74.604 95.187 73.9047 95.8035 73.8371 96.6305C73.7694 97.4575 74.3859 98.1868 75.213 98.2545C75.7393 98.2996 76.2506 98.3296 76.7468 98.3597V98.3522Z" fill="#FFAD00"/>
<path d="M71.461 97.5326C70.5765 97.5326 69.8595 96.8493 69.8595 96.0064C69.8595 95.1635 70.5765 94.4802 71.461 94.4802C72.3455 94.4802 73.0625 95.1635 73.0625 96.0064C73.0625 96.8493 72.3455 97.5326 71.461 97.5326Z" fill="#FFAD00"/>
<path d="M85.6932 89.6235C85.6932 89.6235 85.7383 89.6085 85.7608 89.601C86.5879 89.3529 87.603 89.383 88.43 89.601C88.8661 89.7138 89.7383 89.9844 89.7383 90.5859C89.7383 91.1873 88.8661 91.4505 88.43 91.5708C87.603 91.7888 86.5879 91.8189 85.7608 91.5708C85.7383 91.5708 85.7157 91.5557 85.6932 91.5482C85.2646 91.4204 84.4075 91.1873 84.4075 90.5859C84.4075 89.9844 85.2646 89.7513 85.6932 89.6235Z" fill="white"/>
<path d="M82.3026 88.9768C84.1222 88.9768 84.1448 90.3 82.3026 90.3C80.4605 90.3 80.4605 88.9768 82.3026 88.9768Z" fill="white"/>
<path d="M85.2148 94.9915C85.9065 94.9915 86.5682 95.6004 86.5381 96.3147C86.508 97.0289 85.9591 97.6379 85.2148 97.6379C84.523 97.6379 83.8614 97.0289 83.8914 96.3147C83.9215 95.6004 84.4704 94.9915 85.2148 94.9915Z" fill="white"/>
<path d="M70.3638 106.795C71.221 106.795 72.0481 107.555 72.0105 108.442C71.9729 109.336 71.2886 110.088 70.3638 110.088C69.5067 110.088 68.6797 109.329 68.7172 108.442C68.7548 107.547 69.439 106.795 70.3638 106.795Z" fill="white"/>
<path d="M84.5587 120.711C85.694 120.711 85.694 122.47 84.5587 122.47C83.4233 122.47 83.4233 120.711 84.5587 120.711Z" fill="white"/>
<path d="M72.2355 133.207C72.3633 132.643 72.822 132.304 73.3332 132.109C73.9272 131.883 74.6265 132.207 74.9874 132.673C75.5589 133.41 75.3559 134.507 74.5438 134.981C73.792 135.424 72.852 135.131 72.3934 134.417C72.1603 134.064 72.1453 133.605 72.2355 133.207Z" fill="white"/>
<path d="M83.6185 143.702C85.5282 143.702 85.5282 146.672 83.6185 146.672C81.7087 146.672 81.7087 143.702 83.6185 143.702Z" fill="white"/>
<path d="M204.512 157.054L124.715 157.566C124.715 157.566 111.888 91.2325 152.414 91.3603C189.376 92.8038 204.504 157.054 204.504 157.054H204.512Z" fill="#0063A2"/>
<path d="M137.461 95.4199C143.844 96.3973 153.22 99.1264 163.656 106.374C159.273 115.073 134.882 125.493 122.919 130.169C123.566 116.869 126.927 102.314 137.461 95.4199Z" fill="#00B0F3"/>
<path d="M148.184 92.0593C148.184 92.0593 144.748 100.262 146.139 114.591C141.981 115.298 133.364 115.606 133.364 115.606C135.402 103.149 144.56 92.4127 144.56 92.4127L148.184 92.0669V92.0593Z" fill="#0063A2"/>
<path d="M127.401 131.139C129.627 143.747 138.228 152.137 146.627 149.875C155.018 147.612 160.025 135.552 157.8 122.937C155.574 110.329 146.972 101.938 138.574 104.201C130.183 106.464 125.175 118.524 127.401 131.139Z" fill="#0063A2"/>
<path d="M129.362 130.613C131.264 141.386 138.347 148.626 145.189 146.784C152.031 144.935 156.039 134.703 154.136 123.929C152.234 113.156 145.151 105.915 138.309 107.757C131.467 109.607 127.46 119.839 129.362 130.613Z" fill="#6887AF"/>
<path d="M130.317 130.207C132.009 139.8 138.061 146.318 143.843 144.762C149.618 143.206 152.934 134.161 151.242 124.561C149.55 114.967 143.497 108.449 137.715 110.005C131.941 111.562 128.625 120.606 130.317 130.207Z" fill="#C6EBD8"/>
<path d="M130.768 129.846C130.302 127.222 130.257 124.643 130.55 122.305C131.34 124.764 132.678 126.929 134.64 128.568C136.64 130.237 139.001 131.492 141.565 132.169C143.851 132.778 146.234 132.913 148.633 132.778C147.949 137.868 145.618 141.815 142.295 142.717C137.415 144.033 132.257 138.274 130.768 129.846Z" fill="#A4DBCF"/>
<path d="M133.588 119.275C134.092 122.132 136.445 123.922 138.851 123.275C141.25 122.628 142.791 119.787 142.287 116.93C141.784 114.073 139.43 112.283 137.024 112.93C134.626 113.577 133.084 116.418 133.588 119.275Z" fill="white"/>
<path d="M141.55 126.32C141.859 128.072 143.204 129.192 144.558 128.824C145.911 128.455 146.761 126.741 146.452 124.997C146.144 123.245 144.798 122.125 143.445 122.493C142.092 122.862 141.242 124.576 141.55 126.32Z" fill="white"/>
<path d="M168.137 161.46C168.137 161.46 209.182 161.332 216.197 154.385C217.829 147.935 189.881 107.344 176.348 102.329C171.084 101.329 187.122 135.161 187.122 135.161L160.806 136.853L168.137 161.468V161.46Z" fill="#00B0F3"/>
<path d="M156.371 132.763C156.168 132.485 146.732 127.726 133.386 127.448C132.642 131.936 133.724 138.567 133.724 138.567L156.371 132.77V132.763Z" fill="#0063A2"/>
<path d="M164.605 136.966C163.996 136.71 158.034 130.876 152.673 128.711C147.312 126.545 123.755 136.642 123.252 138.59C122.748 143.537 127.906 151.175 127.906 151.175C125.786 155.032 132.357 164.565 132.357 164.565C132.357 164.565 150.756 167.708 168.146 161.467C168.552 147.145 164.605 136.973 164.605 136.973V136.966Z" fill="#00B0F3"/>
<path d="M127.902 151.167L140.105 147.536C134.714 145.326 126.158 148.228 126.158 148.228C126.158 148.228 127.075 149.98 127.902 151.167Z" fill="#0063A2"/>
<path d="M162.266 135.041C163.085 135.725 163.739 136.297 164.16 136.627L167.484 136.417C167.694 136.845 167.905 137.266 168.108 137.687C170.454 142.469 172.348 147.484 173.732 152.626C174.499 155.483 175.108 158.377 175.566 161.302C174.048 161.355 172.709 161.385 171.604 161.407C171.221 159.009 170.732 156.618 170.13 154.258C168.845 149.213 167.078 144.288 164.814 139.605C164.055 138.033 163.175 136.522 162.266 135.033V135.041Z" fill="#0063A2"/>
<path d="M179.844 112.614C179.242 113.043 178.648 113.494 178.077 113.975C177.814 113.268 177.565 112.577 177.332 111.9C177.836 111.532 178.34 111.178 178.821 110.862C180.663 109.652 182.626 108.697 184.671 107.953C185.122 108.359 185.58 108.772 186.039 109.208C183.874 110.088 181.806 111.223 179.844 112.614Z" fill="#0063A2"/>
<path d="M184.882 151.649C183.656 147.965 182.025 144.446 180.055 141.101C179.04 139.379 177.934 137.499 176.611 135.838L180.619 135.582C183.34 139.168 185.333 143.552 186.829 147.183C188.431 151.07 189.949 155.724 190.754 160.437C189.513 160.543 188.28 160.64 187.07 160.723C186.604 157.648 185.859 154.611 184.882 151.656V151.649Z" fill="#0063A2"/>
<path d="M206.626 154.16C203.762 148.799 199.942 143.92 194.852 140.507C191.341 138.146 187.506 136.672 183.566 135.379L187.13 135.154C187.13 135.154 186.544 133.913 185.634 131.928C195.784 134.064 204.897 141.191 210.063 150.047C211.228 152.047 212.213 154.152 213.062 156.31C211.739 156.874 210.16 157.378 208.378 157.821C207.837 156.581 207.265 155.363 206.619 154.16H206.626Z" fill="#0063A2"/>
<path d="M195.094 124.982C191.388 126.019 187.906 127.643 184.395 129.169C183.936 128.154 183.448 127.049 182.936 125.876C187.418 123.779 192.365 122.245 196.899 121.576C196.989 121.561 197.079 121.553 197.17 121.538C197.824 122.35 198.47 123.177 199.109 124.012C197.756 124.282 196.418 124.621 195.087 124.989L195.094 124.982Z" fill="#0063A2"/>
<path d="M107.234 159.926C100.993 159.926 95.9336 158.506 95.9336 156.754C95.9336 155.001 100.993 153.581 107.234 153.581C113.476 153.581 118.535 155.001 118.535 156.754C118.535 158.506 113.476 159.926 107.234 159.926Z" fill="#E88000"/>
<path d="M118.992 152.348L118.534 156.753H95.932L95.4433 152.1L118.992 152.348Z" fill="#E88000"/>
<path d="M107.234 155.272C100.719 155.272 95.4373 153.852 95.4373 152.1C95.4373 150.347 100.719 148.927 107.234 148.927C113.75 148.927 119.031 150.347 119.031 152.1C119.031 153.852 113.75 155.272 107.234 155.272Z" fill="#FFAD00"/>
<path d="M104.462 159.092C108.093 159.272 110.755 158.994 110.883 158.979C111.71 158.889 112.304 158.152 112.214 157.325C112.123 156.498 111.379 155.904 110.559 155.994C110.529 155.994 107.266 156.34 103.176 155.994C102.319 155.927 101.62 156.543 101.552 157.37C101.484 158.197 102.101 158.926 102.928 158.994C103.454 159.039 103.965 159.069 104.462 159.099V159.092Z" fill="#FFAD00"/>
<path d="M99.1759 158.28C98.2914 158.28 97.5744 157.596 97.5744 156.754C97.5744 155.911 98.2914 155.227 99.1759 155.227C100.06 155.227 100.777 155.911 100.777 156.754C100.777 157.596 100.06 158.28 99.1759 158.28Z" fill="#FFAD00"/>
<path d="M107.609 153.581C101.368 153.581 96.3086 152.16 96.3086 150.408C96.3086 148.656 101.368 147.235 107.609 147.235C113.851 147.235 118.91 148.656 118.91 150.408C118.91 152.16 113.851 153.581 107.609 153.581Z" fill="#E88000"/>
<path d="M119.367 146.01L118.909 150.408H96.307L95.8183 145.754L119.367 146.01Z" fill="#E88000"/>
<path d="M107.609 148.927C101.094 148.927 95.8123 147.506 95.8123 145.754C95.8123 144.002 101.094 142.582 107.609 142.582C114.125 142.582 119.406 144.002 119.406 145.754C119.406 147.506 114.125 148.927 107.609 148.927Z" fill="#FFAD00"/>
<path d="M104.837 152.746C108.468 152.927 111.13 152.648 111.258 152.633C112.085 152.543 112.679 151.806 112.589 150.979C112.498 150.152 111.754 149.558 110.934 149.649C110.904 149.649 107.641 149.995 103.551 149.649C102.694 149.581 101.995 150.198 101.927 151.025C101.859 151.852 102.476 152.581 103.303 152.648C103.829 152.694 104.34 152.724 104.837 152.754V152.746Z" fill="#FFAD00"/>
<path d="M99.5509 151.934C98.6664 151.934 97.9494 151.251 97.9494 150.408C97.9494 149.565 98.6664 148.882 99.5509 148.882C100.435 148.882 101.152 149.565 101.152 150.408C101.152 151.251 100.435 151.934 99.5509 151.934Z" fill="#FFAD00"/>
<path d="M107.973 147.078C101.731 147.078 96.6719 145.657 96.6719 143.905C96.6719 142.153 101.731 140.732 107.973 140.732C114.214 140.732 119.273 142.153 119.273 143.905C119.273 145.657 114.214 147.078 107.973 147.078Z" fill="#E88000"/>
<path d="M119.723 139.507L119.272 143.905H96.6625L96.1737 139.251L119.723 139.507Z" fill="#E88000"/>
<path d="M107.973 142.424C101.457 142.424 96.1755 141.003 96.1755 139.251C96.1755 137.499 101.457 136.078 107.973 136.078C114.488 136.078 119.77 137.499 119.77 139.251C119.77 141.003 114.488 142.424 107.973 142.424Z" fill="#FFAD00"/>
<path d="M105.192 146.243C108.824 146.423 111.485 146.145 111.613 146.13C112.44 146.04 113.034 145.303 112.944 144.476C112.854 143.649 112.11 143.055 111.29 143.146C111.26 143.146 107.997 143.491 103.906 143.146C103.049 143.078 102.35 143.694 102.282 144.521C102.215 145.348 102.831 146.078 103.658 146.145C104.185 146.19 104.696 146.22 105.192 146.251V146.243Z" fill="#FFAD00"/>
<path d="M99.9063 145.431C99.0218 145.431 98.3048 144.748 98.3048 143.905C98.3048 143.062 99.0218 142.379 99.9063 142.379C100.791 142.379 101.508 143.062 101.508 143.905C101.508 144.748 100.791 145.431 99.9063 145.431Z" fill="#FFAD00"/>
<path d="M107.258 140.612C101.017 140.612 95.9571 139.192 95.9571 137.439C95.9571 135.687 101.017 134.267 107.258 134.267C113.499 134.267 118.559 135.687 118.559 137.439C118.559 139.192 113.499 140.612 107.258 140.612Z" fill="#E88000"/>
<path d="M119.008 133.033L118.557 137.439H95.9552L95.459 132.785L119.008 133.033Z" fill="#E88000"/>
<path d="M107.258 135.958C100.742 135.958 95.4607 134.538 95.4607 132.786C95.4607 131.033 100.742 129.613 107.258 129.613C113.773 129.613 119.055 131.033 119.055 132.786C119.055 134.538 113.773 135.958 107.258 135.958Z" fill="#FFAD00"/>
<path d="M104.477 139.777C108.109 139.958 110.771 139.68 110.898 139.665C111.725 139.574 112.319 138.838 112.229 138.011C112.139 137.184 111.395 136.59 110.575 136.68C110.545 136.68 107.282 137.026 103.192 136.68C102.334 136.612 101.635 137.229 101.568 138.056C101.5 138.883 102.116 139.612 102.943 139.68C103.47 139.725 103.981 139.755 104.477 139.785V139.777Z" fill="#FFAD00"/>
<path d="M99.1915 138.965C98.307 138.965 97.59 138.282 97.59 137.439C97.59 136.596 98.307 135.913 99.1915 135.913C100.076 135.913 100.793 136.596 100.793 137.439C100.793 138.282 100.076 138.965 99.1915 138.965Z" fill="#FFAD00"/>
<path d="M109.355 134.86C103.114 134.86 98.0547 133.44 98.0547 131.688C98.0547 129.936 103.114 128.515 109.355 128.515C115.597 128.515 120.656 129.936 120.656 131.688C120.656 133.44 115.597 134.86 109.355 134.86Z" fill="#E88000"/>
<path d="M121.105 127.29L120.654 131.688H98.0454L97.5566 127.042L121.105 127.29Z" fill="#E88000"/>
<path d="M109.355 130.214C102.84 130.214 97.5584 128.794 97.5584 127.042C97.5584 125.289 102.84 123.869 109.355 123.869C115.871 123.869 121.152 125.289 121.152 127.042C121.152 128.794 115.871 130.214 109.355 130.214Z" fill="#FFAD00"/>
<path d="M106.575 134.034C110.207 134.214 112.868 133.936 112.996 133.921C113.823 133.831 114.417 133.094 114.327 132.267C114.237 131.44 113.492 130.846 112.673 130.936C112.643 130.936 109.379 131.282 105.289 130.936C104.432 130.868 103.733 131.485 103.665 132.312C103.598 133.139 104.214 133.868 105.041 133.936C105.568 133.981 106.079 134.011 106.575 134.041V134.034Z" fill="#FFAD00"/>
<path d="M101.289 133.214C100.405 133.214 99.6876 132.531 99.6876 131.688C99.6876 130.845 100.405 130.162 101.289 130.162C102.174 130.162 102.891 130.845 102.891 131.688C102.891 132.531 102.174 133.214 101.289 133.214Z" fill="#FFAD00"/>
<path d="M107.973 128.523C101.731 128.523 96.6719 127.102 96.6719 125.35C96.6719 123.598 101.731 122.177 107.973 122.177C114.214 122.177 119.273 123.598 119.273 125.35C119.273 127.102 114.214 128.523 107.973 128.523Z" fill="#E88000"/>
<path d="M119.723 120.944L119.272 125.35H96.6625L96.1737 120.696L119.723 120.944Z" fill="#E88000"/>
<path d="M107.973 123.869C101.457 123.869 96.1755 122.448 96.1755 120.696C96.1755 118.944 101.457 117.523 107.973 117.523C114.488 117.523 119.77 118.944 119.77 120.696C119.77 122.448 114.488 123.869 107.973 123.869Z" fill="#FFAD00"/>
<path d="M107.997 118.012C113.636 118.012 118.215 119.11 118.215 120.471C118.215 121.944 112.027 122.087 109.29 119.824C105.523 120.892 99.0946 119.268 100.952 118.696C102.786 118.275 105.26 118.012 107.997 118.012Z" fill="#FFCC00"/>
<path d="M107.613 118.2C112.862 118.2 117.117 119.17 117.117 120.365C117.117 121.561 112.862 122.531 107.613 122.531C102.365 122.531 98.1096 121.561 98.1096 120.365C98.1096 119.17 102.365 118.2 107.613 118.2ZM107.44 121.847C112.298 121.847 116.23 121.11 116.23 120.193C116.23 119.275 112.298 118.539 107.44 118.539C102.583 118.539 98.651 119.275 98.651 120.193C98.651 121.11 102.583 121.847 107.44 121.847Z" fill="#E88000"/>
<path d="M105.192 127.688C108.824 127.869 111.485 127.59 111.613 127.575C112.44 127.485 113.034 126.748 112.944 125.921C112.854 125.094 112.11 124.5 111.29 124.591C111.26 124.591 107.997 124.936 103.906 124.591C103.049 124.523 102.35 125.139 102.282 125.966C102.215 126.793 102.831 127.523 103.658 127.59C104.185 127.635 104.696 127.666 105.192 127.696V127.688Z" fill="#FFAD00"/>
<path d="M99.9063 126.876C99.0218 126.876 98.3048 126.193 98.3048 125.35C98.3048 124.507 99.0218 123.824 99.9063 123.824C100.791 123.824 101.508 124.507 101.508 125.35C101.508 126.193 100.791 126.876 99.9063 126.876Z" fill="#FFAD00"/>
<path d="M114.131 118.96C114.131 118.96 114.176 118.944 114.198 118.937C115.025 118.689 116.04 118.719 116.868 118.937C117.304 119.05 118.176 119.32 118.176 119.922C118.176 120.523 117.304 120.786 116.868 120.907C116.04 121.125 115.025 121.155 114.198 120.907C114.176 120.907 114.153 120.892 114.131 120.884C113.702 120.756 112.845 120.523 112.845 119.922C112.845 119.32 113.702 119.087 114.131 118.96Z" fill="white"/>
<path d="M110.74 118.32C112.56 118.32 112.582 119.644 110.74 119.644C108.898 119.644 108.898 118.32 110.74 118.32Z" fill="white"/>
<path d="M113.755 131.237C115.326 131.237 115.326 133.672 113.755 133.672C112.184 133.672 112.184 131.237 113.755 131.237Z" fill="white"/>
<path d="M102.544 142.544C105.206 142.544 105.213 146.686 102.544 146.686C99.8747 146.686 99.8747 142.544 102.544 142.544Z" fill="white"/>
<path d="M111.875 150.228C113.198 150.228 113.198 152.28 111.875 152.28C110.551 152.28 110.551 150.228 111.875 150.228Z" fill="white"/>
<path d="M50.1915 159.964C43.9503 159.964 38.8907 158.544 38.8907 156.791C38.8907 155.039 43.9503 153.619 50.1915 153.619C56.4327 153.619 61.4922 155.039 61.4922 156.791C61.4922 158.544 56.4327 159.964 50.1915 159.964Z" fill="#E88000"/>
<path d="M61.9492 152.386L61.4905 156.791H38.889L38.4003 152.137L61.9492 152.386Z" fill="#E88000"/>
<path d="M50.1913 155.31C43.676 155.31 38.3943 153.89 38.3943 152.138C38.3943 150.385 43.676 148.965 50.1913 148.965C56.7066 148.965 61.9883 150.385 61.9883 152.138C61.9883 153.89 56.7066 155.31 50.1913 155.31Z" fill="#FFAD00"/>
<path d="M47.4187 159.13C51.0503 159.31 53.712 159.032 53.8398 159.017C54.6669 158.926 55.2609 158.19 55.1706 157.363C55.0804 156.536 54.336 155.942 53.5164 156.032C53.4864 156.032 50.2232 156.378 46.133 156.032C45.2759 155.964 44.5766 156.581 44.5089 157.408C44.4413 158.235 45.0579 158.964 45.8849 159.032C46.4113 159.077 46.9225 159.107 47.4187 159.137V159.13Z" fill="#FFAD00"/>
<path d="M42.1329 158.318C41.2484 158.318 40.5315 157.634 40.5315 156.791C40.5315 155.948 41.2484 155.265 42.1329 155.265C43.0174 155.265 43.7344 155.948 43.7344 156.791C43.7344 157.634 43.0174 158.318 42.1329 158.318Z" fill="#FFAD00"/>
<path d="M49.4844 153.491C43.2431 153.491 38.1836 152.07 38.1836 150.318C38.1836 148.566 43.2431 147.146 49.4844 147.146C55.7256 147.146 60.7852 148.566 60.7852 150.318C60.7852 152.07 55.7256 153.491 49.4844 153.491Z" fill="#E88000"/>
<path d="M61.2344 145.92L60.7833 150.318H38.1817L37.6855 145.664L61.2344 145.92Z" fill="#E88000"/>
<path d="M49.4842 148.837C42.9689 148.837 37.6873 147.417 37.6873 145.664C37.6873 143.912 42.9689 142.492 49.4842 142.492C55.9995 142.492 61.2812 143.912 61.2812 145.664C61.2812 147.417 55.9995 148.837 49.4842 148.837Z" fill="#FFAD00"/>
<path d="M46.704 152.664C50.3355 152.844 52.9972 152.566 53.125 152.551C53.9521 152.461 54.546 151.724 54.4558 150.897C54.3656 150.07 53.6212 149.476 52.8017 149.566C52.7716 149.566 49.5085 149.912 45.4183 149.566C44.5611 149.499 43.8619 150.115 43.7942 150.942C43.7265 151.769 44.343 152.499 45.1701 152.566C45.6964 152.611 46.2077 152.641 46.704 152.671V152.664Z" fill="#FFAD00"/>
<path d="M41.418 151.844C40.5335 151.844 39.8165 151.161 39.8165 150.318C39.8165 149.475 40.5335 148.792 41.418 148.792C42.3025 148.792 43.0195 149.475 43.0195 150.318C43.0195 151.161 42.3025 151.844 41.418 151.844Z" fill="#FFAD00"/>
<path d="M51.5742 147.747C45.333 147.747 40.2735 146.327 40.2735 144.574C40.2735 142.822 45.333 141.402 51.5742 141.402C57.8155 141.402 62.875 142.822 62.875 144.574C62.875 146.327 57.8155 147.747 51.5742 147.747Z" fill="#E88000"/>
<path d="M63.332 140.176L62.8734 144.574H40.2718L39.7831 139.92L63.332 140.176Z" fill="#E88000"/>
<path d="M51.5741 143.093C45.0588 143.093 39.7772 141.673 39.7772 139.921C39.7772 138.168 45.0588 136.748 51.5741 136.748C58.0894 136.748 63.3711 138.168 63.3711 139.921C63.3711 141.673 58.0894 143.093 51.5741 143.093Z" fill="#FFAD00"/>
<path d="M48.8016 146.912C52.4332 147.093 55.0948 146.815 55.2226 146.8C56.0497 146.709 56.6437 145.973 56.5534 145.146C56.4632 144.319 55.7189 143.725 54.8993 143.815C54.8693 143.815 51.6061 144.161 47.5158 143.815C46.6587 143.747 45.9594 144.364 45.8917 145.191C45.8241 146.018 46.4407 146.747 47.2677 146.815C47.7941 146.86 48.3054 146.89 48.8016 146.92V146.912Z" fill="#FFAD00"/>
<path d="M43.5157 146.1C42.6312 146.1 41.9142 145.417 41.9142 144.574C41.9142 143.731 42.6312 143.048 43.5157 143.048C44.4002 143.048 45.1172 143.731 45.1172 144.574C45.1172 145.417 44.4002 146.1 43.5157 146.1Z" fill="#FFAD00"/>
<path d="M50.1915 141.402C43.9503 141.402 38.8907 139.981 38.8907 138.229C38.8907 136.477 43.9503 135.056 50.1915 135.056C56.4327 135.056 61.4922 136.477 61.4922 138.229C61.4922 139.981 56.4327 141.402 50.1915 141.402Z" fill="#E88000"/>
<path d="M61.9492 133.831L61.4905 138.229H38.889L38.4003 133.575L61.9492 133.831Z" fill="#E88000"/>
<path d="M50.1913 136.748C43.676 136.748 38.3943 135.327 38.3943 133.575C38.3943 131.823 43.676 130.402 50.1913 130.402C56.7066 130.402 61.9883 131.823 61.9883 133.575C61.9883 135.327 56.7066 136.748 50.1913 136.748Z" fill="#FFAD00"/>
<path d="M50.2233 130.891C55.8624 130.891 60.4414 131.989 60.4414 133.35C60.4414 134.823 54.2534 134.966 51.5166 132.703C47.7497 133.771 41.321 132.147 43.1782 131.575C45.0128 131.154 47.4865 130.891 50.2233 130.891Z" fill="#FFCC00"/>
<path d="M49.8361 131.079C55.0842 131.079 59.3398 132.049 59.3398 133.244C59.3398 134.44 55.0842 135.41 49.8361 135.41C44.588 135.41 40.3324 134.44 40.3324 133.244C40.3324 132.049 44.588 131.079 49.8361 131.079ZM49.6556 134.733C54.5128 134.733 58.4452 133.996 58.4452 133.079C58.4452 132.162 54.5128 131.425 49.6556 131.425C44.7985 131.425 40.8662 132.162 40.8662 133.079C40.8662 133.996 44.7985 134.733 49.6556 134.733Z" fill="#E88000"/>
<path d="M47.4187 140.567C51.0503 140.747 53.712 140.469 53.8398 140.454C54.6669 140.364 55.2609 139.627 55.1706 138.8C55.0804 137.973 54.336 137.379 53.5164 137.47C53.4864 137.47 50.2232 137.815 46.133 137.47C45.2759 137.402 44.5766 138.018 44.5089 138.845C44.4413 139.672 45.0579 140.402 45.8849 140.469C46.4113 140.514 46.9225 140.544 47.4187 140.575V140.567Z" fill="#FFAD00"/>
<path d="M42.1329 139.755C41.2484 139.755 40.5315 139.072 40.5315 138.229C40.5315 137.386 41.2484 136.703 42.1329 136.703C43.0174 136.703 43.7344 137.386 43.7344 138.229C43.7344 139.072 43.0174 139.755 42.1329 139.755Z" fill="#FFAD00"/>
<path d="M56.3572 131.838C56.3572 131.838 56.4023 131.823 56.4249 131.816C57.2519 131.568 58.267 131.598 59.0941 131.816C59.5302 131.929 60.4023 132.199 60.4023 132.801C60.4023 133.402 59.5302 133.665 59.0941 133.786C58.267 134.004 57.2519 134.034 56.4249 133.786C56.4023 133.786 56.3798 133.771 56.3572 133.763C55.9287 133.635 55.0715 133.402 55.0715 132.801C55.0715 132.199 55.9287 131.966 56.3572 131.838Z" fill="white"/>
<path d="M52.9667 131.199C54.7863 131.199 54.8088 132.522 52.9667 132.522C51.1246 132.522 51.1246 131.199 52.9667 131.199Z" fill="white"/>
<path d="M55.9816 144.123C57.553 144.123 57.553 146.559 55.9816 146.559C54.4102 146.559 54.4102 144.123 55.9816 144.123Z" fill="white"/>
<path d="M45.1142 148.95C47.7759 148.95 47.7834 153.092 45.1142 153.092C42.445 153.092 42.445 148.95 45.1142 148.95Z" fill="white"/>
<path d="M51.9255 149.348C53.2488 149.348 53.2488 151.401 51.9255 151.401C50.6022 151.401 50.6022 149.348 51.9255 149.348Z" fill="white"/>
<path d="M23.1758 159.693C16.9346 159.693 11.875 158.273 11.875 156.521C11.875 154.768 16.9346 153.348 23.1758 153.348C29.417 153.348 34.4766 154.768 34.4766 156.521C34.4766 158.273 29.417 159.693 23.1758 159.693Z" fill="#E88000"/>
<path d="M34.9258 152.122L34.4747 156.52H11.8656L11.3769 151.867L34.9258 152.122Z" fill="#E88000"/>
<path d="M23.1756 155.039C16.6603 155.039 11.3787 153.619 11.3787 151.867C11.3787 150.115 16.6603 148.694 23.1756 148.694C29.6909 148.694 34.9727 150.115 34.9727 151.867C34.9727 153.619 29.6909 155.039 23.1756 155.039Z" fill="#FFAD00"/>
<path d="M20.3954 158.859C24.0269 159.039 26.6885 158.761 26.8164 158.746C27.6434 158.656 28.2374 157.919 28.1472 157.092C28.057 156.265 27.3126 155.671 26.4931 155.761C26.463 155.761 23.1998 156.107 19.1096 155.761C18.2524 155.694 17.5533 156.31 17.4856 157.137C17.4179 157.964 18.0344 158.693 18.8615 158.761C19.3878 158.806 19.8991 158.836 20.3954 158.866V158.859Z" fill="#FFAD00"/>
<path d="M15.1094 158.047C14.2249 158.047 13.5079 157.363 13.5079 156.521C13.5079 155.678 14.2249 154.994 15.1094 154.994C15.9939 154.994 16.7109 155.678 16.7109 156.521C16.7109 157.363 15.9939 158.047 15.1094 158.047Z" fill="#FFAD00"/>
<path d="M21.7852 153.348C15.5439 153.348 10.4844 151.927 10.4844 150.175C10.4844 148.423 15.5439 147.002 21.7852 147.002C28.0264 147.002 33.0859 148.423 33.0859 150.175C33.0859 151.927 28.0264 153.348 21.7852 153.348Z" fill="#E88000"/>
<path d="M33.543 145.777L33.0919 150.175H10.4828L9.99405 145.521L33.543 145.777Z" fill="#E88000"/>
<path d="M21.7851 148.694C15.2698 148.694 9.98804 147.274 9.98804 145.521C9.98804 143.769 15.2698 142.349 21.7851 142.349C28.3004 142.349 33.582 143.769 33.582 145.521C33.582 147.274 28.3004 148.694 21.7851 148.694Z" fill="#FFAD00"/>
<path d="M21.8171 142.837C27.4562 142.837 32.0352 143.935 32.0352 145.296C32.0352 146.769 25.8472 146.912 23.1103 144.649C19.3434 145.717 12.9149 144.093 14.772 143.522C16.6066 143.101 19.0803 142.837 21.8171 142.837Z" fill="#FFCC00"/>
<path d="M21.4298 143.025C26.6779 143.025 30.9336 143.995 30.9336 145.191C30.9336 146.386 26.6779 147.356 21.4298 147.356C16.1817 147.356 11.9261 146.386 11.9261 145.191C11.9261 143.995 16.1817 143.025 21.4298 143.025ZM21.2494 146.679C26.1065 146.679 30.0388 145.942 30.0388 145.025C30.0388 144.108 26.1065 143.371 21.2494 143.371C16.3922 143.371 12.4599 144.108 12.4599 145.025C12.4599 145.942 16.3922 146.679 21.2494 146.679Z" fill="#E88000"/>
<path d="M19.0125 152.513C22.644 152.694 25.3057 152.416 25.4335 152.401C26.2606 152.31 26.8546 151.573 26.7644 150.746C26.6742 149.919 25.9298 149.326 25.1103 149.416C25.0802 149.416 21.817 149.762 17.7268 149.416C16.8696 149.348 16.1704 149.965 16.1027 150.792C16.035 151.619 16.6516 152.348 17.4787 152.416C18.005 152.461 18.5162 152.491 19.0125 152.521V152.513Z" fill="#FFAD00"/>
<path d="M13.7266 151.701C12.8421 151.701 12.1251 151.018 12.1251 150.175C12.1251 149.332 12.8421 148.649 13.7266 148.649C14.6111 148.649 15.3281 149.332 15.3281 150.175C15.3281 151.018 14.6111 151.701 13.7266 151.701Z" fill="#FFAD00"/>
<path d="M27.951 143.785C27.951 143.785 27.9962 143.77 28.0187 143.762C28.8458 143.514 29.8608 143.544 30.6878 143.762C31.1239 143.875 31.9961 144.146 31.9961 144.747C31.9961 145.348 31.1239 145.612 30.6878 145.732C29.8608 145.95 28.8458 145.98 28.0187 145.732C27.9962 145.732 27.9735 145.717 27.951 145.709C27.5224 145.582 26.6653 145.348 26.6653 144.747C26.6653 144.146 27.5224 143.913 27.951 143.785Z" fill="white"/>
<path d="M24.5605 143.146C26.38 143.146 26.4026 144.469 24.5605 144.469C22.7184 144.469 22.7184 143.146 24.5605 143.146Z" fill="white"/>
<path d="M27.5753 156.069C29.1468 156.069 29.1468 158.505 27.5753 158.505C26.0039 158.505 26.0039 156.069 27.5753 156.069Z" fill="white"/>
<path d="M95.6953 168.111C89.4541 168.111 84.3946 166.691 84.3946 164.939C84.3946 163.187 89.4541 161.766 95.6953 161.766C101.937 161.766 106.996 163.187 106.996 164.939C106.996 166.691 101.937 168.111 95.6953 168.111Z" fill="#E88000"/>
<path d="M107.445 160.533L106.994 164.939H84.3927L83.8965 160.285L107.445 160.533Z" fill="#E88000"/>
<path d="M95.6951 163.458C89.1798 163.458 83.8982 162.037 83.8982 160.285C83.8982 158.533 89.1798 157.112 95.6951 157.112C102.21 157.112 107.492 158.533 107.492 160.285C107.492 162.037 102.21 163.458 95.6951 163.458Z" fill="#FFAD00"/>
<path d="M95.7234 157.601C101.362 157.601 105.941 158.699 105.941 160.06C105.941 161.533 99.7534 161.676 97.0166 159.413C93.2497 160.481 86.8211 158.857 88.6783 158.285C90.5129 157.864 92.9865 157.601 95.7234 157.601Z" fill="#FFCC00"/>
<path d="M95.3361 157.789C100.584 157.789 104.84 158.759 104.84 159.954C104.84 161.15 100.584 162.12 95.3361 162.12C90.088 162.12 85.8323 161.15 85.8323 159.954C85.8323 158.759 90.088 157.789 95.3361 157.789ZM95.1632 161.443C100.02 161.443 103.953 160.706 103.953 159.789C103.953 158.872 100.02 158.135 95.1632 158.135C90.306 158.135 86.3737 158.872 86.3737 159.789C86.3737 160.706 90.306 161.443 95.1632 161.443Z" fill="#E88000"/>
<path d="M92.9148 167.277C96.5464 167.457 99.2081 167.179 99.3359 167.164C100.163 167.074 100.757 166.337 100.667 165.51C100.576 164.683 99.8321 164.089 99.0125 164.179C98.9825 164.179 95.7193 164.525 91.6291 164.179C90.772 164.112 90.0727 164.728 90.005 165.555C89.9374 166.382 90.5539 167.112 91.3809 167.179C91.9073 167.224 92.4186 167.254 92.9148 167.284V167.277Z" fill="#FFAD00"/>
<path d="M87.629 166.465C86.7445 166.465 86.0275 165.782 86.0275 164.939C86.0275 164.096 86.7445 163.413 87.629 163.413C88.5134 163.413 89.2305 164.096 89.2305 164.939C89.2305 165.782 88.5134 166.465 87.629 166.465Z" fill="#FFAD00"/>
<path d="M101.861 158.548C101.861 158.548 101.906 158.533 101.929 158.526C102.756 158.278 103.771 158.308 104.598 158.526C105.034 158.639 105.906 158.909 105.906 159.511C105.906 160.112 105.034 160.375 104.598 160.496C103.771 160.714 102.756 160.744 101.929 160.496C101.906 160.496 101.884 160.481 101.861 160.473C101.433 160.345 100.575 160.112 100.575 159.511C100.575 158.909 101.433 158.676 101.861 158.548Z" fill="white"/>
<path d="M98.4628 157.909C100.282 157.909 100.305 159.232 98.4628 159.232C96.6207 159.232 96.6207 157.909 98.4628 157.909Z" fill="white"/>
<path d="M81.4827 28.26C81.4827 28.26 85.618 27.1999 94.9263 50.2282C100.941 66.2044 102.024 73.8203 101.227 75.324C100.43 76.8276 89.7383 81.7145 89.7383 81.7145L83.8962 79.459C73.7909 79.6018 71.1593 79.271 69.415 78.662C67.6706 78.053 58.242 68.6027 58.242 68.6027L63.0691 53.9873L65.7909 54.7391C65.7909 54.7391 61.7985 46.0481 60.5278 43.0408C71.2421 40.2215 81.4827 28.2675 81.4827 28.2675V28.26Z" fill="#0063A2"/>
<path d="M63.0695 53.9873C63.0695 53.9873 74.5959 60.9115 74.7237 61.7235C74.8515 62.5354 70.6935 73.3542 69.671 73.5196C68.6484 73.685 57.1222 68.52 56.8665 67.5651C56.6109 66.6103 62.1898 54.3256 63.0695 53.9797V53.9873Z" fill="#00B0F3"/>
<path d="M80.5793 69.6851C73.9353 69.6851 68.5492 64.3702 68.5492 57.8139C68.5492 51.2576 73.9353 45.9426 80.5793 45.9426C87.2233 45.9426 92.6094 51.2576 92.6094 57.8139C92.6094 64.3702 87.2233 69.6851 80.5793 69.6851Z" fill="#E88000"/>
<path d="M81.4813 68.5949C75.3398 68.5949 70.361 63.768 70.361 57.8138C70.361 51.8596 75.3398 47.0327 81.4813 47.0327C87.6229 47.0327 92.6016 51.8596 92.6016 57.8138C92.6016 63.768 87.6229 68.5949 81.4813 68.5949Z" fill="#FFAD00"/>
<path d="M71.5414 54.9344C71.5414 54.9344 69.7293 60.1821 75.1053 61.2572C80.4812 62.3323 82.2932 56.1072 81.5564 54.2427C84.9549 54.7539 87.8646 49.8145 83.5188 47.8447C79.1729 45.8749 73.1654 49.2205 71.5414 54.9344Z" fill="#FFCC00"/>
<path d="M91.1133 57.9267C91.1133 63.2496 86.7975 67.565 81.4742 67.565C76.1509 67.565 71.8351 63.2496 71.8351 57.9267C71.8351 52.6038 76.1509 48.2883 81.4742 48.2883C86.7975 48.2883 91.1133 52.6038 91.1133 57.9267ZM90.1659 58.3778C90.1659 53.6789 86.3539 49.8671 81.6547 49.8671C76.9554 49.8671 73.1433 53.6789 73.1433 58.3778C73.1433 63.0766 76.9554 66.8884 81.6547 66.8884C86.3539 66.8884 90.1659 63.0766 90.1659 58.3778Z" fill="#E88000"/>
<path d="M80.2557 51.7692C80.2933 51.2278 80.1504 50.6865 79.9324 50.2054C79.4737 49.1603 78.3083 48.4987 77.1955 48.4762C75.5263 48.4386 73.9549 49.6716 73.6391 51.3256C73.5339 51.8819 73.4286 52.3631 73.5715 52.9345C73.6993 53.4683 73.9324 53.9419 74.3008 54.3479C74.6843 54.7689 75.2181 55.0997 75.7745 55.235C76.3308 55.3704 76.9324 55.438 77.4888 55.2801C78.1805 55.0847 78.7895 54.7313 79.188 54.1073C79.188 54.0998 79.2031 54.0848 79.2031 54.0773C79.594 53.6863 79.8347 53.2954 80.0527 52.7691C80.1805 52.4684 80.2332 52.1074 80.2557 51.7842V51.7692Z" fill="white"/>
<path d="M82.9473 49.0476C80.2931 49.0476 80.0826 53.1826 82.7593 53.1826C85.436 53.1826 85.624 49.0476 82.9473 49.0476Z" fill="white"/>
<path d="M60.5289 43.0407L67.3785 51.9197C68.4236 52.2355 85.7168 43.0407 85.7168 43.0407C86.0928 40.7853 83.183 28.8538 81.4913 28.2674C79.7996 27.681 64.1078 37.4547 60.5364 43.0407H60.5289Z" fill="#00B0F3"/>
<path d="M93.7065 63.0391C93.7065 63.0391 78.8718 70.1964 78.8192 70.3618C78.7666 70.5272 88.5636 81.9925 89.7742 82.0827C90.9847 82.1729 100.849 76.5343 101.225 75.3163C101.601 74.0984 93.7065 63.0391 93.7065 63.0391Z" fill="#00B0F3"/>
</svg>
