<svg width="192" height="228" viewBox="0 0 192 228" fill="none" xmlns="http://www.w3.org/2000/svg">
<path d="M125.315 94.7972C125.315 94.7972 157.668 97.9452 160.723 94.7972C163.779 91.6492 163.841 77.5114 163.519 70.1383C163.193 62.7652 191.865 71.4799 191.865 71.4799C191.865 71.4799 193.577 113.515 184.769 120.518C175.961 127.521 122.73 112.937 122.73 112.937L125.315 94.7972Z" fill="#00B0F3"/>
<path d="M159.162 56.3029C159.162 56.3029 162.035 62.0699 163.52 70.1345C168.74 70.8526 173.99 71.3099 179.268 71.4686C183.446 71.5933 187.67 71.6802 191.863 71.4724C191.369 58.6006 189.32 48.431 189.32 48.431C189.32 48.431 186.831 43.8016 173.619 42.5469C173.906 34.2063 177.257 26.3231 177.257 26.3231L161.556 22.355C158.684 32.4642 159.162 41.5341 159.162 41.5341C155.62 42.3844 149.206 36.8102 149.206 36.8102L142.695 48.3365C149.206 55.6113 159.162 56.2991 159.162 56.2991V56.3029Z" fill="#00B0F3"/>
<path d="M173.459 44.7198C173.459 44.7198 165.034 39.807 161.078 45.0335C157.122 50.2601 159.929 60.15 170.844 58.3247C181.183 62.6065 190.056 58.1358 189.321 48.4347C180.927 48.6237 173.459 44.7198 173.459 44.7198Z" fill="#0063A2"/>
<path d="M189.317 48.4385C189.317 48.4385 185.247 54.7195 180.222 56.8925C175.485 56.4654 170.84 54.1979 170.84 54.1979C171.127 47.8679 173.616 42.5506 173.616 42.5506C173.616 42.5506 184.53 42.1538 189.317 48.4348V48.4385Z" fill="#00B0F3"/>
<path d="M95.7773 70.9583L98.5959 92.4994H110.958L112.65 70.9583H95.7773Z" fill="#0063A2"/>
<path d="M95.0664 14.937C95.0664 14.937 95.974 9.68483 96.0647 9.48928C96.4713 8.69683 107.82 8.20283 109.519 9.87351C109.885 11.407 110.223 14.7826 110.223 14.7826L95.0664 14.9336V14.937Z" fill="#BB7C3D"/>
<path d="M86.5849 20.8135C86.5849 20.8135 86.3127 15.4962 87.4018 13.6951C88.4908 11.8941 111.768 10.0519 118.078 13.3521C121.389 15.7946 120.801 22.4842 120.801 22.4842L86.5849 20.8101V20.8135Z" fill="#FFAD00"/>
<path d="M74.6035 49.1327C74.6035 49.1327 70.7009 50.1859 70.5194 50.4432C70.3379 50.7005 70.0184 56.7554 72.2438 60.3746C72.7883 60.7348 76.012 60.3746 76.012 60.3746L74.6035 49.1293V49.1327Z" fill="#BB7C3D"/>
<path d="M81.6053 38.0658C81.6053 38.0658 74.1632 38.8308 73.4989 43.7091C72.8345 48.7005 73.7857 61.9184 76.6972 65.8018C78.9443 67.8567 84.9961 66.8824 84.9961 66.8824L81.609 38.0658H81.6053Z" fill="#FFAD00"/>
<path d="M134.381 49.1327C134.381 49.1327 138.284 50.1859 138.465 50.4432C138.647 50.7005 138.963 56.7554 136.741 60.3746C136.196 60.7348 132.973 60.3746 132.973 60.3746L134.381 49.1293V49.1327Z" fill="#BB7C3D"/>
<path d="M127.375 38.0658C127.375 38.0658 134.817 38.8308 135.482 43.7091C136.146 48.7005 135.195 61.9184 132.283 65.8018C130.036 67.8567 123.984 66.8824 123.984 66.8824L127.371 38.0658H127.375Z" fill="#FFAD00"/>
<path d="M76.7334 24.8856C76.7625 25.1429 81.7251 66.2237 81.0898 75.2289C81.8158 81.0608 123.564 80.4605 125.652 77.7161C128.193 65.9664 130.462 26.5151 129.827 22.913C128.375 18.0245 75.0707 10.1274 76.7334 24.8856Z" fill="#00B0F3"/>
<path d="M93.9952 43.9182C91.6355 46.6284 87.653 46.6455 85.0537 44.2476C84.5019 43.7398 84.0881 45.1807 84.0481 45.4277C83.932 46.1378 83.9973 47.0229 84.5673 47.5478C87.5877 50.3368 92.111 49.9148 94.743 46.8925C95.3965 46.1412 94.9136 42.8548 93.9915 43.9182H93.9952Z" fill="#232A32"/>
<path d="M124.248 44.2099C121.859 46.3437 118.175 46.2579 115.895 44.0178C114.849 42.9886 114.312 46.2579 115.034 46.9646C117.895 49.7742 122.001 49.86 125 47.1842C125.744 46.5186 125.355 43.2185 124.248 44.2099Z" fill="#232A32"/>
<path d="M92.073 55.5033C92.073 55.5033 111.677 54.3026 117.242 56.0762C117.543 61.7366 116.396 63.9081 113.43 65.0539C110.464 66.1963 98.9089 66.1414 94.3093 64.1379C90.2978 62.3918 92.0694 55.5033 92.0694 55.5033H92.073Z" fill="#F5F2F9"/>
<path d="M112.86 55.3625C112.689 58.6901 112.518 62.0212 112.348 65.3488C112.787 65.2596 113.157 65.1601 113.448 65.0504C113.629 64.9818 113.803 64.9063 113.974 64.8274C114.134 61.7262 114.29 58.6249 114.45 55.5237C113.949 55.462 113.419 55.4071 112.86 55.3625Z" fill="#D3CCE0"/>
<path d="M96.1244 55.3076C95.5399 55.3316 95.0026 55.3556 94.5234 55.3762C94.5815 58.3471 94.6396 61.3145 94.6941 64.2854C95.1733 64.4706 95.7142 64.6387 96.3059 64.7862C96.2442 61.6267 96.1825 58.4672 96.1244 55.3076Z" fill="#D3CCE0"/>
<path d="M101.681 55.1395C101.129 55.1498 100.581 55.1601 100.051 55.1738C100.062 58.5975 100.069 62.0246 100.08 65.4483C100.613 65.5101 101.158 65.565 101.71 65.613C101.699 62.1207 101.692 58.6284 101.681 55.1395Z" fill="#D3CCE0"/>
<path d="M108.04 65.7743C107.978 62.2271 107.913 58.6799 107.851 55.1327C107.321 55.1224 106.787 55.1156 106.25 55.1121C106.315 58.6765 106.377 62.2408 106.442 65.8017C106.991 65.8017 107.524 65.7914 108.043 65.7743H108.04Z" fill="#D3CCE0"/>
<path d="M125.622 77.7847C111.573 79.5789 83.9606 76.4948 84.0186 70.5634C83.9243 65.0608 80.127 44.7279 77.4805 31.1704C78.8418 43.0778 81.59 68.4125 81.1071 75.253C81.8296 81.0506 123.095 80.4914 125.622 77.7882V77.7847Z" fill="#0063A2"/>
<path d="M97.3828 67.5547C97.3828 67.5547 104.916 68.7143 111.86 67.939C106.252 71.4553 98.7914 68.8824 97.3828 67.5547Z" fill="#0063A2"/>
<path d="M88.9414 35.6061C88.9414 35.6061 95.5195 32.9028 99.7888 36.1207C98.6997 30.0761 91.1196 30.2476 88.9414 35.6061Z" fill="#0063A2"/>
<path d="M111.812 36.1206C111.812 36.1206 115.443 32.5597 120.798 35.4345C118.982 30.2029 112.266 30.076 111.812 36.1206Z" fill="#0063A2"/>
<path d="M71.4141 104.593L74.7879 172.995C89.03 179.231 137.282 176.207 138.431 173.94C139.197 167.704 139.251 106.86 139.251 106.86C139.251 106.86 131.729 86.1392 105.133 86.2639C79.3872 86.3849 71.4141 104.593 71.4141 104.593Z" fill="#00B0F3"/>
<path d="M105.173 86.2638C104.124 86.2676 103.109 86.3054 102.121 86.3697C103.595 99.2225 107.138 135.668 105.449 176.698C106.617 176.706 107.785 176.702 108.945 176.691C108.704 166.155 107.544 111.622 108.785 86.3772C107.62 86.2979 106.418 86.2563 105.173 86.2601V86.2638Z" fill="#0063A2"/>
<path d="M106.809 129.977C113.457 129.977 118.846 123.956 118.846 116.529C118.846 109.102 113.457 103.082 106.809 103.082C100.162 103.082 94.7734 109.102 94.7734 116.529C94.7734 123.956 100.162 129.977 106.809 129.977Z" fill="#0063A2"/>
<path d="M106.808 126.905C111.567 126.905 115.425 122.259 115.425 116.529C115.425 110.799 111.567 106.153 106.808 106.153C102.049 106.153 98.1914 110.799 98.1914 116.529C98.1914 122.259 102.049 126.905 106.808 126.905Z" fill="#6887AF"/>
<path d="M106.81 125.924C110.88 125.924 114.179 121.718 114.179 116.529C114.179 111.34 110.88 107.134 106.81 107.134C102.741 107.134 99.4414 111.34 99.4414 116.529C99.4414 121.718 102.741 125.924 106.81 125.924Z" fill="#D8FFEE"/>
<path d="M105.214 119.436C102.879 117.46 102.099 114.725 102.219 111.981C101.224 113.32 100.609 115.131 100.609 117.128C100.609 121.249 103.216 124.589 106.432 124.589C108.28 124.589 109.927 123.484 110.993 121.76C108.859 121.56 106.796 120.78 105.214 119.438V119.436Z" fill="#BAEBDF"/>
<path d="M108.115 114.784C109.525 114.784 110.667 113.528 110.667 111.979C110.667 110.43 109.525 109.173 108.115 109.173C106.705 109.173 105.562 110.43 105.562 111.979C105.562 113.528 106.705 114.784 108.115 114.784Z" fill="white"/>
<path d="M110.996 119.141C111.899 119.141 112.632 118.27 112.632 117.196C112.632 116.122 111.899 115.251 110.996 115.251C110.092 115.251 109.359 116.122 109.359 117.196C109.359 118.27 110.092 119.141 110.996 119.141Z" fill="white"/>
<path d="M74.6991 170.255L74.8332 172.995C89.0753 179.23 137.328 176.207 138.477 173.94C138.668 172.394 138.813 167.492 138.925 160.992C132.476 163.468 124.499 166.192 124.499 166.192C124.499 166.192 127.371 163.358 130.626 155.611C111.367 165.86 92.5372 158.132 74.6953 170.255H74.6991Z" fill="#0063A2"/>
<path d="M80.8082 175.361C84.5765 171.752 89.7541 168.418 96.4979 167.334C99.0599 167.334 103.797 169.352 110.529 176.676C112.766 179.11 115.224 182.125 117.894 185.852C132.526 206.259 154.102 208.78 151.421 192.401C149.441 180.315 136.344 176.464 129.612 175.274C133.162 174.715 136.199 173.97 138.409 173.003L138.868 163.672C148.756 164.715 176.716 170.206 175.628 198.954C174.311 233.847 140.182 233.722 118.61 217.347C97.0379 200.972 80.3142 189.506 72.793 186.736C72.8734 186.29 75.3856 180.546 80.8006 175.365L80.8082 175.361Z" fill="#00B0F3"/>
<path d="M147.769 202.253C150.722 200.798 152.257 197.525 151.419 192.401C149.439 180.315 136.342 176.464 129.609 175.274C133.159 174.715 136.196 173.97 138.406 173.003L138.865 163.672C142.756 164.084 149.443 165.184 156.06 168.116C162.681 178.282 168.652 194.494 147.765 202.253H147.769Z" fill="#0063A2"/>
<path d="M132.417 175.361C128.649 171.752 123.471 168.418 116.727 167.334C114.165 167.334 109.428 169.352 102.696 176.676C100.459 179.11 98.0008 182.125 95.3316 185.852C80.6989 206.259 59.1232 208.78 61.8039 192.401C63.7838 180.315 76.8808 176.464 83.6132 175.274C80.0632 174.715 77.0264 173.97 74.8167 173.003L74.3571 163.672C64.4692 164.715 36.5097 170.206 37.5973 198.954C38.9146 233.847 73.0436 233.722 94.6155 217.347C116.187 200.972 132.911 189.506 140.432 186.736C140.352 186.29 137.84 180.546 132.425 175.365L132.417 175.361Z" fill="#00B0F3"/>
<path d="M133.735 190.027C126.838 178.747 111.397 173.668 107.02 172.42C105.684 173.584 104.244 174.986 102.693 176.672C100.456 179.106 97.9978 182.121 95.3286 185.848C92.4105 189.918 89.2167 193.274 85.9922 195.911C88.9026 199.354 93.6704 206.312 95.5546 216.625C111.688 204.407 125.031 195.005 133.735 190.031V190.027Z" fill="#0063A2"/>
<path d="M65.4542 202.253C62.5016 200.798 60.966 197.525 61.8047 192.401C63.7845 180.315 76.8816 176.464 83.6139 175.274C80.0639 174.715 77.0271 173.97 74.8175 173.003L74.3579 163.672C70.4671 164.084 63.7807 165.184 57.1632 168.116C50.5419 178.282 44.5716 194.494 65.458 202.253H65.4542Z" fill="#0063A2"/>
<path d="M124.971 221.504C130.302 215.676 134.51 209.123 136.099 201.406C130.19 198.908 123.531 193.708 117.898 185.851C115.225 182.125 112.77 179.11 110.533 176.676C103.801 169.352 99.0639 167.334 96.502 167.334C89.7581 168.418 84.5805 171.755 80.8122 175.361C75.3973 180.542 72.8851 186.286 72.8047 186.732C80.3259 189.502 97.0458 200.968 118.621 217.343C120.643 218.877 122.773 220.268 124.979 221.5L124.971 221.504Z" fill="#00B0F3"/>
<path d="M150.001 227.955C150.794 219.414 149.07 210.673 144.824 203.069C143.901 203.168 142.909 203.152 141.863 203.024C145.896 208.866 148.377 215.729 148.615 222.845C148.672 224.573 148.596 226.296 148.396 227.996C148.933 227.996 149.469 227.978 150.001 227.951V227.955Z" fill="#0063A2"/>
<path d="M149.992 187.832C150.524 188.95 150.953 190.16 151.241 191.475C158.417 190.893 165.72 192.484 171.916 196.256C173.222 197.049 174.463 197.937 175.639 198.901C175.692 197.48 175.669 196.116 175.585 194.804C174.88 194.256 174.153 193.731 173.406 193.236C166.551 188.712 158.13 186.876 150 187.832H149.992Z" fill="#0063A2"/>
<path d="M42.1119 193.187C48.1166 189.699 55.4885 189.011 62.0868 190.987C62.3932 189.759 62.8182 188.622 63.339 187.575C55.7259 184.986 47.006 185.874 40.2852 190.443C39.4388 191.018 38.6384 191.641 37.8764 192.306C37.6887 193.682 37.5815 195.125 37.5547 196.633C38.9257 195.311 40.4575 194.147 42.108 193.187H42.1119Z" fill="#0063A2"/>
<path d="M60.9325 222.297C61.3269 215.434 63.3987 208.738 66.7916 202.763C66.0257 202.548 65.3288 202.238 64.7084 201.83C61.3958 208.352 59.527 215.552 59.213 222.887C59.1479 224.41 59.1402 225.956 59.2053 227.501C59.7568 227.599 60.3159 227.683 60.8827 227.751C60.7946 225.793 60.8367 223.915 60.9325 222.297Z" fill="#0063A2"/>
<path d="M65.4526 202.253C62.0787 200.462 61.2937 197.238 61.646 193.584C57.0697 189.714 48.0166 186.577 40.0243 184.393C38.3087 188.421 37.3705 193.221 37.5849 198.95C37.8913 207.09 40.2656 218.152 49.5102 223.805C55.8557 222.105 64.3114 216.689 65.4526 202.253Z" fill="#0063A2"/>
<path d="M32.7225 161.352C32.7225 161.352 16.4589 161.187 6.2743 172.863L13.573 184.69L21.8249 178.574C21.8852 178.866 11.3585 198.027 11.3585 198.027L24.5645 204.037L30.4538 193.196L31.8015 196.286C37.8562 196.817 49.1825 196.99 49.1825 196.99C52.1242 191.045 55.8478 174.817 55.8478 174.817C55.8478 174.817 67.6694 157.579 73.1302 140.798C73.1302 140.798 81.3147 108.803 72.556 102.707C69.9708 105.768 32.7225 161.352 32.7225 161.352Z" fill="#00B0F3"/>
<path d="M31.8488 196.261L30.499 193.166C30.499 193.166 20.5692 190.201 20.9715 183.38C21.2989 177.859 27.7145 175.151 34.4518 180.272C47.4095 176.179 53.7916 182.246 47.833 195.225C39.41 193.228 31.8492 196.257 31.8492 196.257L31.8488 196.261Z" fill="#0063A2"/>
<path d="M31.8607 196.262C31.8607 196.262 31.3471 191.287 34.8412 182.689C34.8412 182.689 43.688 183.315 46.7381 184.07C48.8391 191.518 49.2636 196.967 49.2636 196.967C49.2636 196.967 41.2954 197.59 31.8607 196.262Z" fill="#00B0F3"/>
<path d="M58.2628 170.049C55.0159 166.948 51.377 164.245 47.5092 161.96C43.8566 159.803 39.9153 158.018 35.8212 156.69C35.2674 157.369 34.2313 159.29 33.7845 159.82C38.0046 161.312 42.594 161.915 46.4667 164.315C50.0388 166.532 53.3572 169.117 56.4035 172.003C56.6863 172.269 56.9601 172.546 57.2296 172.825C57.6487 172.177 58.1506 171.39 58.7143 170.475C58.5665 170.332 58.4144 170.192 58.2704 170.05L58.2628 170.049Z" fill="#0063A2"/>
<path d="M74.075 132.642C74.2104 131.364 74.357 129.964 74.5062 128.481C73.8156 127.691 73.1037 126.918 72.3619 126.169C69.3921 123.162 66.0114 120.429 62.3374 118.201C61.8592 118.955 61.3905 119.695 60.9232 120.424C64.3123 122.624 67.4595 125.162 70.2814 128.151C71.6283 129.574 72.8918 131.078 74.0712 132.642L74.075 132.642Z" fill="#0063A2"/>
<path d="M62.4161 146.763C58.1045 143.383 53.1354 140.622 48.1226 138.533C47.6475 139.196 47.1787 139.842 46.7235 140.473C51.645 142.75 56.5314 145.66 60.6681 148.964C63.0206 150.846 65.2126 152.892 67.2392 155.074C67.7005 154.166 68.1603 153.238 68.609 152.302C66.6724 150.331 64.601 148.478 62.42 146.764L62.4161 146.763Z" fill="#0063A2"/>
<path d="M73.577 139.955C73.577 139.955 75.4493 126.557 74.6949 119.089C71.3594 140.441 69.957 149.625 69.957 149.625C69.957 149.625 73.3013 141.418 73.577 139.955Z" fill="#0063A2"/>
<path d="M142.749 96.0178C141.953 95.9838 141.16 95.946 140.371 95.9044C140.467 103.089 141.141 110.224 142.451 117.366C142.473 117.487 142.497 117.604 142.52 117.725C143.584 117.956 144.668 118.186 145.767 118.413C145.664 117.91 145.56 117.408 145.461 116.905C144.109 110.053 143.193 103.036 142.749 96.014V96.0178Z" fill="#0063A2"/>
<path d="M172.994 115.605C169.046 110.855 165.576 105.741 162.509 100.398C161.551 98.735 160.647 97.0419 159.778 95.3337C158.966 95.6247 157.771 95.8326 156.305 95.9724C156.691 96.8227 157.09 97.6692 157.511 98.5044C159.717 102.918 162.252 107.155 165.086 111.206C167.828 115.129 170.834 118.87 174.07 122.404C175.874 122.445 177.536 122.404 179.01 122.26C176.915 120.125 174.909 117.906 172.998 115.609L172.994 115.605Z" fill="#0063A2"/>
<path d="M163.648 75.7012C163.648 76.6914 163.648 77.7155 163.625 78.7472C170.185 81.4569 177.048 83.4371 184.113 84.6729C186.702 85.1264 189.31 85.4892 191.929 85.7651C191.96 84.5255 191.979 83.3313 191.987 82.1938C189.559 81.9557 187.138 81.642 184.734 81.2339C177.58 80.0246 170.503 78.1539 163.648 75.7012Z" fill="#0063A2"/>
<ellipse cx="32.5" cy="172" rx="12.5" ry="2" fill="#0063A2"/>
<path d="M32 152C48.5685 152 62 138.569 62 122C62 105.431 48.5685 92 32 92C15.4315 92 2 105.431 2 122C2 138.569 15.4315 152 32 152Z" fill="#0B0F14" stroke="#FFBC52" stroke-width="4"/>
<path fill-rule="evenodd" clip-rule="evenodd" d="M32 147.2C45.9176 147.2 57.2 135.918 57.2 122C57.2 108.082 45.9176 96.8 32 96.8C18.0824 96.8 6.8 108.082 6.8 122C6.8 135.918 18.0824 147.2 32 147.2ZM32 150C47.464 150 60 137.464 60 122C60 106.536 47.464 94 32 94C16.536 94 4 106.536 4 122C4 137.464 16.536 150 32 150Z" fill="url(#paint0_linear_1673_6225)"/>
<path fill-rule="evenodd" clip-rule="evenodd" d="M32.23 108C30.5522 108 29.2422 108.632 28.3755 109.658C27.536 110.652 27.1848 111.926 27.1848 113.142C27.1848 114.427 27.713 115.873 28.529 117.001C29.3283 118.106 30.6048 119.165 32.23 119.165C33.8531 119.165 35.1297 118.112 35.9304 117.007C36.7475 115.879 37.2752 114.433 37.2752 113.142C37.2752 111.929 36.9399 110.652 36.1028 109.655C35.2365 108.623 33.9219 108 32.23 108ZM29.4846 113.142C29.4846 112.304 29.7299 111.558 30.1625 111.046C30.5678 110.566 31.2055 110.206 32.23 110.206C33.2834 110.206 33.9165 110.568 34.3114 111.038C34.7356 111.544 34.9754 112.287 34.9754 113.142C34.9754 113.917 34.6334 114.932 34.0419 115.748C33.434 116.587 32.7629 116.96 32.23 116.96C31.6991 116.96 31.028 116.586 30.4186 115.744C29.826 114.925 29.4846 113.91 29.4846 113.142Z" fill="#9488F0"/>
<path d="M24.5568 124.149C22.226 123.9 20.2998 125.688 20.2998 127.519C20.2998 129.34 21.7968 130.992 24.6119 130.992C25.6242 130.992 26.6584 130.567 27.7944 129.774C29.1175 128.85 30.2149 127.764 31.3138 126.676C32.4155 125.586 33.5186 124.495 34.8519 123.564C36.1738 122.641 37.6837 121.922 39.3881 121.922C43.2711 121.922 46 124.377 46 127.601C46 130.816 42.8096 133.549 39.19 133.164C37.7366 133.01 36.032 132.539 34.6616 131.258L36.2665 129.679C37.1382 130.493 38.2793 130.849 39.4418 130.971L39.4432 130.972C41.774 131.22 43.7002 129.432 43.7002 127.601C43.7002 125.781 42.2032 124.128 39.3881 124.128C38.3758 124.128 37.3416 124.553 36.2056 125.347C34.8825 126.27 33.7851 127.356 32.6862 128.444C31.5845 129.534 30.4814 130.626 29.1481 131.557C27.8262 132.479 26.3163 133.198 24.6119 133.198C20.7289 133.198 18 130.743 18 127.519C18 124.304 21.1905 121.571 24.8101 121.957C26.2634 122.11 27.968 122.581 29.3384 123.862L27.7335 125.441C26.8618 124.627 25.7207 124.271 24.5582 124.149L24.5568 124.149Z" fill="#9488F0"/>
<ellipse cx="32.5" cy="171.5" rx="7.5" ry="1.5" fill="#0063A2" fill-opacity="0.4"/>
<defs>
<linearGradient id="paint0_linear_1673_6225" x1="4" y1="94" x2="69.8824" y2="110.471" gradientUnits="userSpaceOnUse">
<stop stop-color="#6046FF"/>
<stop offset="1" stop-color="#22D49F"/>
</linearGradient>
</defs>
</svg>
