<svg xmlns="http://www.w3.org/2000/svg" fill="none" viewBox="0 0 70 70"><path fill="#2C353F" d="M70 35c0 19.33-15.67 35-35 35S0 54.33 0 35 15.67 0 35 0s35 15.67 35 35Z"/><path fill="#74BCFF" fill-rule="evenodd" d="M35.318 14.948c-2.316 0-4.124.877-5.32 2.302-1.16 1.38-1.644 3.15-1.644 4.84 0 1.785.73 3.793 1.855 5.36 1.104 1.534 2.865 3.006 5.109 3.006 2.24 0 4.002-1.464 5.107-2.998 1.128-1.566 1.856-3.575 1.856-5.369 0-1.684-.463-3.457-1.618-4.842-1.196-1.434-3.01-2.299-5.345-2.299Zm-3.79 7.141c0-1.164.339-2.199.936-2.91.56-.667 1.44-1.168 2.854-1.168 1.454 0 2.327.504 2.872 1.157.586.702.917 1.734.917 2.921 0 1.078-.472 2.487-1.289 3.62-.839 1.165-1.765 1.683-2.5 1.683-.733 0-1.66-.519-2.5-1.689-.818-1.137-1.29-2.547-1.29-3.614Z" clip-rule="evenodd"/><path fill="#74BCFF" d="M24.727 37.377c-3.217-.345-5.876 2.138-5.876 4.68 0 2.53 2.067 4.825 5.952 4.825 1.397 0 2.825-.591 4.392-1.693 1.827-1.283 3.341-2.791 4.858-4.302 1.52-1.514 3.043-3.03 4.883-4.323 1.825-1.282 3.909-2.28 6.261-2.28 5.36 0 9.126 3.41 9.126 7.888 0 4.465-4.404 8.26-9.4 7.726-2.005-.213-4.358-.868-6.25-2.647l2.216-2.194c1.203 1.132 2.778 1.626 4.382 1.796h.002c3.217.345 5.876-2.139 5.876-4.68 0-2.53-2.066-4.825-5.952-4.825-1.397 0-2.824.59-4.392 1.693-1.827 1.283-3.341 2.79-4.858 4.301-1.52 1.514-3.043 3.03-4.883 4.323-1.825 1.282-3.909 2.28-6.261 2.28-5.36 0-9.126-3.41-9.126-7.888 0-4.464 4.404-8.26 9.4-7.725 2.005.213 4.358.868 6.25 2.646l-2.216 2.194c-1.203-1.131-2.778-1.625-4.382-1.795h-.002Z"/></svg>