<svg xmlns="http://www.w3.org/2000/svg" fill="currentCOlor" viewBox="0 0 24 24"><path d="M17.5 11a1.5 1.5 0 0 0-3 0v4a1.5 1.5 0 0 0 3 0v-4ZM8 9.5A1.5 1.5 0 0 1 9.5 11v4a1.5 1.5 0 0 1-3 0v-4A1.5 1.5 0 0 1 8 9.5Z"/><path fill-rule="evenodd" d="M10 0a1 1 0 1 0 0 2h1v2h-.983c-1.391 0-2.488 0-3.374.062-.904.062-1.664.193-2.368.49A7 7 0 0 0 .552 8.275c-.297.704-.428 1.464-.49 2.367C0 11.53 0 12.627 0 14.018v.12c0 .8 0 1.296.054 1.727a7 7 0 0 0 6.082 6.082c.431.054.927.054 1.726.054h8.276c.798 0 1.295 0 1.726-.053a7 7 0 0 0 6.082-6.083c.054-.431.054-.928.054-1.726v-.12c0-1.392 0-2.489-.062-3.376-.062-.903-.193-1.663-.49-2.367a7 7 0 0 0-3.723-3.723c-.704-.297-1.464-.428-2.367-.49C16.47 4 15.374 4 13.983 4H13V2h1a1 1 0 1 0 0-2h-4Zm.055 6c-1.438 0-2.465 0-3.274.057-.8.055-1.312.162-1.728.337a5 5 0 0 0-2.659 2.66c-.175.415-.282.927-.337 1.727C2 11.591 2 12.617 2 14.055c0 .908.002 1.27.038 1.562a5 5 0 0 0 4.345 4.345c.292.036.654.038 1.562.038h8.11c.908 0 1.27-.002 1.562-.038a5 5 0 0 0 4.345-4.345c.036-.292.038-.654.038-1.562 0-1.438 0-2.465-.057-3.274-.055-.8-.162-1.312-.338-1.728a5 5 0 0 0-2.658-2.659c-.416-.175-.928-.282-1.728-.337C16.409 6 15.383 6 13.945 6h-3.89Z" clip-rule="evenodd"/></svg>