<svg xmlns="http://www.w3.org/2000/svg" fill="currentColor" viewBox="0 0 24 24"><path d="M8.91 1.8a1 1 0 0 1 0 2L4 4a1 1 0 0 0-1 1v15a1 1 0 0 0 1 1h15a1 1 0 0 0 1-1v-5a1 1 0 1 1 2 0v5a3 3 0 0 1-3 3H4a3 3 0 0 1-3-3V5a3 3 0 0 1 3-3l4.91-.2Z"/><path d="M12 16.7a.8.8 0 1 1 0 1.6H6a.8.8 0 1 1 0-1.6h6ZM7.5 12.9a.8.8 0 1 1 0 1.6H6a.8.8 0 1 1 0-1.6h1.5ZM16.5 12.9a.8.8 0 1 1 0 1.6H10a.8.8 0 1 1 0-1.6h6.5ZM16 4.5a1 1 0 0 1 1 1v1a1 1 0 1 1-2 0v-1a1 1 0 0 1 1-1ZM20 4.5a1 1 0 0 1 1 1v1a1 1 0 1 1-2 0v-1a1 1 0 0 1 1-1Z"/><path fill-rule="evenodd" d="M18 .2a.8.8 0 0 1 .8.8v.2H20A3.8 3.8 0 0 1 23.8 5v2a3.8 3.8 0 0 1-3.8 3.8h-4A3.8 3.8 0 0 1 12.2 7V5A3.8 3.8 0 0 1 16 1.2h1.2V1a.8.8 0 0 1 .8-.8Zm-2 2.6A2.2 2.2 0 0 0 13.8 5v2A2.2 2.2 0 0 0 16 9.2h4A2.2 2.2 0 0 0 22.2 7V5A2.2 2.2 0 0 0 20 2.8h-4Z" clip-rule="evenodd"/><path d="M8.554 8.4a.8.8 0 1 1 0 1.6h-2.5a.8.8 0 1 1 0-1.6h2.5Z"/></svg>