<svg xmlns="http://www.w3.org/2000/svg" fill="currentColor" viewBox="0 0 24 24"><path fill-rule="evenodd" d="M1.25 1.25h8.5v7.5h-8.5v-7.5Zm1.5 1.5v4.5h5.5v-4.5h-5.5Z" clip-rule="evenodd"/><path fill-rule="evenodd" d="M5 17V8h1v9H5ZM19.5 13v7.5H9v-1h9.5V13h1Z" clip-rule="evenodd"/><path d="m22 14-3-5-3 5h6Z"/><path fill-rule="evenodd" d="M1.25 16.25h8.5v7.5h-8.5v-7.5Zm1.5 1.5v4.5h5.5v-4.5h-5.5ZM19 2.75a2.25 2.25 0 1 0 0 4.5 2.25 2.25 0 0 0 0-4.5ZM15.25 5a3.75 3.75 0 1 1 7.5 0 3.75 3.75 0 0 1-7.5 0Z" clip-rule="evenodd"/></svg>