<svg xmlns="http://www.w3.org/2000/svg" fill="currentColor" viewBox="0 0 20 20"><path fill-rule="evenodd" d="M2.5 14.166c0-.46.373-.833.833-.833h11.322l-1.91-1.91a.833.833 0 1 1 1.178-1.18l3.333 3.334a.833.833 0 0 1 0 1.179l-3.333 3.333a.833.833 0 1 1-1.179-1.179l1.91-1.91H3.335a.833.833 0 0 1-.834-.834Zm.244-7.744a.833.833 0 0 1 0-1.178L6.077 1.91A.833.833 0 1 1 7.256 3.09l-1.91 1.91h11.32a.833.833 0 0 1 0 1.667H5.347l1.91 1.911a.833.833 0 1 1-1.179 1.179L2.744 6.422Z" clip-rule="evenodd"/></svg>