<svg xmlns="http://www.w3.org/2000/svg" fill="currentColor" viewBox="0 0 16 16"><path d="M7.333 11.332c0-.065.002-.13.005-.195 0-.017.003-.035.004-.052l.001-.035c-.07.019-.14.037-.21.053A9.507 9.507 0 0 1 5 11.332c-1.07 0-2.066-.156-2.82-.43-.061-.022-.12-.048-.18-.073v1.46a.43.43 0 0 0 .056.057c.103.088.29.197.58.302.573.209 1.409.35 2.364.35a8.1 8.1 0 0 0 1.883-.206c.261-.063.478-.137.65-.21a3.968 3.968 0 0 1-.08-.278l-.014-.06a3.957 3.957 0 0 1-.033-.156l-.016-.09a3.979 3.979 0 0 1-.02-.129l-.011-.091a4.028 4.028 0 0 1-.012-.126l-.008-.098a4.065 4.065 0 0 1-.006-.222Zm.487-3.43c-.753.274-1.75.43-2.82.43-1.07 0-2.066-.156-2.82-.43-.061-.022-.12-.048-.18-.073v1.46c.01.012.027.031.056.057.103.088.29.197.58.302.573.209 1.409.35 2.364.35a8.18 8.18 0 0 0 1.829-.193c.448-.104.774-.238.978-.364l.045-.078c.015-.028.031-.056.048-.083l.038-.063c.02-.032.04-.064.062-.096V7.83c-.06.025-.119.05-.18.073Zm0-3c-.753.274-1.75.43-2.82.43-1.07 0-2.066-.156-2.82-.43-.061-.022-.12-.048-.18-.073v1.46c.01.012.027.031.056.057.103.088.29.197.58.302.573.209 1.409.35 2.364.35.956 0 1.791-.141 2.365-.35.289-.105.477-.214.58-.302A.428.428 0 0 0 8 6.289V4.83c-.06.025-.119.05-.18.073ZM5 2.665c-.955 0-1.791.142-2.365.35-.289.106-.476.215-.579.303l-.014.014.014.014c.103.088.29.197.58.302.573.209 1.409.35 2.364.35.956 0 1.791-.141 2.365-.35.289-.105.477-.214.58-.302l.013-.014-.014-.014c-.102-.088-.29-.197-.58-.302-.573-.209-1.408-.35-2.364-.35Zm3.667 8.667a2.696 2.696 0 0 0 .066.592l.015.064a2.645 2.645 0 0 0 .165.463 2.667 2.667 0 1 0 .286-2.72v.001a2.676 2.676 0 0 0-.218.343l-.017.032a2.63 2.63 0 0 0-.062.131l-.022.048c-.022.05-.041.103-.06.155l-.022.064a2.628 2.628 0 0 0-.131.827Zm6.666 0a4 4 0 0 1-7.176 2.43 5.333 5.333 0 0 1-.958.326A9.429 9.429 0 0 1 5 14.332c-1.07 0-2.066-.156-2.82-.43-.374-.136-.724-.314-.993-.545-.267-.23-.52-.573-.52-1.025v-9c0-.451.253-.796.52-1.025.269-.23.619-.409.993-.545.754-.274 1.75-.43 2.82-.43 1.07 0 2.067.156 2.82.43.375.136.725.314.993.545.267.23.52.574.52 1.025v4.536a4 4 0 0 1 6 3.464Z"/></svg>