<svg xmlns="http://www.w3.org/2000/svg" fill="currentColor" viewBox="0 0 21 20"><path fill-rule="evenodd" d="M13.834 3.333c.92 0 1.666.747 1.666 1.667v5.938a.833.833 0 0 0 1.667 0V5a3.333 3.333 0 0 0-3.333-3.333H7.896a.833.833 0 0 0 0 1.666h5.938Zm.208 4.167a2.708 2.708 0 0 0-2.708-2.708H5.709A2.708 2.708 0 0 0 3 7.5v8.125a2.708 2.708 0 0 0 2.709 2.708h5.625a2.708 2.708 0 0 0 2.708-2.708V7.5Zm-2.708-1.042c.575 0 1.041.467 1.041 1.042v8.125c0 .575-.466 1.042-1.041 1.042H5.709a1.042 1.042 0 0 1-1.042-1.042V7.5c0-.575.466-1.042 1.042-1.042h5.625Z" clip-rule="evenodd"/></svg>