<svg xmlns="http://www.w3.org/2000/svg" fill="currentColor" viewBox="0 0 20 20"><path fill-rule="evenodd" d="M6.667 2.5c0-.46.373-.833.833-.833h5a.833.833 0 1 1 0 1.666h-5a.833.833 0 0 1-.833-.833ZM4.16 4.167H2.5a.833.833 0 0 0 0 1.666h.887l.535 8.021c.042.63.076 1.15.139 1.575.064.441.167.845.381 1.22A3.333 3.333 0 0 0 5.885 18c.39.19.799.265 1.244.3.427.034.949.034 1.58.034h2.582c.63 0 1.153 0 1.58-.034.445-.035.854-.11 1.244-.3a3.334 3.334 0 0 0 1.442-1.35c.214-.375.317-.779.382-1.22.062-.424.097-.945.14-1.575l.534-8.02h.887a.833.833 0 1 0 0-1.667H4.16Zm10.782 1.666H5.057l.525 7.877c.045.671.076 1.126.128 1.477.05.34.11.515.18.638.167.293.419.528.722.675.127.061.305.11.649.138.353.028.809.028 1.481.028h2.516c.672 0 1.128 0 1.481-.028.343-.027.522-.077.649-.138.303-.147.554-.383.721-.675.07-.123.131-.297.181-.638.052-.351.083-.806.127-1.476l.525-7.878ZM8.333 7.916c.46 0 .833.374.833.834v4.166a.833.833 0 0 1-1.666 0V8.75c0-.46.373-.833.833-.833Zm3.333 0c.46 0 .834.374.834.834v4.166a.833.833 0 0 1-1.667 0V8.75c0-.46.373-.833.833-.833Z" clip-rule="evenodd"/></svg>