<svg xmlns="http://www.w3.org/2000/svg" fill="currentColor" viewBox="0 0 16 16"><path fill-rule="evenodd" d="M3.51 3.04A.571.571 0 0 1 4 2.761h8c.2 0 .387.105.49.277l2 3.333a.571.571 0 0 1-.064.676L8.759 13.38a1.039 1.039 0 0 1-1.518 0L1.574 7.048a.571.571 0 0 1-.064-.676l2-3.333Zm.814.865L2.707 6.599 8 12.515 13.293 6.6l-1.616-2.694H4.324Z" clip-rule="evenodd"/><path fill-rule="evenodd" d="M6.027 5.376c.271.163.359.514.196.784l-.181.303L7.09 7.615a.571.571 0 1 1-.846.77L4.911 6.917a.571.571 0 0 1-.068-.679l.4-.667a.571.571 0 0 1 .784-.196Z" clip-rule="evenodd"/></svg>