<svg xmlns="http://www.w3.org/2000/svg" fill="currentColor" viewBox="0 0 17 16"><path fill-rule="evenodd" d="M12.362 1.195a2.08 2.08 0 1 1 2.943 2.943L8.93 10.513l-.04.04c-.191.192-.36.36-.564.486-.179.11-.374.19-.578.24-.232.055-.471.055-.742.055H5.834a.667.667 0 0 1-.667-.667V9.495c0-.271 0-.51.055-.743a2 2 0 0 1 .24-.578c.125-.204.294-.373.486-.564l.04-.04 6.374-6.375Zm2 .943a.748.748 0 0 0-1.057 0L6.93 8.513c-.253.253-.3.306-.331.358a.667.667 0 0 0-.08.192c-.014.06-.019.13-.019.487V10h.45c.358 0 .428-.004.487-.018a.666.666 0 0 0 .193-.08c.051-.032.104-.078.357-.331l6.375-6.376a.748.748 0 0 0 0-1.057ZM5.006 2h2.828a.667.667 0 0 1 0 1.333h-2.8c-.571 0-.96.001-1.26.026-.292.023-.441.067-.546.12-.25.128-.455.332-.582.582-.053.105-.097.254-.12.547-.025.3-.026.688-.026 1.259v5.6c0 .57 0 .96.025 1.26.024.291.068.44.12.545.128.251.332.455.583.583.105.053.254.096.546.12.3.025.689.025 1.26.025h5.6c.57 0 .959 0 1.259-.025.292-.024.442-.067.546-.12.25-.128.455-.332.583-.583.053-.104.096-.254.12-.546.024-.3.025-.688.025-1.26v-2.8a.667.667 0 0 1 1.333 0v2.828c0 .537 0 .98-.03 1.34-.03.375-.096.72-.26 1.043-.256.502-.664.91-1.166 1.166-.323.165-.668.23-1.043.261-.36.03-.803.03-1.34.03H5.006c-.537 0-.98 0-1.34-.03-.375-.03-.72-.096-1.043-.261a2.666 2.666 0 0 1-1.165-1.165c-.165-.324-.23-.669-.262-1.043a17.8 17.8 0 0 1-.029-1.34V5.838c0-.536 0-.98.03-1.34.03-.375.096-.72.26-1.043.256-.502.664-.91 1.166-1.165.324-.165.668-.23 1.043-.261.36-.03.803-.03 1.34-.03Z" clip-rule="evenodd"/></svg>