<svg xmlns="http://www.w3.org/2000/svg" fill="currentColor" viewBox="0 0 24 24"><path fill-rule="evenodd" d="M10.005 1.131a1 1 0 0 1 .942-.025c3.764 1.881 5.147 5.683 4.317 9.409.636-.6 1.113-1.308 1.287-1.831a1 1 0 0 1 1.689-.357c2.78 3.058 2.94 6.466 1.88 9.22-1.025 2.666-3.233 4.81-5.346 5.415a1 1 0 0 1-.59-.013c-1.822-.608-3.104-2.087-3.96-3.404a15.09 15.09 0 0 1-.492-.814c-.137 1.121-.033 2.205.216 2.953a1 1 0 0 1-1.395 1.21c-1.097-.548-2.66-1.595-3.865-3.163-1.22-1.59-2.084-3.733-1.676-6.383.263-1.714.817-2.933 1.538-3.898.63-.845 1.375-1.47 2.022-2.012l.206-.173c.711-.6 1.309-1.145 1.776-1.914.46-.758.833-1.8.948-3.422a1 1 0 0 1 .503-.798Zm1.28 2.554c-.22 1.087-.571 1.963-1.022 2.705C9.615 7.456 8.8 8.176 8.068 8.793l-.197.166c-.666.56-1.234 1.038-1.719 1.688-.51.683-.946 1.59-1.164 3.005-.308 2.006.328 3.613 1.286 4.86a8.847 8.847 0 0 0 1.4 1.433c-.031-1.42.238-3.005.931-4.392a1 1 0 0 1 1.79 0c.074.148.156.33.25.535.285.622.676 1.474 1.256 2.367.704 1.083 1.574 2.03 2.62 2.483 1.337-.523 2.943-2.055 3.733-4.11.69-1.791.732-3.918-.608-6.007a8.2 8.2 0 0 1-1.095 1.229c-.805.738-1.918 1.45-3.051 1.45a1 1 0 0 1-.895-1.447c1.566-3.13 1.059-6.434-1.32-8.368Z" clip-rule="evenodd"/></svg>