<svg xmlns="http://www.w3.org/2000/svg" fill="currentColor" viewBox="0 0 16 16"><path fill-rule="evenodd" d="M8.932.722c.272.118.433.4.396.694L8.755 6h4.13c.161 0 .324 0 .457.012.125.011.366.041.575.21a1 1 0 0 1 .371.793 1.044 1.044 0 0 1-.206.577 5.39 5.39 0 0 1-.283.358l-5.953 7.143a.667.667 0 0 1-1.174-.51L7.245 10h-4.13c-.16 0-.323 0-.456-.012a1.045 1.045 0 0 1-.576-.21 1 1 0 0 1-.371-.793c.004-.269.135-.473.207-.577.076-.11.18-.235.283-.358l.015-.018L8.155.906a.667.667 0 0 1 .777-.184ZM3.424 8.667H8a.667.667 0 0 1 .662.749l-.385 3.077 4.3-5.16H8a.667.667 0 0 1-.661-.75l.384-3.076-4.3 5.16Z" clip-rule="evenodd"/></svg>