<svg xmlns="http://www.w3.org/2000/svg" fill="currentColor" viewBox="0 0 20 24"><path fill-rule="evenodd" d="M8.408 5.378c-.1-.034-.231-.045-.89-.045H4.333c-.48 0-.79 0-1.027.02-.226.018-.31.05-.351.07a.833.833 0 0 0-.365.365c-.02.041-.052.125-.07.351-.017.208-.02.473-.02.86h6.985c-.225-.448-.408-1.078-.766-1.428a.833.833 0 0 0-.311-.193ZM11.348 7c-.421-.843-.778-1.95-1.462-2.62a2.5 2.5 0 0 0-.935-.577c-.4-.138-.834-.138-1.33-.137H4.302c-.44 0-.818 0-1.13.026-.33.027-.658.086-.973.247A2.5 2.5 0 0 0 1.105 5.03c-.16.316-.22.643-.247.973-.025.312-.025.69-.025 1.13v8.4c0 .67 0 1.224.037 1.675.038.469.12.9.326 1.304.32.627.83 1.137 1.457 1.457.404.206.835.288 1.303.326.451.037 1.005.037 1.676.037h8.735c.671 0 1.225 0 1.676-.037.468-.038.899-.12 1.303-.326a3.333 3.333 0 0 0 1.457-1.457c.206-.405.288-.835.326-1.304.037-.45.037-1.004.037-1.675v-3.736c0-.67 0-1.224-.037-1.675-.038-.468-.12-.899-.326-1.303a3.333 3.333 0 0 0-1.457-1.457c-.404-.206-.835-.288-1.303-.327C15.592 7 15.038 7 14.367 7h-3.019Zm-.532 1.666H14.333c.714 0 1.2 0 1.574.031.366.03.552.084.683.15.313.16.568.416.728.73.066.13.12.316.15.682.031.375.032.86.032 1.574v3.666c0 .714-.001 1.2-.032 1.575-.03.365-.084.552-.15.682-.16.314-.415.569-.728.729-.13.066-.317.12-.683.15-.375.03-.86.031-1.574.031H5.666c-.713 0-1.199 0-1.574-.031-.365-.03-.552-.084-.682-.15a1.666 1.666 0 0 1-.729-.729c-.066-.13-.12-.317-.15-.682-.03-.375-.031-.86-.031-1.575V8.666h8.316Z" clip-rule="evenodd"/></svg>