<svg xmlns="http://www.w3.org/2000/svg" fill="currentColor" viewBox="0 0 20 20"><path fill-rule="evenodd" d="M17.334 10a7.333 7.333 0 1 1-14.667 0 7.333 7.333 0 0 1 14.667 0ZM9.526 4.298c.226-.256.388-.3.474-.3.086 0 .248.044.475.3.225.254.46.66.669 1.22.365.973.618 2.305.677 3.814H8.18c.058-1.51.312-2.84.677-3.814.21-.56.443-.966.67-1.22Zm-2.68 5.034c.058-1.64.333-3.136.762-4.282a7.18 7.18 0 0 1 .29-.673 6.006 6.006 0 0 0-3.861 4.955h2.809Zm-2.81 1.333h2.81c.058 1.64.333 3.136.762 4.281.089.236.186.462.29.674a6.006 6.006 0 0 1-3.861-4.955Zm4.144 0h3.64c-.058 1.509-.311 2.84-.676 3.813-.21.56-.444.966-.67 1.22-.226.256-.388.3-.474.3-.086 0-.248-.044-.474-.3-.226-.254-.46-.66-.67-1.22-.364-.973-.618-2.304-.676-3.813Zm4.975 0c-.059 1.64-.333 3.136-.763 4.281a7.21 7.21 0 0 1-.29.674 6.006 6.006 0 0 0 3.862-4.955h-2.809Zm2.809-1.333a6.006 6.006 0 0 0-3.862-4.955c.105.212.202.437.29.673.43 1.146.704 2.641.763 4.282h2.809Z" clip-rule="evenodd"/></svg>