<svg xmlns="http://www.w3.org/2000/svg" fill="currentColor" viewBox="0 0 16 16"><path fill-rule="evenodd" d="M6.67.754a.667.667 0 0 1 .628-.017c2.509 1.254 3.431 3.789 2.878 6.273.424-.4.742-.872.858-1.221a.667.667 0 0 1 1.126-.238c1.853 2.039 1.96 4.31 1.254 6.146-.684 1.778-2.156 3.208-3.564 3.61a.667.667 0 0 1-.394-.008c-1.215-.405-2.07-1.391-2.64-2.27-.118-.18-.227-.363-.328-.542-.091.748-.022 1.47.144 1.969a.667.667 0 0 1-.93.807c-.732-.366-1.773-1.064-2.577-2.11-.813-1.059-1.39-2.488-1.117-4.254.175-1.143.545-1.956 1.025-2.6.42-.562.917-.979 1.348-1.34l.137-.116c.475-.4.873-.763 1.185-1.276.307-.505.555-1.2.632-2.281A.667.667 0 0 1 6.67.754Zm.853 1.702c-.146.725-.38 1.31-.681 1.804-.432.71-.976 1.19-1.463 1.602l-.132.11c-.444.374-.823.693-1.146 1.125-.34.456-.63 1.061-.776 2.004-.205 1.338.219 2.409.858 3.24.283.369.607.688.933.955-.02-.946.158-2.003.62-2.928a.667.667 0 0 1 1.193 0c.05.1.105.22.168.357.19.415.45.983.837 1.578.469.722 1.05 1.353 1.746 1.656.892-.349 1.962-1.37 2.49-2.74.459-1.194.487-2.613-.406-4.005a5.467 5.467 0 0 1-.73.819C10.497 8.525 9.755 9 9 9a.667.667 0 0 1-.597-.965c1.044-2.087.706-4.29-.88-5.579Z" clip-rule="evenodd"/></svg>