<svg xmlns="http://www.w3.org/2000/svg" fill="currentColor" viewBox="0 0 24 24"><path fill-rule="evenodd" d="M17.219 3.007c1.123.247 2.143.87 3.024 1.75a6 6 0 0 1 0 8.486l-6.829 6.828a2 2 0 0 1-2.828 0l-6.829-6.828a6 6 0 0 1 0-8.486c.88-.88 1.9-1.503 3.024-1.75 1.135-.25 2.305-.1 3.439.454.539.263 1.205.7 1.78 1.289a6.624 6.624 0 0 1 1.78-1.29c1.134-.553 2.304-.702 3.439-.453Zm-.43 1.953c-.663-.145-1.375-.071-2.132.298-.635.31-1.412.92-1.763 1.62a1 1 0 0 1-1.788 0c-.351-.7-1.128-1.31-1.763-1.62-.757-.37-1.47-.443-2.132-.298-.674.149-1.368.54-2.04 1.212a4 4 0 0 0 0 5.656L12 18.657l6.828-6.829a4 4 0 0 0 0-5.656c-.671-.672-1.365-1.063-2.039-1.212Z" clip-rule="evenodd"/></svg>