<svg xmlns="http://www.w3.org/2000/svg" fill="currentColor" viewBox="0 0 16 16"><path d="M3.896 13.908a3.337 3.337 0 0 1-1.081-5.436L4.7 6.585l.943.942-1.886 1.886a2.003 2.003 0 0 0 0 2.829 2.005 2.005 0 0 0 2.829 0l1.885-1.886.943.942-1.886 1.886a3.324 3.324 0 0 1-2.357.975c-.438 0-.871-.085-1.275-.252ZM14.16 5.171c0 .884-.351 1.732-.975 2.357L11.3 9.414l-.942-.943 1.886-1.885a2.003 2.003 0 0 0 0-2.829 2.005 2.005 0 0 0-2.83 0L7.529 5.643 6.586 4.7 8.47 2.814a3.337 3.337 0 0 1 4.714 0c.624.626.974 1.474.974 2.357Z"/><path d="m4.699 10.357.943.943L11.3 5.643l-.943-.943-5.658 5.657Z"/></svg>