<svg xmlns="http://www.w3.org/2000/svg" fill="currentColor" viewBox="0 0 32 32"><path fill-rule="evenodd" d="M16 4C9.373 4 4 9.373 4 16s5.373 12 12 12 12-5.373 12-12S22.627 4 16 4ZM2 16C2 8.268 8.268 2 16 2s14 6.268 14 14-6.268 14-14 14S2 23.732 2 16Z" clip-rule="evenodd"/><path fill-rule="evenodd" d="M16.42 11.043a3.314 3.314 0 0 0-2.136.368 2.954 2.954 0 0 0-1.347 1.541 1 1 0 1 1-1.874-.697 4.953 4.953 0 0 1 2.248-2.592 5.314 5.314 0 0 1 3.429-.594 5.174 5.174 0 0 1 3.04 1.654 4.774 4.774 0 0 1 1.22 3.18c0 1.856-1.45 3.09-2.525 3.768a10.85 10.85 0 0 1-2.226 1.062c-.749.267-1.238-.375-1.32-.632a1 1 0 0 1 .652-1.254l.005-.002.025-.008c.023-.008.06-.02.11-.039a8.861 8.861 0 0 0 1.687-.818c.984-.62 1.592-1.335 1.592-2.077V13.9a2.774 2.774 0 0 0-.715-1.85 3.174 3.174 0 0 0-1.866-1.008Zm4.58 2.86h-1 1ZM14.937 22a1 1 0 0 1 1-1h.018a1 1 0 1 1 0 2h-.018a1 1 0 0 1-1-1Z" clip-rule="evenodd"/></svg>