<svg xmlns="http://www.w3.org/2000/svg" fill="currentColor" viewBox="0 0 32 32"><path fill-rule="evenodd" d="M23.778 8.222c-4.296-4.296-11.26-4.296-15.556 0-1.954 1.954-3.093 3.263-3.752 4.111h6.197a1 1 0 1 1 0 2h-8a1 1 0 0 1-1-1v-8a1 1 0 1 1 2 0v4.825c.73-.854 1.74-1.95 3.14-3.35 5.077-5.077 13.309-5.077 18.385 0a12.943 12.943 0 0 1 3.485 6.304 1 1 0 1 1-1.95.443 10.944 10.944 0 0 0-2.949-5.333l.7-.7-.7.7Zm-19.7 9.47a1 1 0 0 1 1.196.753 10.944 10.944 0 0 0 2.948 5.333c4.296 4.296 11.26 4.296 15.556 0 1.954-1.954 3.093-3.263 3.753-4.111h-6.198a1 1 0 1 1 0-2h8a1 1 0 0 1 1 1v8a1 1 0 1 1-2 0v-4.825c-.73.854-1.74 1.95-3.14 3.35-5.077 5.077-13.309 5.077-18.385 0l.707-.707-.707.707a12.944 12.944 0 0 1-3.485-6.304 1 1 0 0 1 .754-1.197Z" clip-rule="evenodd"/></svg>