<svg xmlns="http://www.w3.org/2000/svg" fill="currentColor" viewBox="0 0 16 16"><path fill-rule="evenodd" d="M13.973 2.026A7.92 7.92 0 0 0 7.899 5.72l-.004.006A14 14 0 0 0 6.783 7.84L8.161 9.22c.744-.31 1.46-.68 2.142-1.111 2.816-1.892 3.534-4.366 3.67-6.082ZM10.227 9.7c-.505.279-1.026.53-1.56.751v2.018c.064-.02.13-.043.196-.068.576-.208 1.055-.482 1.25-.772.095-.144.165-.365.194-.668a4.41 4.41 0 0 0-.032-.948 6.773 6.773 0 0 0-.048-.313ZM8 13.333l.119.656a.667.667 0 0 1-.786-.656v-3.057l-1.61-1.61H2.668a.667.667 0 0 1-.656-.785L2.667 8l-.656-.12v-.003l.002-.006.004-.022a5.24 5.24 0 0 1 .075-.335c.053-.216.136-.512.252-.832.216-.596.609-1.45 1.285-1.903h.001c.397-.265.862-.374 1.285-.413.428-.04.864-.013 1.242.036.35.045.667.11.906.168A9.254 9.254 0 0 1 14.671.667c.366.002.662.3.662.666 0 1.874-.525 5.139-3.901 7.611.057.239.121.552.166.9.049.377.076.813.036 1.241-.04.423-.148.888-.413 1.285-.453.677-1.307 1.07-1.903 1.286a8.414 8.414 0 0 1-1.167.327l-.022.004-.006.002h-.004L8 13.333ZM6.312 5.775a15.333 15.333 0 0 0-.762 1.558H3.53c.02-.064.043-.13.068-.197.208-.575.482-1.054.772-1.248.143-.096.365-.166.668-.195.298-.027.628-.01.948.032.113.014.222.031.326.05ZM2.57 10.49a2.12 2.12 0 0 1 2.83.088l.007.008c.793.782.782 2.037.102 2.844-.295.35-.702.608-1.093.8-.398.194-.829.342-1.215.453a11.553 11.553 0 0 1-1.411.306l-.025.004h-.007l-.003.001-.09-.66-.66-.09v-.003l.001-.007.004-.025a7.267 7.267 0 0 1 .068-.403c.05-.26.127-.619.238-1.008a7.53 7.53 0 0 1 .454-1.215c.19-.391.449-.798.8-1.093Zm-.904 3.843-.661-.088a.667.667 0 0 0 .75.749l-.09-.66Zm.847-.847c.103-.025.21-.054.321-.085a6.22 6.22 0 0 0 .997-.37c.313-.152.533-.311.657-.46l.002-.001c.264-.313.242-.774-.016-1.032a.787.787 0 0 0-1.045-.028h-.001c-.149.125-.308.345-.46.658a6.211 6.211 0 0 0-.37.997c-.031.11-.06.218-.085.321Z" clip-rule="evenodd"/></svg>