<svg xmlns="http://www.w3.org/2000/svg" fill="currentColor" viewBox="0 0 20 20"><path fill-rule="evenodd" d="m3.284 17.457.024-.01 13.954-6.28c.194-.087.377-.17.517-.248.133-.075.35-.21.473-.458a1.041 1.041 0 0 0 0-.923c-.123-.247-.34-.383-.473-.457-.14-.079-.323-.161-.517-.249L3.289 2.545c-.2-.09-.386-.174-.54-.228-.145-.05-.395-.125-.665-.05-.316.088-.571.32-.69.625-.102.26-.052.517-.017.666.038.16.103.354.172.561l1.954 5.836.005.013-.005.014-1.951 5.88-.008.024c-.07.207-.133.4-.17.56-.036.149-.085.404.017.665.12.304.375.535.69.623.27.075.52 0 .664-.05.154-.054.34-.137.54-.227Zm-.576-1.111.03-.09 1.869-5.631H8.75a.625.625 0 1 0 0-1.25H4.627L2.743 3.746l-.03-.09.086.039 13.927 6.267.084.038-.084.038-13.931 6.269-.087.039Z" clip-rule="evenodd" /></svg>