<svg xmlns="http://www.w3.org/2000/svg" fill="currentColor" viewBox="0 0 20 20"><path fill-rule="evenodd" d="M6.667 10a3.333 3.333 0 1 0 6.666 0 3.333 3.333 0 0 0-6.666 0ZM10 11.667a1.667 1.667 0 1 1 0-3.334 1.667 1.667 0 0 1 0 3.334Z" clip-rule="evenodd"/><path fill-rule="evenodd" d="M10 18.926c.37 0 .696-.098 1.009-.235.29-.126.616-.308.986-.514l2.063-1.148 2.026-1.213c.363-.217.684-.41.938-.597.276-.202.523-.435.708-.756.186-.321.263-.651.301-.991.036-.314.041-.688.048-1.11L18.117 10l-.038-2.361c-.007-.423-.012-.797-.048-1.11-.038-.34-.115-.67-.3-.992-.186-.321-.433-.554-.709-.756-.254-.188-.575-.38-.938-.597L14.058 2.97l-2.063-1.148c-.37-.206-.697-.388-.986-.514-.313-.137-.638-.235-1.009-.235-.37 0-.696.098-1.009.235-.29.126-.616.308-.986.514L5.942 2.97 3.916 4.184c-.363.217-.684.41-.938.597-.276.202-.523.435-.708.756-.186.321-.263.651-.301.991-.035.314-.041.688-.048 1.11L1.883 10l.038 2.361c.007.423.013.797.048 1.11.038.34.115.67.3.992.186.321.433.554.709.756.254.188.575.38.938.597l2.026 1.213 2.063 1.148c.37.206.697.388.986.514.313.137.638.235 1.009.235Zm1.215-2.222c-.41.228-.666.37-.873.46-.191.083-.28.095-.342.095s-.15-.012-.342-.095c-.207-.09-.464-.232-.873-.46l-2.01-1.118-1.973-1.182c-.402-.24-.653-.392-.835-.526-.168-.124-.223-.195-.254-.248-.03-.054-.065-.137-.088-.344-.025-.224-.03-.518-.038-.987L3.55 10l.037-2.3c.007-.468.013-.762.038-.986.023-.207.057-.29.088-.344.03-.053.086-.124.254-.248.182-.134.433-.285.835-.526l1.973-1.182 2.01-1.118c.41-.228.666-.37.873-.46.191-.083.28-.095.342-.095s.15.012.342.095c.207.09.464.232.873.46l2.01 1.118 1.973 1.182c.402.24.653.392.835.526.168.124.223.195.254.248.03.054.065.137.088.344.025.224.03.518.038.987L16.45 10l-.037 2.3a11.53 11.53 0 0 1-.038.986c-.023.207-.057.29-.088.344-.03.053-.086.124-.254.248-.182.134-.433.285-.835.526l-1.973 1.182-2.01 1.118Z" clip-rule="evenodd"/></svg>