<svg xmlns="http://www.w3.org/2000/svg" fill="currentColor" viewBox="0 0 20 20"><path fill-rule="evenodd" d="M9.207 1.756a.833.833 0 0 1 .87.073l9.583 7.049a.833.833 0 0 1 .039 1.313l-9.584 7.95a.833.833 0 0 1-1.365-.64v-4.236c-2.13-.13-3.618.25-4.694.8-1.201.614-1.964 1.479-2.556 2.268a.833.833 0 0 1-1.5-.5c0-.66.018-2.67 1.249-4.666C2.436 9.24 4.673 7.449 8.75 6.779V2.5c0-.314.177-.602.457-.744Zm1.21 2.392V7.5c0 .42-.313.775-.73.827-4.123.515-6.068 2.17-7.02 3.714-.277.45-.477.903-.622 1.334a8.037 8.037 0 0 1 1.253-.794c1.533-.784 3.576-1.215 6.376-.91a.833.833 0 0 1 .743.83v3.225l7.397-6.137-7.397-5.441Z" clip-rule="evenodd"/></svg>