<svg xmlns="http://www.w3.org/2000/svg" fill="currentColor" viewBox="0 0 20 20"><path fill-rule="evenodd" d="M6.466 1.667h7.068c.671 0 1.225 0 1.676.036.468.039.899.12 1.303.327.627.32 1.137.83 1.457 1.457.206.404.288.835.327 1.303.036.451.036 1.005.036 1.675v7.07c0 .67 0 1.224-.036 1.675-.039.468-.12.899-.327 1.303a3.333 3.333 0 0 1-1.457 1.457c-.404.206-.835.288-1.303.326-.451.037-1.005.037-1.676.037H6.466c-.671 0-1.225 0-1.676-.037-.468-.038-.899-.12-1.303-.326a3.334 3.334 0 0 1-1.457-1.457c-.206-.404-.288-.835-.326-1.303-.037-.451-.037-1.005-.037-1.676V6.465c0-.67 0-1.224.037-1.675.038-.468.12-.899.326-1.303.32-.628.83-1.138 1.457-1.457.404-.206.835-.288 1.303-.327.451-.037 1.005-.037 1.676-.036Zm3.117 15H13.5c.714 0 1.2-.001 1.574-.032.366-.03.552-.084.683-.15.313-.16.568-.415.728-.728.066-.13.12-.318.15-.683.031-.375.032-.86.032-1.574v-7c0-.714-.001-1.2-.032-1.574-.03-.366-.084-.552-.15-.683a1.667 1.667 0 0 0-.728-.728c-.13-.067-.317-.12-.683-.15-.375-.031-.86-.032-1.574-.032H9.583v13.334ZM7.917 3.332v13.333H6.5c-.714 0-1.199 0-1.574-.03-.365-.03-.552-.085-.683-.151a1.666 1.666 0 0 1-.728-.728c-.066-.13-.12-.318-.15-.683-.031-.375-.032-.86-.032-1.574v-7c0-.714.001-1.2.032-1.574.03-.366.084-.552.15-.683.16-.313.415-.568.728-.728.13-.067.318-.12.683-.15.375-.031.86-.032 1.574-.032h1.417Zm-3.75 2.5C4.167 5.373 4.54 5 5 5h1.25a.833.833 0 1 1 0 1.667H5a.833.833 0 0 1-.833-.834Zm0 3.333c0-.46.373-.833.833-.833h1.25a.833.833 0 0 1 0 1.667H5a.833.833 0 0 1-.833-.834Z" clip-rule="evenodd"/></svg>