<svg xmlns="http://www.w3.org/2000/svg" fill="currentColor" viewBox="0 0 16 16"><path d="M5.667 5.333a1.667 1.667 0 1 0 0 3.334 1.667 1.667 0 0 0 0-3.334Zm4.666 0a1.667 1.667 0 1 0 0 3.334 1.667 1.667 0 0 0 0-3.334Z"/><path d="M4.667 16a1.333 1.333 0 0 1-1.334-1.333v-1.472l-.002-.005a.061.061 0 0 0-.019-.02C1.402 11.857 0 9.755 0 7.333c0-2.07 1.026-3.908 2.513-5.215C3.998.814 5.985 0 8 0s4.002.814 5.487 2.118C14.974 3.425 16 5.264 16 7.333c0 2.422-1.402 4.524-3.312 5.837a.061.061 0 0 0-.02.02l-.001.005v1.472c0 .736-.597 1.333-1.334 1.333H4.667ZM3.393 3.12c-1.26 1.107-2.06 2.601-2.06 4.213 0 1.886 1.097 3.613 2.734 4.738.357.245.6.656.6 1.123v1.473H6v-2a.667.667 0 1 1 1.333 0v2h1.334v-2a.667.667 0 1 1 1.333 0v2h1.333v-1.473c0-.467.243-.878.6-1.123 1.637-1.125 2.734-2.852 2.734-4.738 0-1.612-.8-3.106-2.06-4.213C11.347 2.012 9.667 1.333 8 1.333c-1.667 0-3.346.679-4.607 1.787Z"/></svg>