<svg xmlns="http://www.w3.org/2000/svg" fill="none" viewBox="0 0 24 24">
    <path fill="currentColor" fill-rule="evenodd"
        d="M5.396 1.677a7.997 7.997 0 0 1 7.578 7.396A8.001 8.001 0 0 1 19 6.332h3.501l.102.005a1 1 0 0 1 .898.995V8.5a8 8 0 0 1-8 8H13V21h5a1 1 0 1 1 0 2H6a1 1 0 1 1 0-2h5v-8H8.5A8.001 8.001 0 0 1 .51 5.397L.5 5V2.667l.005-.103a1 1 0 0 1 .995-.897H5l.396.01ZM19 8.333a6 6 0 0 0-6 5.986v.181h2.5a6 6 0 0 0 6-6v-.167H19ZM2.5 5l.008.298A6.002 6.002 0 0 0 8.5 11H11V9.667a6 6 0 0 0-5.702-5.992L5 3.667H2.5V5Z"
        clip-rule="evenodd" />
</svg>