<svg width="24" height="24" viewBox="0 0 24 24" fill="currentColor" xmlns="http://www.w3.org/2000/svg">
<path fill-rule="evenodd" clip-rule="evenodd" d="M14.8234 1.4C15.2419 1.4 15.6161 1.66053 15.7613 2.05297L17.432 6.56793L21.9469 8.23862C22.3394 8.38383 22.5999 8.75803 22.5999 9.17647C22.5999 9.59491 22.3394 9.96911 21.9469 10.1143L17.432 11.785L15.7613 16.3C15.6161 16.6924 15.2419 16.9529 14.8234 16.9529C14.405 16.9529 14.0308 16.6924 13.8856 16.3L12.2149 11.785L7.69992 10.1143C7.30749 9.96911 7.04696 9.59491 7.04696 9.17647C7.04696 8.75803 7.30749 8.38383 7.69992 8.23862L12.2149 6.56793L13.8856 2.05297C14.0308 1.66053 14.405 1.4 14.8234 1.4ZM14.8234 5.28154L13.931 7.69325C13.8297 7.96697 13.6139 8.18278 13.3402 8.28406L10.9285 9.17647L13.3402 10.0689C13.6139 10.1702 13.8297 10.386 13.931 10.6597L14.8234 13.0714L15.7158 10.6597C15.8171 10.386 16.0329 10.1702 16.3067 10.0689L18.7184 9.17647L16.3067 8.28406C16.0329 8.18278 15.8171 7.96697 15.7158 7.69325L14.8234 5.28154ZM6.35284 12.6941C6.68415 12.6941 6.99395 12.8582 7.18009 13.1323L8.67157 15.3283L10.8676 16.8198C11.1417 17.006 11.3058 17.3158 11.3058 17.6471C11.3058 17.9784 11.1417 18.2882 10.8676 18.4743L8.67157 19.9658L7.18009 22.1618C6.99395 22.4359 6.68415 22.6 6.35284 22.6C6.02154 22.6 5.71174 22.4359 5.5256 22.1618L4.03412 19.9658L1.83807 18.4743C1.56399 18.2882 1.3999 17.9784 1.3999 17.6471C1.3999 17.3158 1.56399 17.006 1.83807 16.8198L4.03412 15.3283L5.5256 13.1323C5.71174 12.8582 6.02154 12.6941 6.35284 12.6941ZM6.35284 15.474L5.58127 16.6101C5.51034 16.7145 5.42028 16.8046 5.31585 16.8755L4.17978 17.6471L5.31585 18.4186C5.42028 18.4896 5.51034 18.5796 5.58127 18.6841L6.35284 19.8201L7.12442 18.6841C7.19535 18.5796 7.2854 18.4896 7.38983 18.4186L8.52591 17.6471L7.38983 16.8755C7.2854 16.8046 7.19535 16.7145 7.12442 16.6101L6.35284 15.474Z" />
</svg>
