<svg xmlns="http://www.w3.org/2000/svg" fill="currentColor" viewBox="0 0 24 24"><path fill-rule="evenodd" d="M0 3a1 1 0 0 1 1-1h22a1 1 0 1 1 0 2v8.241c0 .805 0 1.47-.044 2.01-.046.563-.145 1.08-.392 1.565a4 4 0 0 1-1.748 1.748c-.485.247-1.002.346-1.564.392-.541.044-1.206.044-2.01.044h-2.48l3.878 3.232a1 1 0 1 1-1.28 1.536L13 19.135V22a1 1 0 1 1-2 0v-2.865l-4.36 3.633a1 1 0 1 1-1.28-1.536L9.238 18h-2.48c-.804 0-1.469 0-2.01-.044-.562-.046-1.079-.145-1.564-.392a4 4 0 0 1-1.748-1.748c-.247-.485-.346-1.002-.392-1.564C1 13.71 1 13.046 1 12.242V4a1 1 0 0 1-1-1Zm3 1v8.2c0 .857 0 1.439.038 1.889.035.438.1.663.18.819a2 2 0 0 0 .874.874c.156.08.38.145.819.18C5.361 16 5.943 16 6.8 16h10.4c.857 0 1.439 0 1.889-.038.438-.035.663-.1.819-.18a2 2 0 0 0 .874-.874c.08-.156.145-.38.18-.819.037-.45.038-1.032.038-1.889V4H3Zm9 2a1 1 0 0 1 1 1v6a1 1 0 1 1-2 0V7a1 1 0 0 1 1-1ZM8 8a1 1 0 0 1 1 1v4a1 1 0 1 1-2 0V9a1 1 0 0 1 1-1Zm8 2a1 1 0 0 1 1 1v2a1 1 0 1 1-2 0v-2a1 1 0 0 1 1-1Z" clip-rule="evenodd"/></svg>