<svg xmlns="http://www.w3.org/2000/svg" fill="currentColor" viewBox="0 0 24 24" fill-rule="evenodd" clip-rule="evenodd"><path d="M7.707 14.293a1 1 0 0 1 0 1.414L4.414 19l3.293 3.293a1 1 0 1 1-1.414 1.414l-4-4a1 1 0 0 1 0-1.414l4-4a1 1 0 0 1 1.414 0Z"/><path d="M21 12a1 1 0 0 1 1 1v2a5 5 0 0 1-5 5H4a1 1 0 1 1 0-2h13a3 3 0 0 0 3-3v-2a1 1 0 0 1 1-1ZM16.293 9.707a1 1 0 0 1 0-1.414L19.586 5l-3.293-3.293A1 1 0 0 1 17.707.293l4 4a1 1 0 0 1 0 1.414l-4 4a1 1 0 0 1-1.414 0Z"/><path d="M3 12a1 1 0 0 1-1-1V9a5 5 0 0 1 5-5h13a1 1 0 1 1 0 2H7a3 3 0 0 0-3 3v2a1 1 0 0 1-1 1Z"/></svg>
