<svg xmlns="http://www.w3.org/2000/svg" fill="currentColor" viewBox="0 0 20 20"><path d="M10 0c5.523 0 10 4.477 10 10s-4.477 10-10 10S0 15.523 0 10 4.477 0 10 0Zm4.167 6.276c-.07-.594-.775-.463-1.167-.33A179.96 179.96 0 0 0 6.998 8.43c-.225.102-.454.204-.684.306-.95.424-1.925.86-2.817 1.362-.466.348.154.595.734.826h.001c.092.036.183.073.269.11l.218.07c.646.21 1.367.444 1.994.091 1.03-.604 2.003-1.304 2.974-2.003.319-.228.637-.457.958-.682l.05-.033c.272-.181.886-.588.659-.028-.536.6-1.11 1.13-1.688 1.662l-.002.002c-.39.36-.78.72-1.161 1.105-.332.276-.678.83-.306 1.217.856.612 1.726 1.21 2.595 1.807l.003.002.849.584c.478.39 1.227.074 1.333-.536l.14-.842c.26-1.551.52-3.104.75-4.66.03-.245.066-.49.102-.733.086-.592.171-1.185.198-1.78Z"/></svg>