<svg xmlns="http://www.w3.org/2000/svg" fill="currentColor" viewBox="0 0 16 16"><path ill-rule="evenodd" d="M2.151 7.365c.824-.475 1.724-.887 2.601-1.287l.631-.29a163.98 163.98 0 0 1 5.54-2.348c.362-.126 1.013-.25 1.077.312-.025.563-.104 1.123-.183 1.683a42.32 42.32 0 0 0-.094.693c-.212 1.472-.452 2.94-.692 4.406l-.13.797c-.097.577-.788.876-1.23.506l-.783-.552-.003-.002A155.09 155.09 0 0 1 6.49 9.575c-.344-.366-.025-.89.282-1.151a34.38 34.38 0 0 1 1.072-1.045l.002-.001c.533-.504 1.063-1.005 1.558-1.572.209-.529-.357-.145-.61.026a6 6 0 0 0-.013.01l-.033.021c-.295.214-.589.43-.883.646-.897.66-1.795 1.322-2.746 1.894-.579.333-1.244.111-1.84-.087a21.072 21.072 0 0 0-.201-.067l-.248-.103h-.001c-.536-.219-1.108-.452-.678-.781Z" clip-rule="evenodd"/></svg>