<svg xmlns="http://www.w3.org/2000/svg" fill="currentColor" viewBox="0 0 20 20"><path fill-rule="evenodd" d="M2.701 9.593C3.8 8.953 5.001 8.4 6.17 7.86c.283-.131.564-.26.842-.39 2.447-1.091 4.904-2.163 7.387-3.16.482-.17 1.35-.337 1.435.42-.033.757-.138 1.51-.244 2.264-.043.311-.087.622-.125.933a317.336 317.336 0 0 1-.923 5.932l-.173 1.072c-.13.777-1.05 1.179-1.64.682l-1.044-.744-.004-.002c-1.07-.76-2.14-1.52-3.194-2.3-.458-.492-.033-1.198.376-1.549.47-.489.95-.948 1.43-1.406l.002-.002c.71-.679 1.418-1.354 2.077-2.116.28-.712-.475-.195-.811.035l-.019.012-.043.03c-.394.287-.786.578-1.178.87-1.196.889-2.393 1.779-3.66 2.548-.773.45-1.66.15-2.455-.117l-.268-.09c-.105-.045-.217-.091-.33-.138h-.002c-.715-.295-1.477-.609-.904-1.052Z" clip-rule="evenodd"/></svg>