<svg xmlns="http://www.w3.org/2000/svg" fill="currentColor" viewBox="0 0 24 24">
    <path fill-rule="evenodd"
        d="M12 3.75a8.25 8.25 0 1 0 8.18 9.331l-.95.95a.75.75 0 1 1-1.06-1.061l2-2a.75.75 0 0 1 1.061 0l2 2a.75.75 0 0 1-1.062 1.06l-.533-.534c-.72 4.675-4.76 8.254-9.636 8.254-5.385 0-9.75-4.365-9.75-9.75S6.615 2.25 12 2.25a9.746 9.746 0 0 1 8.4 4.798.75.75 0 0 1-1.291.763A8.246 8.246 0 0 0 12 3.75Zm0 2.5a.75.75 0 0 1 .75.75v4.599l2.666 1.777a.75.75 0 1 1-.832 1.248l-3-2A.75.75 0 0 1 11.25 12V7a.75.75 0 0 1 .75-.75Z"
        clip-rule="evenodd" />
</svg>