<svg xmlns="http://www.w3.org/2000/svg" fill="currentColor" viewBox="0 0 24 24"><path d="M9.272 2.376A1 1 0 1 0 8.728.452C3.692 1.876 0 6.506 0 12c0 .836.086 1.652.249 2.441a1 1 0 1 0 1.958-.405A10.047 10.047 0 0 1 2 12c0-4.576 3.074-8.436 7.272-9.624ZM15.272.452a1 1 0 0 0-.544 1.924C18.926 3.564 22 7.424 22 12c0 .707-.073 1.397-.212 2.06a1 1 0 1 0 1.957.41c.167-.798.255-1.624.255-2.47C24 6.506 20.308 1.876 15.272.452ZM4.727 18.863a1 1 0 1 0-1.454 1.373A11.97 11.97 0 0 0 12 24c3.42 0 6.507-1.432 8.691-3.726a1 1 0 1 0-1.448-1.379A9.969 9.969 0 0 1 12 22a9.97 9.97 0 0 1-7.273-3.137Z"/><path fill-rule="evenodd" d="M5.293 11.293a1 1 0 0 0 0 1.414l6 6a1 1 0 0 0 1.414 0l6-6a1 1 0 0 0 0-1.414l-6-6a1 1 0 0 0-1.414 0l-6 6ZM12 16.586 7.414 12 12 7.414 16.586 12 12 16.586Z" clip-rule="evenodd"/></svg>