<svg xmlns="http://www.w3.org/2000/svg" fill="currentColor" viewBox="0 0 16 16"><path fill-rule="evenodd" d="M13.867 8A5.867 5.867 0 1 1 2.133 8a5.867 5.867 0 0 1 11.734 0ZM7.62 3.44c.18-.205.31-.24.379-.24s.198.035.38.24c.18.203.367.528.535.976.292.778.495 1.843.541 3.05H6.544c.046-1.207.25-2.272.541-3.05.168-.448.355-.773.536-.976ZM5.476 7.467c.047-1.313.267-2.51.61-3.426.071-.188.149-.369.233-.538a4.805 4.805 0 0 0-3.09 3.964h2.247ZM3.23 8.533h2.247c.047 1.313.267 2.51.61 3.426.071.188.149.369.233.538a4.805 4.805 0 0 1-3.09-3.964Zm3.315 0h2.912c-.046 1.207-.25 2.273-.541 3.05-.168.448-.355.774-.536.977-.18.205-.31.24-.379.24s-.198-.035-.38-.24c-.18-.203-.367-.529-.535-.976-.292-.778-.495-1.844-.541-3.05Zm3.98 0c-.047 1.313-.267 2.51-.61 3.426-.071.188-.149.369-.233.538a4.805 4.805 0 0 0 3.09-3.964h-2.247Zm2.247-1.066a4.805 4.805 0 0 0-3.09-3.964c.084.17.162.35.233.538.343.917.563 2.113.61 3.426h2.247Z" clip-rule="evenodd"/></svg>