<svg xmlns="http://www.w3.org/2000/svg" fill="none" viewBox="0 0 390 390"><path fill="url(#a)" d="M283.448 180.143c64.56 97.959 0 182.857-83.928 182.857-129.127 0-148.45-143.673-90.372-228.571 0 32.653 14.044 52.244 26.956 58.775 0-74.103 63.424-91.428 37.601-150.204C277 95.245 231.828 154.02 238.284 186.673c6.456 32.654 38.736 26.123 45.164-6.53Z"/><path fill="url(#b)" d="M270.721 294.434c-5.134 46.079-49.85 57.531-71.214 57.531-79.76 0-98.927-64.837-70.445-109.583.004 19.177 27.713 32.875 34.834 13.698 12.128-32.658-23.811-57.989 47.407-102.735-28.486 76.708 66.539 77.165 59.418 141.089Z"/><path fill="#fff" d="M166.399 320.278c1.669 16.542 16.203 20.653 23.146 20.653 46.095 0 22.319-61.733-.03-77.242 5.694 41.592-25.43 33.642-23.116 56.589Z"/><defs><radialGradient id="a" cx="0" cy="0" r="1" gradientTransform="matrix(0 -208.98 206.591 0 194.207 363)" gradientUnits="userSpaceOnUse"><stop stop-color="#FFCF14"/><stop offset="1" stop-color="#FF2C2C"/></radialGradient><radialGradient id="b" cx="0" cy="0" r="1" gradientTransform="matrix(0 -191.772 196.532 0 203.825 351.965)" gradientUnits="userSpaceOnUse"><stop stop-color="#FFE600"/><stop offset="1" stop-color="#FF8A00"/></radialGradient></defs></svg>