<svg xmlns="http://www.w3.org/2000/svg" fill="none" viewBox="0 0 165 252"><path fill="#0063A2" d="M119.746 114.79s32.286 34.61 39.913 47.278c-10.367-1.224-44.758-10.939-44.758-10.939l4.845-36.339ZM40.447 115.601S11.771 149.396 4.15 162.064c10.367-1.224 44.684-11.503 44.684-11.503l-8.38-34.965-.006.005ZM69.558 78.427l3.363 23.808h14.768l2.027-23.808H69.558Z"/><path fill="#BB7C3D" d="M69.614 18.913s.978-5.471 1.076-5.675c.439-.826 12.676-1.34 14.508.4.396 1.598.76 5.115.76 5.115l-16.344.157v.003Z"/><path fill="#FFAD00" d="M60.465 25.035s-.294-5.54.88-7.416c1.175-1.876 26.276-3.795 33.08-.357 3.57 2.544 2.936 9.514 2.936 9.514l-36.897-1.744v.003Z"/><path fill="#BB7C3D" d="M47.547 54.54s-4.208 1.097-4.404 1.365c-.196.268-.54 6.576 1.86 10.347.586.375 4.063 0 4.063 0l-1.52-11.716v.004Z"/><path fill="#FFAD00" d="M55.099 43.01s-8.025.797-8.742 5.879c-.716 5.2.31 18.97 3.45 23.017 2.422 2.14 8.948 1.125 8.948 1.125L55.103 43.01h-.004Z"/><path fill="#BB7C3D" d="M112.005 54.54s4.209 1.097 4.405 1.365c.195.268.536 6.576-1.86 10.347-.587.375-4.063 0-4.063 0l1.518-11.716v.004Z"/><path fill="#FFAD00" d="M104.451 43.01s8.025.797 8.741 5.879c.717 5.2-.309 18.97-3.449 23.017-2.423 2.14-8.949 1.125-8.949 1.125l3.653-30.022h.004Z"/><path fill="#00B0F3" d="M49.845 29.278c.031.268 5.383 43.068 4.697 52.45.783 6.075 45.803 5.45 48.054 2.59 2.74-12.24 5.187-53.342 4.502-57.095-1.566-5.093-59.046-13.32-57.253 2.055Z"/><path fill="#232A32" d="M68.459 49.107c-2.545 2.824-6.84 2.841-9.642.343-.595-.529-1.041.972-1.084 1.23-.126.74-.055 1.662.56 2.208 3.256 2.906 8.134 2.466 10.972-.682.705-.783.184-4.207-.81-3.099h.004ZM101.08 49.411c-2.576 2.223-6.55 2.134-9.008-.2-1.127-1.072-1.707 2.334-.928 3.07 3.085 2.927 7.513 3.017 10.746.229.803-.693.384-4.132-.81-3.099Z"/><path fill="#F5F2F9" d="M66.384 61.177s21.14-1.251 27.14.597c.325 5.897-.912 8.16-4.11 9.353-3.198 1.19-15.659 1.133-20.619-.954-4.326-1.82-2.415-8.996-2.415-8.996h.004Z"/><path fill="#D3CCE0" d="m88.8 61.03-.551 10.404a8.108 8.108 0 0 0 1.186-.311c.195-.072.383-.15.567-.232.173-3.231.34-6.462.513-9.693a41.35 41.35 0 0 0-1.715-.168ZM70.753 60.972l-1.726.072c.062 3.095.125 6.187.184 9.282.516.193 1.1.368 1.738.522-.067-3.292-.133-6.584-.196-9.876ZM76.747 60.797c-.595.011-1.186.022-1.758.036.012 3.567.02 7.138.031 10.704.576.065 1.163.122 1.758.172-.012-3.638-.02-7.277-.031-10.912ZM83.601 71.877c-.066-3.695-.137-7.39-.203-11.086a138.07 138.07 0 0 0-1.727-.022c.07 3.714.137 7.427.208 11.137.591 0 1.166-.01 1.726-.029h-.004Z"/><path fill="#0063A2" d="M102.564 84.39c-15.15 1.87-44.925-1.343-44.863-7.523-.102-5.733-4.196-26.916-7.05-41.04 1.468 12.405 4.431 38.8 3.91 45.926.78 6.04 45.279 5.457 48.003 2.641v-.004Z"/><path fill="#0063A2" d="M72.111 73.732s8.123 1.208 15.612.4c-6.048 3.664-14.093.983-15.612-.4ZM63.01 40.447s7.093-2.816 11.697.536c-1.175-6.297-9.349-6.119-11.698-.536ZM87.673 40.983s3.914-3.71 9.689-.715c-1.958-5.45-9.2-5.583-9.69.715Z"/><path fill="#00B0F3" d="m40.447 115.6 4.031 75.601c17.014 6.892 74.66 3.551 76.032 1.045.915-6.892.979-74.14.979-74.14s-8.985-22.901-40.759-22.764c-30.757.134-40.283 20.258-40.283 20.258Z"/><path fill="#0063A2" d="M80.78 95.343a64.099 64.099 0 0 0-3.645.117c1.76 14.205 5.993 54.487 3.975 99.835 1.396.009 2.791.004 4.177-.008-.288-11.645-1.674-71.917-.192-99.819a65.544 65.544 0 0 0-4.314-.13v.005Z"/><path fill="#0063A2" d="m41.802 140.979 13.93-4.69s8.922-23.683 9.608-24.414c8.921-1.775 16.562.61 16.562.61 10.202-2.177 17.636-1.266 17.636-1.266l8.116 23.942 13.835 6.136-.384 33.778v12.297s-20.441-4.699-40.677-2.924c-20.235 1.775-36.055 4.21-36.055 4.21l-2.571-47.679Z"/><path fill="#0063A2" d="M82.74 149.671c11.187 0 20.257-10.667 20.257-23.825s-9.07-23.824-20.258-23.824c-11.188 0-20.258 10.666-20.258 23.824 0 13.158 9.07 23.825 20.258 23.825Z"/><path fill="#6887AF" d="M82.74 144.229c8.009 0 14.502-8.23 14.502-18.383 0-10.152-6.493-18.382-14.503-18.382s-14.503 8.23-14.503 18.382c0 10.153 6.493 18.383 14.503 18.383Z"/><path fill="#D8FFEE" d="M82.739 142.491c6.85 0 12.403-7.452 12.403-16.645 0-9.192-5.553-16.644-12.403-16.644-6.85 0-12.403 7.452-12.403 16.644 0 9.193 5.553 16.645 12.403 16.645Z"/><path fill="#BAEBDF" d="M80.053 130.996c-3.93-3.5-5.242-8.345-5.041-13.207-1.675 2.373-2.709 5.581-2.709 9.118 0 7.301 4.388 13.22 9.8 13.22 3.111 0 5.884-1.959 7.677-5.012-3.591-.355-7.064-1.738-9.727-4.114v-.005Z"/><path fill="#fff" d="M84.935 122.76c2.373 0 4.296-2.226 4.296-4.971s-1.923-4.97-4.296-4.97-4.296 2.225-4.296 4.97c0 2.745 1.924 4.971 4.296 4.971ZM89.78 130.479c1.521 0 2.754-1.543 2.754-3.446 0-1.903-1.233-3.446-2.754-3.446s-2.754 1.543-2.754 3.446c0 1.903 1.233 3.446 2.754 3.446Z"/><path fill="#0063A2" d="m44.373 188.174.16 3.028c17.015 6.892 74.66 3.55 76.032 1.044.229-1.708.403-7.126.535-14.31-7.704 2.736-17.234 5.747-17.234 5.747s3.432-3.132 7.32-11.695c-23.007 11.328-45.503 2.786-66.818 16.186h.005Z"/><path fill="#00B0F3" d="M51.675 193.821c4.501-3.989 10.687-7.673 18.743-8.872 3.061 0 8.72 2.231 16.763 10.325 2.672 2.69 5.61 6.023 8.798 10.142 17.481 22.555 43.257 25.341 40.054 7.238-2.365-13.357-18.012-17.614-26.055-18.929 4.241-.618 7.869-1.441 10.509-2.511l.549-10.312c11.813 1.153 45.215 7.222 43.916 38.995-1.574 38.565-42.347 38.427-68.117 20.329-25.771-18.099-45.75-30.771-54.736-33.833.096-.493 3.097-6.842 9.567-12.568l.009-.004Z"/><path fill="#0063A2" d="M131.669 223.543c3.527-1.608 5.361-5.225 4.36-10.889-2.366-13.357-18.012-17.614-26.055-18.929 4.241-.618 7.869-1.441 10.509-2.511l.549-10.312c4.648.455 12.636 1.67 20.541 4.912 7.911 11.235 15.043 29.154-9.909 37.729h.005Z"/><path fill="#00B0F3" d="M113.323 193.821c-4.502-3.989-10.687-7.673-18.744-8.872-3.06 0-8.72 2.231-16.763 10.325-2.672 2.69-5.609 6.023-8.798 10.142-17.48 22.555-43.256 25.341-40.054 7.238 2.366-13.357 18.012-17.614 26.055-18.929-4.241-.618-7.87-1.441-10.509-2.511l-.549-10.312c-11.813 1.153-45.215 7.222-43.915 38.995 1.573 38.565 42.346 38.427 68.117 20.329 25.77-18.099 45.75-30.771 54.735-33.833-.096-.493-3.097-6.842-9.566-12.568l-.009-.004Z"/><path fill="#0063A2" d="M114.901 210.027c-8.239-12.468-26.686-18.082-31.915-19.46-1.597 1.286-3.317 2.836-5.17 4.699-2.672 2.69-5.609 6.023-8.797 10.141-3.487 4.499-7.302 8.208-11.154 11.123 3.477 3.805 9.173 11.495 11.423 22.894 19.275-13.504 35.214-23.896 45.613-29.393v-.004ZM33.329 223.543c-3.527-1.608-5.362-5.225-4.36-10.889 2.365-13.357 18.012-17.614 26.055-18.929-4.241-.618-7.87-1.441-10.51-2.511l-.548-10.312c-4.648.455-12.636 1.67-20.542 4.912-7.91 11.235-15.042 29.154 9.91 37.729h-.005Z"/><path fill="#00B0F3" d="M104.429 244.816c6.369-6.441 11.396-13.683 13.295-22.212-7.059-2.761-15.015-8.509-21.745-17.192-3.193-4.119-6.126-7.452-8.798-10.142-8.043-8.095-13.702-10.325-16.763-10.325-8.056 1.199-14.242 4.887-18.743 8.872-6.47 5.726-9.47 12.075-9.567 12.568 8.986 3.061 28.96 15.734 54.736 33.832a65.838 65.838 0 0 0 7.594 4.595l-.009.004Z"/><path fill="#0063A2" d="M134.336 251.946a44.561 44.561 0 0 0-6.186-27.505 16.778 16.778 0 0 1-3.536-.05c4.817 6.458 7.782 14.043 8.066 21.908a35.32 35.32 0 0 1-.261 5.693c.64 0 1.281-.021 1.917-.05v.004ZM134.327 207.604a17.616 17.616 0 0 1 1.491 4.027c8.574-.643 17.298 1.115 24.701 5.284a38.914 38.914 0 0 1 4.446 2.923 40.76 40.76 0 0 0-.064-4.527 42.156 42.156 0 0 0-2.603-1.734c-8.189-4.999-18.249-7.029-27.962-5.973h-.009ZM5.444 213.523c7.174-3.855 15.98-4.615 23.864-2.431a17.652 17.652 0 0 1 1.495-3.772c-9.095-2.861-19.512-1.879-27.541 3.171a29.687 29.687 0 0 0-2.878 2.059A37.772 37.772 0 0 0 0 217.332a28.363 28.363 0 0 1 5.44-3.809h.004ZM27.93 245.693c.472-7.585 2.947-14.986 7-21.59a9.233 9.233 0 0 1-2.489-1.032 53.5 53.5 0 0 0-6.565 23.274 55.768 55.768 0 0 0-.009 5.1c.659.108 1.327.2 2.004.275a54.157 54.157 0 0 1 .06-6.027Z"/><path fill="#00B0F3" d="M56.154 147.449s9.644-31.36 11.474-34.008c2.745-.555 11.323.731 11.323.731l-.343 9.92 3.294 3.237v39.054s-12.87 4.185-21.105 2.514l-4.643-21.452v.004Z"/><path fill="#0063A2" d="m81.902 127.329-11.566-3.132-6.56 15.805 3.966-18.587 10.866 2.677 3.294 3.237Z"/><path fill="#00B0F3" d="M59 140.002S9.64 158.171 4.15 162.068c-4.145 3.342-4.145 13.003 6.286 13.003 20.587-.138 52.04-5.915 52.04-5.915l-3.481-29.154h.004Z"/><path fill="#0063A2" d="M13.245 175.025c-.677-4.469-.179-9.139 1.034-13.391a47.745 47.745 0 0 1 1.784-5.079 270.427 270.427 0 0 0-4.539 1.917 40.38 40.38 0 0 0-.933 3.663c-.897 4.386-1.006 8.746-.105 12.94.901-.008 1.825-.025 2.763-.05h-.004ZM58.944 152.963c-.65-3.856-1.422-7.686-2.434-11.474-.045-.171-.096-.339-.141-.51-.773.288-1.702.631-2.755 1.024.019.066.042.129.065.196 1.107 3.617 2.081 7.28 2.822 10.977 1.103 5.505 1.702 11.081 2.068 16.67.764-.13 1.428-.243 1.981-.339-.073-5.538-.672-11.052-1.601-16.544h-.005ZM33.97 157.499a61.04 61.04 0 0 1-.056-8.028c-1.093.422-2.19.848-3.289 1.274a56.848 56.848 0 0 0 .49 7.476c.686 5.234 2.292 10.163 4.4 14.974.495-.058.989-.121 1.478-.179-1.738-5.017-2.635-10.334-3.028-15.517h.004Z"/><path fill="#00B0F3" d="M107.654 147.449s-9.644-31.36-11.474-34.008c-2.745-.555-11.323.731-11.323.731l.343 9.92-3.294 3.237v39.054s12.87 4.185 21.105 2.514l4.643-21.452v.004Z"/><path fill="#0063A2" d="m81.902 127.329 11.57-3.132 6.556 15.805-3.962-18.587-10.866 2.677-3.298 3.237Z"/><path fill="#00B0F3" d="M104.809 140.002s49.36 18.169 54.85 22.066c4.144 3.342 4.144 13.003-6.287 13.003-20.587-.138-52.04-5.915-52.04-5.915l3.481-29.154h-.004Z"/><path fill="#0063A2" d="M150.563 175.025c.677-4.469.179-9.139-1.034-13.391a47.676 47.676 0 0 0-1.784-5.079c1.629.672 3.152 1.315 4.539 1.917a40.51 40.51 0 0 1 .933 3.663c.897 4.386 1.006 8.746.105 12.94a155.89 155.89 0 0 1-2.763-.05h.004ZM104.864 152.963c.649-3.856 1.422-7.686 2.434-11.474.045-.171.096-.339.141-.51.774.288 1.702.631 2.755 1.024-.019.066-.042.129-.065.196-1.107 3.617-2.081 7.28-2.822 10.977-1.103 5.505-1.702 11.081-2.068 16.67-.764-.13-1.428-.243-1.981-.339.073-5.538.672-11.052 1.601-16.544h.005ZM129.839 157.499c.201-2.665.205-5.355.054-8.028 1.094.422 2.192.848 3.29 1.274a56.918 56.918 0 0 1-.49 7.476c-.686 5.234-2.292 10.163-4.401 14.974-.494-.058-.988-.121-1.478-.179 1.739-5.017 2.636-10.334 3.029-15.517h-.004ZM81.211 127.141l-2.255 19.193c2.013 12.163 0 20.893 0 20.893s2.163-.497 2.95-.844v-39.054l-.695-.188Z"/><path fill="#0063A2" d="m82.597 127.141 2.256 19.193c-2.013 12.163 0 20.893 0 20.893s-2.164-.497-2.951-.844v-39.054l.695-.188Z"/></svg>