<svg width="34" height="32" viewBox="0 0 34 32" fill="none" xmlns="http://www.w3.org/2000/svg">
<path d="M5.83432 0H27.7633V32H24.5444V17.3419H24.5128C24.1571 13.2908 20.8392 10.1161 16.7988 10.1161C12.7584 10.1161 9.44058 13.2908 9.08483 17.3419H9.05326V32H5.83432V0Z" fill="white"/>
<path d="M0 4.54194L1.30769 9.08387H2.4142V27.4581C1.85865 27.4581 1.40828 27.9202 1.40828 28.4903V29.729H1.2071C0.651548 29.729 0.201183 30.1912 0.201183 30.7613V32H11.4675V30.7613C11.4675 30.1912 11.0171 29.729 10.4615 29.729H10.2604V28.4903C10.2604 27.9202 9.80999 27.4581 9.25444 27.4581H8.04734V4.54194H0Z" fill="white"/>
<path d="M24.7456 27.4581C24.19 27.4581 23.7396 27.9202 23.7396 28.4903V29.729H23.5385C22.9829 29.729 22.5325 30.1912 22.5325 30.7613V32H33.7988V30.7613C33.7988 30.1912 33.3485 29.729 32.7929 29.729H32.5917V28.4903C32.5917 27.9202 32.1414 27.4581 31.5858 27.4581V9.08387H32.6923L34 4.54194H25.9527V27.4581H24.7456Z" fill="white"/>
</svg>
