<svg xmlns="http://www.w3.org/2000/svg" fill="none" viewBox="0 0 116 158">
    <path fill="#0063A2" d="m63.77 69.62-2.19 22.36s-18.16 2.32-18.07 1.99C43.61 93.64 46 69 46 69l17.78.62ZM34.98 94s-19.68 1.92-20.25 18c14.48-4.27 20.25-18 20.25-18Z"/>
    <path fill="#00B0F3" d="M79.75 96s-19.5-10.25-42.01-3.79C15.23 98.68-.52 125.6 3.68 172h84.6l-8.53-76Z"/>
    <path fill="#0063A2" d="M65.27 106.41V106h.03l.08-1 .32 1.07 10.18 1.69L87.22 172h-22.8c-1.69-26.34.36-58.55.85-65.59Z"/>
    <path fill="#0063A2" d="M72.35 117s-9.69.72-8.48-11.48c1.21-12.2 17.39-13.52 18.94-5.33C84.37 108.38 72.35 117 72.35 117Z"/>
    <path fill="#00B0F3" d="M80.82 97.5c-3.73-1.5-15.3-1.92-10.74 22.53a2256.3 2256.3 0 0 1 8.9 51.97H116s-28.25-72-35.18-74.5Z"/>
    <path fill="#0063A2" d="M91.32 115.15a625 625 0 0 1 3.97 8.64c-4.12-.14-8.28.6-12.29 1.78a94.8 94.8 0 0 0-9.64 3.53l-1.21.49-1.64-9.19a114 114 0 0 1 9.67-3.22 50.5 50.5 0 0 1 11.14-2.04v.01Zm-15.2 37.89a38.9 38.9 0 0 1 14.24-5.82 89.86 89.86 0 0 1 14.42-1.58c1.3 3.09 2.55 6.05 3.7 8.83-5.61-.3-11.32.28-16.8 1.41-5.41 1.12-9.85 3.72-14 6.8l-1.56-9.63v-.01Zm-56.38-33.69A47.9 47.9 0 0 1 35.6 92.78c.59-.2 1.17-.4 1.76-.57a57 57 0 0 1 23.2-1.73 40.34 40.34 0 0 0-19.49 9.08c-8.14 6.97-11.63 16.08-13.2 26.22a266.49 266.49 0 0 0-2.8 46.22h-9.18c-.13-3.67-.12-7.35-.03-11 .3-13.8 1.04-28.08 3.88-41.65Z"/>
    <path fill="#0063A2" d="M22.23 152.87c-8.3-.31-14.62-10.12-14.1-21.9.5-11.78 7.65-21.08 15.95-20.76 8.3.32 14.62 10.13 14.11 21.9-.5 11.79-7.65 21.08-15.96 20.76Z"/>
    <path fill="#6887AF" d="M21.53 149.75c-6.77-.26-11.9-8.64-11.47-18.7.44-10.08 6.28-18.03 13.05-17.77 6.77.25 11.9 8.63 11.46 18.7-.43 10.07-6.28 18.02-13.04 17.77Z"/>
    <path fill="#C6EBD8" d="M20.69 147.58c-5.72-.22-10.04-7.67-9.65-16.63.4-8.97 5.34-16.06 11.05-15.84 5.72.22 10.04 7.66 9.65 16.63-.4 8.96-5.34 16.05-11.05 15.84Z"/>
    <path fill="#A4DBCF" d="M11.55 130.64c.1-2.42.59-4.68 1.34-6.64.23 2.36 1.03 4.6 2.51 6.57 1.52 2 3.45 3.74 5.68 5.03 2 1.16 4.18 1.93 6.44 2.46-1.67 4.25-4.64 7.06-7.9 6.94-4.8-.19-8.41-6.62-8.07-14.37v.01Z"/>
    <path fill="#fff" d="M20.43 127.17c-2.38-.09-4.21-2.33-4.1-5 .12-2.67 2.14-4.76 4.52-4.67 2.37.1 4.2 2.33 4.09 5-.12 2.67-2.14 4.76-4.51 4.67Zm4.19 6.49c-1.34-.05-2.37-1.41-2.3-3.04.07-1.64 1.22-2.92 2.55-2.87 1.34.05 2.37 1.42 2.3 3.05-.07 1.63-1.21 2.92-2.55 2.86Z"/>
    <path fill="#E88000" d="M60.7.2c7.5.89 13.3 4.3 13.59 7.85 2.77 1.92 4.51 4.2 4.74 6.55v.02c.21.76-.17 4.52-.28 5.3-.76 5.75-10.61 9.33-22 8-11.38-1.34-19.99-7.08-19.22-12.83.11-.88.85-4.3 1.37-5.07V10c.84-2.33 3.24-4.21 6.62-5.45C46.84 1.25 53.29-.66 60.69.2ZM15.87 41.03c.8-7.05 4.34-12.56 8.1-12.9 2-2.63 4.41-4.3 6.9-4.56h.02c.8-.22 4.82.08 5.64.16 6.16.61 10.15 9.78 8.95 20.49-1.21 10.7-7.19 18.88-13.33 18.26-.93-.1-4.6-.72-5.42-1.18l-.02-.01c-2.49-.74-4.56-2.95-5.93-6.1-3.53-1.17-5.7-7.19-4.9-14.14v-.02Z"/>
    <path fill="#00B0F3" d="M86.12 19.18c-.02.88-9.82 53.13-9.93 58.55-.12 5.42-57.23-2.05-57.23-6 1.1-6.15 12.06-58.25 12.98-61.76.91-3.52 54.4-.15 54.18 9.22v-.01Z"/>
    <path fill="#0063A2" d="M62.46 79.51c-2.61-19.04 3.12-60.81 8.14-64.28 3.22-2.22 9.67-.35 14.34 1.58.77.74 1.19 1.53 1.17 2.37-.02.88-9.82 53.13-9.94 58.55-.03 1.72-5.83 2.14-13.71 1.78Z"/>
    <path fill="#E88000" d="M64.54 46.05c-1.82 10.63 1.67 19.98 7.77 20.9.81.13 4.81.62 5.64.44 5.28-1.15 7.13-8.81 8.7-18.02 1.54-9 2.03-16.62-2.42-19.44-.8-.51-4.42-1.32-5.35-1.46-6.1-.91-12.52 6.96-14.33 17.58h-.01Z"/>
    <path fill="#FFAD00" d="M76.62 67.29c-6.01-.9-9.44-10.08-7.67-20.48 1.78-10.41 8.1-18.11 14.1-17.21 6.01.9 9.44 10.07 7.67 20.48-1.78 10.4-8.1 18.1-14.1 17.2Z"/>
    <path fill="#E88000" d="M74.09 47.62c-1.3 7.63 1.47 14.39 6.2 15.1.62.09 3.72.48 4.35.35 4.07-.78 5.43-6.28 6.55-12.88 1.11-6.46 1.4-11.95-2.05-14-.61-.37-3.42-.98-4.14-1.09-4.72-.71-9.61 4.9-10.91 12.52Z"/>
    <path fill="#FFAD00" d="M84.33 63.07c-4.02-.6-6.24-7.15-4.97-14.61 1.28-7.47 5.57-13.03 9.59-12.43 4.02.6 6.24 7.15 4.96 14.61-1.27 7.47-5.56 13.03-9.58 12.43Z"/>
    <path fill="#F5F2F9" d="M59.53 50.75s-13.29-.36-15.21-2.05c1.92-9 3.27-23.72 9.36-25.09 6.08-1.37 8.31 17.57 5.85 27.15Zm-25.33-4.2c0-.33 4.96-19.81.87-24.75-2.57-2.59-5.8 7.19-9 23.32 1.98 1.05 8.13 1.42 8.13 1.42v.01Zm17.52 8.13s-7.2 4.77-16.33 3.56c3.39 8.62 8.42 16.9 14.98 13.95 6.55-2.96 1.35-17.51 1.35-17.51Z"/>
    <path fill="#D3CCE0" d="M48.4 56.36a31.43 31.43 0 0 1 5.27 8.21 13.3 13.3 0 0 1-.45 4.08 29.5 29.5 0 0 0-6.66-11.6c.66-.22 1.28-.45 1.83-.69Zm-6.5 13.42c-.65-.7-1.28-1.5-1.88-2.36a26.74 26.74 0 0 0-1.82-9c.66 0 1.32 0 1.94-.05a30.46 30.46 0 0 1 1.74 11.4l.01.01Zm4.6 2.9c-.27-5.13-1.35-10.06-4-14.6.66-.11 1.3-.24 1.9-.4 2.63 4.68 3.71 9.8 3.97 15.08a5.8 5.8 0 0 1-1.88-.08Z"/>
    <path fill="#232A32" d="M45.69 41.44c.5-.29 1.11-.48 1.86-.48 4.94 0 5.32 7.7.35 7.7a3.7 3.7 0 0 1-3.23-1.73c.34-1.72.66-3.6 1.01-5.5v.01Zm-18.11-3.41c.15-.02.3-.05.46-.05 4.94 0 5.32 7.7.35 7.7a3.8 3.8 0 0 1-2.3-.7c.5-2.48 1-4.8 1.49-6.95Z"/>
    <path fill="#FFAD00" d="M15.87 41.01c.8-7.05 4.34-12.56 8.11-12.9 0 0-6.26 13.56-3.2 27.05-3.53-1.18-5.7-7.2-4.9-14.15ZM60.71.2c7.5.89 13.3 4.3 13.6 7.85 0 0-14.33-6.12-28.77-3.5C46.86 1.25 53.31-.66 60.72.2h-.01Z"/>
    <path fill="#0063A2" d="M49.76 23.28c0 .2 4.68-4.4 10.15 1.48-3.08-9.49-10.39-7.02-10.15-1.48Zm-12-1.37c.07.27-4-4.78-5.83-.77.33-5.32 4.07-6.64 5.83.77Z"/>
</svg>