<svg xmlns="http://www.w3.org/2000/svg" fill="none" viewBox="0 0 186 158">
    <path fill="#0063A2" d="M173.11 70.2s6.9-.41 5.5-16.48c-3.07-4.83-12.8-6.21-12.8-6.21s-1.63 19.94 7.31 22.7Z"/>
    <path fill="#00B0F3" d="M174.15 52.3s1.81 3.87 2.24 4.26c.43.38 9.64-3.1 9.6-3.3-.02-.21-6.53-15.48-7.72-15.48-1.18 0-6.68 5.76-6.68 5.76l2.56 8.75Z"/>
    <path fill="#0063A2" d="m172.9 42.57 1.48-1.55c2.83 3.07 7.69 7.5 7.69 7.5s-2.59 4.76-7.02 6.12l-1.3-2.71-.85-9.36Z"/>
    <path fill="#00B0F3" d="M108.06 90s10.39-2.07 20.77 9.93c9.46 7.58 27.29-3.3 26.5-19.16-.79-15.85-6.26-31-15.18-44.52 0 0 8-7.3 10-6.89 2.53.83 9.05 17.77 9.05 17.77s8.83-9.96 9.8-9.13c.99.82 10.84 10.93 11.1 10.93-.8 3.58-6.74 4.77-6.74 4.77l-3.28-2.2s5.41 6.25.35 12.13c7.01.91 4.26 7.99 4.26 7.99s12.2 33.7-9.1 51.6c-21.3 17.9-42.33 0-42.33 0l-15.18-33.23-.02.02Z"/>
    <path fill="#0063A2" d="M134.25 128.57c3.11-13.98-5.39-27.26-11.95-35.03-7.84-4.97-14.24-3.74-14.24-3.74l15.61 33.05s4.12 3.39 10.57 5.72h.01ZM.66 122.09c.22 1.19 3.24 32.83 24.04 42.34 18.26 7.03 32.93-9.25 32.93-9.25L.66 122.09Z"/>
    <path fill="#00B0F3" d="M92.02 81.24s-36.9 0-39.04 27.66c-1.36 17.58-5.55 51.34 6.29 68 6.79 9.53 19.68 10.32 38.97 9.72 9.18-.97 22.74 1.12 29.14-6.8 2.17-2.7 3.82-8.85 5.24-12.66 4.91-43.77-4.29-86.51-40.6-85.92Z"/>
    <path fill="#0063A2" d="M49.72 103.9s4.3-8.75 9.27-7.66c9.06.64 3.41 42.38-6.9 61.52-6.4-11.35-2.37-53.86-2.37-53.86Z"/>
    <path fill="#29313A" d="m2.79 95.45 23.93 65.74a2.62 2.62 0 0 0 2.62 1.75l40.24-2.6c1.72-.1 2.86-1.87 2.33-3.55L49.06 85.04a2.6 2.6 0 0 0-3-1.8l-41.34 8.6a2.72 2.72 0 0 0-1.93 3.61Z"/>
    <path fill="#3E4854" d="M45.83 86.98a2.6 2.6 0 0 0-3.01-1.8L2.76 93.55c-.18.56-.2 1.2.03 1.8l23.9 65.84a2.62 2.62 0 0 0 2.62 1.75l39.36-2.54c.13-.49.14-1.03-.03-1.55L45.82 87v-.02Z"/>
    <path fill="#6B7A8A" d="M28.18 123.92c1.35-.2 2.85.15 4.6 1.05 1.4.73 2.65 1.63 3.87 2.51 1.21.88 2.36 1.7 3.65 2.37 1.06.54 1.9.76 2.55.67 2.03-.28 2.55-1.67 2.18-2.93a3.1 3.1 0 0 0-1.3-1.62 2.86 2.86 0 0 0-2.24-.41c-.95.25-1.58.68-1.95 1.31a.51.51 0 0 1-.4.25.72.72 0 0 1-.5-.14l-1.75-1.26c-.31-.23-.44-.65-.27-.94a5.52 5.52 0 0 1 3.52-2.51 6.3 6.3 0 0 1 4.95.91 7.27 7.27 0 0 1 3.1 3.96c1.02 3.41-.8 6.24-4.33 6.74-1.36.2-2.86-.16-4.6-1.06a31.32 31.32 0 0 1-3.88-2.5c-1.21-.88-2.35-1.71-3.65-2.37a4.6 4.6 0 0 0-2.55-.68c-2.03.29-2.55 1.68-2.18 2.94.19.6.68 1.21 1.3 1.61.72.45 1.52.6 2.23.42h.01c.94-.25 1.58-.69 1.95-1.32a.51.51 0 0 1 .4-.25.8.8 0 0 1 .5.14l1.75 1.26a.9.9 0 0 1 .32.45c.05.17.03.36-.05.5a5.52 5.52 0 0 1-3.52 2.5c-.2.06-.4.1-.6.14a6.53 6.53 0 0 1-4.33-1.03 7.27 7.27 0 0 1-3.1-3.97c-1.02-3.4.8-6.23 4.33-6.73l-.01-.01Zm8.19-4.8c.4-1.35.41-2.97.04-4.33a7.82 7.82 0 0 0-2.13-3.65 4.82 4.82 0 0 0-4.06-1.32 3.73 3.73 0 0 0-3.05 2.42 6.62 6.62 0 0 0-.02 3.98 9.85 9.85 0 0 0 2.32 3.97c.78.82 2.35 2.14 4.11 1.86 1.77-.27 2.51-1.95 2.8-2.93h-.01Zm-3-3.85c.16.63.14 1.51-.06 2.21-.22.76-.55 1-.7 1.02-.2.04-.63-.13-1.2-.72a5.3 5.3 0 0 1-1.22-2.02 2.78 2.78 0 0 1-.04-1.65c.14-.4.5-.65 1.04-.73.55-.08.97.04 1.33.37.36.33.66.89.84 1.53v-.01Z"/>
    <path fill="#00B0F3" d="M.01 116.3s1.3 29.15 21.66 33.68l9.11-5.37-4.96-14.91-8.33 2.26-2.1-5.16 9.17-4.88-4.35-15.4S1.2 112.1 0 116.3l.01.01Z"/>
    <path fill="#0063A2" d="M168.66 111.52a43.6 43.6 0 0 0-17.92-16.67c-.84 1-1.76 1.93-2.73 2.76 5.41 3.56 10.25 8.4 12.34 14.5 1.49 4.37 1.4 8.92.98 13.48l-.03.4c1.44-.91 2.9-1.95 4.36-3.17 2.06-1.72 3.8-3.6 5.27-5.58a21.59 21.59 0 0 0-2.27-5.72Zm-14.75 18.33a42.8 42.8 0 0 0-2.41-12.83 56 56 0 0 0-9.06-16.33c-1.18.5-2.4.87-3.6 1.09 3.39 4.1 6.1 8.63 6.98 14.23.88 5.55.6 10.53-.77 15.16a29.1 29.1 0 0 0 8.85-1.32h.01Zm.66-57.85c.19 1.18.34 2.36.47 3.56 6.05-1.29 12.7-.44 18.25 1.74 1.45.56 2.85 1.23 4.2 1.98a67.08 67.08 0 0 0-1.78-6.93l-.53-.19c-7.28-2.6-14.12-2.55-20.62-.17h.01Zm17.96 23.28a24.1 24.1 0 0 1 5.59 6.06c.56-3.33.74-6.62.66-9.75a48.68 48.68 0 0 0-3.11-2.13 30.99 30.99 0 0 0-20.78-3.93c-.34 1.72-.9 3.35-1.64 4.87 6.85-.56 13.42.1 19.28 4.87ZM159.8 47.13l-3.93 3.62 2.27-7.78 1.66 4.16Z"/>
    <path fill="#232A32" d="M37.75 91.81h-.01a2.6 2.6 0 0 0-1.47 3.32l1 2.77a2.46 2.46 0 0 0 3.2 1.52 2.6 2.6 0 0 0 1.47-3.32l-1-2.77a2.46 2.46 0 0 0-3.2-1.52Z"/>
    <path fill="#0063A2" d="M85.8 83.07a171.48 171.48 0 0 1 4.65 101.75c2.38.17 4.89.22 7.55.14 3.07-.32 6.15-.91 9.13-1.86 4.56-17.98 8.43-54.87-13.14-100.34-1.16-.09-1.19-1.55-2.4-1.53 0 0-3.1 1.57-5.8 1.85v-.01Z"/>
    <path fill="#0063A2" d="M101.96 154.3c8.52-.43 14.85-12.99 14.15-28.06-.7-15.06-8.18-26.93-16.7-26.5-8.51.42-14.84 12.98-14.14 28.05.7 15.07 8.18 26.93 16.7 26.5Z"/>
    <path fill="#6887AF" d="M102.6 150.32c6.95-.34 12.1-11.05 11.52-23.92-.59-12.88-6.69-23.04-13.63-22.7-6.95.33-12.1 11.04-11.52 23.92.59 12.87 6.69 23.04 13.63 22.7Z"/>
    <path fill="#C6EBD8" d="M103.4 147.6c5.87-.28 10.21-9.8 9.7-21.26-.5-11.47-5.66-20.54-11.52-20.26-5.87.27-10.21 9.8-9.7 21.26.5 11.47 5.66 20.54 11.52 20.26Z"/>
    <path fill="#A4DBCF" d="M112.61 126.27a34.13 34.13 0 0 0-1.43-8.72c-.24 3.08-1.09 6-2.66 8.52a21.66 21.66 0 0 1-6.05 6.4 21.53 21.53 0 0 1-6.85 3c1.79 5.61 4.95 9.37 8.44 9.32 5.1-.1 8.94-8.39 8.56-18.52Z"/>
    <path fill="#fff" d="M103.6 121.52c2.43-.16 4.24-3.05 4.03-6.46-.2-3.41-2.34-6.05-4.77-5.89-2.44.16-4.24 3.05-4.03 6.46.2 3.41 2.34 6.05 4.77 5.89Zm-4.34 8.16c1.38-.08 2.4-1.83 2.28-3.92-.1-2.09-1.31-3.72-2.68-3.64-1.37.08-2.4 1.84-2.28 3.92.11 2.1 1.31 3.72 2.68 3.64Z"/>
    <path fill="#0063A2" d="M78.6 63.72v20.01c7.2 7.37 19.55 5.32 17.44-1.74-1.06-4.86-2.02-17.35-2.28-17.35-.26 0-15.17-.92-15.17-.92Z"/>
    <path fill="#E88000" d="M73.54 9.03v.1l.06 2.83.75-.37c1.83 2.96 6.65 5.06 12.28 5.03 5.91-.04 10.83-2.41 12.34-5.62.14.14.31.28.51.42l-.04-2.5v-.09l-.01-.13c-.22-4.15-6.02-7.47-13.08-7.42-7.15.04-12.89 3.51-12.8 7.75h-.01Z"/>
    <path fill="#FFAD00" d="M104.81 12.44C104.7 7.7 96.54 4 86.61 4.16 76.67 4.3 68.7 8.28 68.84 13c.12 4.73 8.27 8.44 18.2 8.28 9.94-.15 17.9-4.12 17.77-8.84Z"/>
    <path fill="#E88000" d="M109.9 24.36h-.1l-2.68-.04.34.85c-2.83 1.93-4.9 7.22-4.95 13.5-.06 6.59 2.11 12.18 5.13 13.98-.13.16-.27.34-.41.55l2.37.06h.08l.12-.01c3.95-.08 7.18-6.4 7.25-14.29.07-7.98-3.13-14.51-7.14-14.6Z"/>
    <path fill="#FFAD00" d="M114.18 39.13c0-10.92-3.5-19.83-7.8-19.89-4.3-.06-7.78 8.75-7.77 19.67 0 10.93 3.5 19.83 7.8 19.9 4.3.06 7.78-8.75 7.77-19.68Z"/>
    <path fill="#00B0F3" d="M60.22 15.21s2.6 52.73 4.5 56.7c1.9 3.95 37.82 6.18 49.08-.44 1.2-1.74-2.2-41.16-3.6-58.34-1-8.65-49.15-5.3-49.98 2.1v-.02Z"/>
    <path fill="#0063A2" d="M70.52 14.5a14.5 14.5 0 0 0-10.28 1.2c.15 3.17 2.65 52.53 4.5 56.35.64 1.33 5.18 2.45 11.34 3.12 1.08-13.07 2.08-58.76-5.56-60.66Z"/>
    <path fill="#E88000" d="m64.63 20.43-.11.04v-.01l-3.27.54.5 1.06c-3.24 3.24-5.2 10.8-4.62 19.24.6 8.84 3.82 15.85 7.68 17.58-.14.24-.29.5-.44.83l2.9-.46h.05c.01 0 .03 0 .04-.02l.14-.02v-.02c4.79-1.01 8.06-10.23 7.33-20.8-.73-10.72-5.3-18.77-10.19-17.96Z"/>
    <path fill="#FFAD00" d="M71.41 40.2c-.46-10.82-4.78-19.45-9.64-19.27-4.87.17-8.45 9.08-7.99 19.9.46 10.82 4.78 19.45 9.64 19.27 4.87-.17 8.45-9.08 8-19.9Z"/>
    <path fill="#E88000" d="m60.67 25.2-.1.02-2.76.72c.16.3.3.57.44.8-2.71 2.9-4.32 9.19-3.75 15.98.6 7.1 3.37 12.5 6.63 13.58l-.36.72 2.44-.62h.05l.04-.02.12-.03v-.01c4.03-1.23 6.72-8.96 6.02-17.46-.72-8.61-4.64-14.73-8.76-13.67l-.01-.02Z"/>
    <path fill="#FFAD00" d="M66.75 41.24c-.24-8.58-3.81-15.48-7.99-15.4-4.17.07-7.36 7.1-7.13 15.68.24 8.58 3.81 15.48 7.99 15.4 4.17-.07 7.36-7.1 7.13-15.68Z"/>
    <path fill="#232A32" d="M102.5 50.8S86.06 48.25 80 46.59c-4.25-1.18-1.42 22.1 10.6 22.26 12.03.17 12.03-15.15 11.9-18.03Z"/>
    <path fill="#F5F2F9" d="M78.65 55.05c4.8 1.18 15.46 3.17 23.7.18.2-1.99.18-3.63.15-4.39 0 0-16.44-2.59-22.5-4.26-1.85-.51-2.35 3.62-1.36 8.47h.01Z"/>
    <path fill="#D3CCE0" d="M87.04 56.48c-.26-2.52-.29-5.12.1-7.6l.09-.45-2.06-.41c0 .13-.02.27-.04.41-.29 2.57-.6 5.13-.79 7.7.86.14 1.76.26 2.7.35Zm8.91-6.76c-.69-.1-1.41-.23-2.15-.35-.3 2.47-.59 4.94-.76 7.42 1-.02 2-.08 2.99-.18a32.71 32.71 0 0 1-.08-6.89Z"/>
    <path fill="#F5F2F9" d="m78.32 41.21 13.16.85s1.1-24.74-6.5-24.78c-7.63-.04-7.23 20.38-6.66 23.94Zm21.28.62 9.85.61s.71-24.33-6.1-25.32c-6.82-1-3.75 24.71-3.75 24.71Z"/>
    <path fill="#232A32" d="M88.18 39.92c1.64-.07 2.86-2.42 2.73-5.24-.14-2.83-1.57-5.06-3.22-5-1.64.08-2.86 2.42-2.73 5.25.14 2.82 1.58 5.06 3.22 4.99Zm18.12-.19c1.8-.08 3.14-2.43 3-5.25-.13-2.83-1.69-5.06-3.48-4.98-1.79.07-3.13 2.42-3 5.25.14 2.82 1.7 5.05 3.49 4.98Z"/>
</svg>