<svg xmlns="http://www.w3.org/2000/svg" fill="none" viewBox="0 0 48 48">
  <path fill="url(#a)" fill-rule="evenodd" d="M24.01 8.28c-1.72 0-3.07.68-3.97 1.78a5.94 5.94 0 0 0-1.23 3.75 7.7 7.7 0 0 0 1.39 4.15c.82 1.18 2.14 2.32 3.81 2.32 1.68 0 3-1.13 3.82-2.32a7.64 7.64 0 0 0 1.38-4.15c0-1.3-.34-2.68-1.2-3.75a4.92 4.92 0 0 0-4-1.78Zm-2.82 5.53c0-.9.25-1.7.7-2.25.41-.52 1.07-.9 2.12-.9 1.1 0 1.74.38 2.15.89.44.54.68 1.34.68 2.26a5.3 5.3 0 0 1-.96 2.8c-.62.9-1.32 1.3-1.87 1.3-.54 0-1.23-.4-1.86-1.3a5.3 5.3 0 0 1-.96-2.8Z" clip-rule="evenodd"/>
  <path fill="url(#b)" d="M16.1 25.64c-2.4-.27-4.38 1.65-4.38 3.62 0 1.96 1.54 3.73 4.44 3.73 1.05 0 2.11-.45 3.28-1.3 1.37-1 2.5-2.17 3.63-3.34a28.44 28.44 0 0 1 3.65-3.34 8 8 0 0 1 4.67-1.77c4 0 6.82 2.64 6.82 6.1 0 3.46-3.3 6.4-7.02 5.99a7.76 7.76 0 0 1-4.67-2.05l1.66-1.7a5.4 5.4 0 0 0 3.27 1.39c2.4.27 4.39-1.65 4.39-3.62 0-1.96-1.55-3.74-4.45-3.74-1.04 0-2.1.46-3.28 1.31-1.36 1-2.5 2.16-3.63 3.33a28.44 28.44 0 0 1-3.64 3.35 8 8 0 0 1-4.68 1.76c-4 0-6.81-2.64-6.81-6.1 0-3.46 3.29-6.4 7.02-5.98 1.5.17 3.25.67 4.66 2.05l-1.65 1.7a5.4 5.4 0 0 0-3.27-1.4Z"/>
  <defs>
    <linearGradient id="a" x1="9.35" x2="43.03" y1="8.28" y2="17.25" gradientUnits="userSpaceOnUse">
      <stop stop-color="#9488F0"/>
      <stop offset="1" stop-color="#3AEAB5"/>
    </linearGradient>
    <linearGradient id="b" x1="9.35" x2="43.03" y1="8.28" y2="17.25" gradientUnits="userSpaceOnUse">
      <stop stop-color="#9488F0"/>
      <stop offset="1" stop-color="#3AEAB5"/>
    </linearGradient>
  </defs>
</svg>