<svg xmlns="http://www.w3.org/2000/svg" fill="currentColor" viewBox="0 0 24 24"><path d="M19.29 5.7a18.89 18.89 0 0 0-4.33-1.2c-.19.3-.4.7-.56 1.01a18.12 18.12 0 0 0-4.8 0 10.3 10.3 0 0 0-.56-1.01A18.8 18.8 0 0 0 4.7 5.7c-2.74 3.63-3.48 7.17-3.11 10.66a18.35 18.35 0 0 0 5.31 2.39c.43-.52.81-1.07 1.14-1.64a12.5 12.5 0 0 1-1.8-.77l.45-.3a13.8 13.8 0 0 0 10.62 0l.44.3c-.57.3-1.17.56-1.8.77.33.57.71 1.12 1.14 1.64a18.3 18.3 0 0 0 5.32-2.39c.44-4.05-.74-7.56-3.12-10.67ZM8.5 14.2a1.88 1.88 0 1 1 0-3.77 1.88 1.88 0 1 1 0 3.77Zm6.98 0a1.88 1.88 0 1 1 0-3.77c1.05 0 1.9.86 1.89 1.9 0 1.03-.84 1.87-1.9 1.87Z"/></svg>