<svg xmlns="http://www.w3.org/2000/svg" fill="currentColor" viewBox="0 0 16 16"><path d="M8 5.261a2.739 2.739 0 1 0 0 5.478 2.739 2.739 0 0 0 0-5.478Zm0 4.517a1.778 1.778 0 1 1 0-3.556 1.778 1.778 0 0 1 0 3.556Z"/><path d="M13.301 5.801a3.91 3.91 0 0 0-.247-1.294 2.624 2.624 0 0 0-.616-.945 2.611 2.611 0 0 0-.944-.615 3.906 3.906 0 0 0-1.295-.248c-.568-.026-.75-.032-2.199-.032-1.448 0-1.63.006-2.199.032-.442.009-.88.093-1.294.248a2.616 2.616 0 0 0-.945.615 2.606 2.606 0 0 0-.615.945A3.912 3.912 0 0 0 2.699 5.8c-.026.569-.032.75-.032 2.2 0 1.448.006 1.63.032 2.198.009.443.092.88.248 1.295.133.356.343.678.615.945.266.27.589.48.945.615.414.155.852.239 1.294.248.57.025.75.032 2.199.032 1.448 0 1.63-.006 2.199-.032.442-.01.88-.093 1.295-.248a2.728 2.728 0 0 0 1.56-1.56c.155-.415.239-.852.247-1.295.026-.569.032-.75.032-2.199 0-1.448-.006-1.63-.032-2.199Zm-.96 4.355a2.96 2.96 0 0 1-.183.99 1.766 1.766 0 0 1-1.012 1.012c-.317.118-.652.18-.99.184-.563.025-.732.03-2.156.03-1.424 0-1.593-.005-2.155-.03a2.95 2.95 0 0 1-.99-.184 1.656 1.656 0 0 1-.614-.399 1.645 1.645 0 0 1-.399-.613 2.945 2.945 0 0 1-.183-.99c-.026-.562-.031-.731-.031-2.156 0-1.424.005-1.592.03-2.155.005-.338.067-.673.184-.99.086-.232.222-.442.4-.614.171-.177.38-.314.613-.399.317-.118.652-.18.99-.183.562-.026.731-.031 2.155-.031s1.593.005 2.155.03c.339.005.674.067.99.184a1.766 1.766 0 0 1 1.013 1.012c.118.318.18.653.184.99.026.564.03.732.03 2.156 0 1.425-.004 1.593-.03 2.156Z"/><path  d="M10.848 4.513a.64.64 0 1 0-.001 1.28.64.64 0 0 0 0-1.28Z"/></svg>