<svg xmlns="http://www.w3.org/2000/svg" fill="currentColor" viewBox="0 0 16 16"><path fill-rule="evenodd" d="M8.652 6.276c-.026 0-.73-.966-1.565-2.138L5.574 2H3.787C2.802 2 2 2.007 2 2.02c0 .014 1.043 1.497 2.315 3.29 1.272 1.8 2.309 3.297 2.302 3.325a337.36 337.36 0 0 1-2.315 2.668C3.037 12.745 2 13.945 2 13.965c0 .02.228.035.508.035h.503L5 11.717a224.385 224.385 0 0 1 2.06-2.345c.053-.041.588.656 1.73 2.276l1.656 2.345 1.78.007c.972 0 1.774-.02 1.774-.055 0-.028-1.102-1.6-2.446-3.497L9.11 7.007l.312-.352c.177-.186 1.064-1.2 1.97-2.241a442.075 442.075 0 0 1 1.885-2.159L13.504 2h-1.063L10.57 4.138C9.546 5.31 8.678 6.276 8.652 6.276ZM7.25 8.089a900.763 900.763 0 0 1-3.639-5.165c-.046-.082.091-.096.763-.096h.808L8.796 7.93c1.982 2.807 3.62 5.138 3.625 5.172.014.042-.286.07-.782.07l-.802-.008L7.25 8.09Z" clip-rule="evenodd"/></svg>