<svg xmlns="http://www.w3.org/2000/svg" fill="currentColor" viewBox="0 0 32 32"><path fill-rule="evenodd" d="M3.565 9.037c-.898 1.345-.898 3.218-.898 6.963s0 5.618.898 6.963c.39.582.89 1.082 1.472 1.471 1.345.9 3.218.9 6.963.9h8c3.745 0 5.618 0 6.963-.9a5.334 5.334 0 0 0 1.471-1.471c.9-1.345.9-3.218.9-6.963s0-5.618-.9-6.963a5.334 5.334 0 0 0-1.471-1.472c-1.345-.899-3.218-.899-6.963-.899h-8c-3.745 0-5.618 0-6.963.9-.582.388-1.082.888-1.472 1.47Zm9.102 10.469v-7.012a.667.667 0 0 1 1.002-.576l6.01 3.506a.667.667 0 0 1 0 1.152l-6.01 3.506a.667.667 0 0 1-1.002-.576Z" clip-rule="evenodd"/></svg>