<svg width="256" height="88" viewBox="0 0 256 88" fill="none" xmlns="http://www.w3.org/2000/svg">
<path d="M57.3491 36.5333H37V28H57.3491C62.6726 28 66.9882 32.2981 66.9882 37.6V39.7333H58.4201V37.6C58.4201 37.0109 57.9406 36.5333 57.3491 36.5333Z" fill="white"/>
<path d="M58.4201 48.2667H44.497V39.7333H58.4201V48.2667Z" fill="white"/>
<path d="M58.4201 48.2667H66.9882V50.4C66.9882 55.7019 62.6726 60 57.3491 60H37V51.4667H57.3491C57.9406 51.4667 58.4201 50.9891 58.4201 50.4V48.2667Z" fill="white"/>
<path d="M88.7801 57.7409C90.5656 58.5259 92.6075 58.9185 94.9058 58.9185C97.2896 58.9185 99.3932 58.5449 101.217 57.7976C103.05 57.0504 104.479 56.0194 105.505 54.7046C106.54 53.3898 107.053 51.8812 107.043 50.1786C107.062 48.4003 106.478 46.9248 105.291 45.7519C104.104 44.5696 102.333 43.8507 99.9773 43.5953V43.3683C101.715 43.1791 103.149 42.5643 104.28 41.5238C105.419 40.4834 105.98 39.1497 105.961 37.5228C105.97 35.8864 105.505 34.4345 104.564 33.167C103.634 31.8901 102.337 30.8875 100.675 30.1592C99.0228 29.4308 97.1186 29.0667 94.9628 29.0667C92.7594 29.0667 90.8077 29.4545 89.1077 30.2301C87.4077 31.0057 86.0686 32.0745 85.0904 33.4366C84.1217 34.7987 83.6326 37.4355 83.6231 39.2137H91.2019C91.2114 38.6273 91.3776 37.0404 91.7005 36.5864C92.0234 36.1324 92.465 35.7776 93.0253 35.5223C93.5952 35.2669 94.241 35.1392 94.9628 35.1392C95.6276 35.1392 96.2117 35.2621 96.715 35.5081C97.2279 35.754 97.6267 36.0945 97.9117 36.5296C98.1966 36.9647 98.3343 37.466 98.3248 38.0336C98.3343 38.62 98.1681 39.1402 97.8262 39.5943C97.4938 40.0483 97.0237 40.403 96.4159 40.6584C95.8175 40.9137 95.1242 41.0414 94.336 41.0414H91.3728V46.4897H94.336C95.1907 46.4897 95.9457 46.6174 96.601 46.8728C97.2564 47.1281 97.7645 47.4828 98.1254 47.9369C98.4957 48.3909 98.6762 48.9111 98.6667 49.4976C98.6762 50.0935 98.5242 50.6232 98.2108 51.0866C97.8974 51.5501 97.4605 51.9143 96.9002 52.1791C96.3399 52.4345 95.6941 52.5622 94.9628 52.5622C94.203 52.5622 93.5287 52.4392 92.9399 52.1933C92.351 51.9474 91.8857 51.6069 91.5438 51.1718C91.2114 50.7272 91.0404 49.1592 91.0309 48.6012H83.0533C83.0628 50.4078 83.5756 53.073 84.5918 54.4634C85.608 55.8538 87.0041 56.9463 88.7801 57.7409Z" fill="white"/>
<path fill-rule="evenodd" clip-rule="evenodd" d="M109.454 58.1239V29.0667H123.175C125.398 29.0667 127.264 29.3646 128.774 29.9605C130.293 30.5564 131.438 31.3982 132.207 32.486C132.986 33.5738 133.375 34.8554 133.375 36.331C133.375 37.3998 133.138 38.3741 132.663 39.2537C132.198 40.1334 131.542 40.8712 130.697 41.4671C129.852 42.0535 128.864 42.4603 127.734 42.6873V42.971C128.988 43.0183 130.127 43.3352 131.153 43.9216C132.179 44.4986 132.995 45.2979 133.603 46.3194C134.211 47.3315 134.515 48.5233 134.515 49.8948C134.515 51.4839 134.097 52.898 133.261 54.1371C132.435 55.3762 131.257 56.3504 129.728 57.0598C128.199 57.7692 126.376 58.1239 124.258 58.1239H109.454ZM117.375 51.8244H122.15C123.479 51.8244 124.476 51.5785 125.141 51.0866C125.806 50.5853 126.138 49.8475 126.138 48.8733C126.138 48.1923 125.982 47.6153 125.668 47.1423C125.355 46.6694 124.909 46.31 124.329 46.064C123.759 45.8181 123.071 45.6951 122.264 45.6951H117.375V51.8244ZM117.375 40.8144H121.694C122.387 40.8144 123 40.7057 123.531 40.4881C124.063 40.2706 124.476 39.9584 124.771 39.5517C125.075 39.1355 125.227 38.6295 125.227 38.0336C125.227 37.135 124.904 36.4492 124.258 35.9763C123.612 35.4939 122.795 35.2527 121.808 35.2527H117.375V40.8144Z" fill="white"/>
<path d="M183.062 36.331C183.699 36.8607 184.055 37.5985 184.131 38.5443H191.71C191.7 36.6431 191.225 34.9831 190.285 33.5643C189.354 32.136 188.03 31.0294 186.311 30.2443C184.592 29.4592 182.554 29.0667 180.199 29.0667C177.891 29.0667 175.845 29.4545 174.059 30.2301C172.283 31.0057 170.892 32.0887 169.885 33.4792C168.888 34.8601 168.394 36.4729 168.404 38.3173C168.394 40.5874 169.13 42.3799 170.612 43.6946C172.103 44.9999 174.14 45.9316 176.723 46.4897L179.629 47.114C180.712 47.3504 181.571 47.6058 182.208 47.8801C182.844 48.145 183.3 48.4476 183.575 48.7882C183.86 49.1192 184.007 49.507 184.017 49.9516C184.007 50.4245 183.855 50.8454 183.561 51.2143C183.267 51.5832 182.835 51.8717 182.265 52.0798C181.695 52.2879 180.987 52.3919 180.142 52.3919C179.135 52.3919 178.266 52.2359 177.535 51.9237C176.813 51.6116 176.253 51.1528 175.854 50.5475C175.455 49.9421 175.232 49.1949 175.185 48.3058H167.663C167.672 50.7367 168.195 52.7325 169.23 54.2931C170.274 55.8444 171.737 56.9936 173.617 57.7409C175.507 58.4881 177.72 58.8617 180.256 58.8617C182.725 58.8617 184.838 58.5165 186.595 57.826C188.362 57.1355 189.72 56.1281 190.67 54.8039C191.619 53.4797 192.099 51.8622 192.109 49.9516C192.099 48.8449 191.919 47.8234 191.567 46.8869C191.225 45.9505 190.689 45.1087 189.957 44.3615C189.226 43.6048 188.286 42.9474 187.137 42.3893C185.988 41.8312 184.606 41.382 182.991 41.0414L180.598 40.5307C179.905 40.3888 179.306 40.228 178.803 40.0483C178.3 39.8686 177.886 39.6699 177.564 39.4524C177.241 39.2254 177.003 38.9747 176.851 38.7004C176.709 38.4166 176.647 38.0998 176.666 37.7498C176.676 37.3242 176.804 36.9458 177.051 36.6147C177.298 36.2837 177.678 36.0236 178.19 35.8344C178.713 35.6358 179.382 35.5364 180.199 35.5364C181.481 35.5364 182.436 35.8013 183.062 36.331Z" fill="white"/>
<path d="M195.902 58.5213V29.4641H218V35.8203H203.823V40.8146H214.775V47.1708H203.823V52.1651H217.943V58.5213H195.902Z" fill="white"/>
<path fill-rule="evenodd" clip-rule="evenodd" d="M144.9 58.5213H136.353L145.983 29.4641H156.81L166.44 58.5213H157.892L156.206 52.9596H146.586L144.9 58.5213ZM151.51 37.4662L154.417 47.0573H148.375L151.282 37.4662H151.51Z" fill="white"/>
</svg>
