<svg width="194" height="39" viewBox="0 0 194 39" fill="none" xmlns="http://www.w3.org/2000/svg">
<path fill-rule="evenodd" clip-rule="evenodd" d="M19.8204 0C12.3406 0 6.27697 5.68815 6.27697 12.7042C6.27697 19.6638 10.5993 27.7875 17.3439 30.693C18.1272 31.028 18.9694 31.2006 19.8204 31.2006C20.6713 31.2006 21.5135 31.028 22.2969 30.693C29.0415 27.7875 33.3638 19.6658 33.3638 12.7042C33.3638 5.68815 27.3002 0 19.8204 0ZM22.5566 16.4077C21.8309 17.1391 20.8466 17.55 19.8204 17.55C18.7941 17.55 17.8099 17.1391 17.0842 16.4077C16.3585 15.6763 15.9508 14.6843 15.9508 13.65C15.9508 12.6157 16.3585 11.6237 17.0842 10.8923C17.8099 10.1609 18.7941 9.75 19.8204 9.75C20.8466 9.75 21.8309 10.1609 22.5566 10.8923C23.2822 11.6237 23.6899 12.6157 23.6899 13.65C23.6899 14.6843 23.2822 15.6763 22.5566 16.4077Z" fill="white"/>
<path d="M39.1681 30.225C39.1681 35.0727 30.5061 39 19.8204 39C9.13463 39 0.472656 35.0708 0.472656 30.2289C0.472656 27.7583 2.7228 25.5255 6.34469 23.9284C8.5542 28.0156 11.9226 31.5393 16.2024 33.382C17.3464 33.8728 18.577 34.1258 19.8204 34.1258C21.0638 34.1258 22.2943 33.8728 23.4384 33.382C27.7181 31.5393 31.0866 28.0156 33.2961 23.9284C36.918 25.5255 39.1681 27.7563 39.1681 30.225Z" fill="white"/>
<path fill-rule="evenodd" clip-rule="evenodd" d="M184.37 33.0354C182.515 33.0354 180.908 32.6241 179.547 31.8015C178.187 30.9788 177.132 29.8279 176.381 28.3488C175.639 26.8697 175.268 25.1413 175.268 23.1636C175.268 21.1859 175.639 19.4533 176.381 17.9659C177.132 16.4784 178.187 15.3234 179.547 14.5007C180.908 13.6781 182.515 13.2668 184.37 13.2668C186.225 13.2668 187.833 13.6781 189.194 14.5007C190.554 15.3234 191.605 16.4784 192.347 17.9659C193.098 19.4533 193.473 21.1859 193.473 23.1636C193.473 25.1413 193.098 26.8697 192.347 28.3488C191.605 29.8279 190.554 30.9788 189.194 31.8015C187.833 32.6241 186.225 33.0354 184.37 33.0354ZM184.395 29.4207C185.401 29.4207 186.242 29.1424 186.918 28.5856C187.594 28.0206 188.097 27.2644 188.427 26.3171C188.765 25.3698 188.934 24.3144 188.934 23.1511C188.934 21.9794 188.765 20.92 188.427 19.9727C188.097 19.017 187.594 18.2567 186.918 17.6917C186.242 17.1266 185.401 16.8441 184.395 16.8441C183.365 16.8441 182.507 17.1266 181.823 17.6917C181.147 18.2567 180.64 19.017 180.302 19.9727C179.972 20.92 179.807 21.9794 179.807 23.1511C179.807 24.3144 179.972 25.3698 180.302 26.3171C180.64 27.2644 181.147 28.0206 181.823 28.5856C182.507 29.1424 183.365 29.4207 184.395 29.4207Z" fill="white"/>
<path d="M167.002 13.5172V32.6627H171.478V13.5172H167.002Z" fill="white"/>
<path d="M167.422 10.0895C167.933 10.5631 168.543 10.8 169.252 10.8C169.97 10.8 170.58 10.5631 171.083 10.0895C171.594 9.60752 171.849 9.03 171.849 8.35692C171.849 7.67553 171.594 7.09801 171.083 6.62436C170.58 6.1424 169.97 5.90142 169.252 5.90142C168.543 5.90142 167.933 6.1424 167.422 6.62436C166.911 7.09801 166.655 7.67553 166.655 8.35692C166.655 9.03 166.911 9.60752 167.422 10.0895Z" fill="white"/>
<path d="M159.661 32.9356C158.911 32.9356 158.267 32.6697 157.732 32.1379C157.196 31.606 156.932 30.9579 156.94 30.1934C156.932 29.4455 157.196 28.8057 157.732 28.2739C158.267 27.7421 158.911 27.4761 159.661 27.4761C160.386 27.4761 161.017 27.7421 161.553 28.2739C162.097 28.8057 162.373 29.4455 162.382 30.1934C162.373 30.7003 162.241 31.1615 161.986 31.577C161.738 31.9924 161.409 32.3248 160.996 32.5741C160.592 32.8151 160.147 32.9356 159.661 32.9356Z" fill="white"/>
<path fill-rule="evenodd" clip-rule="evenodd" d="M139.734 31.8388C141.119 32.6366 142.764 33.0354 144.669 33.0354C146.145 33.0354 147.456 32.8111 148.602 32.3624C149.748 31.9053 150.687 31.2655 151.421 30.4428C152.163 29.6119 152.666 28.6396 152.93 27.5261L148.75 27.0525C148.552 27.5926 148.259 28.0455 147.872 28.4111C147.484 28.7767 147.027 29.0551 146.499 29.2462C145.971 29.429 145.382 29.5205 144.731 29.5205C143.758 29.5205 142.909 29.3127 142.183 28.8972C141.457 28.4734 140.893 27.8668 140.489 27.0774C140.098 26.3066 139.897 25.3884 139.883 24.3228H153.116V22.9392C153.116 21.2607 152.885 19.8148 152.423 18.6016C151.961 17.38 151.326 16.3746 150.518 15.5852C149.719 14.7957 148.795 14.2141 147.748 13.8401C146.709 13.4579 145.605 13.2668 144.434 13.2668C142.62 13.2668 141.041 13.6864 139.697 14.5257C138.353 15.3566 137.306 16.52 136.556 18.0157C135.814 19.5032 135.443 21.2316 135.443 23.201C135.443 25.2036 135.814 26.9445 136.556 28.4236C137.298 29.8944 138.357 31.0328 139.734 31.8388ZM148.824 21.2814H139.892C139.935 20.5313 140.126 19.8375 140.464 19.1999C140.851 18.4769 141.391 17.8952 142.084 17.4548C142.777 17.0061 143.58 16.7817 144.496 16.7817C145.353 16.7817 146.103 16.977 146.746 17.3676C147.398 17.7581 147.905 18.2941 148.268 18.9755C148.63 19.6486 148.816 20.4172 148.824 21.2814Z" fill="white"/>
<path d="M132.159 18.5766L128.077 19.0254C127.962 18.6099 127.76 18.2193 127.471 17.8537C127.191 17.4881 126.812 17.1931 126.334 16.9687C125.856 16.7444 125.27 16.6322 124.578 16.6322C123.646 16.6322 122.863 16.8358 122.228 17.2429C121.601 17.6501 121.292 18.1778 121.3 18.8259C121.292 19.3827 121.494 19.8355 121.906 20.1846C122.327 20.5336 123.019 20.8202 123.984 21.0446L127.224 21.7426C129.021 22.1332 130.357 22.7522 131.231 23.5998C132.113 24.4474 132.559 25.5567 132.567 26.9278C132.559 28.1327 132.208 29.1964 131.516 30.1187C130.831 31.0328 129.879 31.7474 128.659 32.2626C127.438 32.7778 126.037 33.0354 124.454 33.0354C122.129 33.0354 120.257 32.5452 118.839 31.5646C117.421 30.5758 116.576 29.2005 116.304 27.4389L120.67 27.0151C120.867 27.8793 121.288 28.5316 121.931 28.972C122.574 29.4124 123.411 29.6326 124.442 29.6326C125.505 29.6326 126.358 29.4124 127.002 28.972C127.653 28.5316 127.979 27.9873 127.979 27.3392C127.979 26.7907 127.768 26.3379 127.348 25.9805C126.936 25.6232 126.292 25.349 125.419 25.1579L122.178 24.4723C120.356 24.0901 119.008 23.4461 118.134 22.5403C117.26 21.6263 116.827 20.4712 116.836 19.0752C116.827 17.8952 117.145 16.8732 117.788 16.0089C118.439 15.1364 119.342 14.4634 120.496 13.9897C121.659 13.5077 122.999 13.2668 124.516 13.2668C126.742 13.2668 128.494 13.7446 129.772 14.7002C131.058 15.6558 131.854 16.9479 132.159 18.5766Z" fill="white"/>
<path fill-rule="evenodd" clip-rule="evenodd" d="M99.3594 32.3997C100.324 32.8319 101.408 33.0479 102.612 33.0479C103.601 33.0479 104.463 32.9108 105.197 32.6366C105.939 32.354 106.553 31.9843 107.039 31.5272C107.534 31.0619 107.917 30.5633 108.19 30.0315H108.338V32.6615H112.642V19.848C112.642 18.5766 112.411 17.5172 111.949 16.6696C111.496 15.822 110.894 15.1531 110.144 14.6628C109.393 14.1642 108.565 13.8069 107.658 13.5908C106.751 13.3748 105.84 13.2668 104.925 13.2668C103.597 13.2668 102.385 13.4662 101.289 13.8651C100.192 14.2556 99.2646 14.8456 98.5061 15.635C97.7475 16.4161 97.2034 17.3884 96.8736 18.5517L101.054 19.15C101.276 18.4935 101.705 17.9243 102.34 17.4424C102.983 16.9604 103.853 16.7194 104.949 16.7194C105.988 16.7194 106.784 16.977 107.336 17.4922C107.889 18.0074 108.165 18.7345 108.165 19.6735V19.7483C108.165 20.1804 108.004 20.5003 107.682 20.7081C107.369 20.9075 106.866 21.0571 106.174 21.1568C105.481 21.2482 104.578 21.3521 103.465 21.4684C102.542 21.5681 101.647 21.7301 100.782 21.9545C99.9241 22.1706 99.1533 22.4905 98.4689 22.9143C97.7846 23.3381 97.2446 23.9031 96.8489 24.6094C96.4531 25.3158 96.2552 26.2091 96.2552 27.2893C96.2552 28.5441 96.5314 29.5994 97.0838 30.4553C97.6445 31.3112 98.403 31.9593 99.3594 32.3997ZM106.112 29.1964C105.452 29.5537 104.673 29.7323 103.774 29.7323C102.843 29.7323 102.076 29.5205 101.474 29.0967C100.872 28.6729 100.571 28.0455 100.571 27.2145C100.571 26.6328 100.724 26.1592 101.029 25.7936C101.334 25.4196 101.75 25.1288 102.278 24.9211C102.806 24.7133 103.403 24.5637 104.071 24.4723C104.368 24.4308 104.718 24.3809 105.122 24.3228C105.526 24.2646 105.935 24.1981 106.347 24.1233C106.759 24.0485 107.13 23.9613 107.46 23.8616C107.798 23.7619 108.037 23.6538 108.177 23.5375V25.7936C108.177 26.4999 107.996 27.1522 107.633 27.7505C107.278 28.3488 106.771 28.8308 106.112 29.1964Z" fill="white"/>
<path fill-rule="evenodd" clip-rule="evenodd" d="M74.455 32.6627V7.1354H84.1509C85.9812 7.1354 87.5024 7.42624 88.7144 8.00791C89.9346 8.58128 90.8456 9.36654 91.4475 10.3637C92.0576 11.3609 92.3627 12.491 92.3627 13.754C92.3627 14.7928 92.1648 15.6819 91.7691 16.4214C91.3733 17.1527 90.8415 17.7468 90.1737 18.2039C89.5059 18.6609 88.7597 18.9891 87.9352 19.1886V19.4379C88.8339 19.4877 89.6955 19.7661 90.52 20.273C91.3527 20.7716 92.0329 21.4779 92.5605 22.3919C93.0882 23.306 93.352 24.4112 93.352 25.7075C93.352 27.0287 93.0346 28.217 92.3998 29.2723C91.7649 30.3194 90.8085 31.1462 89.5306 31.7528C88.2526 32.3594 86.6449 32.6627 84.7074 32.6627H74.455ZM79.0433 28.7987H83.9777C85.6432 28.7987 86.8428 28.4788 87.5766 27.8389C88.3186 27.1908 88.6896 26.3598 88.6896 25.346C88.6896 24.5898 88.5041 23.9084 88.1331 23.3018C87.7621 22.6869 87.2344 22.205 86.5501 21.856C85.8658 21.4986 85.0496 21.32 84.1014 21.32H79.0433V28.7987ZM79.0433 17.992H83.582C84.3735 17.992 85.0867 17.8466 85.7215 17.5557C86.3564 17.2566 86.8552 16.8369 87.2179 16.2968C87.589 15.7484 87.7745 15.1002 87.7745 14.3523C87.7745 13.3635 87.4282 12.5491 86.7356 11.9093C86.0513 11.2695 85.0331 10.9495 83.6809 10.9495H79.0433V17.992Z" fill="white"/>
<path d="M55.8644 32.0884C57.2495 32.7033 58.8325 33.0108 60.6133 33.0108C62.4272 33.0108 64.0349 32.6908 65.4365 32.051C66.8464 31.4112 67.9512 30.5303 68.7509 29.4085C69.5589 28.2784 69.9629 26.9987 69.9629 25.5695C69.9712 23.974 69.4971 22.6403 68.5407 21.5684C67.5926 20.4881 66.228 19.8233 64.4472 19.5741V19.3746C65.8158 19.0755 66.9206 18.4398 67.7616 17.4676C68.6108 16.4953 69.0313 15.2904 69.023 13.8528C69.023 12.5565 68.6809 11.3724 67.9965 10.3005C67.3122 9.22853 66.3435 8.37679 65.0903 7.74525C63.8453 7.10541 62.3777 6.78549 60.6876 6.78549C59.0468 6.78549 57.5669 7.09294 56.2477 7.70786C54.9286 8.31446 53.8732 9.16205 53.0818 10.2506C52.2985 11.3309 51.8904 12.5856 51.8574 14.0149H56.2725C56.2972 13.3003 56.5116 12.6853 56.9156 12.1701C57.3196 11.6466 57.8514 11.2436 58.5109 10.9611C59.1705 10.6786 59.8878 10.5373 60.6628 10.5373C61.4543 10.5373 62.1428 10.6869 62.7281 10.986C63.3218 11.2852 63.7793 11.7048 64.1009 12.2449C64.4307 12.7768 64.5915 13.4041 64.5832 14.1271C64.5915 14.8666 64.4059 15.5189 64.0267 16.084C63.6474 16.6407 63.1239 17.0728 62.4561 17.3803C61.7965 17.6878 61.0256 17.8415 60.1434 17.8415H57.9049V21.4063H60.1434C61.2152 21.4063 62.1304 21.5725 62.8889 21.9049C63.6557 22.2373 64.241 22.6985 64.645 23.2885C65.049 23.8785 65.2469 24.5598 65.2387 25.3326C65.2469 26.0805 65.0532 26.7411 64.6574 27.3145C64.2617 27.8879 63.7134 28.3366 63.0126 28.6607C62.3118 28.9764 61.5079 29.1343 60.601 29.1343C59.7518 29.1343 58.985 28.993 58.3007 28.7105C57.6164 28.428 57.0681 28.0333 56.6559 27.5264C56.2436 27.0112 56.0169 26.4087 55.9757 25.719H51.3256C51.3751 27.1566 51.7997 28.4238 52.5994 29.5207C53.3992 30.6176 54.4875 31.4735 55.8644 32.0884Z" fill="white"/>
</svg>
