<svg width="185" height="48" viewBox="0 0 185 48" fill="none" xmlns="http://www.w3.org/2000/svg">
<g clip-path="url(#clip0_1533_10063)">
<mask id="mask0_1533_10063" style="mask-type:luminance" maskUnits="userSpaceOnUse" x="0" y="0" width="184" height="48">
<path d="M183.918 0.625H0.236328V47.375H183.918V0.625Z" fill="white"/>
</mask>
<g mask="url(#mask0_1533_10063)">
<path d="M20.3867 0.625L0.236328 12.3125V35.6875L20.3867 47.375L40.5372 35.6875V12.3125L20.3867 0.625ZM32.0004 30.7339L20.3904 37.4678L8.78045 30.7339V17.2661L20.3904 10.5323L32.0004 17.2661V30.7339Z" fill="white"/>
<path d="M62.6456 35.7117C60.6445 35.7117 58.852 35.2517 57.2736 34.326C55.693 33.4023 54.4458 32.0689 53.532 30.3224C52.6182 28.5758 52.1621 26.4739 52.1621 24.0149C52.1621 21.5558 52.6237 19.4203 53.5413 17.6681C54.461 15.9178 55.7116 14.5826 57.2977 13.6644C58.882 12.7462 60.6652 12.2881 62.6477 12.2881C63.9359 12.2881 65.1382 12.4732 66.2441 12.8397C67.3517 13.2063 68.3362 13.7392 69.2 14.4386C70.0635 15.138 70.7654 15.9926 71.3107 17.0024C71.8543 18.0122 72.2063 19.1603 72.37 20.4488H67.8746C67.7722 19.7961 67.575 19.2127 67.2806 18.6947C66.9849 18.1805 66.6126 17.741 66.162 17.3782C65.7098 17.0154 65.1958 16.7406 64.6246 16.5517C64.0493 16.3628 63.424 16.2693 62.7425 16.2693C61.5439 16.2693 60.4884 16.5704 59.5725 17.1725C58.6586 17.7747 57.9437 18.6517 57.4318 19.8055C56.9182 20.9574 56.661 22.3636 56.661 24.0149C56.661 25.6661 56.9199 27.1004 57.4373 28.2485C57.9568 29.3967 58.6679 30.2625 59.578 30.8497C60.4884 31.4369 61.538 31.7305 62.7238 31.7305C63.3847 31.7305 63.999 31.6407 64.5667 31.4612C65.1344 31.2835 65.6463 31.0217 66.0986 30.6795C66.5492 30.3392 66.929 29.9203 67.2341 29.4248C67.5395 28.9292 67.7536 28.3607 67.8746 27.7193H72.37C72.238 28.789 71.9215 29.8062 71.419 30.7656C70.9164 31.723 70.2462 32.5738 69.4065 33.3125C68.5688 34.053 67.5823 34.6346 66.4506 35.0666C65.3168 35.4949 64.0493 35.7099 62.6494 35.7099V35.7155L62.6456 35.7117Z" fill="white"/>
<path d="M79.1352 25.4454V35.3959H74.7773V12.5854H79.0142V21.2641H79.2283C79.6227 20.2749 80.2445 19.4932 81.0877 18.921C81.9292 18.3507 83.0033 18.0627 84.3025 18.0627C85.4808 18.0627 86.5139 18.317 87.3943 18.8275C88.2785 19.338 88.9655 20.0729 89.4512 21.0322C89.939 21.9897 90.181 23.1509 90.181 24.5086V35.3921H85.8065V25.2435C85.8065 24.1402 85.5273 23.2818 84.9689 22.6629C84.4104 22.0458 83.6214 21.7372 82.6069 21.7372C81.9254 21.7372 81.3259 21.885 80.8085 22.1823C80.2893 22.4796 79.8815 22.9004 79.582 23.4445C79.2821 23.9924 79.1332 24.6544 79.1332 25.4436V25.4473L79.1352 25.4454Z" fill="white"/>
<path d="M97.9255 35.7341C96.8383 35.7341 95.8665 35.5395 95.0085 35.1525C94.1505 34.7635 93.4745 34.1894 92.9813 33.4302C92.488 32.671 92.2422 31.7285 92.2422 30.6065C92.2422 29.6491 92.4173 28.8506 92.7693 28.2167C93.1209 27.5827 93.5976 27.0722 94.2026 26.6795C94.8076 26.2868 95.4904 25.9895 96.2595 25.7913C97.0261 25.593 97.8324 25.4528 98.6739 25.3705C99.6698 25.2677 100.472 25.1742 101.082 25.0882C101.693 25.0022 102.136 24.8637 102.415 24.6749C102.694 24.486 102.834 24.2074 102.834 23.8409V23.7642C102.834 22.9975 102.6 22.4028 102.134 21.9802C101.667 21.5576 101 21.3444 100.137 21.3444C99.2227 21.3444 98.4967 21.5445 97.9569 21.9503C97.4191 22.3523 97.0599 22.8404 96.8755 23.4108L92.8213 22.9657C93.0743 21.926 93.5362 21.0396 94.2005 20.3103C94.8651 19.581 95.7011 19.0237 96.7062 18.6404C97.7114 18.257 98.8542 18.0645 100.135 18.0645C101.019 18.0645 101.881 18.1692 102.719 18.3786C103.556 18.5862 104.312 18.919 104.99 19.3753C105.664 19.8297 106.205 20.43 106.603 21.1742C107.004 21.9204 107.207 22.8273 107.207 23.9007V35.3958H103.033V33.0226H102.912C102.646 33.5312 102.294 33.9931 101.846 34.4026C101.399 34.8122 100.85 35.1338 100.2 35.375C99.5505 35.6164 98.7928 35.7358 97.9293 35.7358H97.9234L97.9255 35.7341ZM99.111 32.6112C99.8632 32.6112 100.518 32.4616 101.077 32.1605C101.635 31.8594 102.073 31.4574 102.388 30.9525C102.702 30.4476 102.86 29.8884 102.86 29.277V27.3621C102.719 27.4649 102.509 27.5566 102.237 27.6389C101.961 27.7211 101.652 27.7959 101.306 27.8614C100.961 27.9268 100.619 27.9848 100.284 28.0371C99.9487 28.0876 99.6491 28.1288 99.3847 28.1587C98.8059 28.241 98.2957 28.3737 97.8528 28.5551C97.4098 28.7403 97.0616 28.989 96.8086 29.305C96.5553 29.621 96.427 30.0193 96.427 30.4999C96.427 31.1937 96.6783 31.7192 97.1809 32.0782C97.6835 32.4354 98.3257 32.613 99.1075 32.613H99.1093L99.111 32.6112Z" fill="white"/>
<path d="M110.07 35.3974V18.2832H114.428V35.3974H110.07Z" fill="white"/>
<path d="M121.652 25.4453V35.3957H117.295V18.2795H121.576V21.264H121.76C122.146 20.2841 122.758 19.5062 123.596 18.9284C124.434 18.3505 125.487 18.0645 126.758 18.0645C127.937 18.0645 128.966 18.3187 129.843 18.8292C130.722 19.3379 131.403 20.0765 131.887 21.0396C132.369 22.0045 132.611 23.1602 132.611 24.5066V35.3899H128.253V25.2415C128.253 24.1494 127.972 23.2911 127.408 22.6702C126.846 22.0494 126.07 21.7352 125.083 21.7352C124.413 21.7352 123.819 21.883 123.307 22.1803C122.793 22.4776 122.392 22.8984 122.095 23.4425C121.8 23.9904 121.654 24.6525 121.654 25.4416V25.4453H121.652Z" fill="white"/>
<path d="M139.83 11.4634V35.3975H135.473V11.4634H139.83Z" fill="white"/>
<path d="M142.695 35.3974V18.2832H147.053V35.3974H142.695Z" fill="white"/>
<path d="M154.276 25.4453V35.3957H149.918V18.2795H154.199V21.264H154.384C154.769 20.2841 155.381 19.5062 156.219 18.9284C157.057 18.3505 158.11 18.0645 159.382 18.0645C160.56 18.0645 161.589 18.3187 162.468 18.8292C163.347 19.3379 164.028 20.0765 164.51 21.0396C164.992 22.0045 165.234 23.1602 165.234 24.5066V35.3899H160.876V25.2415C160.876 24.1494 160.595 23.2911 160.031 22.6702C159.469 22.0494 158.693 21.7352 157.706 21.7352C157.036 21.7352 156.442 21.883 155.93 22.1803C155.417 22.4776 155.015 22.8984 154.719 23.4425C154.423 23.9904 154.276 24.6525 154.276 25.4416V25.4453Z" fill="white"/>
<path d="M178.751 35.3976H183.918L177.115 25.6942L183.566 18.2815H178.509L172.731 24.9723H172.459V12.5854H168.1V35.3976H172.459V29.81L173.825 28.2878L178.751 35.3959V35.3976Z" fill="white"/>
<path d="M114.465 11.4634H110.107V15.841H114.465V11.4634Z" fill="white"/>
<path d="M147.09 11.4634H142.732V15.841H147.09V11.4634Z" fill="white"/>
</g>
</g>
<defs>
<clipPath id="clip0_1533_10063">
<rect width="184.078" height="46.75" fill="white" transform="translate(0.0976562 0.625)"/>
</clipPath>
</defs>
</svg>
