<svg width="183" height="43" viewBox="0 0 183 43" fill="none" xmlns="http://www.w3.org/2000/svg">
<path d="M7.6345 21.3317C7.99245 13.3659 14.6845 7.0156 22.8875 7.0156C31.3199 7.0156 38.1557 13.7259 38.1557 22.0035L38.1556 22.0551L44.9358 25.9881C45.1766 24.6958 45.3024 23.3641 45.3024 22.0035C45.3024 9.8513 35.267 0 22.8875 0C10.5081 0 0.472656 9.8513 0.472656 22.0035C0.472656 23.0783 0.551164 24.1351 0.702857 25.1688L7.38238 21.47L7.6345 21.3317Z" fill="white"/>
<path d="M5.78119 35.9037C4.2428 34.122 2.98808 32.0968 2.0855 29.8953L9.76788 25.6412L22.612 18.5953L43.37 30.6363C42.3863 32.8019 41.0566 34.7828 39.4499 36.5113L22.5126 26.6866L18.5913 28.8377L36.1777 39.4052C33.8999 41.054 31.2928 42.2899 28.4711 43L11.4434 32.7683L5.78119 35.9037Z" fill="white"/>
<path d="M177.671 15.8785V35.4792H181.931V15.8785H177.671Z" fill="white"/>
<path d="M177.886 11.5793C178.407 12.0483 179.052 12.2828 179.821 12.2828C180.589 12.2828 181.234 12.0483 181.755 11.5793C182.276 11.1103 182.537 10.5175 182.537 9.80098C182.537 9.05839 182.276 8.4591 181.755 8.00312C181.234 7.54714 180.589 7.31915 179.821 7.31915C179.052 7.31915 178.407 7.54714 177.886 8.00312C177.365 8.4591 177.104 9.05839 177.104 9.80098C177.104 10.5175 177.365 11.1103 177.886 11.5793Z" fill="white"/>
<path d="M157.874 35.4789V9.29261H173.527V12.9079H162.212V20.7247H171.827V24.34H162.212V35.4789H157.874Z" fill="white"/>
<path d="M141.83 35.2059C143.133 35.714 144.455 35.968 145.797 35.968C148.246 35.968 150.109 35.3883 151.386 34.2288C152.676 33.0562 153.321 31.6427 153.321 29.9882C153.321 28.7635 153.028 27.7734 152.441 27.0178C151.868 26.2621 151.139 25.6563 150.253 25.2004C149.38 24.7444 148.494 24.3535 147.595 24.0278C146.892 23.7543 146.221 23.4807 145.582 23.2071C144.957 22.9205 144.442 22.5883 144.038 22.2104C143.648 21.8326 143.452 21.3701 143.452 20.823C143.452 20.1585 143.693 19.6309 144.175 19.2401C144.657 18.8362 145.426 18.6343 146.481 18.6343C147.367 18.6343 148.149 18.7841 148.826 19.0837C149.504 19.3834 150.181 19.7872 150.859 20.2953L152.832 17.6767C152.038 17.0514 151.1 16.5172 150.018 16.0743C148.95 15.6183 147.751 15.3903 146.423 15.3903C144.247 15.3903 142.527 15.9309 141.263 17.0123C140 18.0936 139.368 19.468 139.368 21.1356C139.368 22.23 139.654 23.1485 140.228 23.8911C140.801 24.6206 141.518 25.2264 142.377 25.7085C143.237 26.1775 144.097 26.5748 144.957 26.9005C145.66 27.1611 146.338 27.4412 146.989 27.7408C147.654 28.0274 148.194 28.3727 148.611 28.7766C149.041 29.1674 149.256 29.6559 149.256 30.2422C149.256 30.9587 148.989 31.5515 148.455 32.0205C147.921 32.4895 147.074 32.724 145.914 32.724C144.885 32.724 143.941 32.5221 143.081 32.1182C142.221 31.7013 141.355 31.1542 140.482 30.4767L138.469 33.2321C139.42 34.0268 140.54 34.6847 141.83 35.2059Z" fill="white"/>
<path d="M128.64 35.968C127.298 35.968 125.975 35.714 124.673 35.2059C123.383 34.6847 122.262 34.0268 121.311 33.2321L123.324 30.4767C124.197 31.1542 125.064 31.7013 125.923 32.1182C126.783 32.5221 127.728 32.724 128.757 32.724C129.916 32.724 130.763 32.4895 131.297 32.0205C131.832 31.5515 132.099 30.9587 132.099 30.2422C132.099 29.6559 131.884 29.1674 131.454 28.7766C131.037 28.3727 130.496 28.0274 129.832 27.7408C129.18 27.4412 128.503 27.1611 127.799 26.9005C126.94 26.5748 126.08 26.1775 125.22 25.7085C124.36 25.2264 123.643 24.6206 123.07 23.8911C122.497 23.1485 122.21 22.23 122.21 21.1356C122.21 19.468 122.842 18.0936 124.106 17.0123C125.37 15.9309 127.089 15.3903 129.265 15.3903C130.594 15.3903 131.792 15.6183 132.861 16.0743C133.942 16.5172 134.88 17.0514 135.675 17.6767L133.701 20.2953C133.024 19.7872 132.346 19.3834 131.669 19.0837C130.991 18.7841 130.21 18.6343 129.324 18.6343C128.268 18.6343 127.5 18.8362 127.018 19.2401C126.536 19.6309 126.295 20.1585 126.295 20.823C126.295 21.3701 126.49 21.8326 126.881 22.2104C127.285 22.5883 127.799 22.9205 128.425 23.2071C129.063 23.4807 129.734 23.7543 130.438 24.0278C131.336 24.3535 132.222 24.7444 133.095 25.2004C133.981 25.6563 134.711 26.2621 135.284 27.0178C135.87 27.7734 136.163 28.7635 136.163 29.9882C136.163 31.6427 135.518 33.0562 134.229 34.2288C132.952 35.3883 131.089 35.968 128.64 35.968Z" fill="white"/>
<path fill-rule="evenodd" clip-rule="evenodd" d="M104.7 34.7759C106.107 35.5707 107.638 35.968 109.293 35.968C110.947 35.968 112.471 35.5707 113.865 34.7759C115.272 33.9682 116.406 32.8022 117.266 31.2779C118.126 29.7406 118.556 27.8711 118.556 25.6694C118.556 23.4546 118.126 21.5851 117.266 20.0608C116.406 18.5235 115.272 17.364 113.865 16.5823C112.471 15.7876 110.947 15.3903 109.293 15.3903C107.638 15.3903 106.107 15.7876 104.7 16.5823C103.306 17.364 102.179 18.5235 101.319 20.0608C100.473 21.5851 100.049 23.4546 100.049 25.6694C100.049 27.8711 100.473 29.7406 101.319 31.2779C102.179 32.8022 103.306 33.9682 104.7 34.7759ZM112.869 30.6135C112.022 31.8381 110.83 32.4504 109.293 32.4504C107.768 32.4504 106.583 31.8381 105.736 30.6135C104.889 29.3758 104.466 27.7278 104.466 25.6694C104.466 23.5979 104.889 21.9499 105.736 20.7252C106.583 19.5006 107.768 18.8883 109.293 18.8883C110.83 18.8883 112.022 19.5006 112.869 20.7252C113.729 21.9499 114.159 23.5979 114.159 25.6694C114.159 27.7278 113.729 29.3758 112.869 30.6135Z" fill="white"/>
<path d="M86.6825 35.4795V15.8788H90.1805L90.5127 19.3769H90.6691C91.3465 18.1131 92.1738 17.136 93.1509 16.4456C94.128 15.742 95.1507 15.3903 96.219 15.3903C96.701 15.3903 97.1114 15.4229 97.4501 15.488C97.7889 15.5531 98.108 15.6574 98.4077 15.8007L97.6456 19.5136C97.3199 19.4094 97.0072 19.3313 96.7075 19.2791C96.4209 19.227 96.0692 19.201 95.6523 19.201C94.8706 19.201 94.0433 19.5136 93.1704 20.139C92.2976 20.7643 91.555 21.8391 90.9426 23.3634V35.4795H86.6825Z" fill="white"/>
<path d="M68.3917 34.4436C70.1635 35.4598 72.1568 35.9679 74.3715 35.9679C76.0131 35.9679 77.5178 35.6422 78.8857 34.9908C80.2537 34.3394 81.4588 33.4014 82.501 32.1767L80.0973 29.5581C79.3287 30.4049 78.4884 31.0629 77.5764 31.5319C76.6775 31.9878 75.6352 32.2158 74.4497 32.2158C72.1698 32.2158 70.3784 31.3495 69.0757 29.6167C67.7729 27.884 67.1215 25.4413 67.1215 22.2885C67.1215 19.1878 67.8054 16.7907 69.1734 15.097C70.5543 13.3904 72.3652 12.537 74.606 12.537C75.6222 12.537 76.5472 12.7325 77.381 13.1233C78.2278 13.5141 78.99 14.0548 79.6674 14.7453L82.0711 12.0485C81.2503 11.1626 80.1885 10.4004 78.8857 9.76208C77.5829 9.1237 76.1368 8.80452 74.5474 8.80452C72.3066 8.80452 70.2873 9.33215 68.4894 10.3874C66.7046 11.4427 65.291 12.9865 64.2488 15.0189C63.2065 17.0382 62.6854 19.5135 62.6854 22.4448C62.6854 25.4022 63.1935 27.884 64.2097 29.8903C65.2389 31.8966 66.6329 33.4144 68.3917 34.4436Z" fill="white"/>
</svg>
