<svg width="256" height="88" viewBox="0 0 256 88" fill="none" xmlns="http://www.w3.org/2000/svg">
<path fill-rule="evenodd" clip-rule="evenodd" d="M86.3021 26.3722L76.0738 20.309L67.4335 25.378V19.168L57.2208 13.1265L47.04 19.168V25.4432L38.2992 20.309L28.166 26.3777V38.4553L36.7586 43.5734L28.166 48.6913V60.6711L38.2992 66.8377L46.9341 61.7414V68.0219L57.168 73.9875L67.444 68.0219L67.4229 61.7414L76.0789 66.8377L86.3021 60.6711V48.6913L77.6725 43.5734L86.3021 38.4553V26.3722ZM76.0738 22.2051L83.9039 26.8449L66.6446 37.0374L62.1974 34.3914L67.4335 31.2946V27.2687L76.0738 22.2051ZM48.6388 21.0587L56.4266 25.6823V34.9673L55.3943 34.3534L53.7955 33.408L48.6388 30.3492V21.0587ZM65.8345 30.3492L59.0051 34.3861L58.0256 34.9673V25.6823L65.8345 21.0587V30.3492ZM57.2262 24.2588L49.4384 19.6407L57.2262 15.0172L65.03 19.6407L57.2262 24.2588ZM38.3098 22.2051L47.04 27.3339V31.2946L52.2073 34.3589L47.7336 37.0319L30.559 26.8449L38.3098 22.2051ZM29.7649 37.5099V28.2684L46.14 37.9826L38.3521 42.6225L29.7649 37.5099ZM37.5051 64.447L29.7649 59.7366V50.5929L37.5051 55.2273V64.447ZM30.5537 49.164L47.7389 38.928L55.5638 43.4863L38.3045 53.8036L30.5537 49.164ZM56.3684 71.635L48.533 67.0712V60.796L56.3684 56.1726V71.635ZM56.3684 54.2819L39.1039 64.4689V55.2273L56.3684 44.9044V54.2819ZM49.3378 37.9718L53.8009 35.3041L57.2208 37.3361L60.6038 35.3368L65.0351 37.9718L57.168 42.5356L49.3378 37.9718ZM57.9673 71.6405V56.1726L65.824 60.796L65.8399 67.0712L57.9673 71.6405ZM75.2742 64.4744L57.9673 54.2763V44.9044L75.2742 55.2273V64.4744ZM84.7033 59.7366L76.8731 64.458V55.2273L84.7033 50.5819V59.7366ZM83.9091 49.164L76.0738 53.8036L58.7721 43.4863L66.6393 38.928L83.9091 49.164ZM84.7033 37.5099L76.0738 42.628L68.2436 37.9826L84.7033 28.263V37.5099Z" fill="#3E4854"/>
<path d="M112.504 25.031C112.418 24.9433 112.303 24.894 112.182 24.894H102.992C102.871 24.894 102.756 24.9433 102.67 25.031L100.727 27.025C100.642 27.1126 100.594 27.2315 100.594 27.3555V39.1096C100.594 39.2334 100.642 39.3524 100.727 39.4401L102.67 41.4341C102.756 41.5217 102.871 41.571 102.992 41.571H112.182C112.303 41.571 112.418 41.5217 112.504 41.4341L114.447 39.4401C114.533 39.3524 114.58 39.2334 114.58 39.1096V35.9813C114.58 35.7232 114.376 35.5139 114.125 35.5139H112.378C112.127 35.5139 111.923 35.7232 111.923 35.9813V37.99C111.923 38.114 111.875 38.2328 111.79 38.3205L111.413 38.7069C111.328 38.7946 111.212 38.8438 111.091 38.8438H104.083C103.962 38.8438 103.847 38.7946 103.761 38.7069L103.385 38.3205C103.299 38.2328 103.251 38.114 103.251 37.99V28.4751C103.251 28.3511 103.299 28.2322 103.385 28.1445L103.761 27.7581C103.847 27.6704 103.962 27.6212 104.083 27.6212H111.091C111.212 27.6212 111.328 27.6704 111.413 27.7581L111.79 28.1445C111.875 28.2322 111.923 28.3511 111.923 28.4751V30.4837C111.923 30.7419 112.127 30.9512 112.378 30.9512H114.125C114.376 30.9512 114.58 30.7419 114.58 30.4837V27.3555C114.58 27.2315 114.533 27.1126 114.447 27.025L112.504 25.031Z" fill="white"/>
<path fill-rule="evenodd" clip-rule="evenodd" d="M131.238 25.031C131.153 24.9433 131.037 24.894 130.916 24.894H119.784C119.532 24.894 119.328 25.1033 119.328 25.3615V41.1036C119.328 41.3617 119.532 41.571 119.784 41.571H121.53C121.782 41.571 121.986 41.3617 121.986 41.1036V35.9813C121.986 35.7232 122.189 35.5139 122.441 35.5139H123.475C123.596 35.5139 123.712 35.563 123.797 35.6508L129.433 41.4341C129.518 41.5217 129.634 41.571 129.755 41.571H132.215C132.621 41.571 132.824 41.0675 132.537 40.7729L128.19 36.3118C127.903 36.0174 128.106 35.5139 128.512 35.5139H130.916C131.037 35.5139 131.153 35.4645 131.238 35.377L133.181 33.3829C133.267 33.2952 133.315 33.1764 133.315 33.0524V27.3555C133.315 27.2315 133.267 27.1126 133.181 27.025L131.238 25.031ZM130.657 31.9328C130.657 32.0568 130.609 32.1757 130.524 32.2633L130.147 32.6498C130.062 32.7374 129.946 32.7867 129.825 32.7867H122.441C122.189 32.7867 121.986 32.5774 121.986 32.3192V28.0886C121.986 27.8305 122.189 27.6212 122.441 27.6212H129.825C129.946 27.6212 130.062 27.6704 130.147 27.7581L130.524 28.1445C130.609 28.2322 130.657 28.3511 130.657 28.4751V31.9328Z" fill="white"/>
<path fill-rule="evenodd" clip-rule="evenodd" d="M149.643 24.894C149.764 24.894 149.88 24.9433 149.965 25.031L151.908 27.025C151.993 27.1126 152.042 27.2315 152.042 27.3555V39.1096C152.042 39.2334 151.993 39.3524 151.908 39.4401L149.965 41.4341C149.88 41.5217 149.764 41.571 149.643 41.571H140.453C140.333 41.571 140.217 41.5217 140.131 41.4341L138.188 39.4401C138.103 39.3524 138.055 39.2334 138.055 39.1096V27.3555C138.055 27.2315 138.103 27.1126 138.188 27.025L140.131 25.031C140.217 24.9433 140.333 24.894 140.453 24.894H149.643ZM149.251 38.3205C149.336 38.2328 149.384 38.114 149.384 37.99V28.4751C149.384 28.3511 149.336 28.2322 149.251 28.1445L148.874 27.7581C148.789 27.6704 148.673 27.6212 148.552 27.6212H141.544C141.424 27.6212 141.308 27.6704 141.222 27.7581L140.846 28.1445C140.76 28.2322 140.712 28.3511 140.712 28.4751V37.99C140.712 38.114 140.76 38.2328 140.846 38.3205L141.222 38.7069C141.308 38.7946 141.424 38.8438 141.544 38.8438H148.552C148.673 38.8438 148.789 38.7946 148.874 38.7069L149.251 38.3205Z" fill="white"/>
<path d="M168.697 25.031C168.612 24.9433 168.496 24.894 168.375 24.894H159.186C159.065 24.894 158.949 24.9433 158.864 25.031L156.92 27.025C156.835 27.1126 156.787 27.2315 156.787 27.3555V32.1581C156.787 32.282 156.835 32.4009 156.92 32.4886L158.864 34.4826C158.949 34.5703 159.065 34.6195 159.186 34.6195H167.284C167.405 34.6195 167.521 34.6689 167.606 34.7564L167.983 35.1428C168.068 35.2305 168.116 35.3494 168.116 35.4735V37.99C168.116 38.114 168.068 38.2328 167.983 38.3205L167.606 38.7069C167.521 38.7946 167.405 38.8438 167.284 38.8438H160.277C160.156 38.8438 160.04 38.7946 159.954 38.7069L159.578 38.3205C159.492 38.2328 159.444 38.114 159.444 37.99V36.7563C159.444 36.4982 159.241 36.2889 158.989 36.2889H157.243C156.991 36.2889 156.787 36.4982 156.787 36.7563V39.1096C156.787 39.2334 156.835 39.3524 156.92 39.4401L158.864 41.4341C158.949 41.5217 159.065 41.571 159.186 41.571H168.375C168.496 41.571 168.612 41.5217 168.697 41.4341L170.64 39.4401C170.726 39.3524 170.774 39.2334 170.774 39.1096V34.3539C170.774 34.2298 170.726 34.1109 170.64 34.0234L168.697 32.0293C168.612 31.9416 168.496 31.8924 168.375 31.8924H160.277C160.156 31.8924 160.04 31.8431 159.954 31.7555L159.578 31.369C159.492 31.2814 159.444 31.1625 159.444 31.0385V28.4751C159.444 28.3511 159.492 28.2322 159.578 28.1445L159.954 27.7581C160.04 27.6704 160.156 27.6212 160.277 27.6212H167.284C167.405 27.6212 167.521 27.6704 167.606 27.7581L167.983 28.1445C168.068 28.2322 168.116 28.3511 168.116 28.4751V29.7087C168.116 29.9668 168.32 30.1761 168.572 30.1761H170.318C170.57 30.1761 170.774 29.9668 170.774 29.7087V27.3555C170.774 27.2315 170.726 27.1126 170.64 27.025L168.697 25.031Z" fill="white"/>
<path d="M187.11 24.894C187.23 24.894 187.346 24.9433 187.432 25.031L189.375 27.025C189.46 27.1126 189.508 27.2315 189.508 27.3555V29.7087C189.508 29.9668 189.304 30.1761 189.053 30.1761H187.306C187.055 30.1761 186.851 29.9668 186.851 29.7087V28.4751C186.851 28.3511 186.803 28.2322 186.717 28.1445L186.341 27.7581C186.255 27.6704 186.139 27.6212 186.019 27.6212H179.011C178.89 27.6212 178.774 27.6704 178.689 27.7581L178.312 28.1445C178.227 28.2322 178.179 28.3511 178.179 28.4751V31.0385C178.179 31.1625 178.227 31.2814 178.312 31.369L178.689 31.7555C178.774 31.8431 178.89 31.8924 179.011 31.8924H187.11C187.23 31.8924 187.346 31.9416 187.432 32.0293L189.375 34.0234C189.46 34.1109 189.508 34.2298 189.508 34.3539V39.1096C189.508 39.2334 189.46 39.3524 189.375 39.4401L187.432 41.4341C187.346 41.5217 187.23 41.571 187.11 41.571H177.92C177.799 41.571 177.683 41.5217 177.598 41.4341L175.655 39.4401C175.569 39.3524 175.521 39.2334 175.521 39.1096V36.7563C175.521 36.4982 175.725 36.2889 175.977 36.2889H177.723C177.975 36.2889 178.179 36.4982 178.179 36.7563V37.99C178.179 38.114 178.227 38.2328 178.312 38.3205L178.689 38.7069C178.774 38.7946 178.89 38.8438 179.011 38.8438H186.019C186.139 38.8438 186.255 38.7946 186.341 38.7069L186.717 38.3205C186.803 38.2328 186.851 38.114 186.851 37.99V35.4735C186.851 35.3494 186.803 35.2305 186.717 35.1428L186.341 34.7564C186.255 34.6689 186.139 34.6195 186.019 34.6195H177.92C177.799 34.6195 177.683 34.5703 177.598 34.4826L175.655 32.4886C175.569 32.4009 175.521 32.282 175.521 32.1581V27.3555C175.521 27.2315 175.569 27.1126 175.655 27.025L177.598 25.031C177.683 24.9433 177.799 24.894 177.92 24.894H187.11Z" fill="white"/>
<path d="M103.761 49.5793C103.847 49.4917 103.962 49.4424 104.083 49.4424H114.125C114.376 49.4424 114.58 49.2331 114.58 48.975V47.1827C114.58 46.9247 114.376 46.7153 114.125 46.7153H102.992C102.871 46.7153 102.756 46.7645 102.67 46.8522L100.727 48.8463C100.642 48.9338 100.594 49.0527 100.594 49.1768V61.7521C100.594 62.0102 100.798 62.2195 101.049 62.2195H102.796C103.047 62.2195 103.251 62.0102 103.251 61.7521V55.8278C103.251 55.5697 103.455 55.3604 103.707 55.3604H111.188C111.439 55.3604 111.643 55.1511 111.643 54.893V53.1007C111.643 52.8425 111.439 52.6331 111.188 52.6331H103.707C103.455 52.6331 103.251 52.424 103.251 52.1658V50.2964C103.251 50.1723 103.299 50.0534 103.385 49.9657L103.761 49.5793Z" fill="white"/>
<path d="M128.12 49.4424C127.868 49.4424 127.664 49.6517 127.664 49.9098V59.0249C127.664 59.2832 127.868 59.4925 128.12 59.4925H132.859C133.111 59.4925 133.315 59.7016 133.315 59.9599V61.7521C133.315 62.0102 133.111 62.2195 132.859 62.2195H119.784C119.532 62.2195 119.328 62.0102 119.328 61.7521V59.9599C119.328 59.7016 119.532 59.4925 119.784 59.4925H124.551C124.803 59.4925 125.007 59.2832 125.007 59.0249V49.9098C125.007 49.6517 124.803 49.4424 124.551 49.4424H119.784C119.532 49.4424 119.328 49.2331 119.328 48.975V47.1827C119.328 46.9247 119.532 46.7153 119.784 46.7153H132.859C133.111 46.7153 133.315 46.9247 133.315 47.1827V48.975C133.315 49.2331 133.111 49.4424 132.859 49.4424H128.12Z" fill="white"/>
<path d="M149.839 46.7153C149.588 46.7153 149.384 46.9247 149.384 47.1827V57.3297C149.384 57.7804 148.824 57.9701 148.562 57.6076L140.849 46.9049C140.763 46.7855 140.627 46.7153 140.483 46.7153H138.51C138.259 46.7153 138.055 46.9247 138.055 47.1827V61.7521C138.055 62.0102 138.259 62.2195 138.51 62.2195H140.257C140.508 62.2195 140.712 62.0102 140.712 61.7521V52.8814C140.712 52.4448 141.244 52.2465 141.517 52.5813L149.247 62.0522C149.334 62.1583 149.462 62.2195 149.597 62.2195H151.586C151.838 62.2195 152.042 62.0102 152.042 61.7521V47.1827C152.042 46.9247 151.838 46.7153 151.586 46.7153H149.839Z" fill="white"/>
<path fill-rule="evenodd" clip-rule="evenodd" d="M168.375 46.7153C168.496 46.7153 168.612 46.7645 168.697 46.8522L170.64 48.8463C170.726 48.9338 170.774 49.0527 170.774 49.1768V61.7521C170.774 62.0102 170.57 62.2195 170.318 62.2195H168.572C168.32 62.2195 168.116 62.0102 168.116 61.7521V58.8707C168.116 58.6126 167.912 58.4033 167.661 58.4033H159.9C159.648 58.4033 159.444 58.6126 159.444 58.8707V61.7521C159.444 62.0102 159.241 62.2195 158.989 62.2195H157.243C156.991 62.2195 156.787 62.0102 156.787 61.7521V49.1768C156.787 49.0527 156.835 48.9338 156.92 48.8463L158.864 46.8522C158.949 46.7645 159.065 46.7153 159.186 46.7153H168.375ZM159.444 55.2086C159.444 55.4669 159.648 55.6762 159.9 55.6762H167.661C167.912 55.6762 168.116 55.4669 168.116 55.2086V50.2964C168.116 50.1723 168.068 50.0534 167.983 49.9657L167.606 49.5793C167.521 49.4917 167.405 49.4424 167.284 49.4424H160.277C160.156 49.4424 160.04 49.4917 159.954 49.5793L159.578 49.9657C159.492 50.0534 159.444 50.1723 159.444 50.2964V55.2086Z" fill="white"/>
<path d="M187.306 46.7153C187.055 46.7153 186.851 46.9247 186.851 47.1827V56.0012C186.851 56.4374 186.321 56.6359 186.047 56.3023L178.315 46.8816C178.229 46.7761 178.101 46.7153 177.967 46.7153H175.977C175.725 46.7153 175.521 46.9247 175.521 47.1827V61.7521C175.521 62.0102 175.725 62.2195 175.977 62.2195H177.723C177.975 62.2195 178.179 62.0102 178.179 61.7521V52.8814C178.179 52.4448 178.71 52.2465 178.984 52.5813L186.714 62.0522C186.801 62.1583 186.928 62.2195 187.063 62.2195H189.053C189.304 62.2195 189.508 62.0102 189.508 61.7521V47.1827C189.508 46.9247 189.304 46.7153 189.053 46.7153H187.306Z" fill="white"/>
<path d="M205.836 46.7153C205.957 46.7153 206.073 46.7645 206.158 46.8522L208.101 48.8463C208.187 48.9338 208.235 49.0527 208.235 49.1768V52.3049C208.235 52.5632 208.031 52.7725 207.779 52.7725H206.033C205.781 52.7725 205.577 52.5632 205.577 52.3049V50.2964C205.577 50.1723 205.529 50.0534 205.444 49.9657L205.067 49.5793C204.982 49.4917 204.866 49.4424 204.745 49.4424H197.738C197.617 49.4424 197.501 49.4917 197.416 49.5793L197.039 49.9657C196.954 50.0534 196.906 50.1723 196.906 50.2964V58.6385C196.906 58.7625 196.954 58.8815 197.039 58.969L197.416 59.3556C197.501 59.4431 197.617 59.4925 197.738 59.4925H204.745C204.866 59.4925 204.982 59.4431 205.067 59.3556L205.444 58.969C205.529 58.8815 205.577 58.7625 205.577 58.6385V56.6298C205.577 56.3717 205.781 56.1624 206.033 56.1624H207.779C208.031 56.1624 208.235 56.3717 208.235 56.6298V59.7581C208.235 59.8822 208.187 60.0009 208.101 60.0886L206.158 62.0826C206.073 62.1704 205.957 62.2195 205.836 62.2195H196.647C196.526 62.2195 196.41 62.1704 196.325 62.0826L194.381 60.0886C194.296 60.0009 194.248 59.8822 194.248 59.7581V49.1768C194.248 49.0527 194.296 48.9338 194.381 48.8463L196.325 46.8522C196.41 46.7645 196.526 46.7153 196.647 46.7153H205.836Z" fill="white"/>
<path d="M216.148 49.5793C216.233 49.4917 216.349 49.4424 216.47 49.4424H226.512C226.763 49.4424 226.967 49.2331 226.967 48.975V47.1827C226.967 46.9247 226.763 46.7153 226.512 46.7153H215.379C215.258 46.7153 215.142 46.7645 215.057 46.8522L213.114 48.8463C213.029 48.9338 212.98 49.0527 212.98 49.1768V61.7521C212.98 62.0102 213.184 62.2195 213.436 62.2195H226.512C226.763 62.2195 226.967 62.0102 226.967 61.7521V59.9599C226.967 59.7016 226.763 59.4925 226.512 59.4925H216.093C215.842 59.4925 215.638 59.2832 215.638 59.0249V56.3133C215.638 56.0551 215.842 55.8457 216.093 55.8457H223.575C223.826 55.8457 224.03 55.6366 224.03 55.3784V53.5861C224.03 53.328 223.826 53.1187 223.575 53.1187H216.093C215.842 53.1187 215.638 52.9094 215.638 52.6513V50.2964C215.638 50.1723 215.686 50.0534 215.771 49.9657L216.148 49.5793Z" fill="white"/>
</svg>
