<svg width="159" height="78" viewBox="0 0 159 78" fill="none" xmlns="http://www.w3.org/2000/svg">
<path d="M92.4973 23.8892L86.9617 36.5546C86.4745 37.6396 85.8988 38.4145 85.2346 38.946C84.5703 39.4552 83.751 39.6988 82.7767 39.6988C82.1568 39.6988 81.5368 39.6323 80.9168 39.4774V37.3959C81.6254 37.4624 82.0683 37.4846 82.2454 37.4846C82.8211 37.4846 83.3082 37.3739 83.7068 37.1302C84.1054 36.9088 84.4374 36.466 84.7253 35.846L85.1902 34.7831L80.6289 23.9334H83.2639L86.5411 32.2369L89.9067 23.9334L92.4973 23.8892Z" fill="white"/>
<path d="M100.533 23.69C102.127 23.69 103.478 24.2436 104.541 25.3728C105.604 26.5022 106.135 27.9414 106.135 29.6021C106.135 31.2628 105.604 32.7021 104.563 33.8313C103.522 34.9605 102.194 35.5141 100.6 35.5141C99.7803 35.5141 99.0054 35.3591 98.2968 35.027C97.6103 34.6948 97.0568 34.252 96.6361 33.6763V35.2705H94.3555V17.8887H96.7911V25.2843C97.6989 24.1993 98.9832 23.6458 100.622 23.6458L100.533 23.69ZM100.179 33.3441C101.175 33.3441 101.95 32.9677 102.637 32.2813C103.301 31.5949 103.633 30.687 103.633 29.5799C103.633 28.4949 103.301 27.6314 102.637 26.9006C101.972 26.2142 101.131 25.86 100.135 25.86C99.1825 25.86 98.3853 26.1922 97.6989 26.8342C97.0126 27.4763 96.7026 28.4064 96.7026 29.6242C96.7026 30.8421 97.0568 31.7942 97.7211 32.4142C98.3853 33.0341 99.2047 33.3441 100.157 33.3441H100.179Z" fill="white"/>
<path d="M74.9602 47.6475C76.2665 47.6475 77.3295 48.0904 78.0823 48.9096C78.8351 49.7289 79.2115 50.8139 79.2115 52.2088V59.3387H76.7759V52.541C76.7759 51.766 76.5545 51.1018 76.0894 50.6368C75.6245 50.1497 75.0266 49.906 74.296 49.906C73.543 49.906 72.9231 50.1497 72.436 50.6368C71.9488 51.1239 71.7274 51.7438 71.7274 52.4968V59.3387H69.2695V47.9133H71.5503V49.0425C72.4138 48.1126 73.543 47.6696 74.9602 47.6696V47.6475Z" fill="white"/>
<path d="M92.7618 54.3788H84.2814C84.4363 55.3309 84.8571 56.0617 85.5213 56.6152C86.1856 57.1467 87.0269 57.3902 88.0234 57.3902C89.1969 57.3902 90.3262 56.9474 91.3448 56.0617L92.4962 57.7224C91.2119 58.9402 89.6841 59.538 87.957 59.538C86.2077 59.538 84.7242 58.9623 83.5728 57.8331C82.4214 56.7038 81.8457 55.2645 81.8457 53.6038C81.8457 51.9431 82.4214 50.5261 83.5506 49.3747C84.6798 48.2232 86.0748 47.6475 87.7134 47.6475C89.2191 47.6475 90.4812 48.1346 91.4775 49.131C92.474 50.1275 92.9833 51.3896 92.9833 52.8952C92.9833 52.851 92.9611 53.8031 92.7618 54.3788ZM87.6248 49.7067C86.8277 49.7067 86.1192 49.9504 85.4992 50.4596C84.9013 50.9689 84.5027 51.6331 84.3256 52.5188H90.5255C90.5033 51.6553 90.2154 50.991 89.6619 50.4596C89.1084 49.9504 88.422 49.7067 87.5805 49.7067H87.6248Z" fill="white"/>
<path d="M119.09 30.3982H110.61C110.764 31.3504 111.185 32.0811 111.849 32.6346C112.514 33.1661 113.355 33.4096 114.352 33.4096C115.525 33.4096 116.654 32.9668 117.673 32.0811L118.824 33.7418C117.54 34.9597 116.012 35.5574 114.285 35.5574C112.536 35.5574 111.052 34.9817 109.901 33.8525C108.75 32.7233 108.174 31.2839 108.174 29.6232C108.174 27.9625 108.75 26.5455 109.879 25.3941C111.008 24.2427 112.403 23.667 114.042 23.667C115.547 23.667 116.809 24.1541 117.806 25.1504C118.802 26.1469 119.312 27.409 119.312 28.9148C119.312 28.8704 119.312 29.8005 119.09 30.3982ZM113.953 25.7261C113.156 25.7261 112.447 25.9698 111.827 26.4791C111.23 26.9884 110.831 27.6526 110.654 28.5384H116.854C116.832 27.6747 116.544 27.0104 115.99 26.4791C115.437 25.9698 114.75 25.7261 113.909 25.7261H113.953Z" fill="white"/>
<path d="M101.531 57.3238C101.886 57.3238 102.351 57.2574 103.015 57.191V59.2723C102.262 59.4274 101.576 59.5159 100.978 59.5159C99.6714 59.5159 98.6307 59.1838 97.8999 58.5417C97.1693 57.8995 96.7929 56.9031 96.7929 55.5745V50.0169H94.9551V47.8912H96.7929V44.9019H99.2506V47.8912H102.639V50.0169H99.2506V55.3532C99.2506 56.0616 99.4279 56.571 99.8043 56.881C100.181 57.191 100.734 57.3238 101.465 57.3238H101.531Z" fill="white"/>
<path d="M122.875 47.8907L117.827 59.5376H117.007L113.442 51.9649L109.878 59.5376H109.058L104.01 47.8907H106.623L109.612 55.3306L113.066 47.625H113.885L117.384 55.2199L120.329 47.8686H122.92V47.8907H122.875Z" fill="white"/>
<path d="M134.191 49.3303C133.018 48.2011 131.601 47.6475 129.94 47.6475C128.257 47.6475 126.84 48.2232 125.667 49.3525C124.515 50.4817 123.939 51.921 123.939 53.5595C123.939 55.2202 124.515 56.6374 125.667 57.7666C126.818 58.8958 128.257 59.4716 129.94 59.4937C131.601 59.4937 133.018 58.918 134.214 57.7666C135.387 56.6152 135.963 55.176 135.963 53.5374C135.985 51.8989 135.387 50.4595 134.191 49.3303ZM132.42 56.1945C131.756 56.8809 130.914 57.2353 129.918 57.2353C128.899 57.2353 128.08 56.8809 127.394 56.1945C126.729 55.508 126.397 54.6223 126.397 53.5595C126.397 52.4967 126.729 51.6331 127.394 50.9025C128.058 50.2161 128.899 49.8618 129.918 49.8397H129.94C130.936 49.8618 131.756 50.2161 132.442 50.9025C133.106 51.5889 133.439 52.4746 133.439 53.5595C133.439 54.6003 133.084 55.508 132.42 56.1945Z" fill="white"/>
<path d="M144.353 47.7803C144.708 47.7803 144.996 47.8246 145.283 47.891V50.061H144.531C143.578 50.061 142.803 50.3267 142.161 50.8802C141.541 51.4337 141.209 52.1867 141.209 53.2052V59.3386H138.773V47.9132H141.054V49.3966C141.851 48.3338 142.958 47.8025 144.398 47.8025L144.353 47.7803Z" fill="white"/>
<path d="M127.882 23.8223C128.236 23.8223 128.524 23.8665 128.812 23.933V26.1029H128.081C127.129 26.1029 126.354 26.3685 125.712 26.9222C125.092 27.4757 124.76 28.2285 124.76 29.2471V35.3806H122.324V23.955H124.605V25.4386C125.402 24.3758 126.509 23.8443 127.949 23.8443L127.882 23.8223Z" fill="white"/>
<path d="M147.697 41.8911H150.132V59.3393H147.697V41.8911ZM158.104 59.3393H155.181L150.221 52.8958L154.672 47.9139H157.683L153.099 52.918L158.104 59.3393Z" fill="white"/>
<path d="M69.2695 17.9111H71.7052V35.3373H69.2695V17.9111ZM79.6765 35.3593H76.7537L71.7938 28.916L76.2445 23.9339H79.2559L74.6502 28.9382L79.6765 35.3593Z" fill="white"/>
<path d="M31.6498 0.307511L50.803 14.9437C51.6887 15.608 51.6002 16.9144 50.6481 17.4679L22.2393 33.7869L29.2363 1.19321C29.4799 0.108229 30.7641 -0.356763 31.6498 0.307511Z" fill="#3E4854"/>
<path d="M52.4849 55.1541L23.6333 38.6138L52.4849 22.0733C53.5036 21.4976 54.7657 22.2282 54.7657 23.3796V53.8478C54.7657 54.9991 53.4814 55.7299 52.4849 55.1541Z" fill="#3E4854"/>
<path d="M31.6498 76.9426L50.8474 62.2843C51.7109 61.6201 51.6223 60.3136 50.6923 59.7601L22.2393 43.4631L29.2585 76.0569C29.4577 77.1419 30.742 77.6069 31.6498 76.9426Z" fill="#3E4854"/>
<path d="M23.7886 3.49586L16.2381 38.6138L23.7886 73.7761C24.0765 75.1267 22.4822 76.1232 21.3751 75.2818L2.04477 60.5348C1.04836 59.782 0.472656 58.5863 0.472656 57.3463V19.9477C0.472656 18.7078 1.04836 17.512 2.04477 16.7592L21.3751 1.99015C22.5044 1.10446 24.0765 2.12302 23.7886 3.49586Z" fill="#3E4854"/>
</svg>
