<svg width="205" height="40" viewBox="0 0 205 40" fill="none" xmlns="http://www.w3.org/2000/svg">
<path fill-rule="evenodd" clip-rule="evenodd" d="M26.2012 0.75L48.459 39.25H3.94336L26.2012 0.75ZM13.0331 34.1533H39.3692L26.2012 11.3769L13.0331 34.1533Z" fill="white"/>
<path d="M20.7871 0.75L10.5605 18.7969L0.333984 0.75H20.7871Z" fill="white"/>
<path d="M178.339 27.535C177.569 27.5914 176.78 27.6191 175.97 27.6191C174.935 27.6191 173.982 27.5184 173.108 27.3183C172.237 27.117 171.481 26.7996 170.837 26.3662C170.463 26.114 170.136 25.821 169.855 25.487C169.652 25.2449 169.473 24.9806 169.32 24.6942C168.955 24.0152 168.771 23.1858 168.771 22.205C168.771 21.2684 168.975 20.4667 169.377 19.7987C169.782 19.1297 170.351 18.579 171.083 18.1444C171.815 17.7099 172.686 17.3925 173.697 17.1923C174.707 16.9911 175.809 16.8905 176.994 16.8905C177.346 16.8905 177.72 16.907 178.111 16.9413L178.202 16.9524V18.8024C177.819 18.777 177.395 18.7637 176.919 18.7637C176.313 18.7637 175.681 18.8024 175.024 18.8787C174.367 18.9583 173.759 19.1242 173.206 19.3807C172.648 19.6373 172.193 19.9878 171.841 20.4335C171.487 20.8802 171.31 21.4696 171.31 22.205C171.31 22.8519 171.43 23.396 171.671 23.8416C171.91 24.2894 172.25 24.6444 172.693 24.912C173.135 25.1796 173.666 25.3743 174.283 25.4959C174.902 25.6186 175.605 25.6806 176.386 25.6806C176.943 25.6806 177.461 25.6717 177.936 25.6529C178.281 25.6396 178.604 25.6208 178.907 25.5976C179.628 25.5423 180.241 25.4694 180.745 25.3798L180.743 19.2978L180.745 17.3925V16.3232L180.743 16.2999V16.0655C180.721 15.5557 180.679 15.0548 180.593 14.5694C180.551 14.3283 180.486 14.0983 180.4 13.8782C180.283 13.5774 180.126 13.2955 179.931 13.0323C179.697 12.7171 179.394 12.444 179.027 12.214C178.861 12.11 178.682 12.0149 178.489 11.9287C178.067 11.7385 177.554 11.6135 176.952 11.5538C176.671 11.525 176.368 11.5107 176.048 11.5107C174.606 11.5107 173.533 11.6002 172.825 11.7783C172.12 11.9574 171.6 12.1012 171.273 12.2118L170.932 10.3064C171.359 10.1284 172.023 9.96253 172.921 9.80661C173.816 9.65069 174.898 9.57218 176.161 9.57218C176.738 9.57218 177.275 9.60535 177.775 9.6706C178.39 9.75022 178.945 9.87849 179.438 10.0565C180.334 10.3794 181.059 10.8251 181.619 11.3946C182.17 11.9618 182.576 12.6364 182.829 13.416C183.003 13.9545 183.118 14.5251 183.171 15.1256C183.196 15.3954 183.209 15.6718 183.209 15.9549V26.8505C182.955 26.9169 182.588 26.9898 182.11 27.0673C181.628 27.1458 181.073 27.2287 180.442 27.3183C179.81 27.4067 179.111 27.4797 178.339 27.535Z" fill="white"/>
<path d="M115.776 27.535C115.007 27.5914 114.215 27.6191 113.41 27.6191C112.373 27.6191 111.42 27.5184 110.546 27.3183C109.677 27.117 108.918 26.7996 108.272 26.3662C107.629 25.9316 107.125 25.3743 106.757 24.6942C106.393 24.0152 106.209 23.1858 106.209 22.205C106.209 21.7018 106.266 21.2374 106.384 20.8106C106.483 20.4445 106.627 20.1073 106.815 19.7987C107.22 19.1297 107.788 18.579 108.52 18.1444C108.889 17.9255 109.294 17.7364 109.732 17.5772C110.166 17.4201 110.634 17.2919 111.136 17.1923C111.707 17.0784 112.306 16.9977 112.932 16.948C113.414 16.9093 113.914 16.8905 114.432 16.8905C114.786 16.8905 115.157 16.907 115.549 16.9413L115.639 16.9524V18.8024C115.255 18.777 114.832 18.7637 114.354 18.7637C113.748 18.7637 113.118 18.8024 112.461 18.8787C111.804 18.9583 111.198 19.1242 110.643 19.3807C110.086 19.6373 109.63 19.9878 109.279 20.4335C108.925 20.8802 108.748 21.4696 108.748 22.205C108.748 22.7181 108.823 23.1659 108.974 23.553C109.013 23.6536 109.058 23.7498 109.108 23.8416C109.347 24.2894 109.688 24.6444 110.13 24.912C110.367 25.0558 110.63 25.1774 110.918 25.2792C111.167 25.3676 111.435 25.4395 111.723 25.4959C112.34 25.6186 113.043 25.6806 113.826 25.6806C114.786 25.6806 115.626 25.6529 116.345 25.5976C117.068 25.5423 117.678 25.4694 118.183 25.3798V16.0655C118.158 15.5557 118.119 15.0548 118.032 14.5694C117.928 13.9999 117.709 13.4879 117.369 13.0323C117.026 12.5756 116.548 12.2073 115.929 11.9287C115.308 11.6489 114.496 11.5107 113.483 11.5107C112.501 11.5107 111.692 11.5516 111.05 11.6356C110.752 11.6743 110.488 11.7219 110.263 11.7783C109.891 11.8723 109.573 11.9563 109.305 12.0315C109.064 12.099 108.865 12.1587 108.71 12.2118L108.37 10.3064C108.799 10.1284 109.46 9.96253 110.358 9.80661C111.254 9.65069 112.335 9.57218 113.598 9.57218C114.887 9.57218 115.98 9.73473 116.876 10.0565C117.774 10.3794 118.499 10.8251 119.056 11.3946C119.611 11.9618 120.016 12.6364 120.268 13.416C120.52 14.1967 120.646 15.0426 120.646 15.9549V26.8505C120.394 26.9169 120.027 26.9898 119.547 27.0673L118.439 27.2375L117.88 27.3183C117.247 27.4067 116.548 27.4797 115.776 27.535Z" fill="white"/>
<path d="M84.2984 27.6058C83.9799 27.6146 83.657 27.6191 83.3319 27.6191C82.2947 27.6191 81.3415 27.5184 80.4701 27.3183C79.5987 27.117 78.8401 26.7996 78.1943 26.3662C77.5507 25.9316 77.0465 25.3743 76.6793 24.6942C76.3144 24.0152 76.1309 23.1858 76.1309 22.205C76.1309 21.2684 76.3321 20.4667 76.7368 19.7987C77.1416 19.1297 77.71 18.579 78.442 18.1444C79.1763 17.7099 80.0477 17.3925 81.0584 17.1923C82.0669 16.9911 83.166 16.8905 84.3537 16.8905C84.7076 16.8905 85.0791 16.907 85.4728 16.9413L85.5634 16.9524V18.8024C85.1764 18.777 84.754 18.7637 84.2785 18.7637C83.9689 18.7637 83.6526 18.7737 83.3297 18.7936C83.0201 18.8135 82.7038 18.8411 82.3831 18.8787C81.7263 18.9583 81.1203 19.1242 80.5652 19.3807C80.0078 19.6373 79.5522 19.9878 79.2006 20.4335C78.8467 20.8802 78.6698 21.4696 78.6698 22.205C78.6698 22.8519 78.7892 23.396 79.0303 23.8416C79.2692 24.2894 79.6097 24.6444 80.0521 24.912C80.3285 25.0801 80.6404 25.2183 80.9876 25.3289C81.1955 25.3953 81.4144 25.4506 81.6444 25.4959C82.2637 25.6186 82.9648 25.6806 83.7477 25.6806C84.7076 25.6806 85.548 25.6529 86.2667 25.5976C86.9877 25.5423 87.6004 25.4694 88.1068 25.3798L88.1046 19.2978L88.1068 17.3925L88.1046 16.3121V16.0655C88.0803 15.5557 88.0405 15.0548 87.9542 14.5694C87.8525 13.9999 87.6313 13.4879 87.2907 13.0323C86.9501 12.5756 86.4702 12.2073 85.851 11.9287C85.2317 11.6489 84.4178 11.5107 83.4071 11.5107C81.9673 11.5107 80.8925 11.6002 80.187 11.7783C79.4771 11.9574 78.9595 12.1012 78.6322 12.2118L78.2916 10.3064C78.7207 10.1284 79.382 9.96253 80.2799 9.80661C81.1778 9.65069 82.2571 9.57218 83.5199 9.57218C84.8093 9.57218 85.8996 9.73473 86.7975 10.0565C87.2576 10.2224 87.6711 10.4192 88.0405 10.6492C88.3943 10.8682 88.7062 11.117 88.9782 11.3946C89.5333 11.9618 89.938 12.6364 90.1902 13.416C90.3605 13.9412 90.4733 14.4964 90.5285 15.0824C90.5551 15.3666 90.5684 15.6575 90.5684 15.9549V26.8505C90.3162 26.9169 89.9491 26.9898 89.4692 27.0673C88.9893 27.1458 88.4319 27.2287 87.8016 27.3183C87.1713 27.4067 86.4702 27.4797 85.6984 27.535C85.2383 27.5682 84.7717 27.5914 84.2984 27.6058Z" fill="white"/>
<path fill-rule="evenodd" clip-rule="evenodd" d="M190.499 26.3695V33.6347H188.021V10.5188C188.758 10.2943 189.698 10.0797 190.841 9.87738C191.985 9.67391 193.431 9.57218 195.185 9.57218C196.634 9.57218 197.949 9.78118 199.13 10.1981C200.309 10.6161 201.329 11.2176 202.18 12.0061C203.03 12.7956 203.689 13.7522 204.16 14.879C204.629 16.0058 204.865 17.2786 204.865 18.6974C204.865 20.0265 204.666 21.2485 204.273 22.3642C203.881 23.48 203.302 24.4376 202.541 25.2371C202.183 25.612 201.789 25.9482 201.355 26.2467C200.864 26.5851 200.327 26.8737 199.739 27.1126C198.633 27.5638 197.37 27.7882 195.946 27.7882C194.654 27.7882 193.528 27.6246 192.575 27.2995C191.622 26.9722 190.93 26.6625 190.499 26.3695ZM194.064 26.2622C194.608 26.364 195.181 26.4159 195.78 26.4159C197.029 26.4159 198.078 26.2268 198.925 25.8498C199.772 25.4727 200.455 24.9585 200.975 24.3071C201.495 23.6547 201.873 22.8895 202.107 22.0093C202.342 21.1301 202.459 20.1968 202.459 19.2149C202.459 16.8827 201.796 15.0935 200.466 13.8484C199.137 12.6021 197.381 11.9784 195.194 11.9784C194.451 11.9784 193.794 11.9961 193.221 12.0326C192.83 12.0569 192.478 12.0901 192.166 12.1321C191.399 12.2361 190.819 12.3445 190.428 12.4584V24.839C190.662 24.9994 190.956 25.1708 191.306 25.3532C191.657 25.5368 192.067 25.7071 192.538 25.8674C193.006 26.0278 193.515 26.1594 194.064 26.2622Z" fill="white"/>
<path d="M96.7277 12.1067V27.6191H94.1777V10.7377C94.8302 10.4867 95.7325 10.229 96.8848 9.96696C97.5704 9.80993 98.3466 9.69935 99.2092 9.63632C99.7931 9.59319 100.417 9.57218 101.082 9.57218C101.921 9.57218 102.71 9.62968 103.458 9.74358C104.203 9.85859 104.718 9.97248 105.006 10.0864L104.495 12.0028C104.287 11.9121 103.862 11.8159 103.221 11.713C102.58 11.6102 101.737 11.5582 100.691 11.5582C99.5918 11.5582 98.7094 11.6279 98.0415 11.7639C97.6544 11.8446 97.3448 11.9165 97.1126 11.9806C96.9445 12.0271 96.8162 12.0691 96.7277 12.1067Z" fill="white"/>
<path fill-rule="evenodd" clip-rule="evenodd" d="M58.1548 26.3695V33.6347H55.6777V10.5188C56.4142 10.2943 57.3541 10.0797 58.4976 9.87738C59.641 9.67391 61.0896 9.57218 62.8412 9.57218C63.487 9.57218 64.1062 9.61309 64.699 9.69603C65.4354 9.79998 66.1321 9.96696 66.7867 10.1981C67.9677 10.6161 68.9829 11.2176 69.8344 12.0061C70.6858 12.7956 71.3449 13.7522 71.816 14.879C72.2871 16.0058 72.5215 17.2786 72.5215 18.6974C72.5215 20.0265 72.3247 21.2485 71.931 22.3642C71.6722 23.0985 71.3338 23.7642 70.9158 24.3613C70.6969 24.6721 70.458 24.964 70.1971 25.2371C69.4341 26.0377 68.5007 26.6625 67.3949 27.1126C66.2913 27.5638 65.0263 27.7882 63.6042 27.7882C62.7815 27.7882 62.0273 27.7219 61.3417 27.5903C60.948 27.5151 60.5787 27.4178 60.2315 27.2995C59.2783 26.9722 58.586 26.6625 58.1548 26.3695ZM61.7177 26.2622C62.264 26.364 62.8346 26.4159 63.4361 26.4159C64.6857 26.4159 65.7318 26.2268 66.5788 25.8498C67.4259 25.4727 68.1093 24.9585 68.6312 24.3071C69.151 23.6547 69.5292 22.8895 69.7636 22.0093C69.998 21.1301 70.1152 20.1968 70.1152 19.2149C70.1152 16.8827 69.4517 15.0935 68.1226 13.8484C66.7956 12.6021 65.0373 11.9784 62.8478 11.9784C61.6005 11.9784 60.5898 12.0293 59.8223 12.1321C59.0549 12.2361 58.4732 12.3445 58.084 12.4584V24.839C58.3184 24.9994 58.6104 25.1708 58.962 25.3532C59.3136 25.5368 59.725 25.7071 60.1939 25.8674C60.6627 26.0278 61.1692 26.1594 61.7177 26.2622Z" fill="white"/>
<path d="M135.495 26.3971C134.164 27.2121 132.344 27.6191 130.037 27.6191C128.312 27.6191 126.994 27.4886 126.083 27.2276C125.169 26.9688 124.561 26.7709 124.256 26.6338L124.904 24.6311C124.979 24.6765 125.145 24.7495 125.397 24.8523C125.651 24.9529 125.992 25.0679 126.423 25.1918C126.653 25.257 126.903 25.319 127.177 25.3754C127.421 25.4251 127.684 25.4716 127.965 25.5136C128.56 25.6043 129.25 25.6496 130.037 25.6496C131.457 25.6496 132.629 25.4406 133.554 25.0215C134.48 24.6024 134.942 23.8947 134.942 22.8994C134.942 22.4239 134.861 22.0159 134.697 21.6764C134.595 21.4707 134.456 21.2772 134.277 21.0959C134.16 20.9786 134.027 20.867 133.876 20.7608C133.498 20.4888 132.996 20.2278 132.377 19.979C131.755 19.7302 130.988 19.436 130.075 19.0965C129.338 18.8245 128.642 18.5481 127.982 18.2639C127.323 17.9808 126.742 17.6535 126.235 17.2797C125.727 16.9059 125.324 16.4592 125.017 15.9383C124.714 15.4175 124.561 14.7839 124.561 14.0375V13.9125L124.577 9.57218H127.078L127.076 9.79666L127.071 13.8373C127.071 14.315 127.171 14.7231 127.376 15.0625C127.578 15.4042 127.874 15.7039 128.268 15.966C128.661 16.2259 129.144 16.4691 129.714 16.6936C130.285 16.9203 130.937 17.1669 131.671 17.4389C132.432 17.7088 133.162 17.9852 133.861 18.2661C134.553 18.5481 135.17 18.8864 135.703 19.2834C136.236 19.6793 136.665 20.1537 136.997 20.7088C137.324 21.2651 137.49 21.9606 137.49 22.7966C137.49 24.3823 136.825 25.5821 135.495 26.3971Z" fill="white"/>
<path d="M149.218 25.0679C148.781 26.0134 148.365 26.8627 147.973 27.6191H145.501C144.149 25.1664 142.913 22.571 141.794 19.8352C140.671 17.0983 139.64 14.0773 138.693 10.7753H141.423C141.712 11.9276 142.079 13.1705 142.515 14.5041C142.951 15.841 143.422 17.1647 143.924 18.4773C144.428 19.791 144.937 21.035 145.454 22.2083C145.675 22.7126 145.89 23.1858 146.1 23.626C146.377 24.2098 146.644 24.7373 146.901 25.2073C147.405 24.1269 147.911 22.9669 148.42 21.7262C148.927 20.4866 149.404 19.2359 149.849 17.9753C150.132 17.1713 150.406 16.374 150.669 15.5823L151.107 14.2442C151.501 13.0157 151.855 11.8601 152.169 10.7753H154.385C154.518 11.3846 154.672 12.0171 154.849 12.6707C154.989 13.1816 155.141 13.7057 155.307 14.2442C155.688 15.4706 156.11 16.7191 156.57 17.9907C156.782 18.5812 157.001 19.1695 157.227 19.7534C157.488 20.4246 157.755 21.0903 158.032 21.7527C158.545 22.9923 159.067 24.1545 159.598 25.2404C160.049 24.4155 160.524 23.4125 161.026 22.2293C161.531 21.0472 162.033 19.7998 162.537 18.4872C163.037 17.1746 163.508 15.8488 163.943 14.5107C164.381 13.1738 164.744 11.9287 165.034 10.7753H167.568C166.617 14.0839 165.578 17.105 164.452 19.8397C163.329 22.5743 162.09 25.1664 160.741 27.6191H158.357C157.957 26.8516 157.536 25.9957 157.099 25.0525C156.661 24.1081 156.209 23.0996 155.745 22.0247L155.342 21.0693C155.017 20.2875 154.703 19.4781 154.396 18.641C153.96 17.4577 153.544 16.248 153.149 15.0106C152.757 16.2513 152.344 17.4633 151.908 18.6476C151.477 19.8341 151.028 20.9643 150.565 22.0391C150.103 23.114 149.652 24.1236 149.218 25.0679Z" fill="white"/>
</svg>
