<svg width="179" height="52" viewBox="0 0 179 52" fill="none" xmlns="http://www.w3.org/2000/svg">
<path d="M49.7262 20.803L46.3521 39.9361C46.0011 41.9303 44.143 44.1203 42.2276 44.8134L23.8373 51.437C21.9219 52.1327 19.0744 51.6278 17.5139 50.3267L2.51289 37.8134C0.944752 36.5073 -0.0421703 33.8148 0.306305 31.8206L3.68295 12.6799C4.03397 10.6857 5.89208 8.49565 7.80743 7.80252L26.185 1.18021C28.1004 0.495972 30.948 1.00215 32.5123 2.2994L47.5145 14.7962C49.0789 16.1125 50.0709 18.8113 49.7262 20.8017V20.803Z" fill="#3E4854"/>
<path class='keep' d="M23.6138 30.1009C23.2081 32.1994 23.0961 33.3783 25.2163 33.3783H29.9728L28.9808 37.6745H23.2755C19.9052 37.6745 17.7177 34.4645 18.5914 29.947C18.9348 28.1716 20.0031 23.3565 20.0031 23.3565H16.9062L17.5561 20.0078C20.3757 18.8873 22.7706 16.9059 24.3985 14.3457H26.6814L25.6741 19.466H32.739L31.9708 23.3196H24.9059L23.6138 30.1009Z" fill="white"/>
<path d="M88.137 18.124C83.0867 18.124 79.1288 22.4037 79.1288 27.8686V27.9373C79.1288 33.4939 83.1528 37.6832 88.4868 37.6832C91.3318 37.6832 93.5066 36.812 95.5326 34.87C95.6938 34.7343 95.8238 34.5654 95.9138 34.3749C96.0038 34.1844 96.0516 33.9767 96.0541 33.766C96.053 33.4803 95.9686 33.201 95.8112 32.9626C95.6537 32.7241 95.43 32.5368 95.1676 32.4236C94.9052 32.3104 94.6155 32.2763 94.334 32.3255C94.0525 32.3746 93.7915 32.5049 93.5829 32.7002C92.2385 34.0094 90.4333 34.7375 88.5567 34.7275C85.3645 34.7275 82.971 32.5158 82.5055 29.1875H95.2922C95.7072 29.1865 96.1049 29.0215 96.3986 28.7285C96.6924 28.4354 96.8584 28.0381 96.8604 27.6232C96.8629 22.8997 93.864 18.1253 88.1358 18.1253L88.137 18.124ZM82.508 26.5816C82.9621 23.2838 85.2106 21.011 88.0658 21.011C91.6015 21.011 93.1899 23.8294 93.513 26.5816H82.508ZM102.912 10.8633C102.474 10.8683 102.055 11.047 101.749 11.3601C101.443 11.6732 101.273 12.0951 101.277 12.5332V35.7691C101.275 35.989 101.317 36.2072 101.4 36.4108C101.483 36.6144 101.606 36.7993 101.762 36.9548C101.917 37.1103 102.102 37.2333 102.306 37.3164C102.509 37.3995 102.727 37.4412 102.947 37.439C103.166 37.4415 103.383 37.3998 103.585 37.3162C103.787 37.2327 103.97 37.1091 104.123 36.953C104.275 36.7968 104.395 36.6113 104.475 36.4076C104.554 36.2039 104.591 35.9863 104.584 35.7679V12.5281C104.582 12.086 104.405 11.6627 104.091 11.3508C103.778 11.0389 103.354 10.8636 102.912 10.8633ZM124.709 32.0885C124.525 32.0901 124.343 32.1296 124.174 32.2047C124.006 32.2797 123.854 32.3887 123.73 32.5247C122.216 33.9568 120.631 34.6436 118.887 34.6436C115.317 34.6436 112.533 31.6777 112.533 27.8928V27.8229C112.533 24.0558 115.256 21.1052 118.724 21.1052C120.89 21.1052 122.285 22.1137 123.481 23.224C123.782 23.472 124.161 23.6068 124.551 23.6081C124.976 23.6077 125.383 23.4389 125.683 23.1387C125.984 22.8385 126.152 22.4314 126.153 22.0069C126.15 21.7868 126.1 21.57 126.007 21.3705C125.914 21.1711 125.78 20.9935 125.613 20.8495C123.586 19.0003 121.404 18.1253 118.742 18.1253C113.447 18.1253 109.138 22.5131 109.138 27.9055V27.9742C109.131 30.5331 110.137 32.9908 111.937 34.8101C113.736 36.6294 116.183 37.6624 118.742 37.6832C121.508 37.6832 123.753 36.7281 125.798 34.6817C126.078 34.4007 126.235 34.0217 126.24 33.6261C126.231 33.2225 126.067 32.8378 125.782 32.5519C125.497 32.2659 125.113 32.0992 124.709 32.0885ZM138.431 18.124C137.143 18.1111 135.865 18.3553 134.673 18.8422C133.481 19.3292 132.397 20.0491 131.487 20.9599C130.576 21.8707 129.856 22.954 129.369 24.1464C128.883 25.3388 128.639 26.6164 128.652 27.9043V27.9742C128.706 30.5339 129.763 32.9701 131.595 34.7583C133.427 36.5466 135.888 37.5439 138.449 37.5357C141.009 37.5259 143.463 36.5111 145.283 34.7097C147.102 32.9083 148.141 30.4644 148.177 27.9043V27.8343C148.188 26.5532 147.943 25.2827 147.457 24.0973C146.971 22.9119 146.253 21.8354 145.346 20.9309C144.438 20.0265 143.359 19.3124 142.171 18.8306C140.984 18.3488 139.712 18.1078 138.431 18.124ZM144.785 27.9742C144.785 31.7833 142.062 34.655 138.431 34.655C134.8 34.655 132.031 31.6904 132.031 27.9043V27.8343C132.031 24.0036 134.755 21.1179 138.361 21.1179C141.968 21.1179 144.797 24.0977 144.797 27.9043L144.785 27.9742ZM154.331 18.3313C153.892 18.3364 153.473 18.5153 153.166 18.8289C152.86 19.1425 152.69 19.565 152.694 20.0038V35.7615C152.691 35.982 152.732 36.2009 152.816 36.405C152.899 36.6091 153.023 36.7943 153.18 36.9494C153.336 37.1053 153.521 37.2285 153.725 37.3115C153.929 37.3945 154.148 37.4357 154.368 37.4326C154.586 37.4354 154.803 37.3937 155.005 37.3103C155.207 37.2269 155.389 37.1034 155.542 36.9473C155.695 36.7912 155.814 36.6058 155.893 36.4022C155.973 36.1986 156.009 35.981 156.002 35.7628V20.005C156.005 19.6734 155.909 19.3485 155.726 19.072C155.543 18.7954 155.281 18.58 154.974 18.4534C154.77 18.3703 154.551 18.3288 154.331 18.3313ZM154.331 11.3835C153.242 11.3835 152.45 12.116 152.45 13.1233V13.5862C152.45 14.5782 153.258 15.3286 154.331 15.3286C155.406 15.3286 156.25 14.5782 156.25 13.5862V13.1233C156.25 12.116 155.456 11.3835 154.331 11.3835ZM170.889 18.124C168.416 18.124 166.431 19.0881 164.979 20.9907V20.0038C164.989 19.7806 164.954 19.5577 164.875 19.3487C164.796 19.1396 164.676 18.9488 164.521 18.7879C164.288 18.5454 163.987 18.3795 163.657 18.3123C163.328 18.2452 162.986 18.2799 162.676 18.4119C162.367 18.5438 162.105 18.7668 161.926 19.0512C161.746 19.3356 161.658 19.6678 161.672 20.0038V35.7615C161.669 36.093 161.765 36.4178 161.948 36.6939C162.132 36.9701 162.394 37.1849 162.701 37.3106C162.904 37.3932 163.122 37.4352 163.342 37.4326C163.671 37.4366 163.994 37.3402 164.267 37.1562C164.54 36.9721 164.75 36.7092 164.87 36.4025C164.949 36.199 164.986 35.9815 164.979 35.7628V26.5676C164.979 23.3957 167.097 21.184 170.123 21.184C173.076 21.184 174.84 23.1172 174.84 26.3552V35.7628C174.83 35.9853 174.867 36.2079 174.946 36.4177C175.024 36.6268 175.144 36.8178 175.298 36.979C175.452 37.1401 175.638 37.2681 175.844 37.3551C176.153 37.4867 176.495 37.5212 176.825 37.4539C177.154 37.3867 177.456 37.221 177.689 36.9786C177.843 36.817 177.963 36.6261 178.041 36.4172C178.12 36.2084 178.156 35.9858 178.147 35.7628V25.69C178.151 21.0937 175.303 18.124 170.889 18.124ZM75.2562 21.4994C75.6573 21.5038 76.0439 21.3488 76.3308 21.0683C76.6177 20.7879 76.7815 20.405 76.7862 20.0038C76.7792 19.6017 76.6152 19.2183 76.3293 18.9355C76.0435 18.6527 75.6583 18.4929 75.2562 18.4903H70.8532V15.7254C70.8532 15.5744 70.8111 15.4264 70.7316 15.298C70.6521 15.1696 70.5384 15.0659 70.4032 14.9986C70.268 14.9313 70.1167 14.9031 69.9663 14.9172C69.816 14.9312 69.6725 14.9869 69.5521 15.0781L69.4097 15.223L67.5528 17.057L66.0394 18.5425L64.9253 19.6388L64.5234 20.0343C64.4184 20.1067 64.3326 20.2037 64.2734 20.3167C64.2143 20.4297 64.1835 20.5554 64.1838 20.6829C64.1814 20.7897 64.2004 20.8959 64.2397 20.9953C64.279 21.0947 64.3377 21.1852 64.4125 21.2615C64.4873 21.3378 64.5766 21.3984 64.6751 21.4397C64.7737 21.481 64.8795 21.5022 64.9863 21.502H67.5426V32.147C67.5426 35.647 69.4707 37.5751 72.9707 37.5751C73.9205 37.5903 74.8638 37.4165 75.7458 37.0638C76.025 36.9676 76.2677 36.7873 76.4405 36.5478C76.6133 36.3083 76.7078 36.0212 76.7111 35.7259C76.7116 35.534 76.6742 35.344 76.6011 35.1667C76.528 34.9893 76.4207 34.8281 76.2851 34.6924C76.1496 34.5566 75.9886 34.4489 75.8114 34.3755C75.6342 34.3021 75.4442 34.2644 75.2523 34.2646C75.1252 34.2722 75.0018 34.2964 74.881 34.3345C74.4647 34.4544 74.0335 34.5143 73.6003 34.5126C71.7243 34.5126 70.8506 33.6477 70.8506 31.7896V21.502L75.2562 21.4994Z" fill="white"/>
</svg>
