<svg width="162" height="44" viewBox="0 0 162 44" fill="none" xmlns="http://www.w3.org/2000/svg">
<path d="M46.4262 0H6.81786C1.3654 0 -1.72441 7.05289 1.58862 11.9385L21.3939 41.1726C23.9771 44.9864 29.3356 44.8983 31.8546 41.1726L51.6576 11.9385C54.9684 7.05039 51.8808 0 46.4284 0H46.4262Z" fill="#3E4854"/>
<path class="keep" fill-rule="evenodd" clip-rule="evenodd" d="M48.4001 12.4665C48.2677 12.6931 48.1455 12.9025 48.0701 13.0733L48.0745 13.0708C49.1133 12.6643 50.11 12.3077 50.9985 12.9187L40.9224 27.7876C40.445 26.1117 39.8438 24.6003 39.7289 24.3634C37.9144 20.6649 34.9638 18.6972 33.4697 17.8891C33.1758 17.732 32.8752 18.0737 33.0078 18.3979C36.2277 26.4173 28.8091 27.5566 19.7623 29.471C18.6152 29.6032 17.4483 29.3812 16.4117 28.7777C14.5751 27.7003 13.9849 26.0119 15.0856 24.0242L22.2288 11.3151C22.1935 11.2844 19.5301 9.12189 16.6829 6.81015C14.9026 5.36464 13.0504 3.86077 11.7239 2.78327C11.4477 2.55881 11.682 2.07 12.0024 2.21215L24.7661 7.85347C25.8601 6.52918 27.1376 5.65131 28.5344 5.14254L29.8672 2.40917C29.9865 2.15978 30.3004 2.15978 30.4175 2.40917L31.4651 4.55646L35.4191 1.25946C35.6158 1.09486 35.8965 1.23702 35.9186 1.51384L36.2125 5.39194C38.741 3.90554 41.5236 5.09516 43.1834 6.12266C43.8216 6.51768 43.2904 7.39049 42.8586 8.09993C42.7042 8.3535 42.5626 8.58619 42.4916 8.76875C45.0687 8.30487 47.3319 9.24759 48.8348 10.512C49.3084 10.911 48.8068 11.7699 48.4001 12.4665ZM26.963 14.8488L23.2941 18.5598L23.2963 18.5623C25.6195 19.8319 28.5635 17.3173 26.963 14.8488Z" fill="white"/>
<path class="keep" d="M40.921 27.79L31.8527 41.175C31.4615 41.7536 31.015 42.2449 30.5288 42.6464C31.5073 28.6589 29.3516 27.0055 29.3516 27.0055C33.4032 25.4296 34.5072 22.1379 33.0064 18.4002C32.8738 18.076 33.1744 17.7344 33.4683 17.8915C37.3878 20.0112 40.0191 23.2681 40.921 27.79Z" fill="url(#paint0_linear_1533_10658)"/>
<path d="M131.629 26.3974C132.887 26.3974 134.398 26.2086 136.253 25.2621V19.6739C134.398 21.5031 132.699 21.8513 131.44 21.8513C128.862 21.8513 127.352 20.5247 126.912 20.0834C125.966 19.1687 125.086 17.6215 125.086 15.444C125.086 13.4235 125.905 11.7193 127.068 10.584C128.168 9.51247 129.583 8.94359 131.345 8.94359C133.579 8.94359 135.182 10.0495 136.253 11.1848V5.56709C134.209 4.68434 132.604 4.3999 131.22 4.3999C127.948 4.3999 125.242 5.63084 123.387 7.43066C121.498 9.26236 120.115 11.9768 120.115 15.3533C120.115 18.7298 121.501 21.508 123.387 23.3372C125.149 25.0733 127.76 26.3974 131.629 26.3974Z" fill="white"/>
<path d="M142.167 4.87562L148.678 14.7526L140.972 25.9242H146.791L151.447 18.6342L156.103 25.9242H161.922L154.216 14.7526L160.727 4.87562H154.908L151.447 10.8709L147.986 4.87562H142.167Z" fill="white"/>
<path d="M93.4411 25.9267V4.87562H97.657L109.044 18.4454V4.87562H113.888V25.9267H109.672L98.2851 12.2931V25.9267H93.4411Z" fill="white"/>
<path d="M83.8337 24.0018C85.9087 21.8562 86.1604 19.3625 86.1604 17.342V4.87562H81.3164V17.2144C81.3164 18.1291 81.2553 19.6739 80.2166 20.7479C79.3661 21.6625 78.2028 21.8513 77.2911 21.8513C76.3795 21.8513 75.2138 21.6625 74.3657 20.7479C73.3294 19.6763 73.2659 18.1291 73.2659 17.2144V4.87562H68.4219V17.342C68.4219 19.3625 68.6736 21.8562 70.7486 24.0018C72.7624 26.0836 75.0891 26.3999 77.2911 26.3999C79.4932 26.3999 81.8199 26.0836 83.8337 24.0018Z" fill="white"/>
<path d="M76.6738 40.0348V33.2378L81.2159 38.0761V33.6684H82.1728V40.4255L77.6307 35.5872V40.0348H76.6738Z" fill="white"/>
<path d="M111.099 37.9243L109.447 33.6684H108.415L111.08 40.4429L112.732 35.9282L114.364 40.4429L117.161 33.6684H116.128L114.42 37.9243L112.788 33.3622L111.099 37.9243Z" fill="white"/>
<path fill-rule="evenodd" clip-rule="evenodd" d="M126.015 40.1592C127.89 40.1592 129.27 38.7282 129.27 36.8566C129.27 34.985 127.892 33.5539 126.015 33.5539C124.138 33.5539 122.758 34.985 122.758 36.8566C122.758 38.7282 124.141 40.1592 126.015 40.1592ZM126.015 34.4523C127.356 34.4523 128.313 35.4429 128.313 36.8566C128.313 38.2677 127.356 39.2608 126.015 39.2608C124.674 39.2608 123.717 38.2677 123.717 36.8566C123.717 35.4454 124.674 34.4523 126.015 34.4523Z" fill="white"/>
<path fill-rule="evenodd" clip-rule="evenodd" d="M138.653 34.0417C138.249 33.7629 137.762 33.6684 137.001 33.6684V33.6708H135.885V40.0348H136.842V37.429H137.011L138.802 40.0348H139.957L138.007 37.3145C138.841 37.1253 139.394 36.4558 139.394 35.54C139.394 35.2637 139.338 34.5096 138.653 34.0417ZM137.143 36.5877H136.842V34.5643H137.17C137.64 34.5643 138.474 34.6514 138.474 35.5474C138.474 36.5579 137.405 36.5877 137.143 36.5877Z" fill="white"/>
<path d="M147.206 36.207L149.626 33.6684H150.884L148.06 36.5504L150.904 40.0348H149.626L147.392 37.21L147.203 37.4016V40.0348H146.247V33.6708H147.203V36.2094L147.206 36.207Z" fill="white"/>
<path d="M101.083 34.5842V40.0323H100.126V34.5842H98.6893V33.6684H102.517V34.5842H101.083Z" fill="white"/>
<path d="M92.5737 34.5842H90.0775V36.197H92.4978V37.1129H90.0775V39.1164H92.5737V40.0323H89.1206V33.6684H92.5737V34.5842Z" fill="white"/>
<path d="M156.709 35.9282L157.154 33.6086L157.893 35.2836L158.637 33.6086L159.038 35.9282H158.708L158.493 34.6266L157.876 36.0278L157.264 34.6241L157.042 35.9282H156.709Z" fill="white"/>
<path d="M155.999 35.9282V34.0815H156.484V33.7704H155.186V34.0815H155.673V35.9282H155.999Z" fill="white"/>
<defs>
<linearGradient id="paint0_linear_1533_10658" x1="27.158" y1="32.1943" x2="40.9284" y2="27.7521" gradientUnits="userSpaceOnUse">
<stop stop-color="#2C353F"/>
<stop offset="1" stop-color="white"/>
</linearGradient>
</defs>
</svg>
